<?xml version="1.0" encoding="utf-8"?>
<!-- Generator: Adobe Illustrator 16.0.0, SVG Export Plug-In . SVG Version: 6.00 Build 0)  -->
<!DOCTYPE svg PUBLIC "-//W3C//DTD SVG 1.1//EN" "http://www.w3.org/Graphics/SVG/1.1/DTD/svg11.dtd">
<svg version="1.1" xmlns="http://www.w3.org/2000/svg" xmlns:xlink="http://www.w3.org/1999/xlink" x="0px" y="0px" width="314px"
	 height="88px" viewBox="0 0 314 88" style="enable-background:new 0 0 314 88;" xml:space="preserve">
<style type="text/css">
<![CDATA[
	.st0{fill:#E0D9AB;}
	.st1{fill:#EFECDE;}
	.st2{fill:#BD4828;}
	.st3{fill:#F8F7F1;}
	.st4{fill-rule:evenodd;clip-rule:evenodd;fill:#BD4828;}
	.st5{fill-rule:evenodd;clip-rule:evenodd;}
	.st6{fill:#FFFFFF;}
	.st7{fill:#CEE9F9;}
	.st8{fill:#6B3414;}
	.st9{fill-rule:evenodd;clip-rule:evenodd;fill:#FFFFFF;}
	.st10{fill-rule:evenodd;clip-rule:evenodd;fill:#6B3414;}
]]>
</style>
<g id="Layer_1">
	<polygon class="st2" points="16.8,15.81 16.8,71.31 294.59,71.31 281.17,44.31 294.12,15.89 266.9,15.89 266.9,15.81 	"/>
	<g>
		<g>
			<path class="st3" d="M41.33,32.7v5.77h12.19v7.21H41.33v12.7h-8.04V25.49H55.6v7.2H41.33z"/>
			<path class="st3" d="M63.26,48.4c0,1.03,0.38,1.94,1.13,2.73c0.75,0.79,1.84,1.19,3.26,1.19c1.32,0,2.34-0.18,3.05-0.53
				c0.71-0.35,1.4-0.87,2.08-1.55l4.53,4.51c-0.65,0.64-1.29,1.2-1.94,1.67c-0.65,0.47-1.35,0.88-2.1,1.21
				c-0.75,0.34-1.59,0.59-2.52,0.76s-1.96,0.25-3.09,0.25c-1.39,0-2.78-0.16-4.17-0.48c-1.4-0.32-2.65-0.94-3.77-1.85
				c-1.12-0.91-2.04-2.19-2.75-3.86s-1.08-3.83-1.08-6.51c0-2.03,0.28-3.83,0.83-5.4s1.33-2.9,2.31-3.99
				c0.99-1.09,2.16-1.92,3.52-2.47c1.36-0.55,2.85-0.83,4.49-0.83c1.79,0,3.39,0.31,4.79,0.92c1.4,0.62,2.58,1.46,3.52,2.52
				c0.94,1.06,1.66,2.31,2.15,3.74s0.74,2.96,0.74,4.6v3.37H63.26z M70.7,43.41c0-0.31-0.03-0.63-0.09-0.96s-0.17-0.66-0.33-1
				c-0.25-0.53-0.63-0.99-1.16-1.38s-1.24-0.58-2.14-0.58c-0.9,0-1.61,0.2-2.14,0.58c-0.53,0.39-0.91,0.85-1.16,1.38
				c-0.16,0.34-0.26,0.68-0.33,1s-0.09,0.65-0.09,0.96H70.7z"/>
			<path class="st3" d="M87.23,48.4c0,1.03,0.38,1.94,1.13,2.73c0.75,0.79,1.84,1.19,3.26,1.19c1.32,0,2.34-0.18,3.05-0.53
				c0.71-0.35,1.4-0.87,2.08-1.55l4.53,4.51c-0.65,0.64-1.29,1.2-1.94,1.67c-0.65,0.47-1.35,0.88-2.1,1.21
				c-0.75,0.34-1.59,0.59-2.52,0.76s-1.96,0.25-3.09,0.25c-1.39,0-2.78-0.16-4.17-0.48c-1.4-0.32-2.65-0.94-3.77-1.85
				c-1.12-0.91-2.04-2.19-2.75-3.86s-1.08-3.83-1.08-6.51c0-2.03,0.28-3.83,0.83-5.4s1.33-2.9,2.31-3.99
				c0.99-1.09,2.16-1.92,3.52-2.47c1.36-0.55,2.85-0.83,4.49-0.83c1.79,0,3.39,0.31,4.79,0.92c1.4,0.62,2.58,1.46,3.52,2.52
				c0.94,1.06,1.66,2.31,2.15,3.74s0.74,2.96,0.74,4.6v3.37H87.23z M94.67,43.41c0-0.31-0.03-0.63-0.09-0.96s-0.17-0.66-0.33-1
				c-0.25-0.53-0.63-0.99-1.16-1.38s-1.24-0.58-2.14-0.58c-0.9,0-1.61,0.2-2.14,0.58c-0.53,0.39-0.91,0.85-1.16,1.38
				c-0.16,0.34-0.26,0.68-0.33,1s-0.09,0.65-0.09,0.96H94.67z"/>
			<path class="st3" d="M118.17,58.38l0-2.02c-0.77,0.76-1.6,1.34-2.48,1.72c-0.88,0.38-1.97,0.57-3.27,0.57
				c-1.21,0-2.34-0.2-3.41-0.6c-1.07-0.4-1.95-0.96-2.66-1.66c-0.62-0.62-1.08-1.33-1.39-2.15c-0.31-0.82-0.53-1.69-0.67-2.61
				c-0.14-0.92-0.22-1.87-0.23-2.84c-0.02-0.97-0.02-1.92-0.02-2.84c0-0.92,0.01-1.87,0.02-2.84c0.02-0.97,0.09-1.92,0.23-2.84
				c0.14-0.92,0.36-1.79,0.67-2.61c0.31-0.81,0.77-1.53,1.39-2.15c0.71-0.71,1.59-1.26,2.64-1.66c1.05-0.4,2.18-0.6,3.38-0.6
				c1.24,0,2.29,0.17,3.17,0.5c0.88,0.34,1.68,0.86,2.39,1.56v-9.82h7.53v32.88H118.17z M117.94,45.95c0-0.9-0.03-1.71-0.09-2.44
				c-0.06-0.73-0.2-1.35-0.42-1.86c-0.22-0.51-0.54-0.91-0.96-1.19s-0.99-0.42-1.71-0.42s-1.29,0.14-1.71,0.42s-0.74,0.67-0.96,1.19
				c-0.22,0.51-0.36,1.13-0.42,1.86c-0.06,0.73-0.09,1.54-0.09,2.44c0,0.9,0.03,1.72,0.09,2.44c0.06,0.73,0.2,1.35,0.42,1.86
				c0.22,0.51,0.54,0.91,0.96,1.19s0.99,0.42,1.71,0.42s1.29-0.14,1.71-0.42s0.74-0.67,0.96-1.19c0.22-0.51,0.36-1.13,0.42-1.86
				S117.94,46.85,117.94,45.95z"/>
			<path class="st3" d="M129.35,30.99v-5.77h7.53v5.77H129.35z M129.35,58.38V34.5h7.53v23.88H129.35z"/>
			<path class="st3" d="M154.47,58.38V43.5c0-0.71-0.11-1.29-0.33-1.73s-0.49-0.79-0.81-1.04c-0.33-0.25-0.67-0.42-1.02-0.51
				s-0.66-0.14-0.91-0.14s-0.55,0.05-0.91,0.14s-0.7,0.26-1.02,0.51c-0.33,0.25-0.6,0.59-0.81,1.04s-0.33,1.02-0.33,1.73v14.87
				h-7.53V33.53h7.37v2.03c0.77-0.77,1.67-1.35,2.72-1.73c1.04-0.38,2.06-0.58,3.04-0.58c1.17,0,2.22,0.18,3.16,0.55
				c0.94,0.37,1.74,0.89,2.42,1.57c1.08,1.08,1.76,2.2,2.05,3.37s0.44,2.42,0.44,3.74v15.89H154.47z"/>
			<path class="st3" d="M185.88,56.57c0,1.48-0.27,2.83-0.81,4.06c-0.54,1.23-1.3,2.29-2.28,3.19c-0.98,0.89-2.16,1.59-3.55,2.1
				c-1.39,0.51-2.93,0.76-4.63,0.76c-1.94,0-3.66-0.22-5.17-0.67c-1.51-0.44-2.89-1.29-4.16-2.54l4.71-4.69
				c0.58,0.58,1.22,0.99,1.92,1.22c0.69,0.23,1.47,0.35,2.33,0.35c0.8,0,1.46-0.12,1.99-0.37c0.52-0.25,0.93-0.56,1.22-0.93
				c0.29-0.37,0.5-0.78,0.62-1.23s0.19-0.88,0.19-1.28v-1.81c-0.71,0.7-1.48,1.22-2.32,1.56c-0.84,0.34-1.85,0.5-3.02,0.5
				c-2.39,0-4.33-0.74-5.8-2.22c-0.55-0.55-0.99-1.15-1.31-1.8s-0.55-1.35-0.69-2.12c-0.14-0.77-0.22-1.62-0.25-2.54
				c-0.03-0.92-0.05-1.96-0.05-3.09c0-1.14,0.02-2.17,0.05-3.1c0.03-0.92,0.11-1.77,0.25-2.54s0.37-1.48,0.69-2.12
				s0.76-1.25,1.31-1.8c1.47-1.48,3.42-2.22,5.85-2.22c1.29,0,2.34,0.19,3.15,0.57c0.81,0.38,1.6,0.96,2.37,1.72v-2.02h7.39V56.57z
				 M178.26,45.03c0-0.65-0.02-1.28-0.07-1.87c-0.05-0.59-0.17-1.12-0.37-1.58c-0.2-0.47-0.5-0.84-0.9-1.12
				c-0.4-0.28-0.94-0.42-1.62-0.42c-0.71,0-1.25,0.14-1.64,0.42c-0.39,0.28-0.68,0.65-0.88,1.12c-0.2,0.47-0.32,1-0.37,1.58
				s-0.07,1.21-0.07,1.87s0.02,1.27,0.07,1.86c0.05,0.59,0.17,1.12,0.37,1.59c0.2,0.46,0.49,0.84,0.88,1.12
				c0.38,0.28,0.93,0.42,1.64,0.42c0.68,0,1.22-0.14,1.62-0.42c0.4-0.28,0.7-0.65,0.9-1.12c0.2-0.47,0.32-1,0.37-1.59
				C178.23,46.3,178.26,45.68,178.26,45.03z"/>
		</g>
	</g>
</g>
<g id="Layer_2">
</g>
</svg>
