<?xml version="1.0" encoding="utf-8"?>
<!-- Generator: Adobe Illustrator 16.0.0, SVG Export Plug-In . SVG Version: 6.00 Build 0)  -->
<!DOCTYPE svg PUBLIC "-//W3C//DTD SVG 1.1//EN" "http://www.w3.org/Graphics/SVG/1.1/DTD/svg11.dtd">
<svg version="1.1" xmlns="http://www.w3.org/2000/svg" xmlns:xlink="http://www.w3.org/1999/xlink" x="0px" y="0px" width="314px"
	 height="88px" viewBox="0 0 314 88" style="enable-background:new 0 0 314 88;" xml:space="preserve">
<style type="text/css">
<![CDATA[
	.st0{fill:#E0D9AB;}
	.st1{fill:#EFECDE;}
	.st2{fill:#BD4828;}
	.st3{fill:#F8F7F1;}
	.st4{fill-rule:evenodd;clip-rule:evenodd;fill:#BD4828;}
	.st5{fill-rule:evenodd;clip-rule:evenodd;}
	.st6{fill:#FFFFFF;}
	.st7{fill:#CEE9F9;}
	.st8{fill:#6B3414;}
	.st9{fill-rule:evenodd;clip-rule:evenodd;fill:#FFFFFF;}
	.st10{fill-rule:evenodd;clip-rule:evenodd;fill:#6B3414;}
]]>
</style>
<g id="Layer_1">
	<polygon class="st2" points="19.77,15.81 19.77,71.31 297.55,71.31 284.13,44.31 297.09,15.89 269.87,15.89 269.87,15.81 	"/>
	<g>
		<g>
			<path class="st3" d="M50.43,32.7v25.68H42.4V32.7h-8.08v-7.21h24.2v7.21H50.43z"/>
			<path class="st3" d="M61.43,58.38V25.49h8.04v25.68h13.81v7.21H61.43z"/>
			<path class="st3" d="M108.81,47.94c-0.31,1.82-0.84,3.39-1.59,4.73c-0.75,1.34-1.68,2.46-2.77,3.35
				c-1.09,0.89-2.33,1.55-3.69,1.99c-1.37,0.43-2.84,0.65-4.41,0.65c-1.94,0-3.65-0.32-5.12-0.95s-2.81-1.55-4-2.75
				c-0.86-0.86-1.52-1.79-1.98-2.79s-0.79-2.06-0.99-3.16c-0.2-1.11-0.31-2.26-0.32-3.44c-0.02-1.18-0.02-2.39-0.02-3.62
				s0.01-2.44,0.02-3.62c0.02-1.19,0.12-2.33,0.32-3.44c0.2-1.11,0.53-2.16,0.99-3.16c0.46-1,1.12-1.93,1.98-2.79
				c1.19-1.2,2.53-2.12,4-2.75s3.18-0.95,5.12-0.95c1.57,0,3.04,0.22,4.41,0.65c1.37,0.43,2.6,1.09,3.69,1.99
				c1.09,0.89,2.02,2.01,2.77,3.35c0.75,1.34,1.29,2.92,1.59,4.73h-8.22c-0.25-0.92-0.68-1.74-1.29-2.45
				c-0.62-0.71-1.59-1.06-2.91-1.06c-0.74,0-1.38,0.13-1.92,0.39c-0.54,0.26-0.96,0.59-1.27,0.99c-0.19,0.25-0.35,0.52-0.51,0.83
				c-0.15,0.31-0.28,0.75-0.39,1.34s-0.19,1.35-0.25,2.29c-0.06,0.94-0.09,2.16-0.09,3.67c0,1.51,0.03,2.73,0.09,3.67
				c0.06,0.94,0.15,1.7,0.25,2.29c0.11,0.59,0.24,1.03,0.39,1.34c0.15,0.31,0.32,0.58,0.51,0.83c0.31,0.4,0.73,0.73,1.27,0.99
				c0.54,0.26,1.18,0.39,1.92,0.39c1.32,0,2.29-0.35,2.91-1.06c0.62-0.71,1.05-1.52,1.29-2.45H108.81z"/>
		</g>
	</g>
</g>
<g id="Layer_2">
</g>
</svg>
