<?xml version="1.0" encoding="utf-8"?>
<!-- Generator: Adobe Illustrator 16.0.0, SVG Export Plug-In . SVG Version: 6.00 Build 0)  -->
<!DOCTYPE svg PUBLIC "-//W3C//DTD SVG 1.1//EN" "http://www.w3.org/Graphics/SVG/1.1/DTD/svg11.dtd">
<svg version="1.1" xmlns="http://www.w3.org/2000/svg" xmlns:xlink="http://www.w3.org/1999/xlink" x="0px" y="0px" width="720px"
	 height="519.03px" viewBox="0 0 720 519.03" style="enable-background:new 0 0 720 519.03;" xml:space="preserve">
<style type="text/css">
<![CDATA[
	.st0{fill:#E0D9AB;}
	.st1{fill:#EFECDE;}
	.st2{fill:#BD4828;}
	.st3{fill:#F8F7F1;}
	.st4{fill-rule:evenodd;clip-rule:evenodd;fill:#BD4828;}
	.st5{fill-rule:evenodd;clip-rule:evenodd;}
	.st6{fill:#FFFFFF;}
	.st7{fill:#CEE9F9;}
	.st8{fill:#6B3414;}
	.st9{fill-rule:evenodd;clip-rule:evenodd;fill:#FFFFFF;}
	.st10{fill-rule:evenodd;clip-rule:evenodd;fill:#6B3414;}
]]>
</style>
<g id="Layer_1">
	<polygon class="st3" points="718.57,420.03 718.57,132.05 719,132.05 719,0 -1,0 -1,491.99 719,491.99 719,420.03 	"/>
	<rect x="1" y="451.61" class="st0" width="720" height="67.95"/>
	<g>
		<path class="st8" d="M44.32,126.13l-8.48-15.1l-3.1,3.57v11.53h-8.95V89.32h8.95v13.03l10.65-13.03h11.06l-12.56,14.89
			l12.98,21.92H44.32z"/>
		<path class="st8" d="M58.07,95.47v-6.46h8.43v6.46H58.07z M58.07,126.13V99.4h8.43v26.73H58.07z"/>
		<path class="st8" d="M82.17,126.13c-1.54,0-2.85-0.25-3.93-0.75c-1.08-0.5-1.96-1.14-2.65-1.93s-1.19-1.67-1.52-2.63
			c-0.33-0.96-0.49-1.92-0.49-2.89v-11.97h-2.53V99.4h2.53v-7.96h8.43v7.96h4.4v6.57h-4.4v11.38c0,1.14,0.57,1.71,1.71,1.71h2.69
			v7.08H82.17z"/>
		<path class="st8" d="M100.94,126.13c-1.54,0-2.85-0.25-3.93-0.75c-1.08-0.5-1.96-1.14-2.65-1.93s-1.19-1.67-1.52-2.63
			c-0.33-0.96-0.49-1.92-0.49-2.89v-11.97h-2.53V99.4h2.53v-7.96h8.43v7.96h4.4v6.57h-4.4v11.38c0,1.14,0.57,1.71,1.71,1.71h2.69
			v7.08H100.94z"/>
		<path class="st8" d="M117.38,114.96c0,1.15,0.42,2.17,1.27,3.06c0.84,0.89,2.06,1.33,3.65,1.33c1.48,0,2.62-0.2,3.41-0.59
			c0.79-0.4,1.57-0.97,2.33-1.73l5.07,5.05c-0.72,0.72-1.45,1.34-2.17,1.88c-0.72,0.53-1.51,0.98-2.35,1.36
			c-0.85,0.38-1.78,0.66-2.82,0.85c-1.03,0.19-2.19,0.28-3.46,0.28c-1.55,0-3.11-0.18-4.67-0.54c-1.56-0.36-2.97-1.05-4.22-2.07
			s-2.28-2.46-3.08-4.32s-1.21-4.29-1.21-7.29c0-2.28,0.31-4.29,0.93-6.05s1.49-3.25,2.59-4.47c1.1-1.22,2.42-2.15,3.94-2.77
			c1.52-0.62,3.2-0.93,5.03-0.93c2,0,3.79,0.34,5.36,1.03c1.57,0.69,2.88,1.63,3.94,2.82c1.05,1.19,1.86,2.58,2.41,4.19
			c0.55,1.6,0.83,3.32,0.83,5.14v3.77H117.38z M125.7,109.38c0-0.35-0.03-0.71-0.1-1.07c-0.07-0.37-0.19-0.74-0.36-1.12
			c-0.28-0.59-0.71-1.11-1.3-1.54c-0.59-0.44-1.39-0.66-2.39-0.66c-1.01,0-1.8,0.22-2.39,0.66c-0.59,0.44-1.02,0.95-1.3,1.54
			c-0.17,0.38-0.29,0.76-0.36,1.12c-0.07,0.37-0.1,0.72-0.1,1.07H125.7z"/>
		<path class="st8" d="M154.56,126.13v-16.65c0-0.79-0.12-1.44-0.36-1.94c-0.24-0.5-0.55-0.89-0.91-1.16
			c-0.37-0.28-0.75-0.47-1.15-0.57c-0.4-0.1-0.74-0.16-1.02-0.16c-0.28,0-0.62,0.05-1.02,0.16c-0.4,0.1-0.78,0.29-1.15,0.57
			c-0.37,0.28-0.67,0.66-0.91,1.16c-0.24,0.5-0.36,1.15-0.36,1.94v16.65h-8.43V98.32h8.25v2.28c0.86-0.86,1.87-1.51,3.04-1.94
			c1.17-0.43,2.31-0.65,3.41-0.65c1.31,0,2.49,0.21,3.53,0.62c1.05,0.41,1.95,1,2.71,1.76c1.2,1.21,1.97,2.46,2.3,3.77
			c0.33,1.31,0.49,2.71,0.49,4.19v17.79H154.56z"/>
		<path class="st8" d="M180.67,95.47v-6.46h8.43v6.46H180.67z M180.67,126.13V99.4h8.43v26.73H180.67z"/>
		<path class="st8" d="M217.02,117.03c0,1.66-0.33,3.07-0.98,4.24c-0.66,1.17-1.53,2.15-2.64,2.92c-1.1,0.78-2.38,1.34-3.83,1.71
			c-1.45,0.36-2.98,0.54-4.6,0.54c-1.03,0-2.07-0.04-3.1-0.1c-1.03-0.07-2.06-0.23-3.08-0.49c-1.02-0.26-2.02-0.65-3-1.19
			c-0.98-0.53-1.96-1.28-2.92-2.25l5.48-5.48c0.59,0.59,1.2,1.03,1.84,1.34c0.64,0.31,1.27,0.54,1.89,0.7
			c0.62,0.16,1.19,0.24,1.71,0.26c0.52,0.02,0.96,0.03,1.34,0.03c0.31,0,0.67-0.03,1.09-0.08c0.41-0.05,0.81-0.15,1.19-0.29
			c0.38-0.14,0.7-0.32,0.96-0.54c0.26-0.22,0.39-0.52,0.39-0.9c0-0.38-0.13-0.75-0.39-1.11c-0.26-0.36-0.8-0.58-1.63-0.65
			l-4.29-0.41c-1.21-0.1-2.3-0.33-3.28-0.67s-1.83-0.84-2.53-1.5c-0.71-0.65-1.26-1.46-1.65-2.43c-0.4-0.96-0.59-2.12-0.59-3.46
			c0-1.55,0.32-2.9,0.96-4.03c0.64-1.14,1.47-2.09,2.51-2.87c1.03-0.78,2.21-1.35,3.54-1.73c1.33-0.38,2.68-0.57,4.06-0.57
			c2.28,0,4.33,0.22,6.15,0.67c1.83,0.45,3.43,1.36,4.81,2.74l-5.22,5.22c-0.69-0.69-1.57-1.14-2.64-1.34
			c-1.07-0.21-2.15-0.31-3.26-0.31c-1.03,0-1.75,0.19-2.15,0.57c-0.4,0.38-0.59,0.72-0.59,1.03c0,0.07,0.01,0.18,0.03,0.34
			c0.02,0.16,0.08,0.31,0.18,0.46c0.1,0.16,0.28,0.31,0.52,0.47c0.24,0.16,0.6,0.25,1.09,0.28l4.29,0.41
			c1.45,0.14,2.71,0.45,3.77,0.93c1.07,0.48,1.94,1.1,2.61,1.86c0.67,0.76,1.17,1.62,1.5,2.58
			C216.85,114.9,217.02,115.93,217.02,117.03z"/>
		<path class="st8" d="M233.61,126.13V89.32h9v28.75h15.46v8.07H233.61z"/>
		<path class="st8" d="M285.84,112.22c0,1.38-0.05,2.58-0.16,3.62s-0.27,1.96-0.49,2.79c-0.22,0.83-0.53,1.59-0.93,2.27
			c-0.4,0.69-0.89,1.34-1.47,1.96c-0.83,0.9-1.96,1.72-3.41,2.46c-1.44,0.74-3.28,1.11-5.52,1.11c-2.24,0-4.08-0.37-5.52-1.11
			c-1.44-0.74-2.58-1.56-3.41-2.46c-0.58-0.62-1.08-1.27-1.47-1.96c-0.4-0.69-0.71-1.45-0.93-2.27c-0.22-0.83-0.39-1.76-0.49-2.79
			c-0.1-1.03-0.15-2.24-0.15-3.62c0-1.34,0.05-2.54,0.15-3.59c0.1-1.05,0.27-1.99,0.49-2.82c0.22-0.83,0.53-1.59,0.93-2.28
			s0.89-1.34,1.47-1.96c0.41-0.45,0.9-0.88,1.47-1.29c0.57-0.41,1.21-0.79,1.94-1.14c0.72-0.34,1.54-0.62,2.45-0.83
			c0.91-0.21,1.94-0.31,3.07-0.31c1.13,0,2.16,0.1,3.07,0.31c0.91,0.21,1.73,0.48,2.45,0.83c0.72,0.35,1.37,0.72,1.94,1.14
			c0.57,0.41,1.06,0.85,1.47,1.29c0.58,0.62,1.07,1.28,1.47,1.96s0.71,1.45,0.93,2.28c0.22,0.83,0.39,1.77,0.49,2.82
			C285.78,109.68,285.84,110.88,285.84,112.22z M277.41,112.22c0-1.39-0.07-2.57-0.21-3.54c-0.14-0.97-0.49-1.74-1.04-2.29
			c-0.52-0.52-1.29-0.78-2.29-0.78c-1.01,0-1.77,0.26-2.29,0.78c-0.56,0.56-0.9,1.32-1.04,2.29c-0.14,0.97-0.21,2.15-0.21,3.54
			s0.07,2.57,0.21,3.54c0.14,0.97,0.49,1.74,1.04,2.29c0.52,0.52,1.28,0.78,2.29,0.78c1.01,0,1.77-0.26,2.29-0.78
			c0.56-0.56,0.9-1.32,1.04-2.29C277.34,114.8,277.41,113.61,277.41,112.22z"/>
		<path class="st8" d="M312.77,117.03c0,1.66-0.33,3.07-0.98,4.24c-0.66,1.17-1.53,2.15-2.64,2.92c-1.1,0.78-2.38,1.34-3.83,1.71
			c-1.45,0.36-2.98,0.54-4.6,0.54c-1.03,0-2.07-0.04-3.1-0.1c-1.03-0.07-2.06-0.23-3.08-0.49c-1.02-0.26-2.02-0.65-3-1.19
			c-0.98-0.53-1.96-1.28-2.92-2.25l5.48-5.48c0.59,0.59,1.2,1.03,1.84,1.34c0.64,0.31,1.27,0.54,1.89,0.7
			c0.62,0.16,1.19,0.24,1.71,0.26c0.52,0.02,0.96,0.03,1.34,0.03c0.31,0,0.67-0.03,1.09-0.08c0.41-0.05,0.81-0.15,1.19-0.29
			c0.38-0.14,0.7-0.32,0.96-0.54c0.26-0.22,0.39-0.52,0.39-0.9c0-0.38-0.13-0.75-0.39-1.11c-0.26-0.36-0.8-0.58-1.63-0.65
			l-4.29-0.41c-1.21-0.1-2.3-0.33-3.28-0.67s-1.83-0.84-2.53-1.5c-0.71-0.65-1.26-1.46-1.65-2.43c-0.4-0.96-0.59-2.12-0.59-3.46
			c0-1.55,0.32-2.9,0.96-4.03c0.64-1.14,1.47-2.09,2.51-2.87c1.03-0.78,2.21-1.35,3.54-1.73c1.33-0.38,2.68-0.57,4.06-0.57
			c2.28,0,4.33,0.22,6.15,0.67c1.83,0.45,3.43,1.36,4.81,2.74l-5.22,5.22c-0.69-0.69-1.57-1.14-2.64-1.34
			c-1.07-0.21-2.15-0.31-3.26-0.31c-1.03,0-1.75,0.19-2.15,0.57c-0.4,0.38-0.59,0.72-0.59,1.03c0,0.07,0.01,0.18,0.03,0.34
			c0.02,0.16,0.08,0.31,0.18,0.46c0.1,0.16,0.28,0.31,0.52,0.47c0.24,0.16,0.6,0.25,1.09,0.28l4.29,0.41
			c1.45,0.14,2.71,0.45,3.77,0.93c1.07,0.48,1.94,1.1,2.61,1.86c0.67,0.76,1.17,1.62,1.5,2.58
			C312.61,114.9,312.77,115.93,312.77,117.03z"/>
		<path class="st8" d="M326.06,126.13c-1.54,0-2.85-0.25-3.93-0.75c-1.08-0.5-1.96-1.14-2.65-1.93s-1.19-1.67-1.52-2.63
			c-0.33-0.96-0.49-1.92-0.49-2.89v-11.97h-2.53V99.4h2.53v-7.96h8.43v7.96h4.4v6.57h-4.4v11.38c0,1.14,0.57,1.71,1.71,1.71h2.69
			v7.08H326.06z"/>
	</g>
	<g>
		<path class="st2" d="M51.64,73.42v5.71h-9.53v-5.71H24.19v-9.47l14.33-28.06H49.5L35.12,63.94h6.98v-5.71h9.53v5.71h3.22v9.47
			H51.64z"/>
		<path class="st2" d="M87.1,66.01c0,2.23-0.38,4.18-1.15,5.86c-0.77,1.68-1.8,3.09-3.09,4.22c-1.29,1.13-2.78,1.98-4.45,2.55
			c-1.68,0.57-3.4,0.85-5.18,0.85c-1.78,0-3.5-0.28-5.18-0.85c-1.68-0.57-3.16-1.42-4.45-2.55c-1.29-1.13-2.32-2.54-3.09-4.22
			c-0.77-1.68-1.15-3.63-1.15-5.86V49c0-2.23,0.38-4.18,1.15-5.86s1.8-3.09,3.09-4.22c1.29-1.13,2.78-1.98,4.45-2.55
			c1.68-0.57,3.4-0.85,5.18-0.85c1.78,0,3.5,0.28,5.18,0.85c1.68,0.57,3.16,1.42,4.45,2.55c1.29,1.13,2.32,2.54,3.09,4.22
			S87.1,46.78,87.1,49V66.01z M77.21,48.96c0-1.54-0.4-2.68-1.19-3.42s-1.72-1.1-2.78-1.1c-1.06,0-1.99,0.37-2.78,1.1
			s-1.19,1.87-1.19,3.42v17.14c0,1.55,0.4,2.67,1.19,3.39s1.72,1.07,2.78,1.07c1.06,0,1.99-0.36,2.78-1.07s1.19-1.84,1.19-3.39
			V48.96z"/>
		<path class="st2" d="M119.17,73.42v5.71h-9.53v-5.71H91.72v-9.47l14.33-28.06h10.98l-14.38,28.06h6.98v-5.71h9.53v5.71h3.22v9.47
			H119.17z"/>
		<path class="st2" d="M141.76,79.12V35.89h29.33v9.47h-18.76v7.23h16.03v9.47h-16.03v7.59h18.76v9.47H141.76z"/>
		<path class="st2" d="M200.51,79.12l-7.67-16.09h-3.59v16.09h-10.57V35.89h17.12c2.39,0,4.5,0.39,6.35,1.18
			c1.84,0.79,3.38,1.83,4.62,3.13c1.23,1.3,2.18,2.77,2.82,4.43c0.65,1.66,0.97,3.38,0.97,5.16c0,1.46-0.21,2.79-0.64,4.01
			c-0.43,1.21-0.97,2.29-1.64,3.22c-0.67,0.93-1.42,1.74-2.25,2.43c-0.83,0.69-1.67,1.24-2.53,1.64l9.37,18.04H200.51z
			 M199.99,49.85c0-1.13-0.41-2.15-1.23-3.04s-1.97-1.34-3.44-1.34h-6.08v8.74h6.08c1.47,0,2.62-0.44,3.44-1.34
			C199.58,52,199.99,50.99,199.99,49.85z"/>
		<path class="st2" d="M240.11,79.12l-7.67-16.09h-3.59v16.09h-10.57V35.89h17.12c2.39,0,4.5,0.39,6.35,1.18
			c1.84,0.79,3.38,1.83,4.62,3.13c1.23,1.3,2.18,2.77,2.82,4.43c0.65,1.66,0.97,3.38,0.97,5.16c0,1.46-0.21,2.79-0.64,4.01
			c-0.43,1.21-0.97,2.29-1.64,3.22c-0.67,0.93-1.42,1.74-2.25,2.43c-0.83,0.69-1.67,1.24-2.53,1.64l9.37,18.04H240.11z
			 M239.59,49.85c0-1.13-0.41-2.15-1.23-3.04s-1.97-1.34-3.44-1.34h-6.08v8.74h6.08c1.47,0,2.62-0.44,3.44-1.34
			C239.18,52,239.59,50.99,239.59,49.85z"/>
		<path class="st2" d="M289.32,57.5c0,1.62-0.01,3.21-0.03,4.77c-0.02,1.56-0.16,3.07-0.42,4.52c-0.26,1.46-0.7,2.84-1.3,4.16
			c-0.61,1.32-1.48,2.54-2.61,3.67c-1.58,1.58-3.31,2.78-5.21,3.61c-1.9,0.83-4.18,1.25-6.85,1.25c-2.67,0-4.95-0.41-6.85-1.25
			c-1.9-0.83-3.64-2.03-5.21-3.61c-1.13-1.13-2-2.36-2.61-3.67c-0.61-1.32-1.04-2.7-1.3-4.16c-0.26-1.46-0.4-2.97-0.42-4.52
			c-0.02-1.56-0.03-3.15-0.03-4.77c0-1.62,0.01-3.21,0.03-4.77c0.02-1.56,0.16-3.07,0.42-4.52c0.26-1.46,0.7-2.84,1.3-4.16
			c0.61-1.31,1.48-2.54,2.61-3.67c1.58-1.58,3.31-2.78,5.21-3.61c1.9-0.83,4.18-1.25,6.85-1.25c2.67,0,4.95,0.42,6.85,1.25
			c1.9,0.83,3.64,2.03,5.21,3.61c1.13,1.13,2,2.36,2.61,3.67c0.61,1.32,1.04,2.7,1.3,4.16c0.26,1.46,0.4,2.97,0.42,4.52
			C289.31,54.3,289.32,55.89,289.32,57.5z M278.76,57.5c0-1.98-0.04-3.59-0.12-4.83c-0.08-1.23-0.18-2.23-0.3-2.98
			c-0.12-0.75-0.29-1.33-0.49-1.73c-0.2-0.4-0.43-0.77-0.67-1.09c-0.41-0.53-0.98-0.97-1.71-1.34c-0.73-0.36-1.59-0.55-2.56-0.55
			c-0.98,0-1.83,0.18-2.56,0.55s-1.3,0.81-1.71,1.34c-0.24,0.32-0.47,0.69-0.67,1.09c-0.2,0.41-0.37,0.98-0.49,1.73
			c-0.12,0.75-0.22,1.74-0.31,2.98c-0.08,1.24-0.12,2.84-0.12,4.83c0,1.98,0.04,3.58,0.12,4.8s0.18,2.2,0.31,2.95
			c0.12,0.75,0.28,1.33,0.49,1.73c0.2,0.41,0.43,0.77,0.67,1.09c0.41,0.53,0.98,0.98,1.71,1.37s1.59,0.58,2.56,0.58
			c0.98,0,1.83-0.19,2.56-0.58c0.73-0.38,1.3-0.84,1.71-1.37c0.24-0.32,0.47-0.69,0.67-1.09c0.2-0.4,0.37-0.98,0.49-1.73
			c0.12-0.75,0.22-1.73,0.3-2.95S278.76,59.49,278.76,57.5z"/>
		<path class="st2" d="M318.56,79.12l-7.67-16.09h-3.59v16.09h-10.57V35.89h17.12c2.39,0,4.5,0.39,6.35,1.18
			c1.84,0.79,3.38,1.83,4.62,3.13c1.23,1.3,2.18,2.77,2.82,4.43c0.65,1.66,0.97,3.38,0.97,5.16c0,1.46-0.21,2.79-0.64,4.01
			c-0.43,1.21-0.97,2.29-1.64,3.22c-0.67,0.93-1.42,1.74-2.25,2.43c-0.83,0.69-1.67,1.24-2.53,1.64l9.37,18.04H318.56z
			 M318.05,49.85c0-1.13-0.41-2.15-1.23-3.04s-1.97-1.34-3.44-1.34h-6.08v8.74h6.08c1.47,0,2.62-0.44,3.44-1.34
			C317.64,52,318.05,50.99,318.05,49.85z"/>
	</g>
	<g>
		<path class="st8" d="M36.89,143.09c0,0.63-0.11,1.23-0.34,1.82c-0.23,0.58-0.56,1.11-0.99,1.56c-0.44,0.46-0.98,0.82-1.63,1.1
			c-0.65,0.28-1.39,0.42-2.24,0.42H29.4v5.43h-3.72v-15.23h6.02c0.84,0,1.58,0.14,2.23,0.42c0.65,0.28,1.19,0.65,1.62,1.1
			c0.43,0.46,0.76,0.98,0.99,1.56C36.77,141.86,36.89,142.46,36.89,143.09z M33.17,143.09c0-0.39-0.14-0.75-0.43-1.05
			s-0.69-0.46-1.2-0.46H29.4v3.04h2.13c0.52,0,0.92-0.15,1.2-0.46S33.17,143.49,33.17,143.09z"/>
		<path class="st8" d="M44.25,153.42l0-0.94c-0.36,0.36-0.72,0.62-1.09,0.79c-0.37,0.17-0.86,0.26-1.48,0.26
			c-0.58,0-1.11-0.09-1.57-0.27c-0.46-0.18-0.86-0.43-1.19-0.76c-0.33-0.33-0.58-0.72-0.75-1.19c-0.17-0.46-0.26-0.97-0.26-1.51
			c0-0.43,0.07-0.84,0.22-1.25c0.15-0.41,0.38-0.76,0.71-1.07c0.32-0.31,0.73-0.55,1.22-0.74c0.49-0.19,1.08-0.28,1.76-0.28h2.33
			v-0.3c0-0.53-0.14-0.91-0.41-1.13c-0.27-0.22-0.71-0.33-1.33-0.33c-0.46,0-0.81,0.06-1.05,0.17c-0.24,0.11-0.51,0.31-0.79,0.6
			l-2.18-2.17c0.3-0.3,0.59-0.54,0.88-0.73s0.6-0.35,0.93-0.47s0.7-0.21,1.08-0.25c0.38-0.05,0.82-0.07,1.3-0.07
			c1.65,0,2.9,0.34,3.76,1.03c0.86,0.68,1.29,1.73,1.29,3.14v7.46H44.25z M44.16,148.8h-1.78c-0.34,0-0.61,0.09-0.81,0.26
			s-0.3,0.39-0.3,0.66c0,0.26,0.1,0.48,0.29,0.67s0.48,0.29,0.87,0.29c0.34,0,0.61-0.03,0.8-0.08c0.19-0.05,0.39-0.17,0.59-0.35
			c0.23-0.21,0.34-0.6,0.34-1.16V148.8z"/>
		<path class="st8" d="M59.47,152.59c0,0.68-0.13,1.31-0.38,1.88s-0.6,1.06-1.05,1.48c-0.45,0.41-1,0.74-1.64,0.97
			c-0.64,0.24-1.36,0.35-2.14,0.35c-0.9,0-1.7-0.1-2.4-0.31c-0.7-0.21-1.34-0.6-1.92-1.18l2.18-2.17c0.27,0.27,0.57,0.46,0.89,0.57
			c0.32,0.11,0.68,0.16,1.08,0.16c0.37,0,0.68-0.06,0.92-0.17c0.24-0.12,0.43-0.26,0.57-0.43c0.14-0.17,0.23-0.36,0.29-0.57
			c0.06-0.21,0.09-0.4,0.09-0.59v-0.84c-0.33,0.33-0.69,0.57-1.08,0.72c-0.39,0.16-0.86,0.23-1.4,0.23c-1.11,0-2-0.34-2.69-1.03
			c-0.26-0.26-0.46-0.53-0.61-0.83s-0.26-0.63-0.32-0.98c-0.06-0.36-0.1-0.75-0.12-1.18s-0.02-0.91-0.02-1.43
			c0-0.53,0.01-1,0.02-1.43s0.05-0.82,0.12-1.18c0.06-0.36,0.17-0.68,0.32-0.98s0.35-0.58,0.61-0.83c0.68-0.68,1.58-1.03,2.71-1.03
			c0.6,0,1.08,0.09,1.46,0.27c0.38,0.18,0.74,0.44,1.1,0.8v-0.93h3.42V152.59z M55.94,147.24c0-0.3-0.01-0.59-0.03-0.86
			c-0.02-0.27-0.08-0.52-0.17-0.73s-0.23-0.39-0.42-0.52c-0.19-0.13-0.44-0.19-0.75-0.19c-0.33,0-0.58,0.07-0.76,0.19
			c-0.18,0.13-0.31,0.3-0.41,0.52c-0.09,0.22-0.15,0.46-0.17,0.73s-0.03,0.56-0.03,0.86c0,0.3,0.01,0.59,0.03,0.86
			s0.08,0.52,0.17,0.73c0.09,0.22,0.23,0.39,0.41,0.52c0.18,0.13,0.43,0.19,0.76,0.19c0.31,0,0.56-0.06,0.75-0.19
			c0.19-0.13,0.32-0.3,0.42-0.52s0.15-0.46,0.17-0.73C55.93,147.83,55.94,147.54,55.94,147.24z"/>
		<path class="st8" d="M65.03,148.8c0,0.48,0.17,0.9,0.52,1.27c0.35,0.37,0.85,0.55,1.51,0.55c0.61,0,1.08-0.08,1.41-0.25
			s0.65-0.4,0.96-0.72l2.1,2.09c-0.3,0.3-0.6,0.56-0.9,0.78c-0.3,0.22-0.62,0.41-0.97,0.56c-0.35,0.16-0.74,0.27-1.17,0.35
			c-0.43,0.08-0.91,0.12-1.43,0.12c-0.64,0-1.29-0.07-1.93-0.22c-0.65-0.15-1.23-0.43-1.75-0.86c-0.52-0.42-0.94-1.02-1.28-1.79
			c-0.33-0.77-0.5-1.78-0.5-3.02c0-0.94,0.13-1.78,0.39-2.5s0.61-1.34,1.07-1.85c0.46-0.51,1-0.89,1.63-1.14s1.32-0.38,2.08-0.38
			c0.83,0,1.57,0.14,2.22,0.43c0.65,0.29,1.19,0.67,1.63,1.17c0.44,0.49,0.77,1.07,1,1.73s0.34,1.37,0.34,2.13v1.56H65.03z
			 M68.48,146.49c0-0.14-0.01-0.29-0.04-0.44c-0.03-0.15-0.08-0.31-0.15-0.46c-0.11-0.25-0.29-0.46-0.54-0.64
			c-0.24-0.18-0.57-0.27-0.99-0.27c-0.42,0-0.75,0.09-0.99,0.27c-0.24,0.18-0.42,0.39-0.54,0.64c-0.07,0.16-0.12,0.31-0.15,0.46
			c-0.03,0.15-0.04,0.3-0.04,0.44H68.48z"/>
		<path class="st8" d="M79.04,153.42v-15.23h10.33v3.34h-6.61v2.54h5.65v3.34h-5.65v2.67h6.61v3.34H79.04z"/>
		<path class="st8" d="M97.99,145.55c-0.17-0.17-0.35-0.31-0.53-0.43c-0.19-0.11-0.43-0.17-0.73-0.17c-0.11,0-0.25,0.02-0.42,0.06
			s-0.32,0.12-0.47,0.24c-0.15,0.11-0.27,0.27-0.37,0.48c-0.1,0.21-0.15,0.47-0.15,0.8v6.89h-3.49v-11.51h3.4l0,0.94
			c0.26-0.26,0.62-0.5,1.1-0.73c0.48-0.23,1.02-0.34,1.61-0.34c0.57,0,1.06,0.08,1.48,0.24c0.41,0.16,0.82,0.43,1.22,0.83
			L97.99,145.55z"/>
		<path class="st8" d="M108.15,145.55c-0.17-0.17-0.35-0.31-0.53-0.43c-0.19-0.11-0.43-0.17-0.73-0.17c-0.11,0-0.25,0.02-0.42,0.06
			s-0.32,0.12-0.47,0.24c-0.15,0.11-0.27,0.27-0.37,0.48c-0.1,0.21-0.15,0.47-0.15,0.8v6.89h-3.49v-11.51h3.4l0,0.94
			c0.26-0.26,0.62-0.5,1.1-0.73c0.48-0.23,1.02-0.34,1.61-0.34c0.57,0,1.06,0.08,1.48,0.24c0.41,0.16,0.82,0.43,1.22,0.83
			L108.15,145.55z"/>
		<path class="st8" d="M120.98,147.67c0,0.57-0.02,1.07-0.06,1.5c-0.04,0.43-0.11,0.81-0.2,1.15c-0.09,0.34-0.22,0.66-0.38,0.94
			s-0.37,0.56-0.61,0.81c-0.34,0.37-0.81,0.71-1.41,1.02c-0.6,0.31-1.36,0.46-2.28,0.46c-0.93,0-1.69-0.15-2.28-0.46
			s-1.07-0.65-1.41-1.02c-0.24-0.26-0.44-0.53-0.61-0.81s-0.29-0.6-0.38-0.94c-0.09-0.34-0.16-0.73-0.2-1.15
			c-0.04-0.43-0.06-0.93-0.06-1.5c0-0.56,0.02-1.05,0.06-1.49c0.04-0.43,0.11-0.82,0.2-1.17c0.09-0.34,0.22-0.66,0.38-0.94
			s0.37-0.56,0.61-0.81c0.17-0.19,0.37-0.36,0.61-0.54c0.23-0.17,0.5-0.33,0.8-0.47c0.3-0.14,0.64-0.26,1.01-0.34
			s0.8-0.13,1.27-0.13c0.47,0,0.89,0.04,1.27,0.13s0.72,0.2,1.01,0.34c0.3,0.14,0.57,0.3,0.8,0.47c0.23,0.17,0.44,0.35,0.61,0.54
			c0.24,0.26,0.44,0.53,0.61,0.81s0.29,0.6,0.38,0.94c0.09,0.34,0.16,0.73,0.2,1.17C120.96,146.62,120.98,147.11,120.98,147.67z
			 M117.5,147.67c0-0.58-0.03-1.06-0.09-1.47c-0.06-0.4-0.2-0.72-0.43-0.95c-0.22-0.21-0.53-0.32-0.95-0.32
			c-0.42,0-0.73,0.11-0.95,0.32c-0.23,0.23-0.37,0.55-0.43,0.95s-0.09,0.89-0.09,1.47c0,0.57,0.03,1.06,0.09,1.46
			s0.2,0.72,0.43,0.95c0.22,0.22,0.53,0.32,0.95,0.32c0.42,0,0.73-0.11,0.95-0.32c0.23-0.23,0.37-0.55,0.43-0.95
			C117.47,148.73,117.5,148.24,117.5,147.67z"/>
		<path class="st8" d="M129.41,145.55c-0.17-0.17-0.35-0.31-0.53-0.43c-0.19-0.11-0.43-0.17-0.73-0.17c-0.11,0-0.25,0.02-0.42,0.06
			s-0.32,0.12-0.47,0.24c-0.15,0.11-0.27,0.27-0.37,0.48c-0.1,0.21-0.15,0.47-0.15,0.8v6.89h-3.49v-11.51h3.4l0,0.94
			c0.26-0.26,0.62-0.5,1.1-0.73c0.48-0.23,1.02-0.34,1.61-0.34c0.57,0,1.06,0.08,1.48,0.24c0.41,0.16,0.82,0.43,1.22,0.83
			L129.41,145.55z"/>
	</g>
	<g>
		<path class="st8" d="M52.57,486.64c0,0.64-0.13,1.22-0.39,1.72s-0.62,0.92-1.06,1.26c-0.45,0.34-0.97,0.6-1.57,0.77
			c-0.6,0.17-1.23,0.26-1.9,0.26c-0.49,0-0.95-0.03-1.4-0.08c-0.44-0.05-0.87-0.14-1.27-0.27c-0.41-0.13-0.79-0.3-1.15-0.51
			c-0.36-0.21-0.7-0.49-1.02-0.82l2-2c0.33,0.33,0.76,0.57,1.29,0.7c0.52,0.13,1.04,0.2,1.56,0.2c1.22,0,1.83-0.38,1.83-1.15
			c0-0.32-0.08-0.57-0.25-0.75c-0.18-0.18-0.46-0.29-0.84-0.34l-1.54-0.21c-1.13-0.17-1.99-0.54-2.56-1.13
			c-0.58-0.6-0.88-1.45-0.88-2.56c0-0.58,0.11-1.12,0.32-1.61c0.21-0.49,0.52-0.91,0.92-1.27c0.4-0.36,0.89-0.64,1.46-0.84
			c0.57-0.2,1.22-0.3,1.95-0.3c0.92,0,1.73,0.12,2.42,0.35c0.7,0.23,1.32,0.62,1.87,1.17l-1.97,1.97c-0.2-0.2-0.42-0.35-0.64-0.46
			c-0.23-0.1-0.45-0.18-0.66-0.22c-0.21-0.05-0.42-0.07-0.61-0.07c-0.19,0-0.36,0-0.5,0c-0.27,0-0.51,0.04-0.7,0.11
			c-0.19,0.07-0.35,0.16-0.47,0.28c-0.13,0.11-0.22,0.24-0.28,0.38c-0.06,0.14-0.09,0.28-0.09,0.42c0,0.08,0.02,0.18,0.05,0.29
			c0.04,0.11,0.1,0.21,0.2,0.3c0.08,0.08,0.19,0.16,0.33,0.23c0.14,0.07,0.32,0.12,0.55,0.14l1.54,0.21
			c1.12,0.16,1.96,0.51,2.5,1.06c0.35,0.33,0.59,0.73,0.73,1.2C52.49,485.51,52.57,486.04,52.57,486.64z"/>
		<path class="st8" d="M62.39,485.72c0,0.48-0.02,0.89-0.05,1.25c-0.04,0.36-0.09,0.68-0.17,0.97c-0.08,0.29-0.18,0.55-0.32,0.79
			c-0.14,0.24-0.31,0.46-0.51,0.68c-0.29,0.31-0.68,0.59-1.18,0.85c-0.5,0.26-1.14,0.38-1.91,0.38c-0.77,0-1.41-0.13-1.91-0.38
			c-0.5-0.26-0.89-0.54-1.18-0.85c-0.2-0.21-0.37-0.44-0.51-0.68c-0.14-0.24-0.24-0.5-0.32-0.79c-0.08-0.29-0.13-0.61-0.17-0.97
			s-0.05-0.78-0.05-1.25c0-0.47,0.02-0.88,0.05-1.24c0.04-0.36,0.09-0.69,0.17-0.97c0.08-0.29,0.18-0.55,0.32-0.79
			c0.14-0.24,0.31-0.47,0.51-0.68c0.14-0.15,0.31-0.3,0.51-0.45c0.2-0.14,0.42-0.27,0.67-0.39c0.25-0.12,0.53-0.21,0.85-0.29
			s0.67-0.11,1.06-0.11s0.75,0.04,1.06,0.11c0.32,0.07,0.6,0.17,0.85,0.29c0.25,0.12,0.47,0.25,0.67,0.39
			c0.2,0.14,0.37,0.29,0.51,0.45c0.2,0.21,0.37,0.44,0.51,0.68c0.14,0.24,0.24,0.5,0.32,0.79s0.13,0.61,0.17,0.97
			C62.37,484.84,62.39,485.26,62.39,485.72z M59.47,485.72c0-0.48-0.02-0.89-0.07-1.23c-0.05-0.34-0.17-0.6-0.36-0.79
			c-0.18-0.18-0.44-0.27-0.79-0.27s-0.61,0.09-0.79,0.27c-0.19,0.19-0.31,0.46-0.36,0.79c-0.05,0.34-0.07,0.75-0.07,1.23
			c0,0.48,0.02,0.89,0.07,1.23c0.05,0.34,0.17,0.6,0.36,0.79c0.18,0.18,0.44,0.27,0.79,0.27s0.61-0.09,0.79-0.27
			c0.19-0.19,0.31-0.46,0.36-0.79C59.45,486.61,59.47,486.21,59.47,485.72z"/>
		<path class="st8" d="M75.68,487.39c0,0.57-0.11,1.06-0.34,1.47s-0.53,0.74-0.91,1.01c-0.38,0.27-0.82,0.46-1.32,0.59
			c-0.5,0.12-1.03,0.19-1.59,0.19c-0.36,0-0.72-0.01-1.07-0.04c-0.36-0.02-0.71-0.08-1.06-0.17c-0.35-0.09-0.7-0.23-1.04-0.41
			s-0.68-0.44-1.01-0.78l1.9-1.9c0.2,0.2,0.41,0.36,0.63,0.46s0.44,0.19,0.65,0.24c0.21,0.05,0.41,0.08,0.59,0.09
			s0.33,0.01,0.47,0.01c0.11,0,0.23-0.01,0.38-0.03c0.14-0.02,0.28-0.05,0.41-0.1s0.24-0.11,0.33-0.19
			c0.09-0.08,0.13-0.18,0.13-0.31c0-0.13-0.04-0.26-0.13-0.38s-0.28-0.2-0.56-0.22l-1.49-0.14c-0.42-0.04-0.8-0.11-1.14-0.23
			c-0.34-0.12-0.63-0.29-0.88-0.52c-0.24-0.23-0.44-0.51-0.57-0.84s-0.21-0.73-0.21-1.2c0-0.54,0.11-1,0.33-1.4s0.51-0.72,0.87-0.99
			c0.36-0.27,0.77-0.47,1.23-0.6c0.46-0.13,0.93-0.2,1.4-0.2c0.79,0,1.5,0.08,2.13,0.23c0.63,0.16,1.19,0.47,1.66,0.95l-1.81,1.81
			c-0.24-0.24-0.54-0.39-0.91-0.46c-0.37-0.07-0.75-0.11-1.13-0.11c-0.36,0-0.61,0.07-0.74,0.2c-0.14,0.13-0.21,0.25-0.21,0.36
			c0,0.02,0,0.06,0.01,0.12c0.01,0.05,0.03,0.11,0.06,0.16c0.04,0.05,0.1,0.11,0.18,0.16c0.08,0.05,0.21,0.09,0.38,0.1l1.48,0.14
			c0.5,0.05,0.94,0.16,1.31,0.32s0.67,0.38,0.9,0.64c0.23,0.26,0.41,0.56,0.52,0.89S75.68,487.01,75.68,487.39z"/>
		<path class="st8" d="M85.22,485.72c0,0.48-0.02,0.89-0.05,1.25c-0.04,0.36-0.09,0.68-0.17,0.97c-0.08,0.29-0.18,0.55-0.32,0.79
			c-0.14,0.24-0.31,0.46-0.51,0.68c-0.29,0.31-0.68,0.59-1.18,0.85c-0.5,0.26-1.14,0.38-1.91,0.38c-0.77,0-1.41-0.13-1.91-0.38
			c-0.5-0.26-0.89-0.54-1.18-0.85c-0.2-0.21-0.37-0.44-0.51-0.68c-0.14-0.24-0.24-0.5-0.32-0.79c-0.08-0.29-0.13-0.61-0.17-0.97
			s-0.05-0.78-0.05-1.25c0-0.47,0.02-0.88,0.05-1.24c0.04-0.36,0.09-0.69,0.17-0.97c0.08-0.29,0.18-0.55,0.32-0.79
			c0.14-0.24,0.31-0.47,0.51-0.68c0.14-0.15,0.31-0.3,0.51-0.45c0.2-0.14,0.42-0.27,0.67-0.39c0.25-0.12,0.53-0.21,0.85-0.29
			s0.67-0.11,1.06-0.11s0.75,0.04,1.06,0.11c0.32,0.07,0.6,0.17,0.85,0.29c0.25,0.12,0.47,0.25,0.67,0.39
			c0.2,0.14,0.37,0.29,0.51,0.45c0.2,0.21,0.37,0.44,0.51,0.68c0.14,0.24,0.24,0.5,0.32,0.79s0.13,0.61,0.17,0.97
			C85.2,484.84,85.22,485.26,85.22,485.72z M82.3,485.72c0-0.48-0.02-0.89-0.07-1.23c-0.05-0.34-0.17-0.6-0.36-0.79
			c-0.18-0.18-0.44-0.27-0.79-0.27s-0.61,0.09-0.79,0.27c-0.19,0.19-0.31,0.46-0.36,0.79c-0.05,0.34-0.07,0.75-0.07,1.23
			c0,0.48,0.02,0.89,0.07,1.23c0.05,0.34,0.17,0.6,0.36,0.79c0.18,0.18,0.44,0.27,0.79,0.27s0.61-0.09,0.79-0.27
			c0.19-0.19,0.31-0.46,0.36-0.79C82.28,486.61,82.3,486.21,82.3,485.72z"/>
		<path class="st8" d="M92.27,483.95c-0.14-0.14-0.29-0.26-0.45-0.36c-0.16-0.09-0.36-0.14-0.61-0.14c-0.1,0-0.21,0.02-0.35,0.05
			c-0.14,0.04-0.27,0.1-0.39,0.2c-0.12,0.1-0.23,0.23-0.31,0.4c-0.08,0.17-0.12,0.4-0.12,0.67v5.76h-2.92v-9.63h2.84l0,0.79
			c0.21-0.21,0.52-0.42,0.92-0.61c0.4-0.19,0.85-0.29,1.35-0.29c0.48,0,0.89,0.07,1.23,0.2c0.35,0.13,0.69,0.36,1.02,0.7
			L92.27,483.95z"/>
		<path class="st8" d="M100.77,483.95c-0.14-0.14-0.29-0.26-0.45-0.36c-0.16-0.09-0.36-0.14-0.61-0.14c-0.1,0-0.21,0.02-0.35,0.05
			c-0.14,0.04-0.27,0.1-0.39,0.2c-0.12,0.1-0.23,0.23-0.31,0.4c-0.08,0.17-0.12,0.4-0.12,0.67v5.76h-2.92v-9.63h2.84l0,0.79
			c0.21-0.21,0.52-0.42,0.92-0.61c0.4-0.19,0.85-0.29,1.35-0.29c0.48,0,0.89,0.07,1.23,0.2c0.35,0.13,0.69,0.36,1.02,0.7
			L100.77,483.95z"/>
		<path class="st8" d="M108.35,491.68c-0.19,0.54-0.44,0.96-0.75,1.27c-0.29,0.31-0.61,0.52-0.98,0.64s-0.76,0.17-1.19,0.17h-1.11
			v-2.63h0.63c0.26,0,0.47-0.04,0.62-0.13c0.15-0.09,0.27-0.28,0.37-0.58l0.27-0.81l-3.2-8.69h3.08l1.63,4.99l1.56-4.99h3.08
			L108.35,491.68z"/>
		<path class="st8" d="M113.22,493.72v-6.3h3.11v4.01L113.22,493.72z"/>
		<path class="st8" d="M125.62,490.54c-0.53,0-0.99-0.09-1.36-0.26c-0.37-0.17-0.68-0.4-0.92-0.67c-0.24-0.27-0.41-0.58-0.52-0.91
			c-0.11-0.33-0.17-0.67-0.17-1v-4.14h-0.88v-2.27h0.88v-2.76h2.92v2.76h1.52v2.27h-1.52v3.94c0,0.39,0.2,0.59,0.59,0.59h0.93v2.45
			H125.62z"/>
		<path class="st8" d="M134.11,490.54v-5.85c0-0.26-0.04-0.47-0.13-0.64c-0.08-0.16-0.18-0.29-0.3-0.38
			c-0.11-0.09-0.24-0.15-0.37-0.19c-0.13-0.04-0.25-0.05-0.34-0.05s-0.21,0.02-0.34,0.05c-0.13,0.04-0.26,0.1-0.37,0.19
			c-0.11,0.09-0.21,0.22-0.3,0.38c-0.08,0.16-0.13,0.37-0.13,0.64v5.85h-2.92V477.8h2.92v3.89c0.31-0.31,0.65-0.53,1.01-0.67
			c0.36-0.14,0.73-0.21,1.1-0.21c0.51,0,0.96,0.09,1.35,0.27c0.39,0.18,0.71,0.43,0.97,0.74c0.26,0.32,0.45,0.69,0.57,1.11
			c0.13,0.42,0.19,0.88,0.19,1.37v6.24H134.11z"/>
		<path class="st8" d="M139.18,479.93v-2.24h2.92v2.24H139.18z M139.18,490.54v-9.25h2.92v9.25H139.18z"/>
		<path class="st8" d="M151.76,487.39c0,0.57-0.11,1.06-0.34,1.47s-0.53,0.74-0.91,1.01c-0.38,0.27-0.82,0.46-1.32,0.59
			c-0.5,0.12-1.03,0.19-1.59,0.19c-0.36,0-0.72-0.01-1.07-0.04c-0.36-0.02-0.71-0.08-1.06-0.17c-0.35-0.09-0.7-0.23-1.04-0.41
			s-0.68-0.44-1.01-0.78l1.9-1.9c0.2,0.2,0.41,0.36,0.63,0.46s0.44,0.19,0.65,0.24c0.21,0.05,0.41,0.08,0.59,0.09
			s0.33,0.01,0.47,0.01c0.11,0,0.23-0.01,0.38-0.03c0.14-0.02,0.28-0.05,0.41-0.1s0.24-0.11,0.33-0.19
			c0.09-0.08,0.13-0.18,0.13-0.31c0-0.13-0.04-0.26-0.13-0.38s-0.28-0.2-0.56-0.22l-1.49-0.14c-0.42-0.04-0.8-0.11-1.14-0.23
			c-0.34-0.12-0.63-0.29-0.88-0.52c-0.24-0.23-0.44-0.51-0.57-0.84s-0.21-0.73-0.21-1.2c0-0.54,0.11-1,0.33-1.4s0.51-0.72,0.87-0.99
			c0.36-0.27,0.77-0.47,1.23-0.6c0.46-0.13,0.93-0.2,1.4-0.2c0.79,0,1.5,0.08,2.13,0.23c0.63,0.16,1.19,0.47,1.66,0.95l-1.81,1.81
			c-0.24-0.24-0.54-0.39-0.91-0.46c-0.37-0.07-0.75-0.11-1.13-0.11c-0.36,0-0.61,0.07-0.74,0.2c-0.14,0.13-0.21,0.25-0.21,0.36
			c0,0.02,0,0.06,0.01,0.12c0.01,0.05,0.03,0.11,0.06,0.16c0.04,0.05,0.1,0.11,0.18,0.16c0.08,0.05,0.21,0.09,0.38,0.1l1.48,0.14
			c0.5,0.05,0.94,0.16,1.31,0.32s0.67,0.38,0.9,0.64c0.23,0.26,0.41,0.56,0.52,0.89S151.76,487.01,151.76,487.39z"/>
		<path class="st8" d="M165.6,485.72c0,0.36,0,0.72-0.01,1.1c-0.01,0.38-0.04,0.74-0.09,1.1c-0.05,0.36-0.14,0.7-0.26,1.01
			c-0.12,0.32-0.3,0.59-0.53,0.83c-0.27,0.27-0.61,0.49-1.01,0.64c-0.4,0.15-0.83,0.23-1.3,0.23c-0.47,0-0.88-0.07-1.22-0.2
			c-0.34-0.13-0.64-0.33-0.92-0.6v3.81h-2.95v-12.74h2.86v0.78c0.3-0.3,0.61-0.52,0.95-0.67c0.34-0.15,0.76-0.22,1.25-0.22
			c0.46,0,0.9,0.08,1.31,0.23c0.41,0.16,0.75,0.37,1.02,0.64c0.24,0.24,0.41,0.52,0.53,0.83s0.2,0.65,0.26,1.01s0.08,0.72,0.09,1.1
			C165.6,485,165.6,485.37,165.6,485.72z M162.69,485.72c0-0.35-0.01-0.67-0.04-0.95c-0.02-0.28-0.08-0.52-0.16-0.72
			c-0.08-0.2-0.2-0.35-0.36-0.46c-0.16-0.11-0.38-0.16-0.65-0.16c-0.27,0-0.49,0.05-0.65,0.16c-0.16,0.11-0.28,0.26-0.36,0.46
			c-0.08,0.2-0.14,0.44-0.16,0.72c-0.02,0.28-0.04,0.6-0.04,0.95s0.01,0.66,0.04,0.95c0.02,0.28,0.08,0.52,0.16,0.72
			c0.08,0.2,0.2,0.35,0.36,0.46c0.16,0.11,0.38,0.16,0.65,0.16c0.27,0,0.49-0.05,0.65-0.16c0.16-0.11,0.28-0.26,0.36-0.46
			c0.08-0.2,0.14-0.44,0.16-0.72C162.68,486.39,162.69,486.07,162.69,485.72z"/>
		<path class="st8" d="M172.17,490.54l0-0.79c-0.3,0.3-0.6,0.52-0.91,0.66c-0.31,0.14-0.72,0.21-1.23,0.21
			c-0.49,0-0.93-0.08-1.31-0.22c-0.39-0.15-0.72-0.36-0.99-0.64c-0.27-0.27-0.48-0.61-0.63-0.99c-0.14-0.39-0.21-0.81-0.21-1.26
			c0-0.36,0.06-0.71,0.19-1.05c0.13-0.34,0.32-0.64,0.59-0.89c0.27-0.26,0.61-0.46,1.02-0.62s0.9-0.23,1.48-0.23h1.95v-0.25
			c0-0.45-0.11-0.76-0.34-0.94c-0.23-0.18-0.6-0.27-1.11-0.27c-0.38,0-0.67,0.05-0.88,0.14c-0.2,0.1-0.42,0.26-0.66,0.5l-1.83-1.82
			c0.25-0.25,0.5-0.45,0.73-0.61c0.24-0.16,0.5-0.29,0.78-0.39s0.58-0.17,0.9-0.21c0.32-0.04,0.69-0.06,1.09-0.06
			c1.38,0,2.43,0.29,3.15,0.86c0.72,0.57,1.08,1.45,1.08,2.63v6.24H172.17z M172.1,486.67h-1.48c-0.29,0-0.51,0.07-0.68,0.21
			c-0.17,0.14-0.25,0.33-0.25,0.55c0,0.21,0.08,0.4,0.24,0.56c0.16,0.16,0.4,0.24,0.72,0.24c0.29,0,0.51-0.02,0.67-0.06
			s0.32-0.14,0.49-0.3c0.19-0.18,0.29-0.5,0.29-0.97V486.67z"/>
		<path class="st8" d="M184.91,489.84c0,0.57-0.11,1.1-0.32,1.58c-0.21,0.48-0.5,0.89-0.88,1.23s-0.84,0.62-1.38,0.81
			c-0.54,0.2-1.14,0.29-1.79,0.29c-0.75,0-1.42-0.09-2-0.26s-1.12-0.5-1.61-0.99l1.83-1.82c0.23,0.23,0.47,0.38,0.74,0.47
			c0.27,0.09,0.57,0.13,0.9,0.13c0.31,0,0.57-0.05,0.77-0.14c0.2-0.1,0.36-0.22,0.47-0.36c0.11-0.14,0.19-0.3,0.24-0.48
			c0.05-0.17,0.07-0.34,0.07-0.5v-0.7c-0.27,0.27-0.57,0.47-0.9,0.6c-0.33,0.13-0.72,0.2-1.17,0.2c-0.93,0-1.68-0.29-2.25-0.86
			c-0.21-0.21-0.38-0.45-0.51-0.7c-0.12-0.25-0.21-0.52-0.27-0.82c-0.05-0.3-0.09-0.63-0.1-0.98c-0.01-0.36-0.02-0.76-0.02-1.2
			s0.01-0.84,0.02-1.2c0.01-0.36,0.04-0.69,0.1-0.98s0.14-0.57,0.27-0.82c0.12-0.25,0.29-0.48,0.51-0.7
			c0.57-0.57,1.33-0.86,2.27-0.86c0.5,0,0.91,0.07,1.22,0.22s0.62,0.37,0.92,0.67v-0.78h2.86V489.84z M181.96,485.37
			c0-0.25-0.01-0.49-0.03-0.72c-0.02-0.23-0.07-0.43-0.14-0.61c-0.08-0.18-0.19-0.33-0.35-0.43c-0.16-0.11-0.36-0.16-0.63-0.16
			c-0.27,0-0.49,0.05-0.64,0.16c-0.15,0.11-0.26,0.25-0.34,0.43s-0.12,0.38-0.14,0.61c-0.02,0.23-0.03,0.47-0.03,0.72
			s0.01,0.49,0.03,0.72c0.02,0.23,0.07,0.43,0.14,0.61c0.08,0.18,0.19,0.32,0.34,0.43c0.15,0.11,0.36,0.16,0.64,0.16
			c0.26,0,0.47-0.05,0.63-0.16c0.15-0.11,0.27-0.25,0.35-0.43c0.08-0.18,0.12-0.39,0.14-0.61
			C181.95,485.86,181.96,485.62,181.96,485.37z"/>
		<path class="st8" d="M189.56,486.67c0,0.4,0.15,0.75,0.44,1.06c0.29,0.31,0.71,0.46,1.26,0.46c0.51,0,0.91-0.07,1.18-0.21
			c0.27-0.14,0.54-0.34,0.81-0.6l1.75,1.75c-0.25,0.25-0.5,0.46-0.75,0.65s-0.52,0.34-0.81,0.47c-0.29,0.13-0.62,0.23-0.98,0.29
			c-0.36,0.06-0.76,0.1-1.2,0.1c-0.54,0-1.08-0.06-1.62-0.19c-0.54-0.13-1.03-0.36-1.46-0.72c-0.43-0.35-0.79-0.85-1.07-1.49
			c-0.28-0.64-0.42-1.49-0.42-2.52c0-0.79,0.11-1.49,0.32-2.09s0.51-1.12,0.9-1.55c0.38-0.42,0.84-0.74,1.36-0.96
			c0.53-0.21,1.11-0.32,1.74-0.32c0.69,0,1.31,0.12,1.86,0.36c0.54,0.24,1,0.56,1.36,0.97c0.36,0.41,0.64,0.89,0.83,1.45
			s0.29,1.15,0.29,1.78v1.31H189.56z M192.44,484.74c0-0.12-0.01-0.24-0.04-0.37s-0.07-0.26-0.13-0.39
			c-0.1-0.21-0.25-0.38-0.45-0.53c-0.2-0.15-0.48-0.23-0.83-0.23s-0.62,0.08-0.83,0.23c-0.2,0.15-0.35,0.33-0.45,0.53
			c-0.06,0.13-0.1,0.26-0.13,0.39s-0.04,0.25-0.04,0.37H192.44z"/>
		<path class="st8" d="M206.24,490.54l0-0.78c-0.3,0.3-0.62,0.52-0.96,0.67c-0.34,0.15-0.76,0.22-1.27,0.22
			c-0.47,0-0.91-0.08-1.32-0.23c-0.41-0.16-0.76-0.37-1.03-0.64c-0.24-0.24-0.42-0.52-0.54-0.83c-0.12-0.32-0.21-0.65-0.26-1.01
			c-0.05-0.36-0.08-0.72-0.09-1.1c-0.01-0.38-0.01-0.74-0.01-1.1c0-0.36,0-0.72,0.01-1.1c0.01-0.38,0.04-0.74,0.09-1.1
			c0.05-0.36,0.14-0.69,0.26-1.01s0.3-0.59,0.54-0.83c0.27-0.27,0.62-0.49,1.02-0.64c0.41-0.15,0.84-0.23,1.31-0.23
			c0.48,0,0.89,0.07,1.23,0.2c0.34,0.13,0.65,0.33,0.92,0.6v-3.81h2.92v12.74H206.24z M206.15,485.72c0-0.35-0.01-0.67-0.04-0.95
			c-0.02-0.28-0.08-0.52-0.16-0.72c-0.08-0.2-0.21-0.35-0.37-0.46c-0.16-0.11-0.38-0.16-0.66-0.16c-0.28,0-0.5,0.05-0.66,0.16
			c-0.16,0.11-0.29,0.26-0.37,0.46c-0.08,0.2-0.14,0.44-0.16,0.72c-0.02,0.28-0.04,0.6-0.04,0.95s0.01,0.66,0.04,0.95
			c0.02,0.28,0.08,0.52,0.16,0.72c0.08,0.2,0.21,0.35,0.37,0.46c0.16,0.11,0.38,0.16,0.66,0.16c0.28,0,0.5-0.05,0.66-0.16
			c0.16-0.11,0.29-0.26,0.37-0.46c0.08-0.2,0.14-0.44,0.16-0.72C206.13,486.39,206.15,486.07,206.15,485.72z"/>
		<path class="st8" d="M219.22,485.72c0,0.48-0.02,0.89-0.05,1.25c-0.04,0.36-0.09,0.68-0.17,0.97c-0.08,0.29-0.18,0.55-0.32,0.79
			c-0.14,0.24-0.31,0.46-0.51,0.68c-0.29,0.31-0.68,0.59-1.18,0.85c-0.5,0.26-1.14,0.38-1.91,0.38c-0.77,0-1.41-0.13-1.91-0.38
			c-0.5-0.26-0.89-0.54-1.18-0.85c-0.2-0.21-0.37-0.44-0.51-0.68c-0.14-0.24-0.24-0.5-0.32-0.79c-0.08-0.29-0.13-0.61-0.17-0.97
			s-0.05-0.78-0.05-1.25c0-0.47,0.02-0.88,0.05-1.24c0.04-0.36,0.09-0.69,0.17-0.97c0.08-0.29,0.18-0.55,0.32-0.79
			c0.14-0.24,0.31-0.47,0.51-0.68c0.14-0.15,0.31-0.3,0.51-0.45c0.2-0.14,0.42-0.27,0.67-0.39c0.25-0.12,0.53-0.21,0.85-0.29
			s0.67-0.11,1.06-0.11s0.75,0.04,1.06,0.11c0.32,0.07,0.6,0.17,0.85,0.29c0.25,0.12,0.47,0.25,0.67,0.39
			c0.2,0.14,0.37,0.29,0.51,0.45c0.2,0.21,0.37,0.44,0.51,0.68c0.14,0.24,0.24,0.5,0.32,0.79s0.13,0.61,0.17,0.97
			C219.21,484.84,219.22,485.26,219.22,485.72z M216.31,485.72c0-0.48-0.02-0.89-0.07-1.23c-0.05-0.34-0.17-0.6-0.36-0.79
			c-0.18-0.18-0.44-0.27-0.79-0.27s-0.61,0.09-0.79,0.27c-0.19,0.19-0.31,0.46-0.36,0.79c-0.05,0.34-0.07,0.75-0.07,1.23
			c0,0.48,0.02,0.89,0.07,1.23c0.05,0.34,0.17,0.6,0.36,0.79c0.18,0.18,0.44,0.27,0.79,0.27s0.61-0.09,0.79-0.27
			c0.19-0.19,0.31-0.46,0.36-0.79C216.28,486.61,216.31,486.21,216.31,485.72z"/>
		<path class="st8" d="M223.55,486.67c0,0.4,0.15,0.75,0.44,1.06c0.29,0.31,0.71,0.46,1.26,0.46c0.51,0,0.91-0.07,1.18-0.21
			c0.27-0.14,0.54-0.34,0.81-0.6l1.75,1.75c-0.25,0.25-0.5,0.46-0.75,0.65s-0.52,0.34-0.81,0.47c-0.29,0.13-0.62,0.23-0.98,0.29
			c-0.36,0.06-0.76,0.1-1.2,0.1c-0.54,0-1.08-0.06-1.62-0.19c-0.54-0.13-1.03-0.36-1.46-0.72c-0.43-0.35-0.79-0.85-1.07-1.49
			c-0.28-0.64-0.42-1.49-0.42-2.52c0-0.79,0.11-1.49,0.32-2.09s0.51-1.12,0.9-1.55c0.38-0.42,0.84-0.74,1.36-0.96
			c0.53-0.21,1.11-0.32,1.74-0.32c0.69,0,1.31,0.12,1.86,0.36c0.54,0.24,1,0.56,1.36,0.97c0.36,0.41,0.64,0.89,0.83,1.45
			s0.29,1.15,0.29,1.78v1.31H223.55z M226.44,484.74c0-0.12-0.01-0.24-0.04-0.37s-0.07-0.26-0.13-0.39
			c-0.1-0.21-0.25-0.38-0.45-0.53c-0.2-0.15-0.48-0.23-0.83-0.23s-0.62,0.08-0.83,0.23c-0.2,0.15-0.35,0.33-0.45,0.53
			c-0.06,0.13-0.1,0.26-0.13,0.39s-0.04,0.25-0.04,0.37H226.44z"/>
		<path class="st8" d="M238.55,487.39c0,0.57-0.11,1.06-0.34,1.47s-0.53,0.74-0.91,1.01c-0.38,0.27-0.82,0.46-1.32,0.59
			c-0.5,0.12-1.03,0.19-1.59,0.19c-0.36,0-0.72-0.01-1.07-0.04c-0.36-0.02-0.71-0.08-1.06-0.17c-0.35-0.09-0.7-0.23-1.04-0.41
			s-0.68-0.44-1.01-0.78l1.9-1.9c0.2,0.2,0.41,0.36,0.63,0.46s0.44,0.19,0.65,0.24c0.21,0.05,0.41,0.08,0.59,0.09
			s0.33,0.01,0.47,0.01c0.11,0,0.23-0.01,0.38-0.03c0.14-0.02,0.28-0.05,0.41-0.1s0.24-0.11,0.33-0.19
			c0.09-0.08,0.13-0.18,0.13-0.31c0-0.13-0.04-0.26-0.13-0.38s-0.28-0.2-0.56-0.22l-1.49-0.14c-0.42-0.04-0.8-0.11-1.14-0.23
			c-0.34-0.12-0.63-0.29-0.88-0.52c-0.24-0.23-0.44-0.51-0.57-0.84s-0.21-0.73-0.21-1.2c0-0.54,0.11-1,0.33-1.4s0.51-0.72,0.87-0.99
			c0.36-0.27,0.77-0.47,1.23-0.6c0.46-0.13,0.93-0.2,1.4-0.2c0.79,0,1.5,0.08,2.13,0.23c0.63,0.16,1.19,0.47,1.66,0.95l-1.81,1.81
			c-0.24-0.24-0.54-0.39-0.91-0.46c-0.37-0.07-0.75-0.11-1.13-0.11c-0.36,0-0.61,0.07-0.74,0.2c-0.14,0.13-0.21,0.25-0.21,0.36
			c0,0.02,0,0.06,0.01,0.12c0.01,0.05,0.03,0.11,0.06,0.16c0.04,0.05,0.1,0.11,0.18,0.16c0.08,0.05,0.21,0.09,0.38,0.1l1.48,0.14
			c0.5,0.05,0.94,0.16,1.31,0.32s0.67,0.38,0.9,0.64c0.23,0.26,0.41,0.56,0.52,0.89S238.55,487.01,238.55,487.39z"/>
		<path class="st8" d="M249.41,490.54v-5.76c0-0.27-0.04-0.5-0.13-0.67c-0.08-0.17-0.19-0.31-0.32-0.4c-0.13-0.09-0.26-0.16-0.4-0.2
			c-0.14-0.04-0.26-0.05-0.35-0.05s-0.21,0.02-0.35,0.05c-0.14,0.04-0.27,0.1-0.4,0.2c-0.13,0.1-0.23,0.23-0.32,0.4
			c-0.08,0.17-0.13,0.4-0.13,0.67v5.76h-2.92v-9.63h2.86v0.79c0.3-0.3,0.65-0.52,1.05-0.67c0.4-0.15,0.8-0.22,1.18-0.22
			c0.45,0,0.86,0.07,1.22,0.21c0.36,0.14,0.68,0.35,0.94,0.61c0.42,0.42,0.68,0.85,0.79,1.31c0.11,0.45,0.17,0.94,0.17,1.45v6.16
			H249.41z"/>
		<path class="st8" d="M262.42,485.72c0,0.48-0.02,0.89-0.05,1.25c-0.04,0.36-0.09,0.68-0.17,0.97c-0.08,0.29-0.18,0.55-0.32,0.79
			c-0.14,0.24-0.31,0.46-0.51,0.68c-0.29,0.31-0.68,0.59-1.18,0.85c-0.5,0.26-1.14,0.38-1.91,0.38c-0.77,0-1.41-0.13-1.91-0.38
			c-0.5-0.26-0.89-0.54-1.18-0.85c-0.2-0.21-0.37-0.44-0.51-0.68c-0.14-0.24-0.24-0.5-0.32-0.79c-0.08-0.29-0.13-0.61-0.17-0.97
			s-0.05-0.78-0.05-1.25c0-0.47,0.02-0.88,0.05-1.24c0.04-0.36,0.09-0.69,0.17-0.97c0.08-0.29,0.18-0.55,0.32-0.79
			c0.14-0.24,0.31-0.47,0.51-0.68c0.14-0.15,0.31-0.3,0.51-0.45c0.2-0.14,0.42-0.27,0.67-0.39c0.25-0.12,0.53-0.21,0.85-0.29
			s0.67-0.11,1.06-0.11s0.75,0.04,1.06,0.11c0.32,0.07,0.6,0.17,0.85,0.29c0.25,0.12,0.47,0.25,0.67,0.39
			c0.2,0.14,0.37,0.29,0.51,0.45c0.2,0.21,0.37,0.44,0.51,0.68c0.14,0.24,0.24,0.5,0.32,0.79s0.13,0.61,0.17,0.97
			C262.4,484.84,262.42,485.26,262.42,485.72z M259.5,485.72c0-0.48-0.02-0.89-0.07-1.23c-0.05-0.34-0.17-0.6-0.36-0.79
			c-0.18-0.18-0.44-0.27-0.79-0.27s-0.61,0.09-0.79,0.27c-0.19,0.19-0.31,0.46-0.36,0.79c-0.05,0.34-0.07,0.75-0.07,1.23
			c0,0.48,0.02,0.89,0.07,1.23c0.05,0.34,0.17,0.6,0.36,0.79c0.18,0.18,0.44,0.27,0.79,0.27s0.61-0.09,0.79-0.27
			c0.19-0.19,0.31-0.46,0.36-0.79C259.47,486.61,259.5,486.21,259.5,485.72z"/>
		<path class="st8" d="M267.5,490.54c-0.53,0-0.99-0.09-1.36-0.26c-0.37-0.17-0.68-0.4-0.92-0.67c-0.24-0.27-0.41-0.58-0.52-0.91
			c-0.11-0.33-0.17-0.67-0.17-1v-4.14h-0.88v-2.27h0.88v-2.76h2.92v2.76h1.52v2.27h-1.52v3.94c0,0.39,0.2,0.59,0.59,0.59h0.93v2.45
			H267.5z"/>
		<path class="st8" d="M277.21,486.67c0,0.4,0.15,0.75,0.44,1.06c0.29,0.31,0.71,0.46,1.26,0.46c0.51,0,0.91-0.07,1.18-0.21
			c0.27-0.14,0.54-0.34,0.81-0.6l1.75,1.75c-0.25,0.25-0.5,0.46-0.75,0.65s-0.52,0.34-0.81,0.47c-0.29,0.13-0.62,0.23-0.98,0.29
			c-0.36,0.06-0.76,0.1-1.2,0.1c-0.54,0-1.08-0.06-1.62-0.19c-0.54-0.13-1.03-0.36-1.46-0.72c-0.43-0.35-0.79-0.85-1.07-1.49
			c-0.28-0.64-0.42-1.49-0.42-2.52c0-0.79,0.11-1.49,0.32-2.09s0.51-1.12,0.9-1.55c0.38-0.42,0.84-0.74,1.36-0.96
			c0.53-0.21,1.11-0.32,1.74-0.32c0.69,0,1.31,0.12,1.86,0.36c0.54,0.24,1,0.56,1.36,0.97c0.36,0.41,0.64,0.89,0.83,1.45
			s0.29,1.15,0.29,1.78v1.31H277.21z M280.09,484.74c0-0.12-0.01-0.24-0.04-0.37s-0.07-0.26-0.13-0.39
			c-0.1-0.21-0.25-0.38-0.45-0.53c-0.2-0.15-0.48-0.23-0.83-0.23s-0.62,0.08-0.83,0.23c-0.2,0.15-0.35,0.33-0.45,0.53
			c-0.06,0.13-0.1,0.26-0.13,0.39s-0.04,0.25-0.04,0.37H280.09z"/>
		<path class="st8" d="M289.99,490.54l-1.47-2.43l-1.43,2.43h-3.52l3.35-4.92l-3.22-4.71h3.52l1.31,2.33l1.34-2.33h3.52l-3.22,4.71
			l3.35,4.92H289.99z"/>
		<path class="st8" d="M294.62,479.93v-2.24h2.92v2.24H294.62z M294.62,490.54v-9.25h2.92v9.25H294.62z"/>
		<path class="st8" d="M307.2,487.39c0,0.57-0.11,1.06-0.34,1.47s-0.53,0.74-0.91,1.01c-0.38,0.27-0.82,0.46-1.32,0.59
			c-0.5,0.12-1.03,0.19-1.59,0.19c-0.36,0-0.72-0.01-1.07-0.04c-0.36-0.02-0.71-0.08-1.06-0.17c-0.35-0.09-0.7-0.23-1.04-0.41
			s-0.68-0.44-1.01-0.78l1.9-1.9c0.2,0.2,0.41,0.36,0.63,0.46s0.44,0.19,0.65,0.24c0.21,0.05,0.41,0.08,0.59,0.09
			s0.33,0.01,0.47,0.01c0.11,0,0.23-0.01,0.38-0.03c0.14-0.02,0.28-0.05,0.41-0.1s0.24-0.11,0.33-0.19
			c0.09-0.08,0.13-0.18,0.13-0.31c0-0.13-0.04-0.26-0.13-0.38s-0.28-0.2-0.56-0.22l-1.49-0.14c-0.42-0.04-0.8-0.11-1.14-0.23
			c-0.34-0.12-0.63-0.29-0.88-0.52c-0.24-0.23-0.44-0.51-0.57-0.84s-0.21-0.73-0.21-1.2c0-0.54,0.11-1,0.33-1.4s0.51-0.72,0.87-0.99
			c0.36-0.27,0.77-0.47,1.23-0.6c0.46-0.13,0.93-0.2,1.4-0.2c0.79,0,1.5,0.08,2.13,0.23c0.63,0.16,1.19,0.47,1.66,0.95l-1.81,1.81
			c-0.24-0.24-0.54-0.39-0.91-0.46c-0.37-0.07-0.75-0.11-1.13-0.11c-0.36,0-0.61,0.07-0.74,0.2c-0.14,0.13-0.21,0.25-0.21,0.36
			c0,0.02,0,0.06,0.01,0.12c0.01,0.05,0.03,0.11,0.06,0.16c0.04,0.05,0.1,0.11,0.18,0.16c0.08,0.05,0.21,0.09,0.38,0.1l1.48,0.14
			c0.5,0.05,0.94,0.16,1.31,0.32s0.67,0.38,0.9,0.64c0.23,0.26,0.41,0.56,0.52,0.89S307.2,487.01,307.2,487.39z"/>
		<path class="st8" d="M311.8,490.54c-0.53,0-0.99-0.09-1.36-0.26c-0.37-0.17-0.68-0.4-0.92-0.67c-0.24-0.27-0.41-0.58-0.52-0.91
			c-0.11-0.33-0.17-0.67-0.17-1v-4.14h-0.88v-2.27h0.88v-2.76h2.92v2.76h1.52v2.27h-1.52v3.94c0,0.39,0.2,0.59,0.59,0.59h0.93v2.45
			H311.8z"/>
		<path class="st8" d="M323.75,490.54l0-0.79c-0.3,0.3-0.6,0.52-0.91,0.66c-0.31,0.14-0.72,0.21-1.23,0.21
			c-0.49,0-0.93-0.08-1.31-0.22c-0.39-0.15-0.72-0.36-0.99-0.64c-0.27-0.27-0.48-0.61-0.63-0.99c-0.14-0.39-0.21-0.81-0.21-1.26
			c0-0.36,0.06-0.71,0.19-1.05c0.13-0.34,0.32-0.64,0.59-0.89c0.27-0.26,0.61-0.46,1.02-0.62s0.9-0.23,1.48-0.23h1.95v-0.25
			c0-0.45-0.11-0.76-0.34-0.94c-0.23-0.18-0.6-0.27-1.11-0.27c-0.38,0-0.67,0.05-0.88,0.14c-0.2,0.1-0.42,0.26-0.66,0.5l-1.83-1.82
			c0.25-0.25,0.5-0.45,0.73-0.61c0.24-0.16,0.5-0.29,0.78-0.39s0.58-0.17,0.9-0.21c0.32-0.04,0.69-0.06,1.09-0.06
			c1.38,0,2.43,0.29,3.15,0.86c0.72,0.57,1.08,1.45,1.08,2.63v6.24H323.75z M323.68,486.67h-1.48c-0.29,0-0.51,0.07-0.68,0.21
			c-0.17,0.14-0.25,0.33-0.25,0.55c0,0.21,0.08,0.4,0.24,0.56c0.16,0.16,0.4,0.24,0.72,0.24c0.29,0,0.51-0.02,0.67-0.06
			s0.32-0.14,0.49-0.3c0.19-0.18,0.29-0.5,0.29-0.97V486.67z"/>
		<path class="st8" d="M333.96,490.54v-5.76c0-0.27-0.04-0.5-0.13-0.67c-0.08-0.17-0.19-0.31-0.32-0.4c-0.13-0.09-0.26-0.16-0.4-0.2
			c-0.14-0.04-0.26-0.05-0.35-0.05s-0.21,0.02-0.35,0.05c-0.14,0.04-0.27,0.1-0.4,0.2c-0.13,0.1-0.23,0.23-0.32,0.4
			c-0.08,0.17-0.13,0.4-0.13,0.67v5.76h-2.92v-9.63h2.86v0.79c0.3-0.3,0.65-0.52,1.05-0.67c0.4-0.15,0.8-0.22,1.18-0.22
			c0.45,0,0.86,0.07,1.22,0.21c0.36,0.14,0.68,0.35,0.94,0.61c0.42,0.42,0.68,0.85,0.79,1.31c0.11,0.45,0.17,0.94,0.17,1.45v6.16
			H333.96z"/>
		<path class="st8" d="M343.27,491.68c-0.19,0.54-0.44,0.96-0.75,1.27c-0.29,0.31-0.61,0.52-0.98,0.64s-0.76,0.17-1.19,0.17h-1.11
			v-2.63h0.63c0.26,0,0.47-0.04,0.62-0.13c0.15-0.09,0.27-0.28,0.37-0.58l0.27-0.81l-3.2-8.69H341l1.63,4.99l1.56-4.99h3.08
			L343.27,491.68z"/>
		<path class="st8" d="M358.81,490.54v-5.78c0-0.28-0.04-0.5-0.13-0.67c-0.08-0.17-0.19-0.31-0.31-0.4c-0.13-0.1-0.26-0.16-0.4-0.2
			c-0.14-0.04-0.26-0.05-0.35-0.05c-0.1,0-0.21,0.02-0.35,0.05c-0.14,0.04-0.27,0.1-0.4,0.2c-0.13,0.1-0.23,0.23-0.32,0.4
			c-0.08,0.17-0.13,0.4-0.13,0.67v5.78h-2.92v-5.78c0-0.28-0.04-0.5-0.13-0.67c-0.08-0.17-0.19-0.31-0.32-0.4
			c-0.13-0.1-0.26-0.16-0.4-0.2c-0.14-0.04-0.26-0.05-0.35-0.05s-0.21,0.02-0.35,0.05c-0.14,0.04-0.27,0.1-0.4,0.2
			c-0.13,0.1-0.23,0.23-0.32,0.4c-0.08,0.17-0.13,0.4-0.13,0.67v5.78h-2.92v-9.63h2.84l0.02,0.78c0.3-0.3,0.65-0.52,1.05-0.67
			s0.8-0.22,1.18-0.22c0.48,0,0.91,0.08,1.29,0.24c0.39,0.16,0.74,0.42,1.05,0.78c0.42-0.37,0.83-0.63,1.25-0.79
			c0.42-0.15,0.9-0.23,1.46-0.23c0.45,0,0.88,0.07,1.29,0.21c0.41,0.14,0.75,0.35,1.01,0.61c0.42,0.42,0.7,0.85,0.84,1.31
			c0.14,0.45,0.21,0.94,0.21,1.45v6.16H358.81z"/>
		<path class="st8" d="M371.82,485.72c0,0.48-0.02,0.89-0.05,1.25s-0.09,0.68-0.17,0.97c-0.08,0.29-0.18,0.55-0.32,0.79
			c-0.14,0.24-0.31,0.46-0.51,0.68c-0.29,0.31-0.68,0.59-1.18,0.85c-0.5,0.26-1.14,0.38-1.91,0.38s-1.41-0.13-1.91-0.38
			c-0.5-0.26-0.89-0.54-1.18-0.85c-0.2-0.21-0.37-0.44-0.51-0.68c-0.14-0.24-0.24-0.5-0.32-0.79c-0.08-0.29-0.13-0.61-0.17-0.97
			c-0.04-0.36-0.05-0.78-0.05-1.25c0-0.47,0.02-0.88,0.05-1.24c0.04-0.36,0.09-0.69,0.17-0.97s0.18-0.55,0.32-0.79
			c0.14-0.24,0.31-0.47,0.51-0.68c0.14-0.15,0.31-0.3,0.51-0.45c0.2-0.14,0.42-0.27,0.67-0.39c0.25-0.12,0.53-0.21,0.85-0.29
			c0.31-0.07,0.67-0.11,1.06-0.11s0.75,0.04,1.06,0.11c0.31,0.07,0.6,0.17,0.85,0.29c0.25,0.12,0.47,0.25,0.67,0.39
			c0.2,0.14,0.37,0.29,0.51,0.45c0.2,0.21,0.37,0.44,0.51,0.68c0.14,0.24,0.24,0.5,0.32,0.79c0.08,0.29,0.13,0.61,0.17,0.97
			C371.8,484.84,371.82,485.26,371.82,485.72z M368.91,485.72c0-0.48-0.02-0.89-0.07-1.23c-0.05-0.34-0.17-0.6-0.36-0.79
			c-0.18-0.18-0.45-0.27-0.79-0.27c-0.35,0-0.61,0.09-0.79,0.27c-0.19,0.19-0.31,0.46-0.36,0.79c-0.05,0.34-0.07,0.75-0.07,1.23
			c0,0.48,0.03,0.89,0.07,1.23c0.05,0.34,0.17,0.6,0.36,0.79c0.18,0.18,0.44,0.27,0.79,0.27c0.35,0,0.61-0.09,0.79-0.27
			c0.19-0.19,0.31-0.46,0.36-0.79C368.88,486.61,368.91,486.21,368.91,485.72z"/>
		<path class="st8" d="M378.87,483.95c-0.14-0.14-0.29-0.26-0.45-0.36c-0.15-0.09-0.36-0.14-0.61-0.14c-0.1,0-0.21,0.02-0.35,0.05
			c-0.14,0.04-0.27,0.1-0.39,0.2c-0.12,0.1-0.23,0.23-0.31,0.4c-0.08,0.17-0.13,0.4-0.13,0.67v5.76h-2.92v-9.63h2.84l0,0.79
			c0.21-0.21,0.52-0.42,0.92-0.61c0.4-0.19,0.85-0.29,1.35-0.29c0.48,0,0.89,0.07,1.23,0.2c0.35,0.13,0.69,0.36,1.02,0.7
			L378.87,483.95z"/>
		<path class="st8" d="M384.1,486.67c0,0.4,0.15,0.75,0.44,1.06c0.29,0.31,0.71,0.46,1.26,0.46c0.51,0,0.91-0.07,1.18-0.21
			c0.27-0.14,0.54-0.34,0.81-0.6l1.75,1.75c-0.25,0.25-0.5,0.46-0.75,0.65c-0.25,0.18-0.52,0.34-0.81,0.47
			c-0.29,0.13-0.62,0.23-0.97,0.29c-0.36,0.06-0.76,0.1-1.2,0.1c-0.54,0-1.08-0.06-1.62-0.19c-0.54-0.13-1.03-0.36-1.46-0.72
			s-0.79-0.85-1.07-1.49c-0.28-0.64-0.42-1.49-0.42-2.52c0-0.79,0.11-1.49,0.32-2.09c0.21-0.61,0.51-1.12,0.9-1.55
			c0.38-0.42,0.84-0.74,1.36-0.96c0.53-0.21,1.11-0.32,1.74-0.32c0.69,0,1.31,0.12,1.86,0.36c0.54,0.24,1,0.56,1.36,0.97
			c0.37,0.41,0.64,0.89,0.83,1.45s0.29,1.15,0.29,1.78v1.31H384.1z M386.98,484.74c0-0.12-0.01-0.24-0.04-0.37
			c-0.02-0.13-0.07-0.26-0.13-0.39c-0.1-0.21-0.25-0.38-0.45-0.53c-0.2-0.15-0.48-0.23-0.83-0.23c-0.35,0-0.62,0.08-0.83,0.23
			c-0.2,0.15-0.35,0.33-0.45,0.53c-0.06,0.13-0.1,0.26-0.13,0.39c-0.02,0.13-0.04,0.25-0.04,0.37H386.98z"/>
		<path class="st8" d="M391.57,493.72v-6.3h3.11v4.01L391.57,493.72z"/>
		<path class="st8" d="M409.07,485.72c0,0.36,0,0.72-0.01,1.1c-0.01,0.38-0.04,0.74-0.09,1.1c-0.05,0.36-0.14,0.7-0.26,1.01
			c-0.12,0.32-0.3,0.59-0.53,0.83c-0.27,0.27-0.61,0.49-1.01,0.64c-0.4,0.15-0.83,0.23-1.3,0.23c-0.47,0-0.88-0.07-1.22-0.2
			c-0.34-0.13-0.64-0.33-0.92-0.6v3.81h-2.95v-12.74h2.86v0.78c0.3-0.3,0.61-0.52,0.95-0.67s0.76-0.22,1.25-0.22
			c0.46,0,0.9,0.08,1.31,0.23c0.41,0.16,0.75,0.37,1.02,0.64c0.24,0.24,0.41,0.52,0.53,0.83c0.12,0.32,0.2,0.65,0.26,1.01
			c0.05,0.36,0.08,0.72,0.09,1.1C409.07,485,409.07,485.37,409.07,485.72z M406.16,485.72c0-0.35-0.01-0.67-0.04-0.95
			s-0.08-0.52-0.16-0.72c-0.08-0.2-0.2-0.35-0.36-0.46s-0.38-0.16-0.65-0.16c-0.27,0-0.49,0.05-0.65,0.16s-0.28,0.26-0.36,0.46
			c-0.08,0.2-0.14,0.44-0.16,0.72s-0.04,0.6-0.04,0.95s0.01,0.66,0.04,0.95s0.08,0.52,0.16,0.72c0.08,0.2,0.2,0.35,0.36,0.46
			c0.16,0.11,0.38,0.16,0.65,0.16c0.27,0,0.49-0.05,0.65-0.16c0.16-0.11,0.28-0.26,0.36-0.46c0.08-0.2,0.14-0.44,0.16-0.72
			S406.16,486.07,406.16,485.72z"/>
		<path class="st8" d="M413.85,490.54c-0.53,0-0.99-0.09-1.36-0.26c-0.37-0.17-0.68-0.4-0.92-0.67c-0.24-0.27-0.41-0.58-0.53-0.91
			c-0.11-0.33-0.17-0.67-0.17-1v-9.89h2.92v9.7c0,0.39,0.2,0.59,0.59,0.59h1.02v2.45H413.85z"/>
		<path class="st8" d="M419.06,486.67c0,0.4,0.15,0.75,0.44,1.06c0.29,0.31,0.71,0.46,1.26,0.46c0.51,0,0.91-0.07,1.18-0.21
			c0.27-0.14,0.54-0.34,0.81-0.6l1.75,1.75c-0.25,0.25-0.5,0.46-0.75,0.65c-0.25,0.18-0.52,0.34-0.81,0.47
			c-0.29,0.13-0.62,0.23-0.97,0.29c-0.36,0.06-0.76,0.1-1.2,0.1c-0.54,0-1.08-0.06-1.62-0.19c-0.54-0.13-1.03-0.36-1.46-0.72
			s-0.79-0.85-1.07-1.49c-0.28-0.64-0.42-1.49-0.42-2.52c0-0.79,0.11-1.49,0.32-2.09c0.21-0.61,0.51-1.12,0.9-1.55
			c0.38-0.42,0.84-0.74,1.36-0.96c0.53-0.21,1.11-0.32,1.74-0.32c0.69,0,1.31,0.12,1.86,0.36c0.54,0.24,1,0.56,1.36,0.97
			c0.37,0.41,0.64,0.89,0.83,1.45s0.29,1.15,0.29,1.78v1.31H419.06z M421.94,484.74c0-0.12-0.01-0.24-0.04-0.37
			c-0.02-0.13-0.07-0.26-0.13-0.39c-0.1-0.21-0.25-0.38-0.45-0.53c-0.2-0.15-0.48-0.23-0.83-0.23c-0.35,0-0.62,0.08-0.83,0.23
			c-0.2,0.15-0.35,0.33-0.45,0.53c-0.06,0.13-0.1,0.26-0.13,0.39c-0.02,0.13-0.04,0.25-0.04,0.37H421.94z"/>
		<path class="st8" d="M431.29,490.54l0-0.79c-0.3,0.3-0.6,0.52-0.91,0.66c-0.31,0.14-0.72,0.21-1.23,0.21
			c-0.49,0-0.93-0.08-1.31-0.22c-0.39-0.15-0.72-0.36-0.99-0.64s-0.48-0.61-0.63-0.99c-0.14-0.39-0.21-0.81-0.21-1.26
			c0-0.36,0.06-0.71,0.19-1.05s0.32-0.64,0.59-0.89c0.27-0.26,0.61-0.46,1.02-0.62s0.9-0.23,1.48-0.23h1.95v-0.25
			c0-0.45-0.11-0.76-0.34-0.94c-0.23-0.18-0.6-0.27-1.11-0.27c-0.38,0-0.67,0.05-0.88,0.14c-0.2,0.1-0.42,0.26-0.66,0.5l-1.83-1.82
			c0.25-0.25,0.5-0.45,0.73-0.61c0.24-0.16,0.5-0.29,0.78-0.39s0.58-0.17,0.9-0.21c0.32-0.04,0.69-0.06,1.09-0.06
			c1.38,0,2.43,0.29,3.15,0.86c0.72,0.57,1.08,1.45,1.08,2.63v6.24H431.29z M431.22,486.67h-1.48c-0.29,0-0.51,0.07-0.68,0.21
			c-0.17,0.14-0.25,0.33-0.25,0.55c0,0.21,0.08,0.4,0.24,0.56c0.16,0.16,0.4,0.24,0.72,0.24c0.29,0,0.51-0.02,0.67-0.06
			c0.16-0.04,0.32-0.14,0.49-0.3c0.19-0.18,0.29-0.5,0.29-0.97V486.67z"/>
		<path class="st8" d="M443.64,487.39c0,0.57-0.11,1.06-0.34,1.47s-0.53,0.74-0.91,1.01s-0.82,0.46-1.32,0.59
			c-0.5,0.12-1.03,0.19-1.59,0.19c-0.36,0-0.71-0.01-1.07-0.04c-0.36-0.02-0.71-0.08-1.06-0.17c-0.35-0.09-0.7-0.23-1.04-0.41
			s-0.68-0.44-1.01-0.78l1.9-1.9c0.2,0.2,0.42,0.36,0.64,0.46s0.44,0.19,0.65,0.24c0.21,0.05,0.41,0.08,0.59,0.09
			s0.33,0.01,0.46,0.01c0.11,0,0.23-0.01,0.38-0.03c0.14-0.02,0.28-0.05,0.41-0.1c0.13-0.05,0.24-0.11,0.33-0.19
			c0.09-0.08,0.13-0.18,0.13-0.31c0-0.13-0.04-0.26-0.13-0.38c-0.09-0.12-0.28-0.2-0.56-0.22l-1.48-0.14
			c-0.42-0.04-0.8-0.11-1.14-0.23c-0.34-0.12-0.63-0.29-0.88-0.52c-0.25-0.23-0.44-0.51-0.57-0.84s-0.21-0.73-0.21-1.2
			c0-0.54,0.11-1,0.33-1.4s0.51-0.72,0.87-0.99c0.36-0.27,0.77-0.47,1.23-0.6c0.46-0.13,0.93-0.2,1.4-0.2c0.79,0,1.5,0.08,2.13,0.23
			c0.63,0.16,1.19,0.47,1.66,0.95l-1.81,1.81c-0.24-0.24-0.54-0.39-0.91-0.46c-0.37-0.07-0.75-0.11-1.13-0.11
			c-0.36,0-0.61,0.07-0.74,0.2c-0.14,0.13-0.21,0.25-0.21,0.36c0,0.02,0,0.06,0.01,0.12s0.03,0.11,0.06,0.16
			c0.04,0.05,0.09,0.11,0.18,0.16c0.08,0.05,0.21,0.09,0.38,0.1l1.48,0.14c0.5,0.05,0.94,0.16,1.31,0.32
			c0.37,0.17,0.67,0.38,0.9,0.64c0.23,0.26,0.41,0.56,0.52,0.89S443.64,487.01,443.64,487.39z"/>
		<path class="st8" d="M447.67,486.67c0,0.4,0.15,0.75,0.44,1.06c0.29,0.31,0.71,0.46,1.26,0.46c0.51,0,0.91-0.07,1.18-0.21
			c0.27-0.14,0.54-0.34,0.81-0.6l1.75,1.75c-0.25,0.25-0.5,0.46-0.75,0.65c-0.25,0.18-0.52,0.34-0.81,0.47
			c-0.29,0.13-0.62,0.23-0.97,0.29c-0.36,0.06-0.76,0.1-1.2,0.1c-0.54,0-1.08-0.06-1.62-0.19c-0.54-0.13-1.03-0.36-1.46-0.72
			s-0.79-0.85-1.07-1.49c-0.28-0.64-0.42-1.49-0.42-2.52c0-0.79,0.11-1.49,0.32-2.09c0.21-0.61,0.51-1.12,0.9-1.55
			c0.38-0.42,0.84-0.74,1.36-0.96c0.53-0.21,1.11-0.32,1.74-0.32c0.69,0,1.31,0.12,1.86,0.36c0.54,0.24,1,0.56,1.36,0.97
			c0.37,0.41,0.64,0.89,0.83,1.45s0.29,1.15,0.29,1.78v1.31H447.67z M450.54,484.74c0-0.12-0.01-0.24-0.04-0.37
			c-0.02-0.13-0.07-0.26-0.13-0.39c-0.1-0.21-0.25-0.38-0.45-0.53c-0.2-0.15-0.48-0.23-0.83-0.23c-0.35,0-0.62,0.08-0.83,0.23
			c-0.2,0.15-0.35,0.33-0.45,0.53c-0.06,0.13-0.1,0.26-0.13,0.39c-0.02,0.13-0.04,0.25-0.04,0.37H450.54z"/>
		<path class="st8" d="M462.39,490.54c-0.53,0-0.99-0.09-1.36-0.26c-0.37-0.17-0.68-0.4-0.92-0.67s-0.41-0.58-0.52-0.91
			c-0.11-0.33-0.17-0.67-0.17-1v-4.14h-0.88v-2.27h0.88v-2.76h2.92v2.76h1.52v2.27h-1.52v3.94c0,0.39,0.2,0.59,0.59,0.59h0.93v2.45
			H462.39z"/>
		<path class="st8" d="M470.85,483.95c-0.14-0.14-0.29-0.26-0.45-0.36c-0.15-0.09-0.36-0.14-0.61-0.14c-0.1,0-0.21,0.02-0.35,0.05
			c-0.14,0.04-0.27,0.1-0.39,0.2c-0.12,0.1-0.23,0.23-0.31,0.4c-0.08,0.17-0.13,0.4-0.13,0.67v5.76h-2.92v-9.63h2.84l0,0.79
			c0.21-0.21,0.52-0.42,0.92-0.61c0.4-0.19,0.85-0.29,1.35-0.29c0.48,0,0.89,0.07,1.23,0.2c0.35,0.13,0.69,0.36,1.02,0.7
			L470.85,483.95z"/>
		<path class="st8" d="M478.44,491.68c-0.19,0.54-0.44,0.96-0.75,1.27c-0.29,0.31-0.61,0.52-0.98,0.64s-0.76,0.17-1.19,0.17h-1.11
			v-2.63h0.63c0.26,0,0.47-0.04,0.62-0.13s0.27-0.28,0.37-0.58l0.27-0.81l-3.2-8.69h3.08l1.63,4.99l1.56-4.99h3.08L478.44,491.68z"
			/>
		<path class="st8" d="M495.31,485.72c0,0.48-0.02,0.89-0.05,1.25c-0.04,0.36-0.09,0.68-0.17,0.97c-0.08,0.29-0.18,0.55-0.32,0.79
			c-0.14,0.24-0.31,0.46-0.51,0.68c-0.29,0.31-0.68,0.59-1.18,0.85c-0.5,0.26-1.14,0.38-1.91,0.38s-1.41-0.13-1.91-0.38
			c-0.5-0.26-0.89-0.54-1.18-0.85c-0.2-0.21-0.37-0.44-0.51-0.68c-0.14-0.24-0.24-0.5-0.32-0.79c-0.08-0.29-0.13-0.61-0.17-0.97
			c-0.04-0.36-0.05-0.78-0.05-1.25c0-0.47,0.02-0.88,0.05-1.24c0.04-0.36,0.09-0.69,0.17-0.97s0.18-0.55,0.32-0.79
			c0.14-0.24,0.31-0.47,0.51-0.68c0.14-0.15,0.31-0.3,0.51-0.45c0.2-0.14,0.42-0.27,0.67-0.39c0.25-0.12,0.53-0.21,0.85-0.29
			s0.67-0.11,1.06-0.11s0.75,0.04,1.06,0.11s0.6,0.17,0.85,0.29c0.25,0.12,0.47,0.25,0.67,0.39c0.2,0.14,0.37,0.29,0.51,0.45
			c0.2,0.21,0.37,0.44,0.51,0.68c0.14,0.24,0.24,0.5,0.32,0.79s0.13,0.61,0.17,0.97C495.29,484.84,495.31,485.26,495.31,485.72z
			 M492.39,485.72c0-0.48-0.02-0.89-0.07-1.23c-0.05-0.34-0.17-0.6-0.36-0.79c-0.18-0.18-0.44-0.27-0.79-0.27s-0.61,0.09-0.79,0.27
			c-0.19,0.19-0.31,0.46-0.36,0.79s-0.07,0.75-0.07,1.23c0,0.48,0.02,0.89,0.07,1.23s0.17,0.6,0.36,0.79
			c0.18,0.18,0.44,0.27,0.79,0.27s0.61-0.09,0.79-0.27c0.19-0.19,0.31-0.46,0.36-0.79C492.37,486.61,492.39,486.21,492.39,485.72z"
			/>
		<path class="st8" d="M502.5,490.54v-5.76c0-0.27-0.04-0.5-0.13-0.67c-0.08-0.17-0.19-0.31-0.32-0.4c-0.13-0.09-0.26-0.16-0.4-0.2
			c-0.14-0.04-0.26-0.05-0.35-0.05c-0.1,0-0.21,0.02-0.35,0.05c-0.14,0.04-0.27,0.1-0.4,0.2c-0.13,0.1-0.23,0.23-0.32,0.4
			c-0.08,0.17-0.13,0.4-0.13,0.67v5.76h-2.92v-9.63h2.86v0.79c0.3-0.3,0.65-0.52,1.05-0.67c0.41-0.15,0.8-0.22,1.18-0.22
			c0.45,0,0.86,0.07,1.22,0.21c0.36,0.14,0.68,0.35,0.94,0.61c0.42,0.42,0.68,0.85,0.79,1.31c0.11,0.45,0.17,0.94,0.17,1.45v6.16
			H502.5z"/>
		<path class="st8" d="M510,486.67c0,0.4,0.15,0.75,0.44,1.06c0.29,0.31,0.71,0.46,1.26,0.46c0.51,0,0.91-0.07,1.18-0.21
			c0.27-0.14,0.54-0.34,0.81-0.6l1.75,1.75c-0.25,0.25-0.5,0.46-0.75,0.65c-0.25,0.18-0.52,0.34-0.81,0.47
			c-0.29,0.13-0.62,0.23-0.97,0.29c-0.36,0.06-0.76,0.1-1.2,0.1c-0.54,0-1.08-0.06-1.62-0.19c-0.54-0.13-1.03-0.36-1.46-0.72
			s-0.79-0.85-1.07-1.49c-0.28-0.64-0.42-1.49-0.42-2.52c0-0.79,0.11-1.49,0.32-2.09c0.21-0.61,0.51-1.12,0.9-1.55
			c0.38-0.42,0.84-0.74,1.36-0.96c0.53-0.21,1.11-0.32,1.74-0.32c0.69,0,1.31,0.12,1.86,0.36c0.54,0.24,1,0.56,1.36,0.97
			c0.37,0.41,0.64,0.89,0.83,1.45s0.29,1.15,0.29,1.78v1.31H510z M512.88,484.74c0-0.12-0.01-0.24-0.04-0.37
			c-0.02-0.13-0.07-0.26-0.13-0.39c-0.1-0.21-0.25-0.38-0.45-0.53c-0.2-0.15-0.48-0.23-0.83-0.23c-0.35,0-0.62,0.08-0.83,0.23
			c-0.2,0.15-0.35,0.33-0.45,0.53c-0.06,0.13-0.1,0.26-0.13,0.39c-0.02,0.13-0.04,0.25-0.04,0.37H512.88z"/>
		<path class="st8" d="M529.48,485.72c0,0.48-0.02,0.89-0.05,1.25c-0.04,0.36-0.09,0.68-0.17,0.97c-0.08,0.29-0.18,0.55-0.32,0.79
			c-0.14,0.24-0.31,0.46-0.51,0.68c-0.29,0.31-0.68,0.59-1.18,0.85c-0.5,0.26-1.14,0.38-1.91,0.38s-1.41-0.13-1.91-0.38
			c-0.5-0.26-0.89-0.54-1.18-0.85c-0.2-0.21-0.37-0.44-0.51-0.68c-0.14-0.24-0.24-0.5-0.32-0.79c-0.08-0.29-0.13-0.61-0.17-0.97
			c-0.04-0.36-0.05-0.78-0.05-1.25c0-0.47,0.02-0.88,0.05-1.24c0.04-0.36,0.09-0.69,0.17-0.97s0.18-0.55,0.32-0.79
			c0.14-0.24,0.31-0.47,0.51-0.68c0.14-0.15,0.31-0.3,0.51-0.45c0.2-0.14,0.42-0.27,0.67-0.39c0.25-0.12,0.53-0.21,0.85-0.29
			s0.67-0.11,1.06-0.11s0.75,0.04,1.06,0.11s0.6,0.17,0.85,0.29c0.25,0.12,0.47,0.25,0.67,0.39c0.2,0.14,0.37,0.29,0.51,0.45
			c0.2,0.21,0.37,0.44,0.51,0.68c0.14,0.24,0.24,0.5,0.32,0.79s0.13,0.61,0.17,0.97C529.46,484.84,529.48,485.26,529.48,485.72z
			 M526.57,485.72c0-0.48-0.02-0.89-0.07-1.23c-0.05-0.34-0.17-0.6-0.36-0.79c-0.18-0.18-0.44-0.27-0.79-0.27s-0.61,0.09-0.79,0.27
			c-0.19,0.19-0.31,0.46-0.36,0.79s-0.07,0.75-0.07,1.23c0,0.48,0.02,0.89,0.07,1.23s0.17,0.6,0.36,0.79
			c0.18,0.18,0.44,0.27,0.79,0.27s0.61-0.09,0.79-0.27c0.19-0.19,0.31-0.46,0.36-0.79C526.54,486.61,526.57,486.21,526.57,485.72z"
			/>
		<path class="st8" d="M534.6,483.56v6.98h-2.92v-6.98h-0.88v-2.27h0.88v-0.84c0-0.33,0.06-0.67,0.17-1
			c0.11-0.33,0.29-0.63,0.53-0.91c0.24-0.27,0.54-0.5,0.92-0.67c0.37-0.17,0.83-0.26,1.36-0.26h1.56v2.45h-1.02
			c-0.39,0-0.59,0.2-0.59,0.59v0.63h1.61v2.27H534.6z"/>
		<path class="st8" d="M544.94,490.54c-0.53,0-0.99-0.09-1.36-0.26c-0.37-0.17-0.68-0.4-0.92-0.67s-0.41-0.58-0.52-0.91
			c-0.11-0.33-0.17-0.67-0.17-1v-4.14h-0.88v-2.27h0.88v-2.76h2.92v2.76h1.52v2.27h-1.52v3.94c0,0.39,0.2,0.59,0.59,0.59h0.93v2.45
			H544.94z"/>
		<path class="st8" d="M553.44,490.54v-5.85c0-0.26-0.04-0.47-0.13-0.64c-0.08-0.16-0.18-0.29-0.3-0.38
			c-0.11-0.09-0.24-0.15-0.37-0.19c-0.13-0.04-0.25-0.05-0.34-0.05c-0.1,0-0.21,0.02-0.34,0.05c-0.13,0.04-0.26,0.1-0.37,0.19
			c-0.11,0.09-0.21,0.22-0.3,0.38c-0.08,0.16-0.13,0.37-0.13,0.64v5.85h-2.92V477.8h2.92v3.89c0.31-0.31,0.65-0.53,1.01-0.67
			c0.36-0.14,0.73-0.21,1.1-0.21c0.51,0,0.96,0.09,1.35,0.27s0.71,0.43,0.97,0.74c0.26,0.32,0.45,0.69,0.57,1.11
			c0.12,0.42,0.19,0.88,0.19,1.37v6.24H553.44z"/>
		<path class="st8" d="M560.94,486.67c0,0.4,0.15,0.75,0.44,1.06c0.29,0.31,0.71,0.46,1.26,0.46c0.51,0,0.91-0.07,1.18-0.21
			c0.27-0.14,0.54-0.34,0.81-0.6l1.75,1.75c-0.25,0.25-0.5,0.46-0.75,0.65c-0.25,0.18-0.52,0.34-0.81,0.47
			c-0.29,0.13-0.62,0.23-0.97,0.29c-0.36,0.06-0.76,0.1-1.2,0.1c-0.54,0-1.08-0.06-1.62-0.19c-0.54-0.13-1.03-0.36-1.46-0.72
			s-0.79-0.85-1.07-1.49c-0.28-0.64-0.42-1.49-0.42-2.52c0-0.79,0.11-1.49,0.32-2.09c0.21-0.61,0.51-1.12,0.9-1.55
			c0.38-0.42,0.84-0.74,1.36-0.96c0.53-0.21,1.11-0.32,1.74-0.32c0.69,0,1.31,0.12,1.86,0.36c0.54,0.24,1,0.56,1.36,0.97
			c0.37,0.41,0.64,0.89,0.83,1.45s0.29,1.15,0.29,1.78v1.31H560.94z M563.82,484.74c0-0.12-0.01-0.24-0.04-0.37
			c-0.02-0.13-0.07-0.26-0.13-0.39c-0.1-0.21-0.25-0.38-0.45-0.53c-0.2-0.15-0.48-0.23-0.83-0.23c-0.35,0-0.62,0.08-0.83,0.23
			c-0.2,0.15-0.35,0.33-0.45,0.53c-0.06,0.13-0.1,0.26-0.13,0.39c-0.02,0.13-0.04,0.25-0.04,0.37H563.82z"/>
		<path class="st8" d="M575.36,490.54c-0.53,0-0.99-0.09-1.36-0.26c-0.37-0.17-0.68-0.4-0.92-0.67c-0.24-0.27-0.41-0.58-0.53-0.91
			c-0.11-0.33-0.17-0.67-0.17-1v-9.89h2.92v9.7c0,0.39,0.2,0.59,0.59,0.59h1.02v2.45H575.36z"/>
		<path class="st8" d="M578.58,479.93v-2.24h2.92v2.24H578.58z M578.58,490.54v-9.25h2.92v9.25H578.58z"/>
		<path class="st8" d="M589.03,490.54v-5.76c0-0.27-0.04-0.5-0.13-0.67c-0.08-0.17-0.19-0.31-0.32-0.4c-0.13-0.09-0.26-0.16-0.4-0.2
			c-0.14-0.04-0.26-0.05-0.35-0.05c-0.1,0-0.21,0.02-0.35,0.05c-0.14,0.04-0.27,0.1-0.4,0.2c-0.13,0.1-0.23,0.23-0.32,0.4
			c-0.08,0.17-0.13,0.4-0.13,0.67v5.76h-2.92v-9.63h2.86v0.79c0.3-0.3,0.65-0.52,1.05-0.67c0.41-0.15,0.8-0.22,1.18-0.22
			c0.45,0,0.86,0.07,1.22,0.21c0.36,0.14,0.68,0.35,0.94,0.61c0.42,0.42,0.68,0.85,0.79,1.31c0.11,0.45,0.17,0.94,0.17,1.45v6.16
			H589.03z"/>
		<path class="st8" d="M599.58,490.54l-2-3.52l-0.57,0.63v2.9h-2.92V477.8H597v6.48l2.59-3.36h3.52l-3.54,3.99l3.63,5.64H599.58z"/>
		<path class="st8" d="M611.77,487.39c0,0.57-0.11,1.06-0.34,1.47s-0.53,0.74-0.91,1.01s-0.82,0.46-1.32,0.59
			c-0.5,0.12-1.03,0.19-1.59,0.19c-0.36,0-0.71-0.01-1.07-0.04c-0.36-0.02-0.71-0.08-1.06-0.17c-0.35-0.09-0.7-0.23-1.04-0.41
			s-0.68-0.44-1.01-0.78l1.9-1.9c0.2,0.2,0.42,0.36,0.64,0.46s0.44,0.19,0.65,0.24c0.21,0.05,0.41,0.08,0.59,0.09
			s0.33,0.01,0.46,0.01c0.11,0,0.23-0.01,0.38-0.03c0.14-0.02,0.28-0.05,0.41-0.1c0.13-0.05,0.24-0.11,0.33-0.19
			c0.09-0.08,0.13-0.18,0.13-0.31c0-0.13-0.04-0.26-0.13-0.38c-0.09-0.12-0.28-0.2-0.56-0.22l-1.48-0.14
			c-0.42-0.04-0.8-0.11-1.14-0.23c-0.34-0.12-0.63-0.29-0.88-0.52c-0.25-0.23-0.44-0.51-0.57-0.84s-0.21-0.73-0.21-1.2
			c0-0.54,0.11-1,0.33-1.4s0.51-0.72,0.87-0.99c0.36-0.27,0.77-0.47,1.23-0.6c0.46-0.13,0.93-0.2,1.4-0.2c0.79,0,1.5,0.08,2.13,0.23
			c0.63,0.16,1.19,0.47,1.66,0.95l-1.81,1.81c-0.24-0.24-0.54-0.39-0.91-0.46c-0.37-0.07-0.75-0.11-1.13-0.11
			c-0.36,0-0.61,0.07-0.74,0.2c-0.14,0.13-0.21,0.25-0.21,0.36c0,0.02,0,0.06,0.01,0.12s0.03,0.11,0.06,0.16
			c0.04,0.05,0.09,0.11,0.18,0.16c0.08,0.05,0.21,0.09,0.38,0.1l1.48,0.14c0.5,0.05,0.94,0.16,1.31,0.32
			c0.37,0.17,0.67,0.38,0.9,0.64c0.23,0.26,0.41,0.56,0.52,0.89S611.77,487.01,611.77,487.39z"/>
		<path class="st8" d="M625.61,485.72c0,0.36,0,0.72-0.01,1.1c-0.01,0.38-0.04,0.74-0.09,1.1c-0.05,0.36-0.14,0.7-0.26,1.01
			c-0.12,0.32-0.3,0.59-0.54,0.83c-0.27,0.27-0.62,0.49-1.03,0.64c-0.41,0.15-0.85,0.23-1.31,0.23c-0.5,0-0.92-0.07-1.26-0.22
			c-0.34-0.15-0.66-0.37-0.96-0.67v0.78h-2.83V477.8h2.92v3.81c0.27-0.27,0.58-0.47,0.92-0.6c0.34-0.13,0.75-0.2,1.23-0.2
			c0.46,0,0.9,0.08,1.31,0.23c0.41,0.16,0.75,0.37,1.02,0.64c0.24,0.24,0.42,0.52,0.54,0.83s0.21,0.65,0.26,1.01s0.08,0.72,0.09,1.1
			C625.61,485,625.61,485.37,625.61,485.72z M622.7,485.72c0-0.35-0.01-0.67-0.04-0.95c-0.02-0.28-0.08-0.52-0.16-0.72
			c-0.08-0.2-0.21-0.35-0.37-0.46s-0.38-0.16-0.66-0.16s-0.5,0.05-0.66,0.16s-0.29,0.26-0.37,0.46c-0.08,0.2-0.14,0.44-0.16,0.72
			c-0.02,0.28-0.04,0.6-0.04,0.95s0.01,0.66,0.04,0.95c0.02,0.28,0.08,0.52,0.16,0.72c0.08,0.2,0.21,0.35,0.37,0.46
			c0.16,0.11,0.38,0.16,0.66,0.16s0.5-0.05,0.66-0.16c0.16-0.11,0.29-0.26,0.37-0.46c0.08-0.2,0.14-0.44,0.16-0.72
			C622.69,486.39,622.7,486.07,622.7,485.72z"/>
		<path class="st8" d="M629.94,486.67c0,0.4,0.15,0.75,0.44,1.06c0.29,0.31,0.71,0.46,1.26,0.46c0.51,0,0.91-0.07,1.18-0.21
			c0.27-0.14,0.54-0.34,0.81-0.6l1.75,1.75c-0.25,0.25-0.5,0.46-0.75,0.65c-0.25,0.18-0.52,0.34-0.81,0.47
			c-0.29,0.13-0.62,0.23-0.97,0.29c-0.36,0.06-0.76,0.1-1.2,0.1c-0.54,0-1.08-0.06-1.62-0.19c-0.54-0.13-1.03-0.36-1.46-0.72
			s-0.79-0.85-1.07-1.49c-0.28-0.64-0.42-1.49-0.42-2.52c0-0.79,0.11-1.49,0.32-2.09c0.21-0.61,0.51-1.12,0.9-1.55
			c0.38-0.42,0.84-0.74,1.36-0.96c0.53-0.21,1.11-0.32,1.74-0.32c0.69,0,1.31,0.12,1.86,0.36c0.54,0.24,1,0.56,1.36,0.97
			c0.37,0.41,0.64,0.89,0.83,1.45s0.29,1.15,0.29,1.78v1.31H629.94z M632.82,484.74c0-0.12-0.01-0.24-0.04-0.37
			c-0.02-0.13-0.07-0.26-0.13-0.39c-0.1-0.21-0.25-0.38-0.45-0.53c-0.2-0.15-0.48-0.23-0.83-0.23c-0.35,0-0.62,0.08-0.83,0.23
			c-0.2,0.15-0.35,0.33-0.45,0.53c-0.06,0.13-0.1,0.26-0.13,0.39c-0.02,0.13-0.04,0.25-0.04,0.37H632.82z"/>
		<path class="st8" d="M640.39,490.54c-0.53,0-0.99-0.09-1.36-0.26c-0.37-0.17-0.68-0.4-0.92-0.67c-0.24-0.27-0.41-0.58-0.53-0.91
			c-0.11-0.33-0.17-0.67-0.17-1v-9.89h2.92v9.7c0,0.39,0.2,0.59,0.59,0.59h1.02v2.45H640.39z"/>
		<path class="st8" d="M651.2,485.72c0,0.48-0.02,0.89-0.05,1.25c-0.04,0.36-0.09,0.68-0.17,0.97c-0.08,0.29-0.18,0.55-0.32,0.79
			c-0.14,0.24-0.31,0.46-0.51,0.68c-0.29,0.31-0.68,0.59-1.18,0.85c-0.5,0.26-1.14,0.38-1.91,0.38s-1.41-0.13-1.91-0.38
			c-0.5-0.26-0.89-0.54-1.18-0.85c-0.2-0.21-0.37-0.44-0.51-0.68c-0.14-0.24-0.24-0.5-0.32-0.79c-0.08-0.29-0.13-0.61-0.17-0.97
			c-0.04-0.36-0.05-0.78-0.05-1.25c0-0.47,0.02-0.88,0.05-1.24c0.04-0.36,0.09-0.69,0.17-0.97s0.18-0.55,0.32-0.79
			c0.14-0.24,0.31-0.47,0.51-0.68c0.14-0.15,0.31-0.3,0.51-0.45c0.2-0.14,0.42-0.27,0.67-0.39c0.25-0.12,0.53-0.21,0.85-0.29
			s0.67-0.11,1.06-0.11s0.75,0.04,1.06,0.11s0.6,0.17,0.85,0.29c0.25,0.12,0.47,0.25,0.67,0.39c0.2,0.14,0.37,0.29,0.51,0.45
			c0.2,0.21,0.37,0.44,0.51,0.68c0.14,0.24,0.24,0.5,0.32,0.79s0.13,0.61,0.17,0.97C651.18,484.84,651.2,485.26,651.2,485.72z
			 M648.28,485.72c0-0.48-0.02-0.89-0.07-1.23c-0.05-0.34-0.17-0.6-0.36-0.79c-0.18-0.18-0.44-0.27-0.79-0.27s-0.61,0.09-0.79,0.27
			c-0.19,0.19-0.31,0.46-0.36,0.79s-0.07,0.75-0.07,1.23c0,0.48,0.02,0.89,0.07,1.23s0.17,0.6,0.36,0.79
			c0.18,0.18,0.44,0.27,0.79,0.27s0.61-0.09,0.79-0.27c0.19-0.19,0.31-0.46,0.36-0.79C648.26,486.61,648.28,486.21,648.28,485.72z"
			/>
		<path class="st8" d="M662.9,490.54h-2.34l-1.74-5.28l-1.74,5.28h-2.34l-2.9-9.63h3.1l1.2,4.99l1.66-4.99h2.04l1.66,4.99l1.2-4.99
			h3.1L662.9,490.54z"/>
		<path class="st8" d="M666.12,490.54v-3.2h3.2v3.2H666.12z"/>
	</g>
	<g>
		<g id="XMLID_2_">
			<g>
				<path class="st2" d="M721,161.5c-0.14,0.83-0.14,1.67,0,2.5v7.82c-1.91-1.93-2.91-4.53-2.86-7.66c0.06-3.7,0.85-7.11,2.86-9.85
					V161.5z"/>
				<path class="st2" d="M704.61,117.75c2.12-5.81,9.14-9.95,16.39-10.24v2.59c-3.55-0.1-7.09,0.77-9.89,2.7
					c-3.55,2.45-5.69,5.87-5.14,10.31c0.52,4.16,3.39,6.59,7.23,7.57c2.71,0.69,5.38,0.84,7.79-0.08v2.31
					c-4.92,1.28-11.33,0.38-14-2.45C703.55,126.8,702.92,122.38,704.61,117.75z"/>
				<path class="st2" d="M700.01,275.48c7.48,1.21,16.26-1.94,20.99-7.03v6.38c-5.2,3.72-12.32,5.49-20.63,4.84
					c-12.21-0.94-20.34-10.68-20.1-24.07c0.18-10.27,3.94-15.49,13.13-18.27c11.74-3.55,23.23,7.22,20.41,19.18
					c-1.19,5.03-4.96,7.54-9.58,8.71c-4.37,1.1-7.99-0.75-10.71-4.13c-3.17-3.94-3.29-8.42-1.39-12.88c1.31-3.1,7.02-4.4,10.22-2.61
					c3.91,2.17,5.97,7.26,3.71,10.22c-1.05,1.37-3.23,2.31-5.02,2.54c-0.99,0.12-2.77-1.42-3.17-2.57c-0.34-1,0.76-2.5,1.52-4.59
					c1.09,2.5,1.65,3.79,2.22,5.08c0.8-0.51,2.19-0.93,2.27-1.54c0.2-1.37,0.26-3.43-0.55-4.11c-1.22-1.02-3.51-1.88-4.86-1.42
					c-5.02,1.73-5.97,6.79-2.24,10.59c2.79,2.86,6.16,3.6,9.68,1.68c3.81-2.08,6.25-5.14,5.31-9.88
					c-1.65-8.34-7.42-13.26-14.32-11.72c-8.29,1.85-14.08,8.62-12.96,17.59C685.12,266.7,691.88,274.18,700.01,275.48z"/>
				<path class="st2" d="M721,114.89c-2.91-0.76-6.25-0.07-7.67,2.3c-1,1.65-0.75,4.77,0.19,6.57c0.5,0.96,3.65,0.55,5.61,0.76
					c0-1.81,0-3.62,0-6.29c0.4,0.11,1.14,0.16,1.87,0.3v7.91c-2.15,1.4-5.34,1.54-8.02,0.15c-3.78-1.96-4.06-5.15-2.59-8.62
					c1.46-3.43,6.09-5.46,10.61-4.86V114.89z"/>
				<path class="st2" d="M711.02,208.2c-8.3,2.29-16.27-2.14-18.14-10.07c-1.93-8.19,3.58-16.67,11.84-18.23
					c6.04-1.13,11.99,0.56,16.29,4.2v5.29c-0.08-0.1-0.15-0.19-0.23-0.28c-4.29-5.11-10.17-6.54-16.5-5.36
					c-5.46,1.02-8.83,6.15-8.56,12.12c0.23,5.3,4.01,10.35,9.23,10.38c3.48,0.02,7.99-1.43,10.12-3.88
					c1.72-1.97,1.52-6.81,0.43-9.72c-1.41-3.73-5.5-4.71-9.48-4.17c-3.47,0.47-5.99,4.1-5.04,7.44c1.04,3.6,3.76,5.29,7.35,4.45
					c1.22-0.29,2.35-2.09,2.92-3.45c0.18-0.44-1.56-1.68-2.42-2.55c-0.94,1.22-1.89,2.46-3.77,4.91c-0.3-2.64-1.1-4.55-0.48-5.62
					c0.66-1.12,3.05-2.3,4.05-1.9c1.95,0.79,4.53,2.45,4.88,4.16c0.4,1.96-0.72,5.02-2.26,6.44c-3.29,3.02-8.77,1.62-11.46-2.28
					c-2.75-4-1.68-10.15,2.25-12.5c4.37-2.62,8.68-2.22,12.88,0.48c3.85,2.47,5.23,6.09,4.54,10.46
					C718.67,203.45,715.96,206.83,711.02,208.2z"/>
				<path class="st2" d="M445.05,62.92c-0.79,0.33-3.12-1.24-3.63-2.42c-0.5-1.14,0.45-2.91,0.76-4.4c0.46,0.04,0.91,0.08,1.37,0.12
					c0.47,1.27,0.94,2.54,1.42,3.81c0.45,0.11,0.9,0.23,1.34,0.34c0.56-1.39,1.89-3.73,1.55-4.01c-1.78-1.45-4.51-3.71-5.92-3.16
					c-2.17,0.85-4.69,3.6-5,5.83c-0.54,4.03,2.6,7.01,6.44,6.83c3.15-0.16,6.91-1.67,9.12-3.87c1.04-1.03,1.62-2.22,1.84-3.48
					l1.55,0.29c-0.05,0.23-0.09,0.46-0.16,0.69c-1.4,5.79-6.74,9.9-12.68,9.55c-4.42-0.26-7.87-2.23-9.02-6.76
					c-1.11-4.33-0.63-8.54,3.21-11.44c3.33-2.51,7.01-2.14,10.43-0.01c2.92,1.82,4.32,4.77,2.79,7.8
					C449.51,60.54,447.13,62.02,445.05,62.92z"/>
				<path class="st2" d="M629.11,87.89c-5.59-1.78-9.05-6.35-9.33-11.97c-0.37-7.09,3.21-13,9.58-15.78
					c15.57-6.81,30.2,3.34,28.94,20.16c-0.21,2.83-0.71,5.76-1.77,8.37c-2.13,5.23-4.74,10.26-6.68,14.37
					c7.29,0.39,15.1,0.68,22.89,1.3c5.17,0.41,8.32-2.22,10.57-6.28c2.21-3.98,1.49-7.91-1.38-11.28
					c-3.95-4.64-11.69-4.57-14.36,0.35c-0.91,1.7-0.91,4.94,0.16,6.37c1.06,1.43,4.03,2.09,6.07,1.93c1.23-0.1,2.49-2.29,3.29-3.77
					c0.21-0.4-1.2-1.68-1.87-2.55c-1.09,1.18-2.16,2.36-3.27,3.52c-0.2,0.21-0.56,0.26-1.8,0.78c-0.17-1.86-0.96-3.87-0.28-4.93
					c0.81-1.28,2.86-2.41,4.41-2.45c3.91-0.11,6.58,4.04,5.45,7.83c-1.21,4.07-4.25,5.57-8.11,5.44c-4.44-0.15-7.79-2.19-8.98-6.75
					c-1.06-4.09,1.4-9.16,5.23-11.1c6.69-3.38,15.4-0.92,19.67,5.55c4.12,6.25,2.71,13.89-3.45,18.91c-0.87,0.71-1.66,1.5-2.48,2.25
					c0.54-0.08,1.09-0.16,1.63-0.23c2.06,6.08,5.09,12.02,6.01,18.26c2.56,17.38-9.5,27.79-26.6,23.66
					c-11.68-2.82-17.56-13.7-13.54-25.05c2.42-6.85,8.26-10.43,16.35-10.03c8.46,0.42,14.07,4.37,15.71,11.05
					c1.21,4.97-0.94,10.79-5.41,13.76c-4.28,2.84-8.83,3.23-13.29,0.33c-4.29-2.78-5.82-6.9-5.03-11.81
					c0.79-4.81,4.89-7.03,10.5-5.96c4.63,0.88,7.6,4.26,6.19,8.04c-0.72,1.93-3.08,3.7-5.12,4.5c-0.99,0.39-2.92-1.6-4.42-2.52
					c0.27-0.48,0.54-0.96,0.81-1.43c0.79,0.05,1.64,0.3,2.36,0.11c1.15-0.3,2.22-0.9,3.31-1.38c-0.76-1-1.5-2.83-2.29-2.86
					c-2.16-0.07-6.05,0.29-6.21,1.09c-0.48,2.45-0.35,5.74,1,7.69c2.63,3.8,8.52,3.34,12.03-0.27c3.56-3.67,3.43-9.57-0.54-13.1
					c-4.25-3.79-9.36-4.74-14.64-2.81c-5.06,1.84-7.67,5.92-8.15,11.23c-0.51,5.6,1.08,10.36,6.14,13.46
					c6.81,4.16,16.66,3.17,22.65-2.25c5.03-4.56,6.31-13.6,2.99-20.68c-2.44-5.18-6.47-8.67-11.79-10.45
					c-10.6-3.52-20.65-2.31-29.77,4.38c-14.26,10.45-26.12,23.38-37.36,36.87c-8.06,9.67-12.04,20.99-11.69,33.67
					c0.26,9.61,0.46,19.23,1.11,28.82c0.18,2.6,1.28,6.42,3.08,7.26c1.82,0.85,5.5-0.7,7.57-2.26c8.47-6.4,17.12-12.67,24.78-19.96
					c11.09-10.56,8.04-28.13-4.22-33.78c-5.32-2.45-13.47-1.08-17.52,2.93c-3.63,3.58-4.58,10.08-2.14,15.09
					c1.7,3.49,4.42,5.43,8.44,5.29c4.15-0.15,7.63-2.08,8.35-6.02c0.23-1.28,0.2-2.71-0.03-4.13c-0.3-1.82-0.93-3.61-1.79-5.05
					c-0.85-1.42-4.6-2.07-6.63-1.53c-1.49,0.4-3.31,3.4-3.14,5.06c0.17,1.67,2.41,3.44,4.17,4.44c0.48,0.28,2.45-2.06,3.73-3.19
					c-0.34-0.41-0.69-0.81-1.03-1.21c-1.3,0.2-2.6,0.41-3.9,0.61c-0.16-0.39-0.32-0.78-0.49-1.17c1.25-0.72,2.66-2.19,3.71-1.96
					c1.34,0.28,3.01,1.73,3.45,3.03c0.14,0.42,0.24,0.84,0.32,1.25c0.47,2.74-0.6,5.15-3.64,6.14c-3.77,1.22-7.66,0.26-8.76-3.67
					c-0.81-2.88-0.67-7.34,1.06-9.28c1.9-2.12,6.16-2.99,9.35-2.88c3.8,0.12,6.87,2.53,7.67,6.86c1.54,8.42-3.09,15.23-11.13,16.23
					c-7.01,0.87-13.99-5.41-14.54-13.08c-0.88-12.31,11.23-21.19,23.42-17.13c1.89,0.63,3.7,1.46,5.51,2.19
					c1.91-4.54,3.33-9.06,5.64-13.07c2.71-4.68,7.23-6.15,11.66-4.72c4.89,1.57,8.25,5.72,8.39,10.33c0.19,6.52-6.5,11.06-11.71,7.5
					c-1.79-1.22-3.11-4.95-2.63-7.08c0.39-1.73,3.67-3.09,5.93-3.94c0.6-0.22,2.84,1.93,3.05,3.2c0.2,1.22-1.02,3-2.12,3.94
					c-0.51,0.44-2.23-0.56-3.41-0.91c0.76-1.32,1.33-1.47,1.9-1.62c0.66-0.16,1.32-0.32,1.98-0.47c-0.1-0.61-0.2-1.22-0.29-1.83
					c-1.49,0.33-3.93,0.27-4.26,1.08c-0.62,1.5-0.68,4.46,0.22,5.09c1.49,1.04,4.65,1.62,5.8,0.72c1.68-1.31,3.55-4.66,2.93-6.13
					c-1.15-2.75-3.83-6.37-6.26-6.69c-2.77-0.36-6.74,1.78-8.78,4.08c-3.42,3.83-2.51,8.96-1.02,13.53
					c3.3,10.12,7.43,20.11,0.84,30.98c5.21-0.76,9.35-1.21,13.43-2c22.33-4.28,41.14-13.07,48.51-37.1
					c2.12-6.91,6.46-12.71,12.8-16.46c2.67-1.58,5.43-3.01,8.22-4.38v4.97c-6.05,1.63-11.59,5.67-14.6,11.51
					c-1.84,3.57-3.16,7.47-4.22,11.35c-3.21,11.78-10.12,20.46-21.15,25.69c-5.63,2.66-11.44,4.95-17.17,7.41
					c-1.3,0.56-2.59,1.15-3.47,1.54c12.62,4.65,25.17,9.39,37.81,13.83c2.79,0.98,6.01,1.42,8.95,1.17
					c5.4-0.46,10.42-2.13,13.84-6.12v4.02c-1.21,1.08-2.56,2-4.05,2.72c-8.95,4.35-17.95,3.39-26.97-0.11
					c-7.06-2.75-14.05-6.24-21.39-7.58c-16.26-2.97-32.98-4.45-46.92,6.86c-6.62,5.37-11.96,12.58-16.86,19.67
					c-2.31,3.34-4.92,8.48-1.63,12.64c2.37,2.99,6,5.54,9.59,6.9c8.93,3.38,18.33,3.37,27.32,0.26
					c9.08-3.14,18.89-15.08,11.36-27.22c-3.25-5.24-9.16-7.86-15.22-6.58c-6.5,1.37-9.64,4.95-10.42,11.86
					c-0.61,5.4,3,10.33,8.1,11.06c5.57,0.79,10.36-1.96,10.49-6.78c0.06-1.99-1.68-4.57-3.38-5.88c-1.08-0.84-3.94-0.39-5.3,0.53
					c-0.84,0.56-0.6,3.14-0.33,4.71c0.08,0.5,1.86,0.69,2.86,1.03c-0.42-1.37-0.85-2.73-1.27-4.04c3.52-0.12,5.5,1.81,3.75,4.13
					c-1.06,1.4-3.3,2.41-5.09,2.54c-1.19,0.09-3.52-1.61-3.6-2.63c-0.17-2.63-0.29-6.67,1.24-7.7c2.39-1.62,6.95-2.61,9.11-1.34
					c2.41,1.42,4.14,5.57,4.41,8.68c0.37,4.29-2.32,7.54-6.81,8.87c-5.6,1.65-11.14,0.63-14.13-3.94c-2.43-3.7-4.37-9.56-3.18-13.43
					c3.03-9.83,15.82-14.03,24.68-9.33c10.47,5.55,14.17,18.58,8.58,27.97c-8.88,14.96-22.5,18.76-38.53,17.3
					c-4.01-0.36-7.95-1.52-11.96-2.06c-3-0.41-5.99,0-6.89,3.56c-1.4,5.54-3.61,11.17-3.53,16.74c0.17,13.12,5,18.02,17.6,13.16
					c18.85-7.27,34.36-18.44,42.43-38.01c2.2-5.35,5.35-10.39,8.55-15.25c4.74-7.21,11.72-12.56,19.58-15.03
					c13.38-4.21,26.23-2.55,37.82,5.15v7.09c-0.64-0.72-1.36-1.42-2.12-2.07c-6.91-5.9-14.88-6.89-23.71-5.64
					c-9.17,1.3-17.18,4.25-22.76,11.91c-2.35,3.24-4.16,6.88-6.14,10.37c-4.07,7.18-7.69,14.67-12.27,21.51
					c-4.53,6.77-10.03,12.89-15.16,19.34c9.6,8.9,32.21,8.68,41.54-0.85c3.86-3.95,4.4-10.06,1.36-15.46
					c-2.91-5.18-8.07-8.22-12.96-6.34c-2.91,1.12-6.47,4.02-7.06,6.71c-0.62,2.79,1.31,6.87,3.37,9.33
					c1.02,1.22,2.33,1.77,3.67,1.77l-0.04,1.77c-2.59-0.02-5.08-1.27-6.9-3.65c-3.41-4.47-3.49-10.27-0.21-14.57
					c3.1-4.05,9.86-5.4,15.24-3.06c12.9,5.64,14.89,22.2,3.37,30.37c-4.17,2.96-9.25,4.64-14.21,7.05
					c9.63,6.4,19.11,13.2,29.11,19.13c4.98,2.95,9.84,1.3,12.13-2.44c2.34-3.79,1.53-9.08-1.92-11.96
					c-3.11-2.59-6.81-3.01-9.67-0.35c-1.42,1.32-1.61,4.46-1.46,6.72c0.06,0.95,2.45,2.45,3.75,2.42c1.33-0.04,2.96-1.42,3.78-2.66
					c0.42-0.63-0.65-2.25-2.25-3.22c-0.31,1.25-0.62,2.51-0.93,3.76c-0.43,0.05-0.86,0.1-1.3,0.15c-0.29-1.32-1.21-3.43-0.75-3.8
					c1.26-1.01,3.62-2.18,4.62-1.62c1.55,0.87,3.62,3.75,3.18,4.65c-1.04,2.11-3.4,4.92-5.29,4.96c-2.44,0.05-5.88-1.71-7.18-3.76
					c-2.14-3.4-1.06-7.27,2.4-9.82c3.83-2.83,7.98-2.84,11.75-0.09c4.28,3.1,6.23,7.47,5.32,12.82c-0.84,4.93-3.97,7.62-8.76,8.56
					c-0.63,0.12-1.24,0.36-1.3,0.38c2.3,5.09,5.41,9.87,6.63,15.1c3.86,16.44-10.71,29.54-26.89,24.52
					c-6.61-2.05-10.32-6.87-11.38-13.56c-0.85-5.3,1.96-10.01,7.29-12.71c6.18-3.13,12.36-3.22,18.17,0.88
					c3.41,2.41,4.33,6.01,3.37,9.9c-1.06,4.28-3.85,7.69-8.31,7.66c-3.57-0.04-7.64-1.22-10.45-3.31c-1.25-0.94-0.82-5.83,0.47-7.94
					c0.92-1.51,4.58-1.88,6.95-1.71c1.09,0.08,2.8,2.68,2.76,4.1c-0.05,1.3-2.07,2.53-4.1,2.97c0.24-1.56,0.49-3.12,0.73-4.68
					c-0.94-0.1-2.02-0.55-2.81-0.24c-2.49,0.97-3.09,5.7-0.6,6.65c2.52,0.96,6.01,1.04,8.44,0.01c1.57-0.67,2.88-4.08,2.74-6.17
					c-0.26-3.99-3.35-5.94-7.21-6.62c-6.28-1.09-11.7,2.17-13.3,8.07c-1.47,5.43,1.43,10.19,7.58,12.42
					c6.84,2.47,14.46,0.67,19.03-4.49c4.69-5.32,5.34-12.54,1.61-19.33c-1.05-1.91-2.25-3.85-3.78-5.35
					c-18.5-18.04-40.09-28.47-66.53-25.57c-14.85,1.64-25.81,10.22-34.08,22.16c-1.86,2.69-2.44,6.65-2.59,10.06
					c-0.65,14.32-0.58,28.67-1.43,42.97c-0.85,14.38,1.45,28.19,5.17,41.96c1.37,5.1,1.84,10.44,2.79,16.11c-17.99,0-34.93,0-52.2,0
					c0.02-21.7-3.38-43.13,0.83-64.62c2.23-11.37,4.04-22.91,1.89-34.66c-2.04-11.17-9.23-17.47-20.51-16.15
					c-6.62,0.77-13.27,2.56-19.52,4.9c-12.48,4.67-25.09,8.9-38.42,5.67c-8.07-1.95-15.71-5.76-23.48-8.9
					c-4.5-1.82-8.7-4.52-13.32-5.86c-4.77-1.38-11.21,2.02-13.46,6.07c-2.16,3.89-1.4,10.52,1.71,14.34
					c3.36,4.12,7.65,5.28,12.7,3.76c5.06-1.52,6.99-5.47,5.24-10.72c-1.69-5.06-6.61-7.56-11.2-5.69c-0.47,0.19-0.94,0.4-1.34,0.71
					c-2.57,2-3.12,4.63-1.06,7c0.88,1.02,3.15,0.84,4.78,1.2c-0.1-1.96-0.2-3.91-0.35-6.77c1.99-0.78,4.17,0.83,4.48,3.28
					c0.25,2.01-0.8,5.09-2.35,6.25c-3.24,2.41-7.88,0.48-9.69-3.3c-1.96-4.1-0.36-8.84,3.62-10.76c5.08-2.44,11.76-0.52,14.75,4.23
					c3.24,5.16,2.42,12.06-1.86,15.7c-4.41,3.76-13.01,3.79-17.46,0.07c-5.41-4.53-7.66-14.95-4.64-21.45
					c2.83-6.08,10.31-9.41,18.11-7.89c2.46,0.48,4.86,1.32,8.32,2.28c-1.21-1.95-1.95-3.3-2.84-4.56
					c-10.2-14.3-5.52-31.41,0.62-41.09c7.59-11.98,29.2-15.77,40.96-7.84c10.09,6.8,12.79,20.44,6.14,30.91
					c-5.83,9.19-18.72,11.91-28.7,6.07c-8.35-4.88-10.96-15.08-6.1-23.8c3.52-6.33,14.07-8.72,21.16-4.79
					c5.61,3.11,7.98,9.67,5.45,15.14c-2.34,5.08-9.3,7.9-14.63,5.93c-3.85-1.43-6.04-5.69-4.69-9.38c1.31-3.58,4.15-5.14,7.6-3.95
					c1.53,0.53,3.32,2.96,3.3,4.5c-0.02,1.18-2.69,2.32-4.74,2.39c0.59-1.36,1.18-2.71,1.77-4.05c-1.1-0.19-2.91-0.87-3.18-0.47
					c-0.94,1.36-2.17,3.38-1.74,4.59c0.55,1.56,2.67,3.66,4.02,3.59c2.43-0.11,5.62-1.04,6.95-2.79c1.33-1.76,1.53-5.17,0.87-7.46
					c-1.38-4.72-7.82-7.24-13.11-5.82c-4.99,1.34-7.66,5.35-7.16,10.72c0.66,7.13,4.87,12.51,11.09,14.17
					c6.28,1.68,13.08-0.79,16.98-6.18c4.53-6.26,4.88-14.5,0.87-20.39c-5.69-8.34-16.98-11.11-27.16-6.65
					c-18.36,8.04-22.59,31.89-8.34,46.51c10.5,10.76,23.46,13.02,37.7,11.57c8.98-0.92,16.57-5.27,24.54-8.93
					c7.92-3.63,16.14-6.77,24.49-9.26c9.51-2.84,13.75-10.39,10.08-19.8c-0.54-1.4-1.25-2.81-2.17-3.97
					c-9.32-11.69-19.73-21.23-35.61-23.58c-17.07-2.52-33.82-5.29-51.17-1.36c-6.42,1.46-13.62-0.39-20.45-0.99
					c-2.49-0.22-4.92-1.16-7.38-1.74c-13.17-3.14-21.2-0.19-31.52,12.62c-5.45,6.78-3.5,19.99,2.91,24.93
					c7.27,5.61,18.54,4.33,24.77-2.76c3.09-3.53,3.96-7.44,1.77-11.67c-2.3-4.41-6.05-6.85-11.1-6.52c-4.66,0.3-9,2.2-10.11,6.94
					c-0.6,2.56,0.65,7.68,2.16,8.15c3.04,0.95,6.83-0.47,10.29-1c0.32-0.05,0.85-0.89,0.76-1.21c-0.59-1.93-1.12-3.94-2.17-5.63
					c-0.26-0.42-2.32,0.26-3.55,0.44c0.57,1.5,1.13,3.01,2.21,5.86c-2.17-0.97-4.6-1.33-4.97-2.39c-0.54-1.57-0.23-4.22,0.83-5.41
					c2.64-2.96,5.96-2.71,8.99-0.18c3.2,2.68,3.57,6.63,1.01,9.89c-3.86,4.92-13.21,6.29-17.38,2.54
					c-4.18-3.75-3.79-12.37,0.87-16.96c5.17-5.11,11.37-5.37,17.89-3.5c5.46,1.57,8.61,5.48,9.15,10.94
					c0.67,6.85-1.8,12.7-7.72,16.53c-15.24,9.87-32.89,1.21-34.56-16.86c-0.13-1.49-0.26-2.97-0.47-5.26
					c-6.37,0.83-12.45,1.83-18.56,2.35c-5.52,0.47-11.15,1.04-16.6,0.42c-7.25-0.82-10.7-7.45-8.86-15.4
					c1.51-6.56,7.72-10.82,13.66-8.4c2.63,1.07,5.23,4.28,6.05,7.05c0.59,2.04-1.1,5.76-2.96,7.19c-1.66,1.28-5.19,1.14-7.42,0.34
					c-1.49-0.54-2.97-3.36-2.93-5.13c0.03-1.46,2.07-3.27,3.64-4.14c0.86-0.47,3.09,0.35,3.85,1.28c0.66,0.82,0.14,2.6-1.07,4.13
					c-0.62-1.17-1.24-2.33-1.91-3.6c-0.57,0.25-1.19,0.31-1.42,0.65c-1.83,2.69-0.14,4.62,2.11,4.74c1.82,0.09,4.73-1.28,5.43-2.79
					c1.89-4.11-2.27-8.44-6.95-7.74c-4.2,0.63-7.52,4.42-7.69,8.81c-0.17,4.37,2.89,8.83,7.53,9.44c3.55,0.46,7.63,0.36,10.88-0.94
					c9.36-3.75,18.59-7.91,27.55-12.52c9.91-5.11,18.38-13.42,32.01-12.15c-5.41-8.37-7.4-16-6.52-24.34
					c1.48-14.15,9.51-22.72,23.25-24.55c15.16-2.02,27.17,9.9,25.27,25.09c-1.04,8.3-11.24,14.69-21.3,13.34
					c-9.47-1.27-14.23-6.98-13.14-15.74c0.73-5.91,5.64-10.13,11.9-10.25c5.76-0.1,10.91,3.74,10.88,9.67
					c-0.01,2.9-2.63,7.3-5.11,8.23c-2.38,0.9-6.43-1.36-9.07-3.21c-0.92-0.64-0.36-4.45,0.57-6.28c0.55-1.09,3.28-1.77,4.77-1.45
					c1.01,0.22,1.59,2.5,2.36,3.85c-0.41,0.3-0.81,0.6-1.21,0.9c-1.05-0.76-2.11-1.52-4.17-3c0,2.11-0.55,4.05,0.13,4.7
					c0.96,0.93,3.57,1.69,4.18,1.12c1.83-1.68,4.28-4.16,4.12-6.12c-0.16-1.89-3-4.37-5.17-5.09c-4.44-1.48-9.36,1.75-10.73,6.17
					c-1.49,4.82,0.7,9.75,5.25,11.84c6.99,3.21,16.89,0.87,19.88-4.69c4.35-8.1,1.61-17.95-6.24-22.47
					c-12.11-6.97-26.43-1.46-30.66,11.79c-6.71,20.97,8.38,39.15,30.19,36.09c7.3-1.03,14.49-2.91,22.38-4.54
					c-0.82-1.5-1.33-3.09-2.36-4.22c-4.44-4.9-5.41-10.77-4.65-16.98c1.24-10.08,11.94-17.28,21.42-14.66
					c10.06,2.79,13.97,15.98,6.24,22.91c-2.28,2.05-7.43,2.31-10.74,1.43c-3.83-1.02-6.82-4.66-6.59-9.14
					c0.13-2.55,0.99-6,2.78-7.32c3.19-2.34,7.66-2.84,10.59,0.6c1.42,1.66,2.33,5.75,1.33,6.99c-1.41,1.74-4.8,2.18-7.41,2.39
					c-0.6,0.05-1.45-3.12-2.19-4.81c1.77-0.62,3.54-1.24,5.3-1.87c0.14,0.47,0.28,0.94,0.42,1.41c-0.72,0.79-1.44,1.59-2.16,2.38
					c0.62,0.45,1.72,1.37,1.79,1.29c0.96-0.99,2.67-2.41,2.43-3.15c-0.55-1.67-2.39-4.41-3.15-4.23c-2.34,0.53-4.99,1.78-6.38,3.61
					c-0.82,1.08-0.2,4.62,0.97,5.59c2.27,1.88,6.23,4.46,7.97,3.61c2.91-1.42,6.28-5.22,6.38-8.13c0.12-3.09-2.58-7.63-5.38-9.25
					c-8.99-5.24-19.89,2.33-19.19,12.75c0.88,12.92,9.76,21.37,22.77,21.66c3.71,0.08,7.42,0.14,11.13,0.26
					c14.61,0.46,27.97,4.17,38.79,14.67c1.04,1.01,2.44,1.66,3.63,2.45c4.49-5.28,3.91-19.09-0.82-24.1
					c-6.74-7.14-16.27-8.96-24.64-13.03c-6.03-2.93-11.78-6.61-17.18-10.6c-5.26-3.89-9.46-9.35-14.98-12.72
					c-4.51-2.76-10.19-4.52-15.49-4.9c-16.99-1.23-31.42-6.99-42.28-20.57c-4.5-5.62-8.58-11.57-16.05-14.12
					c-20-6.83-42.52,6.8-44.78,27.77c-0.91,8.45,1.4,16.32,8.91,21.32c7.22,4.82,15.01,4.66,22.55,0.53
					c6.96-3.82,10.04-11.72,7.75-19.03c-3.03-9.62-16.04-13.26-23.7-6.64c-3.21,2.77-4.25,8.3-2.08,12.07
					c2.26,3.94,5.92,5.96,10.2,4.51c2.13-0.72,4.38-3.25,5.02-5.43c0.46-1.58-1.21-4.47-2.78-5.69c-1.04-0.8-3.76-0.03-5.36,0.77
					c-0.7,0.35-0.47,2.55-0.65,3.91c0.41,0.13,0.81,0.26,1.22,0.38c0.99-0.88,1.97-1.76,2.96-2.63c0.45,0.25,0.9,0.5,1.35,0.75
					c-0.84,1.54-1.67,3.06-2.51,4.59c-1.93-1.24-4.89-2.07-5.58-3.8c-1.5-3.82,0.81-6.37,4.65-7.42c4.57-1.25,8.75,1.12,9.78,5.53
					c1.59,6.82-4.26,13.16-11.45,12.4c-5.66-0.6-9.93-4.28-11.09-9.57c-1.27-5.79,1.18-11.35,6.29-14.19
					c9.69-5.42,22.99-1.38,27.31,8.28c4.28,9.59-2.48,23.1-13.49,26.95c-13.17,4.6-28.36-2.97-32.53-16.24
					c-2.99-9.53-2.42-18.63,3.42-27.07c2.09-3.02,4.15-6.07,6.31-9.24c-0.59-0.39-0.96-0.85-1.35-0.87
					c-19.53-0.75-33.31-9.55-39.93-28.43c0-3.37,0-6.75,0-10.12c0.49-1.24,1.04-2.47,1.47-3.74c5.47-16.32,22.27-22.65,37.21-14
					c7.39,4.28,10.6,12.67,8.01,20.93c-2.48,7.91-10.31,12.68-19.53,11.89c-8.19-0.71-13.47-5.92-14.48-14.3
					c-0.7-5.82,1.95-10.81,6.84-12.84c5.6-2.33,13.09-0.94,16.36,3.18c2.42,3.05,3.15,6.41,0.65,9.76
					c-2.56,3.42-6.1,4.94-10.23,3.62c-3.17-1-4.86-3.24-3.24-7.3c1.1,0.85,1.77,1.62,2.62,1.98c1.83,0.79,3.88,2.08,5.6,1.78
					c1.13-0.2,2.79-3.06,2.49-4.31c-0.45-1.82-2.15-3.79-3.85-4.74c-3.8-2.12-9.53-0.79-11.97,2.49c-2.77,3.7-2.38,7.56,0.04,11.32
					c3.42,5.29,8.74,7.41,14.88,5.95c5.65-1.34,9.68-5.88,10.39-11.7c0.74-6.02-2.65-12.27-8.17-15.06
					c-9-4.55-17.92-3.45-24.27,3.01c-7.27,7.38-8.9,17.7-4.15,26.53c4.91,9.14,12.75,15.01,22.83,15.63
					c10.99,0.67,22.14-0.38,33.17-1.23c7.52-0.58,14.8-0.74,21.83,2.46c1.15,0.53,2.45,0.73,3.91,1.15c0.41-1.9,0.71-3.37,1.04-4.83
					c4.01-17.58,24.74-28.35,41.36-21.49c9.44,3.9,14.66,13.41,13.06,23.83c-1.04,6.81-8.55,12.64-17.14,13.31
					c-11.82,0.92-19.98-7.74-16.84-17.87c1.88-6.06,8.79-9.71,15-7.94c5.29,1.51,8.39,7.03,6.93,12.33
					c-1.56,5.67-9.02,7.75-12.8,3.25c-1.25-1.47-1.53-4.4-1.1-6.41c0.27-1.25,2.63-2.62,4.2-2.84c1-0.13,2.46,1.62,3.34,2.79
					c0.3,0.4-0.51,1.64-0.92,2.82c-1.19-1.27-2.03-2.17-4.07-4.34c0,2.85-0.43,5.2,0.07,5.42c1.8,0.79,4.53,1.78,5.76,0.96
					c1.58-1.06,3.2-4.14,2.71-5.69c-0.67-2.15-2.99-4.51-5.14-5.3c-4.11-1.51-8.62,1.11-10.39,5.07c-1.88,4.2-0.66,9.18,2.9,11.82
					c4.46,3.33,13.32,3.66,17.79,0.67c4.86-3.24,7.2-9.99,5.62-16.17c-2.01-7.87-7.63-11.69-15.13-13.05
					c-8.15-1.48-15.39,0.76-20.06,7.68c-6.08,9.02-6.99,19.02-1.96,28.83c5.05,9.83,13.39,15.45,24.56,16.21
					c7.91,0.54,15.83,0.72,23.96,1.07c-1.54-9.21,0.67-18.91,6.27-27.42c6.41-9.76,4.75-18.66-0.72-27.91
					c-2.99-5.06-5.98-10.25-8.01-15.74c-3.95-10.7-2.3-20.6,6.07-28.87c9.81-9.68,27.06-7.82,32.66,3.49
					c2.94,5.94,1.36,14.44-3.48,18.6c-4.28,3.68-11.45,3.94-16.55,0.58c-5.32-3.5-6.86-10.55-3.4-15.52
					c2.53-3.63,7.82-4.85,11.75-2.71c3.5,1.9,5.36,6.17,3.31,9.42c-1.11,1.76-3.87,3.46-5.83,3.41c-1.69-0.05-3.62-2.41-4.79-4.19
					c-0.45-0.67,0.61-2.93,1.58-3.77c0.76-0.67,2.62-0.68,3.67-0.23c0.71,0.3,0.86,1.91,1.26,2.93c-0.31,0.19-0.62,0.38-0.93,0.57
					c-0.84-0.73-1.68-1.46-2.51-2.19c-0.41,0.21-0.81,0.43-1.21,0.65c0.53,1.24,0.91,3.41,1.61,3.52c1.56,0.23,4.15-0.05,4.73-1.06
					c0.82-1.41,0.97-4.43,0.02-5.36c-1.45-1.43-4.31-2.6-6.14-2.16c-2.05,0.5-4.4,2.6-5.26,4.59c-1.91,4.47,1.83,9.63,7.16,10.73
					c5.52,1.15,10.93-1.59,12.86-6.52c2.39-6.08,0.56-11.87-4.72-14.94c-8.11-4.71-19.42-1.85-24.68,5.96
					c-5.95,8.84-4.52,17.12,1.26,25.33c5.99,8.51,12.99,16.55,13.01,28.43c2.6-1.01,4.44-1.76,6.29-2.44
					c12.15-4.42,24.01-4.87,35.45,2.34c9.63,6.07,14.28,16.24,12.25,27.3c-1.84,10.06-8.94,17-19.28,18.84
					c-8.17,1.46-16.39-2.06-20.1-8.6c-3.86-6.83-2.83-15.96,2.53-22.21c5.35-6.24,14.94-6.58,20.72-0.72
					c3.81,3.85,4.37,10.38,1.28,14.94c-2.83,4.17-8.35,6.16-12.92,3.65c-2.26-1.24-4.84-4.45-4.78-6.69
					c0.07-2.56,2.54-5.52,4.77-7.34c1.05-0.85,4.3,0.01,5.88,1.09c1.14,0.78,1.88,3.39,1.48,4.8c-0.31,1.08-2.65,1.68-4.19,2.22
					c-0.36,0.12-1.12-0.87-1.88-1.5c1.49-0.94,2.61-1.65,3.73-2.35c-0.12-0.55-0.24-1.11-0.36-1.67c-1.61,0.2-3.92-0.18-4.67,0.73
					c-1.05,1.28-1.73,3.78-1.21,5.3c1.58,4.59,8.04,4.87,11.13,0.72c3.88-5.18,0.88-12.68-5.73-14.21
					c-4.51-1.04-8.57-0.12-11.08,3.99c-3.11,5.09-5.97,10.45-2.35,16.53c4.65,7.79,15.98,10.13,23.6,4.96
					c11.07-7.5,11.99-24.73,1.77-33.4c-14.05-11.94-35.5-7.81-47.04,9.06c-11.22,16.41-9.25,32,6.27,42.79
					c5.68,3.94,12.44,6.62,19.05,8.86c12.64,4.29,21.97,0.67,29.01-10.61c1.86-2.98,3.33-6.25,4.62-9.53
					c4.47-11.34,3.61-23.24,3.12-35.01c-0.69-16.6-2.28-33.13-11.94-47.45c-7.98-11.81-16.73-23.37-29.89-29.49
					c-13.1-6.1-26.94-10.67-40.63-15.42c-12.42-4.31-24.81-4.17-36.79,2.11c-17.1,8.97-21.31,23.48-12.59,40.69
					c8.38,16.52,28.03,14.58,36.9,5.94c7.07-6.89,8.24-17.95,2.32-25.24c-5.45-6.72-14.87-7.48-23.35-1.89
					c-4.13,2.72-5.73,6.56-4.76,11.34c1.02,5.02,4.28,7.93,9.29,8.74c4.83,0.78,10.24-2.66,9.89-6.96c-0.2-2.48-2.32-5.36-4.43-6.91
					c-1.03-0.75-4.16,0.87-6,1.98c-0.56,0.33-0.14,2.61,0.2,3.9c0.12,0.48,1.3,0.67,2.03,1.02c0.65-1.56,1.17-2.82,1.68-4.08
					c0.56,0.02,1.1,0.03,1.66,0.05c0.12,1.67,0.84,3.65,0.17,4.9c-0.57,1.08-2.91,2.07-4.11,1.76c-1.73-0.45-4.1-1.88-4.47-3.33
					c-0.55-2.17-0.44-5.83,0.91-6.86c2.42-1.83,6.15-3.24,9.01-2.81c2.31,0.35,5.05,3.33,6.04,5.78c2.33,5.73-0.84,11.77-6.51,14.02
					c-6.43,2.54-14.26,0.02-17.27-5.57c-4.49-8.35-1.76-17.06,6.71-21.42c11.25-5.78,26.43-1.36,30.07,8.77
					c5.55,15.43-4.75,31.77-21.05,33.41c-22.2,2.22-39.84-16.77-35.19-38.75c1.47-6.96,5.48-13.38,8.31-19.99
					c-2.79-2.47-6.75-5.16-9.66-8.72c-6.06-7.41-5.29-17.58,1.3-25.58c5.04-6.12,13.26-7.73,20.61-4.03
					c5.47,2.76,7.87,8.24,6.52,14.8l-1.55-0.29c0.42-2.38-0.42-5-1.74-7.38c-2.17-3.89-5.61-5.86-10.02-5.6
					c-5.76,0.34-10.53,2.72-12.9,8.28c-2.55,5.99-1.37,11.64,2.75,16.54c4,4.75,9.29,6.43,15.04,4.16
					c14.68-5.81,29.16-3.61,43.66,0.42c4.13,1.15,8.22,2.46,12.56,3.77c-1.11-5.08-2.51-9.45-2.96-13.91
					c-1.29-12.65,6.94-21.69,19.48-21.85c12.41-0.16,20.28,8.38,19.54,21.15c-0.36,6.23-3.65,10.45-9.12,12.9
					c-5.39,2.41-10.46,0.82-14.52-2.91c-4.28-3.94-5.41-9.18-3.94-14.86c1.12-4.35,3.88-7.59,8.36-7.53
					c3.2,0.05,7.95,1.08,9.17,3.27c1.8,3.22,1.89,8,1.19,11.84c-0.61,3.34-4.47,4.52-7.38,2.7c-1.86-1.15-3.17-3.97-3.62-6.26
					c-0.19-0.93,2.39-2.86,4.04-3.48c0.64-0.24,2.17,1.88,3.54,3.16c-2.5,0.17-3.92,0.27-5.34,0.36c0.21,0.92,0.2,2.48,0.66,2.63
					c1.46,0.5,3.59,1.16,4.54,0.47c1.21-0.86,2.14-3,2.09-4.56c-0.13-4.2-3.58-7.24-7.19-6.91c-4.11,0.37-7.62,4.6-7.35,8.86
					c0.33,5.33,5.51,10.25,11.16,10.62c5.54,0.36,9.76-3.27,10.65-9.3c0.99-6.7-1.62-11.95-7.03-15.72
					c-5.6-3.9-11.47-3.42-17.16-0.09c-5.8,3.4-8.7,8.66-7.7,15.28c1.4,9.33,5.4,16.9,15.4,19.93c12,3.64,23.67,8.16,32.97,17.03
					c5.97,5.69,11.92,11.45,17.38,17.62c2.38,2.68,4.23,3.04,6.72,1.04c2.09-1.68,4.16-3.48,5.85-5.54
					c8.41-10.25,13.92-21.92,15.9-35.05c2.36-15.68-3.39-28.25-16.1-37.36c-10.99-7.89-26.76-2.62-29.37,9.36
					c-1.75,8.04,4.57,20.47,12.08,23.79c6.52,2.87,15.26,1,18.88-4.04c4.08-5.67,3.55-15.8-1.99-20.44
					c-2.68-2.24-6.86-3.37-10.45-3.63c-3.56-0.26-6.97,4.95-5.61,7.99c0.61,1.37,2.9,2.23,4.59,2.74c0.54,0.16,1.65-1.56,2.49-2.42
					c-1.34-0.33-2.69-0.63-4.02-1.01c-0.23-0.07-0.37-0.47-1.24-1.62c1.76-0.59,3.82-1.92,4.58-1.4c1.4,0.97,3.02,3.21,2.77,4.61
					c-0.32,1.78-2.13,4.14-3.78,4.62c-1.89,0.55-4.95,0.04-6.35-1.27c-4.49-4.16-1.2-14.32,4.79-15.71
					c6.29-1.47,13.85,1.7,17.13,7.18c5.03,8.38,3.24,21.14-3.7,26.41c-7.06,5.36-20.25,3.55-26.81-3.67
					c-4.77-5.25-6.65-11.69-7.2-18.51c-0.85-10.55,4.33-18.1,14.83-19.39c7.24-0.9,14.78,0.6,22.5,1.05
					c0.2-5.54,3.66-10.62,9.39-14.27c1.68,0,3.37,0,5.06,0c2.29,1.67,4.96,3.02,6.8,5.09c4.29,4.83,2.64,12.51-3.17,14.18
					c-2.19,0.63-5.59-0.07-7.31-1.5c-1.46-1.22-2.08-4.55-1.62-6.63c0.36-1.58,2.81-3.17,4.66-3.78c1.06-0.36,3.4,0.88,4,2.01
					c0.61,1.15,0.18,3.31-0.58,4.54c-0.4,0.63-2.51,0.25-3.83,0.19c-0.15-0.01-0.27-0.82-0.48-1.51c1.31-0.21,2.45-0.4,3.59-0.59
					c-0.08-0.61-0.16-1.22-0.23-1.83c-1.44,0.16-3.86-0.08-4.13,0.56c-0.63,1.55-0.97,4-0.14,5.2c1.86,2.68,6.32,1.95,8.13-1
					c2.07-3.38,1.34-6.56-1.31-9.2c-2.81-2.79-6.24-3.47-9.69-1.28c-4.33,2.75-6,7-4.68,11.83c1,3.68,2.6,7.34,4.63,10.58
					c12.83,20.53,13.44,40.12-2.29,59.88c-5.63,7.08-8.94,16.11-12.77,24.5c-1.76,3.86-1.01,8.19,2.68,10.99
					c3.49,2.66,6.98,0.64,9.77-1.43c7.85-5.82,15.78-11.62,22.93-18.23c1.91-1.76,1.62-6.49,1.27-9.75
					c-0.11-1.06-3.56-1.94-5.59-2.44c-0.32-0.08-1.25,2.29-1.89,3.52c1.7,0.24,3.4,0.49,6.65,0.96c-2.08,1.53-3.65,3.54-4.83,3.33
					c-1.7-0.29-3.98-1.92-4.47-3.48c-1.28-4.05,1.14-7.44,5.14-8.34c4.3-0.96,8.62,1.34,9.58,5.27c0.42,1.73,0.49,3.55,0.84,6.32
					c9.57-8.46,17.81-17.06,23.61-27.57c2.64-4.77,4.61-10.18,5.6-15.53c1.28-6.98-4.04-12.86-11.83-14.51
					c-7.45-1.58-13.88,1.85-16.18,8.65c-2.23,6.58,2.57,13.41,9.33,12.57c2.16-0.27,5.06-2.5,5.75-4.48c0.7-2.05-0.6-5.01-1.65-7.29
					c-0.32-0.72-2.71-0.77-4.08-0.59c-0.68,0.08-1.21,1.37-1.8,2.12c0.94,0.63,1.96,1.18,2.8,1.92c0.75,0.67,1.96,1.81,1.78,2.33
					c-0.3,0.89-1.5,2.01-2.39,2.07c-3.44,0.24-5.48-1.58-5.52-5.06c-0.04-3.84,1.99-6.36,5.7-7.36c3.77-1.01,6.62,0.5,8.59,3.68
					c2.41,3.88,1.85,9.65-1.3,13.25C638.16,88.64,633.83,89.39,629.11,87.89z"/>
			</g>
		</g>
	</g>
	<g>
		<path class="st10" d="M349.54,416.59c-4.89-1.64-8.25-2.58-11.46-3.88c-5.24-2.12-7.46-5.28-5.46-11.51
			c1.51-4.68,0.99-10.01,1.45-16.11c10.73,9.96,21.54,10.53,32.24-0.58c-4.11,11.62,6.89,30.07-14.68,30.96
			c1.59,9.92,3.21,19.05,4.3,28.24c0.14,1.13-2.98,3.96-3.92,3.69c-7.01-2-10.92-13.55-7.33-20.32
			C346.29,424.04,347.58,420.85,349.54,416.59z"/>
		<path class="st10" d="M355.45,438.01c5.61,2.28,10.65,0.51,15.35-2.49c11.13-7.12,20.34-16.11,24-29.91
			c1.37-5.16-0.08-9.87-3.99-13.25c-3.54-3.06-7.68-3.78-12-1.55c-3.37,1.74-5.09,5.29-3.32,8.17c1.02,1.66,3.49,3.55,5.03,3.31
			c1.82-0.28,3.92-2.43,4.84-4.34c1.15-2.4-1.41-4.19-4.51-3.26c0.4,0.88,0.81,1.77,1.21,2.65c-0.17,0.3-0.35,0.59-0.52,0.89
			c-1.03-0.44-2.06-0.89-3.09-1.33c0.59-1.13,1.05-3.09,1.81-3.23c1.69-0.32,4.75-0.25,5.07,0.58c0.75,1.97,1.01,5.07-0.01,6.62
			c-1.05,1.6-4.04,2.88-5.85,2.51c-2.02-0.41-4.35-2.48-5.31-4.49c-1.24-2.6-0.31-5.54,1.93-7.7c5.65-5.45,16.03-2.68,19.01,5.12
			c1.91,5,1.28,9.96-0.77,14.64c-5.52,12.58-14.66,21.44-26.34,27.37C363.92,440.4,359.57,440.73,355.45,438.01"/>
		<path class="st8" d="M351.63,415.46c0,0,16.64,20.97,2.44,30.63L351.63,415.46z"/>
	</g>
	<g>
		<g>
			<g>
				<g>
					<path class="st2" d="M342.55,316.13c10.28,12.95,9.22,28.46-2.68,40.04c-8.16,7.94-18.17,12.07-29.16,14.22
						c-0.29,0.06-0.58,0.15-1.07,0.28c1.75,6.54,4.25,12.59,8.97,17.54c-0.09,0.21-0.18,0.41-0.27,0.62
						c-2.12-0.64-4.34-1.05-6.34-1.95c-6.5-2.95-11.47-7.85-15.87-13.31c-1.37-1.7-2.84-2.14-4.9-2.33
						c-13.58-1.21-25.99-5.4-36.02-15.08c-7.01-6.76-10.68-14.97-9.53-24.83c0.96-8.25,5.32-14.73,11.51-20.02
						c8.4-7.18,18.3-10.98,29.12-12.66c13.06-2.03,25.76-0.75,37.97,4.33C331.36,305.94,337.71,310.04,342.55,316.13z"/>
				</g>
			</g>
		</g>
	</g>
	<g>
		<g>
			<path class="st1" d="M271.08,343.12v-6.93l-2.05,3.58h-2.28l-2.05-3.58v6.93h-3.56v-14.47h3.5l3.25,6.38l3.25-6.38h3.5v14.47
				H271.08z"/>
			<path class="st1" d="M277.57,343.12v-14.47h9.82v3.17h-6.28v2.42h5.37v3.17h-5.37v2.54h6.28v3.17H277.57z"/>
			<path class="st1" d="M300.46,335.88c0,0.54,0,1.07-0.01,1.6c-0.01,0.52-0.05,1.03-0.14,1.51c-0.09,0.49-0.23,0.95-0.44,1.39
				c-0.2,0.44-0.49,0.85-0.87,1.23c-0.53,0.53-1.11,0.93-1.74,1.21c-0.64,0.28-1.4,0.42-2.29,0.42c-0.89,0-1.66-0.14-2.29-0.42
				c-0.64-0.28-1.22-0.68-1.75-1.21c-0.38-0.38-0.67-0.79-0.87-1.23c-0.2-0.44-0.35-0.9-0.44-1.39c-0.09-0.49-0.14-0.99-0.14-1.51
				c-0.01-0.52-0.01-1.05-0.01-1.6s0-1.07,0.01-1.6c0.01-0.52,0.05-1.03,0.14-1.51c0.09-0.49,0.23-0.95,0.44-1.39
				c0.2-0.44,0.49-0.85,0.87-1.23c0.53-0.53,1.11-0.93,1.75-1.21c0.64-0.28,1.4-0.42,2.29-0.42c0.89,0,1.66,0.14,2.29,0.42
				c0.64,0.28,1.22,0.68,1.74,1.21c0.38,0.38,0.67,0.79,0.87,1.23c0.2,0.44,0.35,0.91,0.44,1.39c0.09,0.49,0.13,0.99,0.14,1.51
				C300.45,334.81,300.46,335.34,300.46,335.88z M296.92,335.88c0-0.66-0.01-1.2-0.04-1.62c-0.03-0.41-0.06-0.75-0.1-1
				c-0.04-0.25-0.1-0.44-0.16-0.58c-0.07-0.14-0.14-0.26-0.22-0.37c-0.14-0.18-0.33-0.33-0.57-0.45s-0.53-0.18-0.86-0.18
				c-0.33,0-0.61,0.06-0.86,0.18s-0.44,0.27-0.57,0.45c-0.08,0.11-0.16,0.23-0.23,0.37c-0.07,0.14-0.12,0.33-0.16,0.58
				c-0.04,0.25-0.07,0.58-0.1,1c-0.03,0.41-0.04,0.95-0.04,1.62s0.01,1.2,0.04,1.61c0.03,0.41,0.06,0.74,0.1,0.99
				c0.04,0.25,0.1,0.44,0.16,0.58c0.07,0.14,0.14,0.26,0.23,0.37c0.14,0.18,0.33,0.33,0.57,0.46s0.53,0.19,0.86,0.19
				c0.33,0,0.61-0.06,0.86-0.19s0.44-0.28,0.57-0.46c0.08-0.11,0.16-0.23,0.22-0.37c0.07-0.14,0.12-0.33,0.16-0.58
				s0.07-0.58,0.1-0.99C296.91,337.08,296.92,336.55,296.92,335.88z"/>
			<path class="st1" d="M315.72,343.12h-2.91l-2.34-7.13l-2.34,7.13h-2.89l-3.98-14.47h3.72l1.89,7.64l2.34-7.64h2.52l2.34,7.64
				l1.89-7.64h3.72L315.72,343.12z"/>
			<path class="st1" d="M325.01,338.32h-2.4l-0.89-9.68h4.19L325.01,338.32z M322.1,343.12v-3.25h3.39v3.25H322.1z"/>
			<path class="st1" d="M337.43,332.8c0,0.53-0.1,1-0.3,1.43s-0.45,0.82-0.73,1.18l-1.4,1.77c-0.1,0.11-0.18,0.25-0.25,0.43
				s-0.11,0.35-0.11,0.53v0.18h-3.31v-0.47c0-0.46,0.06-0.87,0.18-1.22c0.12-0.35,0.34-0.7,0.65-1.05l1.41-1.68
				c0.15-0.18,0.28-0.37,0.38-0.58s0.16-0.4,0.16-0.56c0-0.35-0.1-0.65-0.3-0.89s-0.5-0.36-0.91-0.36c-0.43,0-0.74,0.12-0.93,0.37
				c-0.19,0.25-0.28,0.56-0.28,0.93h-3.33c0-0.69,0.12-1.3,0.37-1.84c0.24-0.54,0.57-0.98,0.99-1.34c0.41-0.36,0.9-0.63,1.45-0.82
				c0.55-0.19,1.13-0.28,1.74-0.28c0.59,0,1.16,0.09,1.71,0.28c0.55,0.18,1.03,0.45,1.45,0.8c0.42,0.35,0.76,0.8,1.01,1.33
				C337.31,331.47,337.43,332.09,337.43,332.8z M331.27,343.12v-3.25h3.4v3.25H331.27z"/>
		</g>
	</g>
	<rect y="446.02" class="st8" width="720.5" height="10"/>
</g>
<g id="Layer_2">
</g>
</svg>
