<?xml version="1.0" encoding="utf-8"?>
<!-- Generator: Adobe Illustrator 16.0.0, SVG Export Plug-In . SVG Version: 6.00 Build 0)  -->
<!DOCTYPE svg PUBLIC "-//W3C//DTD SVG 1.1//EN" "http://www.w3.org/Graphics/SVG/1.1/DTD/svg11.dtd">
<svg version="1.1" xmlns="http://www.w3.org/2000/svg" xmlns:xlink="http://www.w3.org/1999/xlink" x="0px" y="0px" width="720px"
	 height="225px" viewBox="0 0 720 225" style="enable-background:new 0 0 720 225;" xml:space="preserve">
<style type="text/css">
<![CDATA[
	.st0{fill:#E0D9AB;}
	.st1{fill:#EFECDE;}
	.st2{fill:#BD4828;}
	.st3{fill:#F8F7F1;}
	.st4{fill-rule:evenodd;clip-rule:evenodd;fill:#BD4828;}
	.st5{fill-rule:evenodd;clip-rule:evenodd;}
	.st6{fill:#FFFFFF;}
	.st7{fill:#CEE9F9;}
	.st8{fill:#6B3414;}
	.st9{fill-rule:evenodd;clip-rule:evenodd;fill:#FFFFFF;}
	.st10{fill-rule:evenodd;clip-rule:evenodd;fill:#6B3414;}
]]>
</style>
<g id="Layer_1">
	<rect class="st3" width="720" height="222"/>
	<rect x="-0.04" y="183.09" class="st0" width="720" height="41.92"/>
	<rect x="235.06" y="177.5" class="st8" width="484.4" height="10"/>
	<polygon class="st2" points="0,154.29 0,209.79 256.49,209.79 243.07,182.79 256.03,154.37 228.81,154.37 228.81,154.29 	"/>
	<g>
		<g>
			<path class="st3" d="M37.98,197.35l-1.52-4.9H26.34l-1.62,4.9h-8.45l11.96-32.88h6.23l11.96,32.88H37.98z M31.56,176.98
				l-2.96,8.78h5.73L31.56,176.98z"/>
			<path class="st3" d="M68.83,184.92c0,0.92-0.01,1.87-0.02,2.84c-0.02,0.97-0.09,1.92-0.23,2.84s-0.36,1.79-0.67,2.61
				s-0.77,1.53-1.39,2.15c-0.71,0.71-1.59,1.26-2.66,1.66c-1.06,0.4-2.19,0.6-3.39,0.6c-1.29,0-2.38-0.19-3.26-0.57
				c-0.88-0.38-1.7-0.96-2.47-1.72v2.02h-7.3v-32.88h7.53v9.82c0.71-0.7,1.5-1.22,2.38-1.56s1.93-0.5,3.16-0.5
				c1.2,0,2.32,0.2,3.37,0.6c1.05,0.4,1.92,0.96,2.63,1.66c0.62,0.62,1.08,1.33,1.39,2.15c0.31,0.82,0.53,1.69,0.67,2.61
				c0.14,0.92,0.21,1.87,0.23,2.84C68.82,183.05,68.83,184,68.83,184.92z M61.3,184.92c0-0.9-0.03-1.71-0.09-2.44
				s-0.2-1.35-0.42-1.86c-0.22-0.51-0.54-0.91-0.95-1.19c-0.42-0.28-0.99-0.42-1.7-0.42c-0.71,0-1.28,0.14-1.7,0.42
				c-0.42,0.28-0.74,0.67-0.95,1.19c-0.22,0.51-0.36,1.13-0.42,1.86s-0.09,1.54-0.09,2.44s0.03,1.71,0.09,2.44
				c0.06,0.73,0.2,1.35,0.42,1.86c0.22,0.51,0.53,0.91,0.95,1.19c0.42,0.28,0.98,0.42,1.7,0.42c0.71,0,1.28-0.14,1.7-0.42
				c0.42-0.28,0.74-0.67,0.95-1.19c0.22-0.51,0.36-1.13,0.42-1.86C61.27,186.64,61.3,185.82,61.3,184.92z"/>
			<path class="st3" d="M92.38,184.92c0,1.23-0.05,2.31-0.14,3.23c-0.09,0.92-0.24,1.76-0.44,2.49c-0.2,0.74-0.48,1.42-0.83,2.03
				c-0.35,0.62-0.79,1.2-1.31,1.75c-0.74,0.8-1.75,1.53-3.04,2.19c-1.29,0.66-2.93,0.99-4.93,0.99s-3.64-0.33-4.93-0.99
				c-1.29-0.66-2.3-1.39-3.04-2.19c-0.52-0.55-0.96-1.14-1.31-1.75c-0.35-0.62-0.63-1.29-0.83-2.03c-0.2-0.74-0.35-1.57-0.44-2.49
				c-0.09-0.92-0.14-2-0.14-3.23c0-1.2,0.05-2.27,0.14-3.21c0.09-0.94,0.24-1.78,0.44-2.52s0.48-1.42,0.83-2.03
				c0.35-0.62,0.79-1.2,1.31-1.75c0.37-0.4,0.81-0.79,1.31-1.15c0.51-0.37,1.08-0.71,1.73-1.02c0.64-0.31,1.37-0.55,2.19-0.74
				c0.81-0.18,1.73-0.28,2.74-0.28s1.93,0.09,2.74,0.28c0.81,0.19,1.54,0.43,2.19,0.74c0.64,0.31,1.22,0.65,1.73,1.02
				c0.51,0.37,0.94,0.75,1.31,1.15c0.52,0.55,0.96,1.14,1.31,1.75c0.35,0.62,0.63,1.29,0.83,2.03c0.2,0.74,0.34,1.58,0.44,2.52
				C92.33,182.65,92.38,183.72,92.38,184.92z M84.85,184.92c0-1.24-0.06-2.3-0.19-3.17c-0.12-0.87-0.44-1.55-0.93-2.05
				c-0.47-0.46-1.15-0.7-2.05-0.7s-1.58,0.23-2.05,0.7c-0.5,0.5-0.81,1.18-0.93,2.05c-0.12,0.87-0.19,1.92-0.19,3.17
				s0.06,2.3,0.19,3.17c0.12,0.87,0.43,1.55,0.93,2.05c0.46,0.47,1.15,0.7,2.05,0.7s1.58-0.23,2.05-0.7c0.5-0.5,0.81-1.18,0.93-2.05
				C84.79,187.22,84.85,186.17,84.85,184.92z"/>
			<path class="st3" d="M109.02,197.35v-2.03c-0.77,0.77-1.67,1.35-2.72,1.73c-1.04,0.38-2.06,0.58-3.04,0.58
				c-1.17,0-2.22-0.18-3.16-0.55c-0.94-0.37-1.74-0.89-2.42-1.57c-1.07-1.08-1.76-2.2-2.05-3.37c-0.29-1.17-0.44-2.42-0.44-3.74
				V172.5h7.53v14.91c0,0.71,0.11,1.29,0.33,1.74c0.22,0.45,0.49,0.79,0.81,1.04c0.33,0.25,0.67,0.42,1.02,0.51
				c0.36,0.09,0.66,0.14,0.91,0.14s0.55-0.05,0.91-0.14c0.36-0.09,0.7-0.26,1.02-0.51c0.32-0.25,0.6-0.59,0.81-1.04
				c0.22-0.45,0.33-1.03,0.33-1.74V172.5h7.53v24.85H109.02z"/>
			<path class="st3" d="M128.54,197.35c-1.38,0-2.55-0.22-3.51-0.67c-0.96-0.45-1.75-1.02-2.36-1.73c-0.61-0.71-1.06-1.49-1.35-2.35
				c-0.29-0.86-0.44-1.72-0.44-2.58v-10.69h-2.26v-5.87h2.26v-7.11h7.53v7.11h3.93v5.87h-3.93v10.16c0,1.02,0.51,1.52,1.52,1.52h2.4
				v6.33H128.54z"/>
			<path class="st3" d="M167.93,186.91c-0.31,1.82-0.84,3.39-1.59,4.73c-0.75,1.34-1.68,2.46-2.77,3.35s-2.32,1.55-3.69,1.99
				s-2.84,0.65-4.41,0.65c-1.94,0-3.65-0.32-5.12-0.95c-1.47-0.63-2.81-1.55-4-2.75c-0.86-0.86-1.52-1.79-1.98-2.79
				s-0.79-2.06-0.99-3.16c-0.2-1.11-0.31-2.26-0.32-3.44c-0.02-1.18-0.02-2.39-0.02-3.62s0.01-2.44,0.02-3.62
				c0.01-1.19,0.12-2.33,0.32-3.44s0.53-2.16,0.99-3.16c0.46-1,1.12-1.93,1.98-2.79c1.19-1.2,2.53-2.12,4-2.75
				c1.47-0.63,3.18-0.95,5.12-0.95c1.57,0,3.04,0.22,4.41,0.65c1.37,0.43,2.6,1.09,3.69,1.99s2.02,2.01,2.77,3.35
				c0.75,1.34,1.29,2.92,1.59,4.73h-8.22c-0.25-0.92-0.68-1.74-1.29-2.45c-0.62-0.71-1.59-1.06-2.91-1.06
				c-0.74,0-1.38,0.13-1.92,0.39c-0.54,0.26-0.96,0.59-1.27,0.99c-0.18,0.25-0.35,0.52-0.51,0.83s-0.28,0.75-0.39,1.34
				c-0.11,0.58-0.19,1.35-0.25,2.29c-0.06,0.94-0.09,2.16-0.09,3.67c0,1.51,0.03,2.73,0.09,3.67c0.06,0.94,0.15,1.7,0.25,2.29
				c0.11,0.59,0.24,1.03,0.39,1.34c0.15,0.31,0.32,0.58,0.51,0.83c0.31,0.4,0.73,0.73,1.27,0.99c0.54,0.26,1.18,0.39,1.92,0.39
				c1.32,0,2.29-0.35,2.91-1.06c0.62-0.71,1.05-1.52,1.29-2.45H167.93z"/>
			<path class="st3" d="M181.97,197.35l0-2.03c-0.77,0.77-1.55,1.34-2.35,1.71c-0.8,0.37-1.86,0.55-3.19,0.55
				c-1.26,0-2.39-0.19-3.39-0.58c-1-0.38-1.85-0.93-2.56-1.64c-0.71-0.71-1.25-1.56-1.62-2.56c-0.37-1-0.55-2.09-0.55-3.26
				c0-0.92,0.16-1.82,0.48-2.7c0.32-0.88,0.83-1.65,1.52-2.31c0.69-0.66,1.57-1.19,2.63-1.59c1.06-0.4,2.33-0.6,3.81-0.6h5.03v-0.65
				c0-1.15-0.29-1.96-0.88-2.43c-0.59-0.47-1.54-0.7-2.86-0.7c-0.99,0-1.74,0.12-2.26,0.37c-0.52,0.25-1.09,0.68-1.71,1.29
				l-4.71-4.69c0.65-0.64,1.28-1.17,1.89-1.58c0.62-0.41,1.29-0.75,2.01-1.01s1.5-0.44,2.33-0.55c0.83-0.11,1.77-0.16,2.82-0.16
				c3.56,0,6.27,0.74,8.12,2.22s2.78,3.74,2.78,6.79v16.12H181.97z M181.79,187.37h-3.83c-0.74,0-1.32,0.19-1.76,0.55
				s-0.65,0.85-0.65,1.43c0,0.55,0.21,1.04,0.62,1.46c0.42,0.42,1.04,0.62,1.87,0.62c0.74,0,1.32-0.05,1.73-0.16
				c0.42-0.11,0.84-0.36,1.27-0.76c0.49-0.46,0.74-1.29,0.74-2.49V187.37z"/>
			<path class="st3" d="M201.04,197.35c-1.38,0-2.55-0.22-3.51-0.67c-0.96-0.45-1.75-1.02-2.36-1.73c-0.61-0.71-1.06-1.49-1.36-2.35
				s-0.44-1.72-0.44-2.58v-10.69h-2.26v-5.87h2.26v-7.11h7.53v7.11h3.93v5.87h-3.93v10.16c0,1.02,0.51,1.52,1.52,1.52h2.4v6.33
				H201.04z"/>
			<path class="st3" d="M226.91,189.22c0,1.48-0.29,2.74-0.88,3.79s-1.37,1.92-2.36,2.61s-2.12,1.2-3.42,1.52
				c-1.29,0.32-2.66,0.49-4.11,0.49c-0.92,0-1.85-0.03-2.77-0.09c-0.92-0.06-1.84-0.21-2.75-0.44c-0.91-0.23-1.8-0.58-2.68-1.06
				c-0.88-0.48-1.75-1.15-2.61-2.01l4.9-4.89c0.52,0.52,1.07,0.92,1.64,1.2c0.57,0.28,1.13,0.49,1.69,0.62
				c0.55,0.14,1.06,0.21,1.52,0.23s0.86,0.02,1.2,0.02c0.28,0,0.6-0.02,0.97-0.07s0.72-0.13,1.06-0.25
				c0.34-0.12,0.62-0.28,0.85-0.48c0.23-0.2,0.35-0.47,0.35-0.81c0-0.34-0.12-0.67-0.35-0.99c-0.23-0.32-0.72-0.52-1.46-0.58
				l-3.83-0.37c-1.08-0.09-2.06-0.29-2.93-0.6c-0.88-0.31-1.63-0.75-2.26-1.34c-0.63-0.58-1.12-1.31-1.48-2.17
				c-0.35-0.86-0.53-1.89-0.53-3.09c0-1.39,0.28-2.59,0.85-3.6c0.57-1.02,1.32-1.87,2.24-2.56c0.92-0.69,1.98-1.21,3.16-1.55
				c1.18-0.34,2.39-0.51,3.62-0.51c2.03,0,3.86,0.2,5.5,0.6c1.63,0.4,3.06,1.22,4.29,2.45l-4.66,4.66c-0.62-0.62-1.4-1.02-2.36-1.2
				c-0.96-0.18-1.92-0.28-2.91-0.28c-0.92,0-1.56,0.17-1.92,0.51c-0.35,0.34-0.53,0.65-0.53,0.92c0,0.06,0.01,0.16,0.02,0.3
				c0.01,0.14,0.07,0.28,0.16,0.42s0.25,0.28,0.46,0.42c0.21,0.14,0.54,0.22,0.97,0.25l3.83,0.37c1.29,0.12,2.42,0.4,3.37,0.83
				c0.96,0.43,1.73,0.99,2.33,1.66c0.6,0.68,1.05,1.45,1.34,2.31C226.76,187.31,226.91,188.23,226.91,189.22z"/>
		</g>
	</g>
	<g>
		<g>
			<path class="st8" d="M570.33,156.97c-2.44,1.56-3.79,0.62-4.62-1.54c-1.02-2.65-1.74-5.43-2.97-7.97
				c-1.9-3.94-6.1-5.94-9.82-5.06c-3.85,0.91-5.68,3.49-5.91,8.42c-0.05,1.02,0.07,2.06,0.03,3.08c-0.34,8.09-3.8,14.58-10.77,18.67
				c-4.71,2.77-9.88,2.75-14.51-0.59c-4.33-3.13-4.52-7.47-3.25-12.27c1.14-4.31,0.05-8.16-3.48-11.06
				c-4.02-3.3-9.7-1.63-11.02,3.17c2.97-3.69,5.43-4.69,8.58-3.46c3.07,1.19,5.12,4.6,4.95,8.6c-0.08,1.8-0.55,3.58-0.88,5.37
				c-0.9,4.81,0.99,9.15,5.13,11.69c6.39,3.91,14.9,2.75,20.17-3.34c2.9-3.35,4.98-7.41,7.46-11.21c3.24,4.46,2.46,9.88,2.42,15.14
				c-0.03,3.88,0.82,4.46,4.4,2.88c-0.76-1.47-2.01-2.89-2.18-4.42c-0.55-5.09-0.94-10.21-0.92-15.32c0.01-4.02,2.72-5.26,5.94-2.78
				c2.13,1.64,3.83,3.86,5.63,5.91c4.36,4.94,8.42,10.17,13.06,14.83c3.64,3.66,8.45,2.53,12.88,2.28c0.09-0.56,0.17-1.12,0.26-1.68
				c-1.81-0.26-3.62-0.73-5.43-0.76c-7.75-0.1-14.3-9.2-12.16-16.29c2.39-0.56,5.31-0.39,6.41-1.72c1.22-1.49,0.78-4.34,1.09-6.77
				c-3.25,0.55-5.96,0.06-6.63-4.03c-0.85,1.02-1.39,1.95-2.17,2.56C568.04,152.42,568.02,152.4,570.33,156.97z M628.82,146.2
				c-7.14-0.54-13.76,0.27-19.38,4.66c-4.97,3.89-7.25,9.18-5.97,15.41c1.27,6.2,5.69,8.85,11.86,9.34c3.74,0.3,6.7,2.31,8.03,6.03
				c1.07,2.98,0.45,5.72-2.14,7.63c-2.57,1.89-5.27,1.94-7.78-0.3c-0.29-0.26-0.64-0.45-0.96-0.67c2.36,3.18,5.13,3.84,8.25,2.26
				c3.16-1.59,4.7-4.89,3.85-8.23c-1.24-4.88-4.4-7.35-10.5-8.21c-5.91-0.83-9.47-4.9-9.21-10.75c0.21-4.58,2.11-8.43,5.89-11.07
				c5.3-3.7,11.22-4.51,17.31-3.44c0.45,2.55,0.21,5.2,1.36,6.9c3.9,5.8,4.2,12.13,3.94,18.7c-0.04,0.91,0.26,2.4,0.82,2.64
				c1.01,0.43,2.34,0.12,4.04,0.12c-1.19-1.73-2.4-2.69-2.5-3.76c-0.56-5.75-1.18-11.53-1.1-17.3c0.04-3.28,2.62-4.36,5.28-2.38
				c2.33,1.73,4.18,4.12,6.14,6.31c4.47,5,8.55,10.41,13.42,14.98c3.51,3.3,8.29,2.75,12.81,1.12c-1.65-0.9-3.38-1.35-5.11-1.36
				c-8-0.07-14.55-9.07-12.41-16.32c2.41-0.6,5.22-0.5,6.38-1.83c1.17-1.35,0.69-4.12,0.96-6.5c-3.08,0.14-5.95-0.15-6.42-4.28
				c-2.33,3.39-9.39,4.42-3.77,10.07c-2.5,1.76-3.91,0.99-4.78-1.28c-1.05-2.76-1.8-5.66-3.11-8.28
				C641.41,141.2,632.72,138.11,628.82,146.2z M472.48,172.24c9.77-4.76,11.14-7.7,8.66-18.17c-0.13-0.55-0.29-1.11-0.37-1.67
				c-0.51-3.97,1.98-8.27,5.52-9.17c1.52-0.39,3.18-0.23,4.96-0.34c-4.06-1.81-7.81-0.61-10.09,3.1c-2.08,3.38-1.81,6.93-0.68,10.53
				c1.86,5.94-0.93,11.41-6.85,13.15c-0.85,0.25-2.62-0.06-2.81-0.55c-1.14-2.96-1.94-6.05-2.76-8.79c3.18-0.81,6.13-0.71,7.41-2.13
				c1.22-1.36,0.69-4.28,0.95-6.75c-3.45,0.75-5.95-0.03-6.43-3.51c-1.5,1.06-3.17,1.87-4.28,3.15c-0.77,0.9-1.07,2.46-1.04,3.71
				c0.02,0.99,0.87,1.96,1.36,2.96c-2.34,1.53-3.75,0.82-4.62-1.44c-1.14-2.96-2.02-6.07-3.48-8.86c-1.74-3.33-5.7-4.93-8.88-4.49
				c-3.83,0.52-5.52,3.02-6.09,6.39c-0.57,3.4-0.05,6.62,1.52,9.91c1.57,3.28,2.42,7,3.02,10.62c0.47,2.85,0.09,5.84,0.09,9.1
				c1.8-0.16,3.11-0.29,4.35-0.4c-4.17-7.31-3.01-14.7-3.43-22.63c0.95,0.76,1.19,0.87,1.29,1.05c0.43,0.8,0.8,1.64,1.22,2.44
				c3.08,5.83,7.11,10.9,13.84,12.27c3.03,0.61,5.17,1.8,7.24,3.83c4.19,4.1,9.24,3.72,14.43,2.23c-1.72-0.99-3.57-1.54-5.4-1.47
				C477.57,176.42,474.59,175.59,472.48,172.24z"/>
			<path class="st10" d="M570.33,156.97c-2.31-4.58-2.28-4.55,1.7-7.68c0.78-0.61,1.32-1.54,2.17-2.56
				c0.66,4.08,3.38,4.58,6.63,4.03c-0.3,2.42,0.13,5.28-1.09,6.77c-1.09,1.33-4.02,1.17-6.41,1.72c-2.14,7.09,4.42,16.2,12.16,16.29
				c1.81,0.02,3.62,0.49,5.43,0.76c-0.09,0.56-0.17,1.12-0.26,1.68c-4.44,0.24-9.24,1.37-12.88-2.28
				c-4.64-4.66-8.7-9.89-13.06-14.83c-1.8-2.04-3.5-4.26-5.63-5.91c-3.22-2.48-5.92-1.24-5.94,2.78
				c-0.02,5.11,0.38,10.24,0.92,15.32c0.16,1.53,1.42,2.95,2.18,4.42c-3.58,1.57-4.43,1-4.4-2.88c0.03-5.26,0.82-10.68-2.42-15.14
				c-2.49,3.8-4.56,7.86-7.46,11.21c-5.27,6.09-13.78,7.25-20.17,3.34c-4.14-2.54-6.04-6.88-5.13-11.69
				c0.33-1.78,0.8-3.57,0.88-5.37c0.17-4-1.89-7.41-4.95-8.6c-3.15-1.23-5.62-0.23-8.58,3.46c1.33-4.79,7-6.46,11.02-3.17
				c3.54,2.9,4.62,6.75,3.48,11.06c-1.27,4.8-1.08,9.14,3.25,12.27c4.63,3.34,9.79,3.36,14.51,0.59
				c6.98-4.09,10.43-10.58,10.77-18.67c0.04-1.03-0.08-2.06-0.03-3.08c0.24-4.93,2.06-7.51,5.91-8.42c3.72-0.88,7.92,1.13,9.82,5.06
				c1.23,2.54,1.95,5.32,2.97,7.97C566.54,157.6,567.88,158.54,570.33,156.97z"/>
			<path class="st10" d="M628.82,146.2c3.9-8.08,12.58-5,15.18,0.21c1.31,2.62,2.06,5.52,3.11,8.28c0.86,2.27,2.27,3.04,4.78,1.28
				c-5.62-5.65,1.43-6.68,3.77-10.07c0.48,4.13,3.34,4.42,6.42,4.28c-0.27,2.37,0.21,5.14-0.96,6.5c-1.15,1.33-3.97,1.22-6.38,1.83
				c-2.14,7.26,4.41,16.26,12.41,16.32c1.74,0.02,3.47,0.46,5.11,1.36c-4.51,1.64-9.3,2.18-12.81-1.12
				c-4.87-4.57-8.95-9.98-13.42-14.98c-1.96-2.19-3.82-4.58-6.14-6.31c-2.66-1.98-5.24-0.9-5.28,2.38
				c-0.08,5.76,0.54,11.54,1.1,17.3c0.1,1.07,1.31,2.03,2.5,3.76c-1.7,0-3.03,0.31-4.04-0.12c-0.56-0.24-0.85-1.73-0.82-2.64
				c0.27-6.57-0.03-12.91-3.94-18.7c-1.15-1.71-0.9-4.35-1.36-6.9c-6.09-1.07-12.01-0.26-17.31,3.44
				c-3.78,2.64-5.68,6.49-5.89,11.07c-0.26,5.84,3.3,9.92,9.21,10.75c6.11,0.86,9.26,3.33,10.5,8.21c0.85,3.35-0.69,6.64-3.85,8.23
				c-3.12,1.58-5.89,0.92-8.25-2.26c0.32,0.22,0.67,0.41,0.96,0.67c2.52,2.24,5.22,2.19,7.78,0.3c2.59-1.91,3.21-4.65,2.14-7.63
				c-1.33-3.72-4.29-5.73-8.03-6.03c-6.17-0.49-10.59-3.14-11.86-9.34c-1.28-6.22,1-11.52,5.97-15.41
				C615.06,146.47,621.68,145.65,628.82,146.2z"/>
			<path class="st10" d="M472.48,172.24c2.11,3.35,5.08,4.17,8.64,4.05c1.83-0.06,3.68,0.49,5.4,1.47
				c-5.2,1.5-10.25,1.87-14.43-2.23c-2.07-2.03-4.21-3.21-7.24-3.83c-6.73-1.37-10.76-6.44-13.84-12.27
				c-0.42-0.8-0.79-1.64-1.22-2.44c-0.1-0.18-0.33-0.28-1.29-1.05c0.42,7.93-0.75,15.32,3.43,22.63c-1.23,0.11-2.55,0.23-4.35,0.4
				c0-3.26,0.38-6.25-0.09-9.1c-0.6-3.62-1.45-7.34-3.02-10.62c-1.58-3.29-2.09-6.51-1.52-9.91c0.57-3.37,2.26-5.86,6.09-6.39
				c3.18-0.44,7.14,1.16,8.88,4.49c1.46,2.8,2.34,5.9,3.48,8.86c0.88,2.27,2.29,2.98,4.62,1.44c-0.49-1-1.34-1.97-1.36-2.96
				c-0.03-1.25,0.27-2.82,1.04-3.71c1.11-1.29,2.78-2.09,4.28-3.15c0.49,3.48,2.98,4.26,6.43,3.51c-0.26,2.47,0.27,5.4-0.95,6.75
				c-1.27,1.42-4.23,1.32-7.41,2.13c0.82,2.74,1.62,5.83,2.76,8.79c0.19,0.49,1.96,0.8,2.81,0.55c5.92-1.74,8.71-7.21,6.85-13.15
				c-1.13-3.6-1.4-7.14,0.68-10.53c2.28-3.71,6.03-4.91,10.09-3.1c-1.78,0.1-3.44-0.05-4.96,0.34c-3.54,0.9-6.03,5.2-5.52,9.17
				c0.07,0.56,0.24,1.12,0.37,1.67C483.62,164.55,482.25,167.49,472.48,172.24z M451.69,154.04c2.27,8.98,8.94,15.83,14.93,15.57
				C461.62,164.55,459.1,157.46,451.69,154.04z"/>
			<path class="st10" d="M451.69,154.04c7.41,3.42,9.93,10.51,14.93,15.57C460.63,169.87,453.96,163.02,451.69,154.04z"/>
		</g>
	</g>
	<g>
		<path class="st8" d="M442.97,56.89V30.58h6.43v20.54h11.05v5.76H442.97z"/>
		<path class="st8" d="M464.25,56.89V30.58h17.85v5.76h-11.42v4.4h9.75v5.76h-9.75v4.62h11.42v5.76H464.25z"/>
		<path class="st8" d="M501.42,56.89l-1.22-3.92h-8.09l-1.29,3.92h-6.76l9.57-26.31h4.99l9.57,26.31H501.42z M496.28,40.59
			l-2.37,7.02h4.58L496.28,40.59z"/>
		<path class="st8" d="M524.13,56.89l-4.67-9.79h-2.19v9.79h-6.43V30.58h10.42c1.45,0,2.74,0.24,3.86,0.72
			c1.12,0.48,2.06,1.12,2.81,1.9c0.75,0.79,1.32,1.69,1.72,2.7c0.39,1.01,0.59,2.06,0.59,3.14c0,0.89-0.13,1.7-0.39,2.44
			c-0.26,0.74-0.59,1.39-1,1.96c-0.41,0.57-0.86,1.06-1.37,1.48c-0.51,0.42-1.02,0.75-1.54,1l5.7,10.97H524.13z M523.81,39.08
			c0-0.69-0.25-1.31-0.75-1.85c-0.5-0.54-1.2-0.81-2.09-0.81h-3.7v5.32h3.7c0.9,0,1.59-0.27,2.09-0.81S523.81,39.77,523.81,39.08z"
			/>
		<path class="st8" d="M549.81,56.89l-8.45-13.23v13.23h-6.43V30.58h5.67l8.45,13.23V30.58h6.43v26.31H549.81z"/>
		<path class="st8" d="M580.71,46.17v10.71h-6.43V46.17l-7.94-15.59h7.06l4.12,9.46l4.08-9.46h7.06L580.71,46.17z"/>
		<path class="st8" d="M610.12,43.73c0,0.99-0.01,1.95-0.02,2.9c-0.01,0.95-0.1,1.87-0.26,2.75c-0.16,0.89-0.42,1.73-0.79,2.53
			c-0.37,0.8-0.9,1.55-1.59,2.24c-0.96,0.96-2.02,1.69-3.17,2.2s-2.54,0.76-4.17,0.76c-1.62,0-3.01-0.25-4.17-0.76
			c-1.16-0.5-2.21-1.24-3.17-2.2c-0.69-0.69-1.22-1.43-1.59-2.24c-0.37-0.8-0.63-1.64-0.79-2.53c-0.16-0.89-0.25-1.8-0.26-2.75
			c-0.01-0.95-0.02-1.92-0.02-2.9c0-0.98,0.01-1.95,0.02-2.9c0.01-0.95,0.1-1.87,0.26-2.75c0.16-0.89,0.42-1.73,0.79-2.53
			s0.9-1.55,1.59-2.24c0.96-0.96,2.02-1.69,3.17-2.2c1.16-0.5,2.54-0.76,4.17-0.76c1.62,0,3.01,0.25,4.17,0.76
			c1.16,0.51,2.21,1.24,3.17,2.2c0.69,0.69,1.22,1.43,1.59,2.24s0.63,1.64,0.79,2.53c0.16,0.89,0.25,1.81,0.26,2.75
			C610.12,41.78,610.12,42.75,610.12,43.73z M603.7,43.73c0-1.21-0.02-2.19-0.07-2.94c-0.05-0.75-0.11-1.35-0.19-1.81
			c-0.07-0.46-0.17-0.81-0.3-1.05c-0.12-0.25-0.26-0.47-0.41-0.67c-0.25-0.32-0.59-0.59-1.04-0.81c-0.45-0.22-0.97-0.33-1.56-0.33
			c-0.59,0-1.11,0.11-1.56,0.33c-0.45,0.22-0.79,0.49-1.04,0.81c-0.15,0.2-0.29,0.42-0.41,0.67c-0.12,0.25-0.22,0.6-0.3,1.05
			c-0.08,0.46-0.14,1.06-0.19,1.81c-0.05,0.75-0.07,1.73-0.07,2.94c0,1.21,0.02,2.18,0.07,2.92c0.05,0.74,0.11,1.34,0.19,1.79
			c0.07,0.46,0.17,0.81,0.3,1.05s0.26,0.47,0.41,0.67c0.25,0.32,0.59,0.6,1.04,0.83c0.45,0.23,0.97,0.35,1.56,0.35
			c0.59,0,1.11-0.12,1.56-0.35c0.45-0.23,0.79-0.51,1.04-0.83c0.15-0.2,0.28-0.42,0.41-0.67s0.22-0.6,0.3-1.05s0.14-1.05,0.19-1.79
			C603.67,45.91,603.7,44.94,603.7,43.73z"/>
		<path class="st8" d="M634.14,47.65c0,1.45-0.26,2.76-0.79,3.92c-0.53,1.16-1.25,2.15-2.16,2.97c-0.91,0.83-1.98,1.46-3.2,1.9
			c-1.22,0.44-2.51,0.67-3.86,0.67c-1.38,0-2.67-0.22-3.86-0.67s-2.25-1.08-3.16-1.9s-1.63-1.82-2.14-2.97
			c-0.52-1.16-0.78-2.46-0.78-3.92V30.58h6.43V47.5c0,1.23,0.31,2.18,0.93,2.84c0.62,0.67,1.48,1,2.58,1c1.09,0,1.97-0.33,2.61-1
			s0.97-1.61,0.97-2.84V30.58h6.43V47.65z"/>
		<path class="st8" d="M652.3,56.89l-4.67-9.79h-2.19v9.79h-6.43V30.58h10.42c1.45,0,2.74,0.24,3.86,0.72
			c1.12,0.48,2.06,1.12,2.81,1.9c0.75,0.79,1.32,1.69,1.72,2.7c0.39,1.01,0.59,2.06,0.59,3.14c0,0.89-0.13,1.7-0.39,2.44
			c-0.26,0.74-0.59,1.39-1,1.96c-0.41,0.57-0.86,1.06-1.37,1.48c-0.51,0.42-1.02,0.75-1.54,1l5.7,10.97H652.3z M651.99,39.08
			c0-0.69-0.25-1.31-0.75-1.85c-0.5-0.54-1.2-0.81-2.09-0.81h-3.7v5.32h3.7c0.9,0,1.59-0.27,2.09-0.81S651.99,39.77,651.99,39.08z"
			/>
	</g>
	<g>
		<path class="st2" d="M463.44,110.25V94.59h-10.44v15.65h-9.66V70.72h9.66v15.21h10.44V70.72h9.66v39.52H463.44z"/>
		<path class="st2" d="M481.1,110.25V70.72h9.66v39.52H481.1z"/>
		<path class="st2" d="M525.33,98.15c0,2-0.41,3.77-1.22,5.33c-0.81,1.55-1.92,2.86-3.3,3.91s-3.01,1.85-4.86,2.39
			c-1.85,0.54-3.81,0.8-5.88,0.8c-1.52,0-2.96-0.08-4.33-0.25c-1.37-0.17-2.68-0.44-3.94-0.83c-1.26-0.39-2.44-0.92-3.55-1.58
			c-1.11-0.67-2.17-1.52-3.16-2.55l6.22-6.22c1.04,1.04,2.37,1.76,4,2.16c1.63,0.41,3.24,0.61,4.83,0.61c3.77,0,5.66-1.18,5.66-3.55
			c0-1-0.26-1.78-0.78-2.33c-0.55-0.56-1.42-0.91-2.61-1.05l-4.77-0.67c-3.52-0.52-6.16-1.68-7.94-3.5
			c-1.81-1.85-2.72-4.5-2.72-7.94c0-1.81,0.33-3.48,1-5c0.67-1.52,1.62-2.83,2.86-3.94c1.24-1.11,2.75-1.98,4.52-2.61
			c1.78-0.63,3.79-0.94,6.05-0.94c2.85,0,5.36,0.36,7.52,1.08s4.1,1.93,5.8,3.64l-6.11,6.11c-0.63-0.63-1.3-1.1-2-1.42
			c-0.7-0.31-1.39-0.55-2.05-0.69c-0.67-0.15-1.3-0.22-1.89-0.22c-0.59,0-1.11,0-1.55,0c-0.85,0-1.57,0.11-2.17,0.33
			c-0.59,0.22-1.08,0.51-1.47,0.86c-0.39,0.35-0.68,0.74-0.86,1.17c-0.19,0.43-0.28,0.86-0.28,1.3c0,0.26,0.06,0.56,0.17,0.89
			c0.11,0.33,0.31,0.65,0.61,0.94c0.26,0.26,0.6,0.5,1.03,0.72c0.42,0.22,0.99,0.37,1.69,0.44l4.77,0.67
			c3.48,0.48,6.07,1.57,7.77,3.27c1.07,1.04,1.83,2.28,2.28,3.72S525.33,96.3,525.33,98.15z"/>
		<path class="st2" d="M548.76,79.38v30.86h-9.66V79.38h-9.71v-8.66h29.09v8.66H548.76z"/>
		<path class="st2" d="M591.83,90.49c0,1.48-0.01,2.93-0.03,4.36c-0.02,1.42-0.15,2.8-0.39,4.14c-0.24,1.33-0.64,2.6-1.19,3.8
			c-0.55,1.2-1.35,2.32-2.38,3.36c-1.44,1.44-3.03,2.54-4.76,3.3c-1.74,0.76-3.82,1.14-6.26,1.14c-2.44,0-4.53-0.38-6.26-1.14
			c-1.74-0.76-3.32-1.86-4.76-3.3c-1.03-1.04-1.83-2.16-2.38-3.36c-0.55-1.2-0.95-2.47-1.19-3.8c-0.24-1.33-0.37-2.71-0.39-4.14
			c-0.02-1.42-0.03-2.88-0.03-4.36c0-1.48,0.01-2.93,0.03-4.36c0.02-1.42,0.15-2.8,0.39-4.14c0.24-1.33,0.64-2.6,1.19-3.8
			c0.55-1.2,1.35-2.32,2.38-3.36c1.44-1.44,3.03-2.54,4.76-3.3c1.74-0.76,3.82-1.14,6.26-1.14c2.44,0,4.52,0.38,6.26,1.14
			c1.74,0.76,3.32,1.86,4.76,3.3c1.03,1.04,1.83,2.16,2.38,3.36c0.55,1.2,0.95,2.47,1.19,3.8c0.24,1.33,0.37,2.71,0.39,4.14
			C591.82,87.55,591.83,89.01,591.83,90.49z M582.17,90.49c0-1.81-0.04-3.28-0.11-4.41c-0.07-1.13-0.17-2.03-0.28-2.72
			c-0.11-0.68-0.26-1.21-0.45-1.58c-0.19-0.37-0.39-0.7-0.61-1c-0.37-0.48-0.89-0.89-1.56-1.22c-0.67-0.33-1.45-0.5-2.34-0.5
			c-0.89,0-1.67,0.17-2.34,0.5c-0.67,0.33-1.19,0.74-1.56,1.22c-0.22,0.3-0.43,0.63-0.61,1c-0.19,0.37-0.33,0.9-0.45,1.58
			c-0.11,0.69-0.21,1.59-0.28,2.72c-0.07,1.13-0.11,2.6-0.11,4.41c0,1.81,0.04,3.27,0.11,4.38c0.07,1.11,0.17,2.01,0.28,2.69
			c0.11,0.69,0.26,1.21,0.45,1.58c0.19,0.37,0.39,0.7,0.61,1c0.37,0.48,0.89,0.9,1.56,1.25c0.67,0.35,1.45,0.53,2.34,0.53
			c0.89,0,1.67-0.18,2.34-0.53c0.67-0.35,1.19-0.77,1.56-1.25c0.22-0.3,0.43-0.63,0.61-1c0.19-0.37,0.33-0.9,0.45-1.58
			c0.11-0.68,0.2-1.58,0.28-2.69C582.14,93.76,582.17,92.3,582.17,90.49z"/>
		<path class="st2" d="M618.56,110.25l-7.01-14.71h-3.28v14.71h-9.66V70.72h15.65c2.18,0,4.12,0.36,5.8,1.08s3.09,1.67,4.22,2.86
			c1.13,1.18,1.99,2.54,2.58,4.05c0.59,1.52,0.89,3.09,0.89,4.72c0,1.33-0.2,2.55-0.58,3.66c-0.39,1.11-0.89,2.09-1.5,2.94
			c-0.61,0.85-1.3,1.59-2.06,2.22c-0.76,0.63-1.53,1.13-2.31,1.5l8.57,16.49H618.56z M618.09,83.49c0-1.04-0.38-1.96-1.12-2.78
			c-0.75-0.81-1.8-1.22-3.14-1.22h-5.56v7.99h5.56c1.35,0,2.4-0.41,3.14-1.22C617.71,85.45,618.09,84.53,618.09,83.49z"/>
		<path class="st2" d="M652.39,94.15v16.1h-9.66v-16.1L630.8,70.72h10.6l6.19,14.21l6.13-14.21h10.6L652.39,94.15z"/>
	</g>
</g>
<g id="Layer_2">
</g>
</svg>
