<?xml version="1.0" encoding="utf-8"?>
<!-- Generator: Adobe Illustrator 16.0.0, SVG Export Plug-In . SVG Version: 6.00 Build 0)  -->
<!DOCTYPE svg PUBLIC "-//W3C//DTD SVG 1.1//EN" "http://www.w3.org/Graphics/SVG/1.1/DTD/svg11.dtd">
<svg version="1.1" xmlns="http://www.w3.org/2000/svg" xmlns:xlink="http://www.w3.org/1999/xlink" x="0px" y="0px" width="720px"
	 height="224.95px" viewBox="0 0 720 224.95" style="enable-background:new 0 0 720 224.95;" xml:space="preserve">
<style type="text/css">
<![CDATA[
	.st0{fill:#E0D9AB;}
	.st1{fill:#EFECDE;}
	.st2{fill:#BD4828;}
	.st3{fill:#F8F7F1;}
	.st4{fill-rule:evenodd;clip-rule:evenodd;fill:#BD4828;}
	.st5{fill-rule:evenodd;clip-rule:evenodd;}
	.st6{fill:#FFFFFF;}
	.st7{fill:#CEE9F9;}
	.st8{fill:#6B3414;}
	.st9{fill-rule:evenodd;clip-rule:evenodd;fill:#FFFFFF;}
	.st10{fill-rule:evenodd;clip-rule:evenodd;fill:#6B3414;}
]]>
</style>
<g id="Layer_1">
	<rect x="-0.92" y="-0.05" class="st3" width="720" height="222"/>
	<rect x="0.04" y="183.04" class="st0" width="720" height="41.92"/>
	<rect x="180.64" y="177.45" class="st8" width="539.9" height="10"/>
	<polygon class="st2" points="0,152.24 0,207.74 196.49,207.74 186.21,180.74 196.14,152.32 175.29,152.32 175.29,152.24 	"/>
	<g>
		<g>
			<path class="st3" d="M27.63,169.62v5.77h12.19v7.2H27.63v12.7H19.6v-32.88H41.9v7.21H27.63z"/>
			<path class="st3" d="M49.57,185.33c0,1.03,0.38,1.94,1.13,2.73c0.75,0.79,1.84,1.19,3.26,1.19c1.32,0,2.34-0.18,3.05-0.53
				c0.71-0.35,1.4-0.87,2.08-1.55l4.53,4.51c-0.65,0.64-1.29,1.2-1.94,1.67c-0.65,0.47-1.35,0.88-2.1,1.21
				c-0.76,0.34-1.59,0.59-2.52,0.76c-0.92,0.17-1.96,0.25-3.09,0.25c-1.39,0-2.78-0.16-4.17-0.49c-1.4-0.32-2.65-0.94-3.77-1.85
				c-1.12-0.91-2.04-2.19-2.75-3.86s-1.08-3.83-1.08-6.51c0-2.03,0.28-3.83,0.83-5.4s1.33-2.9,2.31-4c0.99-1.09,2.16-1.92,3.52-2.47
				s2.85-0.83,4.49-0.83c1.79,0,3.39,0.31,4.79,0.92c1.4,0.62,2.58,1.45,3.52,2.52c0.94,1.06,1.66,2.31,2.15,3.74
				c0.49,1.43,0.74,2.96,0.74,4.59v3.37H49.57z M57,180.34c0-0.31-0.03-0.63-0.09-0.96c-0.06-0.33-0.17-0.66-0.33-1
				c-0.25-0.53-0.63-0.99-1.16-1.38c-0.53-0.39-1.24-0.58-2.14-0.58c-0.9,0-1.61,0.19-2.14,0.58c-0.53,0.39-0.91,0.85-1.16,1.38
				c-0.16,0.34-0.26,0.68-0.33,1s-0.09,0.65-0.09,0.96H57z"/>
			<path class="st3" d="M73.54,185.33c0,1.03,0.38,1.94,1.13,2.73c0.75,0.79,1.84,1.19,3.26,1.19c1.32,0,2.34-0.18,3.05-0.53
				c0.71-0.35,1.4-0.87,2.08-1.55l4.53,4.51c-0.65,0.64-1.29,1.2-1.94,1.67c-0.65,0.47-1.35,0.88-2.1,1.21
				c-0.75,0.34-1.59,0.59-2.52,0.76c-0.92,0.17-1.96,0.25-3.09,0.25c-1.39,0-2.78-0.16-4.17-0.49c-1.4-0.32-2.65-0.94-3.77-1.85
				c-1.12-0.91-2.04-2.19-2.75-3.86s-1.08-3.83-1.08-6.51c0-2.03,0.28-3.83,0.83-5.4c0.56-1.57,1.33-2.9,2.31-4
				c0.99-1.09,2.16-1.92,3.52-2.47c1.36-0.55,2.85-0.83,4.49-0.83c1.79,0,3.39,0.31,4.79,0.92c1.4,0.62,2.58,1.45,3.52,2.52
				s1.66,2.31,2.15,3.74c0.49,1.43,0.74,2.96,0.74,4.59v3.37H73.54z M80.97,180.34c0-0.31-0.03-0.63-0.09-0.96s-0.17-0.66-0.33-1
				c-0.25-0.53-0.63-0.99-1.16-1.38s-1.24-0.58-2.14-0.58c-0.9,0-1.61,0.19-2.14,0.58c-0.53,0.39-0.91,0.85-1.16,1.38
				c-0.16,0.34-0.26,0.68-0.33,1c-0.06,0.33-0.09,0.65-0.09,0.96H80.97z"/>
			<path class="st3" d="M104.48,195.3l0-2.02c-0.77,0.76-1.6,1.34-2.48,1.72c-0.88,0.38-1.97,0.57-3.27,0.57
				c-1.21,0-2.34-0.2-3.41-0.6c-1.07-0.4-1.95-0.95-2.66-1.66c-0.62-0.62-1.08-1.33-1.39-2.15c-0.31-0.82-0.53-1.69-0.67-2.61
				c-0.14-0.92-0.22-1.87-0.23-2.84c-0.02-0.97-0.02-1.92-0.02-2.84s0.01-1.87,0.02-2.84c0.01-0.97,0.09-1.92,0.23-2.84
				c0.14-0.92,0.36-1.79,0.67-2.61c0.31-0.82,0.77-1.53,1.39-2.15c0.71-0.71,1.59-1.26,2.64-1.66s2.18-0.6,3.38-0.6
				c1.24,0,2.29,0.17,3.17,0.5s1.68,0.86,2.39,1.56v-9.82h7.53v32.88H104.48z M104.25,182.88c0-0.9-0.03-1.71-0.09-2.44
				s-0.2-1.35-0.42-1.86c-0.22-0.51-0.54-0.91-0.96-1.19s-0.99-0.42-1.71-0.42s-1.29,0.14-1.71,0.42c-0.42,0.28-0.74,0.67-0.96,1.19
				c-0.22,0.51-0.36,1.13-0.42,1.86s-0.09,1.54-0.09,2.44s0.03,1.71,0.09,2.44c0.06,0.73,0.2,1.35,0.42,1.86
				c0.22,0.51,0.54,0.91,0.96,1.19c0.42,0.28,0.99,0.42,1.71,0.42s1.29-0.14,1.71-0.42s0.74-0.67,0.96-1.19
				c0.22-0.51,0.36-1.13,0.42-1.86C104.22,184.59,104.25,183.78,104.25,182.88z"/>
			<path class="st3" d="M115.66,167.92v-5.77h7.53v5.77H115.66z M115.66,195.3v-23.88h7.53v23.88H115.66z"/>
			<path class="st3" d="M140.78,195.3v-14.87c0-0.71-0.11-1.29-0.33-1.73c-0.22-0.45-0.49-0.79-0.81-1.04
				c-0.33-0.25-0.67-0.42-1.02-0.51s-0.66-0.14-0.91-0.14s-0.55,0.05-0.91,0.14c-0.36,0.09-0.7,0.26-1.02,0.51
				c-0.33,0.25-0.6,0.59-0.81,1.04c-0.22,0.45-0.33,1.02-0.33,1.73v14.87h-7.53v-24.85h7.37v2.03c0.77-0.77,1.67-1.35,2.72-1.73
				s2.06-0.58,3.04-0.58c1.17,0,2.22,0.18,3.16,0.55c0.94,0.37,1.74,0.89,2.42,1.57c1.07,1.08,1.76,2.2,2.05,3.37
				c0.29,1.17,0.44,2.42,0.44,3.74v15.89H140.78z"/>
			<path class="st3" d="M172.18,193.5c0,1.48-0.27,2.83-0.81,4.06c-0.54,1.23-1.3,2.29-2.28,3.19c-0.98,0.89-2.16,1.59-3.55,2.1
				s-2.93,0.76-4.63,0.76c-1.94,0-3.66-0.22-5.17-0.66c-1.51-0.44-2.89-1.29-4.16-2.55l4.71-4.69c0.58,0.58,1.22,0.99,1.92,1.22
				c0.69,0.23,1.47,0.35,2.33,0.35c0.8,0,1.46-0.12,1.99-0.37c0.52-0.25,0.93-0.56,1.22-0.93c0.29-0.37,0.5-0.78,0.62-1.23
				s0.19-0.87,0.19-1.28v-1.81c-0.71,0.7-1.48,1.22-2.32,1.56c-0.84,0.34-1.85,0.5-3.02,0.5c-2.39,0-4.33-0.74-5.8-2.22
				c-0.55-0.55-0.99-1.15-1.31-1.8c-0.32-0.65-0.55-1.35-0.69-2.12c-0.14-0.77-0.22-1.62-0.25-2.54c-0.03-0.92-0.05-1.96-0.05-3.09
				c0-1.14,0.02-2.17,0.05-3.09c0.03-0.92,0.11-1.77,0.25-2.54c0.14-0.77,0.37-1.48,0.69-2.12c0.32-0.65,0.76-1.25,1.31-1.8
				c1.47-1.48,3.42-2.22,5.85-2.22c1.29,0,2.34,0.19,3.15,0.57c0.81,0.38,1.6,0.96,2.37,1.72v-2.02h7.39V193.5z M164.56,181.95
				c0-0.65-0.02-1.27-0.07-1.86s-0.17-1.12-0.37-1.58c-0.2-0.47-0.5-0.84-0.9-1.12s-0.94-0.42-1.62-0.42
				c-0.71,0-1.25,0.14-1.64,0.42s-0.68,0.65-0.88,1.12c-0.2,0.47-0.32,0.99-0.37,1.58c-0.05,0.59-0.07,1.21-0.07,1.86
				c0,0.65,0.02,1.27,0.07,1.87c0.05,0.59,0.17,1.12,0.37,1.58c0.2,0.47,0.49,0.84,0.88,1.12c0.38,0.28,0.93,0.42,1.64,0.42
				c0.68,0,1.22-0.14,1.62-0.42c0.4-0.28,0.7-0.65,0.9-1.12c0.2-0.47,0.32-0.99,0.37-1.58
				C164.54,183.23,164.56,182.61,164.56,181.95z"/>
		</g>
	</g>
	<g>
		<path class="st8" d="M538.38,36.46v3.66h7.72v4.56h-7.72v8.05h-5.09V31.89h14.13v4.56H538.38z"/>
		<path class="st8" d="M550.73,52.72V31.89h14.13v4.56h-9.04v3.48h7.72v4.56h-7.72v3.66h9.04v4.56H550.73z"/>
		<path class="st8" d="M568.52,52.72V31.89h14.13v4.56h-9.04v3.48h7.72v4.56h-7.72v3.66h9.04v4.56H568.52z"/>
		<path class="st8" d="M601.82,44.68c0,0.74-0.06,1.45-0.18,2.14s-0.33,1.35-0.63,1.99c-0.3,0.64-0.76,1.27-1.36,1.87
			c-0.72,0.72-1.57,1.24-2.53,1.57c-0.97,0.32-2,0.48-3.09,0.48h-7.72V31.89h7.72c1.09,0,2.12,0.16,3.09,0.48s1.81,0.84,2.53,1.57
			c0.6,0.6,1.06,1.23,1.36,1.87c0.3,0.64,0.51,1.31,0.63,1.99s0.18,1.4,0.18,2.17V44.68z M596.72,42.31c0-0.88-0.01-1.59-0.03-2.14
			s-0.05-0.98-0.1-1.3c-0.05-0.32-0.11-0.57-0.18-0.75c-0.07-0.17-0.15-0.34-0.25-0.5c-0.24-0.35-0.55-0.63-0.93-0.85
			c-0.39-0.21-0.9-0.32-1.55-0.32h-2.28v11.7h2.28c0.65,0,1.17-0.11,1.55-0.32c0.38-0.21,0.69-0.5,0.93-0.85
			c0.1-0.14,0.18-0.29,0.25-0.47s0.13-0.43,0.18-0.76c0.05-0.33,0.08-0.77,0.1-1.32S596.72,43.19,596.72,42.31z"/>
		<path class="st8" d="M621.13,44.24v8.49h-5.09v-8.49l-6.29-12.35h5.59l3.26,7.49l3.23-7.49h5.59L621.13,44.24z"/>
		<path class="st8" d="M644.42,42.31c0,0.78,0,1.55-0.01,2.3s-0.08,1.48-0.2,2.18c-0.13,0.7-0.34,1.37-0.63,2
			c-0.29,0.63-0.71,1.22-1.26,1.77c-0.76,0.76-1.6,1.34-2.51,1.74c-0.92,0.4-2.02,0.6-3.3,0.6c-1.29,0-2.39-0.2-3.3-0.6
			c-0.92-0.4-1.75-0.98-2.51-1.74c-0.54-0.55-0.96-1.14-1.26-1.77c-0.29-0.63-0.5-1.3-0.63-2c-0.13-0.7-0.19-1.43-0.2-2.18
			s-0.01-1.52-0.01-2.3s0-1.55,0.01-2.3s0.08-1.48,0.2-2.18c0.13-0.7,0.34-1.37,0.63-2c0.29-0.63,0.71-1.22,1.26-1.77
			c0.76-0.76,1.6-1.34,2.51-1.74c0.92-0.4,2.02-0.6,3.3-0.6c1.28,0,2.38,0.2,3.3,0.6c0.92,0.4,1.75,0.98,2.51,1.74
			c0.54,0.55,0.96,1.14,1.26,1.77c0.29,0.63,0.5,1.3,0.63,2c0.13,0.7,0.19,1.43,0.2,2.18S644.42,41.53,644.42,42.31z M639.33,42.31
			c0-0.96-0.02-1.73-0.06-2.33c-0.04-0.59-0.09-1.07-0.15-1.43s-0.14-0.64-0.24-0.83c-0.1-0.2-0.21-0.37-0.32-0.53
			c-0.2-0.25-0.47-0.47-0.82-0.64c-0.35-0.17-0.77-0.26-1.24-0.26c-0.47,0-0.88,0.09-1.24,0.26c-0.35,0.18-0.63,0.39-0.82,0.64
			c-0.12,0.16-0.23,0.33-0.32,0.53c-0.1,0.2-0.18,0.47-0.24,0.83s-0.11,0.84-0.15,1.43c-0.04,0.59-0.06,1.37-0.06,2.33
			s0.02,1.73,0.06,2.31c0.04,0.58,0.09,1.06,0.15,1.42s0.14,0.64,0.24,0.83c0.1,0.2,0.21,0.37,0.32,0.53
			c0.2,0.25,0.47,0.47,0.82,0.66c0.35,0.19,0.76,0.28,1.24,0.28c0.47,0,0.88-0.09,1.24-0.28c0.35-0.18,0.63-0.4,0.82-0.66
			c0.12-0.16,0.22-0.33,0.32-0.53c0.1-0.2,0.18-0.47,0.24-0.83s0.11-0.83,0.15-1.42C639.31,44.04,639.33,43.26,639.33,42.31z"/>
		<path class="st8" d="M663.43,45.41c0,1.15-0.21,2.18-0.63,3.1c-0.42,0.92-0.99,1.7-1.71,2.35c-0.72,0.65-1.57,1.16-2.53,1.51
			c-0.97,0.35-1.98,0.53-3.06,0.53c-1.09,0-2.11-0.18-3.06-0.53c-0.95-0.35-1.78-0.85-2.5-1.51c-0.72-0.65-1.29-1.44-1.7-2.35
			c-0.41-0.92-0.61-1.95-0.61-3.1V31.89h5.09v13.4c0,0.98,0.25,1.73,0.74,2.25s1.17,0.79,2.04,0.79s1.56-0.26,2.07-0.79
			s0.77-1.28,0.77-2.25v-13.4h5.09V45.41z"/>
		<path class="st8" d="M677.82,52.72l-3.7-7.75h-1.73v7.75h-5.09V31.89h8.25c1.15,0,2.17,0.19,3.06,0.57
			c0.89,0.38,1.63,0.88,2.22,1.51s1.05,1.34,1.36,2.14c0.31,0.8,0.47,1.63,0.47,2.49c0,0.7-0.1,1.35-0.31,1.93
			c-0.21,0.58-0.47,1.1-0.79,1.55c-0.32,0.45-0.68,0.84-1.09,1.17c-0.4,0.33-0.81,0.59-1.22,0.79l4.51,8.69H677.82z M677.57,38.62
			c0-0.55-0.2-1.03-0.59-1.46c-0.39-0.43-0.95-0.64-1.66-0.64h-2.93v4.21h2.93c0.71,0,1.26-0.21,1.66-0.64
			S677.57,39.17,677.57,38.62z"/>
	</g>
	<g>
		<path class="st8" d="M537.65,133.63v11.67h-3.65v-11.67h-3.67v-3.28h11v3.28H537.65z"/>
		<path class="st8" d="M551.08,145.3v-5.92h-3.95v5.92h-3.65v-14.95h3.65v5.75h3.95v-5.75h3.65v14.95H551.08z"/>
		<path class="st8" d="M557.76,145.3v-14.95h10.14v3.28h-6.49v2.5h5.54v3.28h-5.54v2.62h6.49v3.28H557.76z"/>
		<path class="st8" d="M586.34,140.89c0,0.71-0.12,1.34-0.36,1.89s-0.56,1.01-0.97,1.39s-0.9,0.66-1.47,0.85
			c-0.57,0.19-1.18,0.28-1.86,0.28h-6.5v-14.95h6.18c0.77,0,1.45,0.11,2.04,0.32s1.09,0.5,1.5,0.88s0.71,0.83,0.91,1.37
			c0.2,0.53,0.3,1.12,0.3,1.76c0,0.42-0.06,0.8-0.19,1.13s-0.28,0.63-0.45,0.87c-0.17,0.25-0.36,0.45-0.55,0.6
			c-0.19,0.15-0.34,0.27-0.45,0.36c0.15,0.1,0.34,0.22,0.55,0.38s0.41,0.36,0.61,0.61s0.36,0.56,0.49,0.93
			C586.27,139.93,586.34,140.37,586.34,140.89z M582.48,134.86c0-0.29-0.09-0.56-0.28-0.81c-0.19-0.25-0.54-0.38-1.05-0.38h-2.3
			v2.39h2.3c0.51,0,0.86-0.13,1.05-0.38C582.38,135.43,582.48,135.15,582.48,134.86z M582.69,140.67c0-0.32-0.1-0.61-0.3-0.89
			c-0.2-0.27-0.55-0.41-1.06-0.41h-2.49v2.6h2.49c0.51,0,0.86-0.14,1.06-0.42C582.59,141.29,582.69,140.99,582.69,140.67z"/>
		<path class="st8" d="M588.9,145.3v-14.95h10.14v3.28h-6.49v2.5h5.54v3.28h-5.54v2.62h6.49v3.28H588.9z"/>
		<path class="st8" d="M611.71,140.72c0,0.76-0.15,1.43-0.46,2.02s-0.72,1.08-1.25,1.48c-0.53,0.4-1.14,0.7-1.84,0.9
			c-0.7,0.2-1.44,0.3-2.23,0.3c-0.57,0-1.12-0.03-1.64-0.09c-0.52-0.06-1.02-0.17-1.49-0.31c-0.48-0.15-0.92-0.35-1.34-0.6
			s-0.82-0.57-1.2-0.97l2.35-2.35c0.39,0.39,0.9,0.67,1.51,0.82c0.62,0.15,1.22,0.23,1.83,0.23c1.43,0,2.14-0.45,2.14-1.34
			c0-0.38-0.1-0.67-0.29-0.88c-0.21-0.21-0.54-0.34-0.99-0.4l-1.81-0.25c-1.33-0.2-2.33-0.64-3-1.32c-0.69-0.7-1.03-1.7-1.03-3
			c0-0.69,0.13-1.32,0.38-1.89c0.25-0.57,0.61-1.07,1.08-1.49c0.47-0.42,1.04-0.75,1.71-0.99c0.67-0.24,1.44-0.36,2.29-0.36
			c1.08,0,2.03,0.14,2.85,0.41c0.82,0.27,1.55,0.73,2.19,1.38l-2.31,2.31c-0.24-0.24-0.49-0.42-0.76-0.54
			c-0.27-0.12-0.52-0.21-0.78-0.26c-0.25-0.06-0.49-0.08-0.71-0.08c-0.22,0-0.42,0-0.59,0c-0.32,0-0.6,0.04-0.82,0.13
			s-0.41,0.19-0.56,0.33c-0.15,0.13-0.25,0.28-0.33,0.44s-0.11,0.33-0.11,0.49c0,0.1,0.02,0.21,0.06,0.34s0.12,0.25,0.23,0.36
			c0.1,0.1,0.23,0.19,0.39,0.27s0.38,0.14,0.64,0.17l1.81,0.25c1.32,0.18,2.3,0.6,2.94,1.24c0.41,0.39,0.69,0.86,0.86,1.41
			S611.71,140.02,611.71,140.72z"/>
		<path class="st8" d="M620.57,133.63v11.67h-3.65v-11.67h-3.67v-3.28h11v3.28H620.57z"/>
		<path class="st8" d="M634.72,133.63v2.62h5.54v3.28h-5.54v5.77h-3.65v-14.95h10.14v3.28H634.72z"/>
		<path class="st8" d="M654.04,137.83c0,0.56,0,1.11-0.01,1.65c-0.01,0.54-0.06,1.06-0.15,1.56s-0.24,0.98-0.45,1.44
			s-0.51,0.88-0.9,1.27c-0.54,0.55-1.15,0.96-1.8,1.25c-0.66,0.29-1.45,0.43-2.37,0.43s-1.71-0.14-2.37-0.43
			c-0.66-0.29-1.26-0.7-1.8-1.25c-0.39-0.39-0.69-0.82-0.9-1.27s-0.36-0.93-0.45-1.44c-0.09-0.5-0.14-1.03-0.15-1.56
			s-0.01-1.09-0.01-1.65c0-0.56,0-1.11,0.01-1.65c0.01-0.54,0.06-1.06,0.15-1.56c0.09-0.5,0.24-0.98,0.45-1.44
			c0.21-0.45,0.51-0.88,0.9-1.27c0.54-0.55,1.15-0.96,1.8-1.25c0.66-0.29,1.45-0.43,2.37-0.43s1.71,0.14,2.37,0.43
			s1.26,0.7,1.8,1.25c0.39,0.39,0.69,0.82,0.9,1.27c0.21,0.46,0.36,0.93,0.45,1.44s0.14,1.03,0.15,1.56
			C654.04,136.72,654.04,137.27,654.04,137.83z M650.38,137.83c0-0.69-0.01-1.24-0.04-1.67s-0.06-0.77-0.11-1.03
			c-0.04-0.26-0.1-0.46-0.17-0.6c-0.07-0.14-0.15-0.27-0.23-0.38c-0.14-0.18-0.34-0.34-0.59-0.46c-0.25-0.13-0.55-0.19-0.89-0.19
			s-0.63,0.06-0.89,0.19c-0.25,0.13-0.45,0.28-0.59,0.46c-0.08,0.11-0.16,0.24-0.23,0.38c-0.07,0.14-0.13,0.34-0.17,0.6
			c-0.04,0.26-0.08,0.6-0.11,1.03s-0.04,0.98-0.04,1.67c0,0.69,0.01,1.24,0.04,1.66s0.06,0.76,0.11,1.02s0.1,0.46,0.17,0.6
			c0.07,0.14,0.15,0.27,0.23,0.38c0.14,0.18,0.34,0.34,0.59,0.47c0.25,0.13,0.55,0.2,0.89,0.2s0.63-0.07,0.89-0.2
			c0.25-0.13,0.45-0.29,0.59-0.47c0.08-0.11,0.16-0.24,0.23-0.38c0.07-0.14,0.13-0.34,0.17-0.6c0.04-0.26,0.08-0.6,0.11-1.02
			S650.38,138.51,650.38,137.83z"/>
		<path class="st8" d="M667.48,137.83c0,0.56,0,1.11-0.01,1.65c-0.01,0.54-0.06,1.06-0.15,1.56s-0.24,0.98-0.45,1.44
			s-0.51,0.88-0.9,1.27c-0.54,0.55-1.15,0.96-1.8,1.25c-0.66,0.29-1.45,0.43-2.37,0.43s-1.71-0.14-2.37-0.43
			c-0.66-0.29-1.26-0.7-1.8-1.25c-0.39-0.39-0.69-0.82-0.9-1.27s-0.36-0.93-0.45-1.44c-0.09-0.5-0.14-1.03-0.15-1.56
			s-0.01-1.09-0.01-1.65c0-0.56,0-1.11,0.01-1.65c0.01-0.54,0.06-1.06,0.15-1.56c0.09-0.5,0.24-0.98,0.45-1.44
			c0.21-0.45,0.51-0.88,0.9-1.27c0.54-0.55,1.15-0.96,1.8-1.25c0.66-0.29,1.45-0.43,2.37-0.43s1.71,0.14,2.37,0.43
			s1.26,0.7,1.8,1.25c0.39,0.39,0.69,0.82,0.9,1.27c0.21,0.46,0.36,0.93,0.45,1.44s0.14,1.03,0.15,1.56
			C667.47,136.72,667.48,137.27,667.48,137.83z M663.82,137.83c0-0.69-0.01-1.24-0.04-1.67s-0.06-0.77-0.11-1.03
			c-0.04-0.26-0.1-0.46-0.17-0.6c-0.07-0.14-0.15-0.27-0.23-0.38c-0.14-0.18-0.34-0.34-0.59-0.46c-0.25-0.13-0.55-0.19-0.89-0.19
			s-0.63,0.06-0.89,0.19c-0.25,0.13-0.45,0.28-0.59,0.46c-0.08,0.11-0.16,0.24-0.23,0.38c-0.07,0.14-0.13,0.34-0.17,0.6
			c-0.04,0.26-0.08,0.6-0.11,1.03s-0.04,0.98-0.04,1.67c0,0.69,0.01,1.24,0.04,1.66s0.06,0.76,0.11,1.02s0.1,0.46,0.17,0.6
			c0.07,0.14,0.15,0.27,0.23,0.38c0.14,0.18,0.34,0.34,0.59,0.47c0.25,0.13,0.55,0.2,0.89,0.2s0.63-0.07,0.89-0.2
			c0.25-0.13,0.45-0.29,0.59-0.47c0.08-0.11,0.16-0.24,0.23-0.38c0.07-0.14,0.13-0.34,0.17-0.6c0.04-0.26,0.08-0.6,0.11-1.02
			S663.82,138.51,663.82,137.83z"/>
		<path class="st8" d="M681.17,139.53c0,0.53-0.04,1.04-0.13,1.53c-0.08,0.49-0.23,0.97-0.45,1.43s-0.54,0.91-0.98,1.34
			c-0.52,0.52-1.12,0.89-1.82,1.12c-0.69,0.23-1.43,0.35-2.21,0.35h-5.54v-14.95h5.54c0.78,0,1.52,0.12,2.21,0.35
			c0.69,0.23,1.3,0.61,1.82,1.12c0.43,0.43,0.76,0.88,0.98,1.34s0.37,0.94,0.45,1.43s0.13,1.01,0.13,1.55V139.53z M677.51,137.83
			c0-0.63-0.01-1.14-0.02-1.53c-0.01-0.39-0.04-0.7-0.07-0.93c-0.04-0.23-0.08-0.41-0.13-0.54c-0.05-0.13-0.11-0.24-0.18-0.36
			c-0.17-0.25-0.39-0.46-0.67-0.61c-0.28-0.15-0.65-0.23-1.11-0.23h-1.63v8.4h1.63c0.47,0,0.84-0.08,1.11-0.23
			c0.28-0.15,0.5-0.36,0.67-0.61c0.07-0.1,0.13-0.21,0.18-0.34c0.05-0.13,0.09-0.31,0.13-0.55c0.04-0.24,0.06-0.55,0.07-0.94
			C677.51,138.97,677.51,138.46,677.51,137.83z"/>
	</g>
	<g>
		<path class="st2" d="M578.54,103.42c-0.6,3.52-1.63,6.58-3.09,9.17c-1.46,2.59-3.25,4.76-5.37,6.49c-2.12,1.73-4.5,3.01-7.16,3.85
			c-2.65,0.83-5.5,1.25-8.54,1.25c-3.76,0-7.06-0.61-9.92-1.83c-2.85-1.22-5.43-3-7.75-5.32c-1.66-1.67-2.94-3.47-3.83-5.41
			c-0.89-1.94-1.53-3.98-1.91-6.13c-0.39-2.15-0.59-4.37-0.62-6.67c-0.03-2.3-0.04-4.64-0.04-7.02c0-2.38,0.01-4.73,0.04-7.02
			c0.03-2.3,0.24-4.52,0.62-6.67c0.39-2.15,1.02-4.19,1.91-6.13c0.89-1.94,2.17-3.74,3.83-5.41c2.31-2.33,4.89-4.1,7.75-5.32
			c2.85-1.22,6.16-1.83,9.92-1.83c3.04,0,5.89,0.42,8.54,1.25c2.65,0.84,5.04,2.12,7.16,3.85c2.12,1.73,3.91,3.89,5.37,6.49
			c1.46,2.59,2.49,5.65,3.09,9.17h-15.92c-0.48-1.79-1.31-3.37-2.5-4.74c-1.19-1.37-3.07-2.06-5.64-2.06
			c-1.43,0-2.67,0.25-3.71,0.76c-1.04,0.51-1.86,1.15-2.46,1.92c-0.36,0.48-0.69,1.01-0.98,1.61c-0.3,0.6-0.55,1.46-0.76,2.59
			c-0.21,1.13-0.37,2.61-0.49,4.43c-0.12,1.82-0.18,4.19-0.18,7.11c0,2.92,0.06,5.29,0.18,7.11c0.12,1.82,0.28,3.3,0.49,4.43
			c0.21,1.13,0.46,2,0.76,2.59c0.3,0.6,0.63,1.13,0.98,1.61c0.6,0.78,1.42,1.42,2.46,1.92c1.04,0.51,2.28,0.76,3.71,0.76
			c2.56,0,4.44-0.68,5.64-2.06c1.19-1.37,2.03-2.95,2.5-4.74H578.54z"/>
		<path class="st2" d="M621.57,123.64l-2.95-9.48h-19.59l-3.13,9.48h-16.37l23.17-63.7h12.08l23.17,63.7H621.57z M609.13,84.19
			l-5.73,17h11.09L609.13,84.19z"/>
		<path class="st2" d="M666.48,73.9v49.74h-15.57V73.9h-15.66V59.94h46.88V73.9H666.48z"/>
	</g>
	<g>
		<g>
			<g>
				<path class="st8" d="M461.41,128.53c3.4,2.13,7,1.87,10.36,0.25c9.66-4.64,17.21-11.55,21.77-21.39
					c1.69-3.66,2.22-7.54,0.64-11.44c-2.47-6.09-11.05-8.25-15.71-4c-1.85,1.69-2.62,3.98-1.6,6.01c0.79,1.57,2.72,3.18,4.39,3.51
					c1.5,0.29,3.97-0.71,4.84-1.96c0.84-1.21,0.63-3.63,0.01-5.17c-0.26-0.66-2.79-0.71-4.19-0.46c-0.63,0.11-1,1.64-1.49,2.52
					c0.85,0.35,1.7,0.7,2.55,1.04c0.14-0.23,0.29-0.47,0.43-0.7c-0.33-0.69-0.67-1.38-1-2.07c2.56-0.72,4.67,0.67,3.72,2.55
					c-0.76,1.49-2.49,3.17-4,3.39c-1.27,0.19-3.31-1.29-4.16-2.59c-1.47-2.25-0.04-5.02,2.74-6.39c3.57-1.75,6.99-1.18,9.92,1.21
					c3.23,2.64,4.43,6.32,3.29,10.35c-3.02,10.79-10.63,17.81-19.83,23.37C470.21,128.92,466.05,130.31,461.41,128.53z"/>
				<path class="st10" d="M461.41,128.53c4.64,1.78,8.8,0.4,12.68-1.95c9.2-5.56,16.81-12.59,19.83-23.37
					c1.13-4.03-0.06-7.71-3.29-10.35c-2.92-2.39-6.35-2.96-9.92-1.21c-2.78,1.36-4.21,4.13-2.74,6.39c0.84,1.3,2.89,2.78,4.16,2.59
					c1.5-0.22,3.24-1.9,4-3.39c0.95-1.88-1.16-3.27-3.72-2.55c0.33,0.69,0.67,1.38,1,2.07c-0.14,0.23-0.29,0.46-0.43,0.7
					c-0.85-0.35-1.7-0.69-2.55-1.04c0.49-0.88,0.87-2.41,1.49-2.52c1.4-0.25,3.93-0.2,4.19,0.46c0.62,1.54,0.83,3.96-0.01,5.17
					c-0.87,1.25-3.34,2.25-4.84,1.96c-1.67-0.32-3.59-1.94-4.39-3.51c-1.02-2.03-0.25-4.33,1.6-6.01c4.67-4.26,13.25-2.09,15.71,4
					c1.58,3.9,1.06,7.78-0.64,11.44c-4.56,9.83-12.11,16.75-21.77,21.39C468.41,130.39,464.81,130.65,461.41,128.53z"/>
			</g>
		</g>
		<g>
			<path class="st10" d="M432.65,176.76c0.81-9.91,1.6-19.83,2.44-29.74c0.24-2.83,0.9-5.73-3.09-6.64
				c-0.67-0.15-1.28-0.99-1.71-1.65c-2.57-4.02-5.07-8.07-7.74-12.35c11.73,1.48,19.21-3.95,20.58-18c1.5,2.61,2.47,3.89,3.02,5.32
				c1.62,4.28,4.25,7.06,8.94,8.26c6.41,1.64,8.42,7.34,9.16,12.89c1.45,10.86,2.1,21.82,3.11,32.73c0.29,3.11,0.7,6.22,0.61,9.42
				c-2.46-7.22-4.76-14.5-7.45-21.63c-1.34-3.54-3.06-7.04-5.19-10.16c-3.19-4.66-7.05-4.83-9.77,0.09
				c-3.59,6.48-6.25,13.49-9.02,20.39c-1.46,3.64-2.32,7.53-3.45,11.31C432.93,176.92,432.79,176.84,432.65,176.76z"/>
			<g id="XMLID_1_">
				<g>
					<path class="st2" d="M488.76,141.17c0,0.59,0,1.19,0,1.78c-0.01,0.06-0.03,0.12-0.04,0.18c-0.1,2.1-0.55,4.13-1.23,6.11
						c-1.02,2.95-2.47,5.67-4.15,8.28c-0.11,0.17-0.09,0.28,0.01,0.44c1.55,2.38,3.1,4.77,4.64,7.17c0.05,0.07,0.09,0.14,0.16,0.25
						c-0.11-0.05-0.17-0.08-0.23-0.12c-2.13-1.19-4.27-2.38-6.4-3.58c-0.11-0.06-0.18-0.07-0.29,0c-1.88,1.22-3.77,2.43-5.65,3.64
						c-0.05,0.04-0.1,0.09-0.15,0.13c-0.01,0-0.03,0-0.04,0c0.11-0.2,0.22-0.41,0.34-0.61c1.36-2.31,2.71-4.61,4.07-6.91
						c0.1-0.16,0.08-0.25-0.02-0.39c-1.65-2.26-3-4.69-3.95-7.33c-0.69-1.91-1.17-3.87-1.4-5.89c-0.21-1.91-0.42-3.82-0.37-5.75
						c0.1-3.4,0.88-6.65,2.26-9.76c0.75-1.71,1.65-3.34,2.65-4.92c0.02-0.04,0.05-0.08,0.09-0.14c0,0,0.01,0,0.01,0.01
						c0.02,0.14,0.05,0.27,0.1,0.4c0.37,1.03,1.2,1.56,2.19,1.39c1-0.17,1.61-0.9,1.64-1.95c0.01-0.01,0.01-0.01,0.02-0.02
						c0.07,0.08,0.12,0.14,0.16,0.2c2.49,3.41,4.15,7.18,4.95,11.32c0.37,1.94,0.56,3.91,0.6,5.89
						C488.73,141.04,488.75,141.11,488.76,141.17z M479.04,129.33c0.37,0,0.67-0.3,0.66-0.67c0-0.37-0.31-0.67-0.68-0.66
						c-0.36,0-0.67,0.31-0.67,0.67C478.36,129.04,478.66,129.33,479.04,129.33z"/>
					<path class="st8" d="M483.99,114.59c0,0.22,0,0.44,0,0.66c-0.17,0.46-0.42,0.84-0.9,1.05c-0.05,0.03-0.08,0.16-0.08,0.24
						c0,1.72,0,3.44,0,5.16c0,0.59,0,1.19,0,1.79c0,0.03,0,0.07-0.01,0.1c-0.56,0.57-1.13,1.14-1.69,1.71
						c-0.76-0.53-1.49-1.04-2.24-1.55c-0.11-0.72,0.08-1.56,0.55-2.19c0.29,0.66,0.58,1.33,0.87,2c-0.09,0.02-0.2,0.03-0.3,0.05
						c0.04,0.48,0.32,0.76,0.78,0.81c0.41,0.03,0.85-0.28,0.94-0.69c0.04-0.16,0.05-0.31,0.06-0.47c0-2.24,0-4.47,0-6.71
						c0-0.16-0.05-0.24-0.19-0.32c-0.52-0.29-0.79-0.74-0.79-1.33c0.01-0.58,0.28-1.04,0.81-1.31c0.15-0.08,0.19-0.17,0.19-0.33
						c-0.01-6.04,0-12.08,0-18.12c0-0.07-0.02-0.13-0.02-0.19c0.3,0,0.6,0,0.89,0c0,6.16,0,12.33,0,18.44
						c0.25,0.16,0.51,0.27,0.67,0.45C483.73,114.05,483.84,114.33,483.99,114.59z M483.06,114.92c0-0.28-0.22-0.51-0.49-0.51
						c-0.28-0.01-0.51,0.22-0.52,0.49c-0.01,0.29,0.23,0.53,0.51,0.53C482.83,115.42,483.06,115.2,483.06,114.92z"/>
					<path d="M481.31,125.3c0.56-0.57,1.13-1.14,1.69-1.71c-0.03,1.05-0.64,1.78-1.64,1.95c-0.99,0.17-1.82-0.36-2.19-1.39
						c-0.05-0.13-0.08-0.26-0.1-0.4C479.82,124.26,480.55,124.78,481.31,125.3z"/>
					<path class="st6" d="M479.7,128.67c0.01,0.37-0.29,0.67-0.66,0.67c-0.38,0-0.68-0.29-0.69-0.66c0-0.36,0.31-0.67,0.67-0.67
						C479.39,128,479.7,128.29,479.7,128.67z"/>
				</g>
			</g>
		</g>
	</g>
	<path class="st9" d="M661.82,164.43c-0.01,0.94-0.78,1.72-1.7,1.73c-0.94,0.01-1.74-0.83-1.72-1.79c0.03-0.94,0.81-1.69,1.75-1.67
		C661.09,162.71,661.83,163.49,661.82,164.43z"/>
</g>
<g id="Layer_2">
</g>
</svg>
