<?xml version="1.0" encoding="utf-8"?>
<!-- Generator: Adobe Illustrator 16.0.0, SVG Export Plug-In . SVG Version: 6.00 Build 0)  -->
<!DOCTYPE svg PUBLIC "-//W3C//DTD SVG 1.1//EN" "http://www.w3.org/Graphics/SVG/1.1/DTD/svg11.dtd">
<svg version="1.1" xmlns="http://www.w3.org/2000/svg" xmlns:xlink="http://www.w3.org/1999/xlink" x="0px" y="0px" width="720px"
	 height="219.95px" viewBox="0 0 720 219.95" style="enable-background:new 0 0 720 219.95;" xml:space="preserve">
<style type="text/css">
<![CDATA[
	.st0{fill:#E0D9AB;}
	.st1{fill:#EFECDE;}
	.st2{fill:#BD4828;}
	.st3{fill:#F8F7F1;}
	.st4{fill-rule:evenodd;clip-rule:evenodd;fill:#BD4828;}
	.st5{fill-rule:evenodd;clip-rule:evenodd;}
	.st6{fill:#FFFFFF;}
	.st7{fill:#CEE9F9;}
	.st8{fill:#6B3414;}
	.st9{fill-rule:evenodd;clip-rule:evenodd;fill:#FFFFFF;}
	.st10{fill-rule:evenodd;clip-rule:evenodd;fill:#6B3414;}
]]>
</style>
<g id="Layer_1">
	<rect x="1.15" y="-3.05" class="st3" width="720" height="222"/>
	<rect x="0.15" y="177.51" class="st0" width="720" height="41.92"/>
	<rect x="179.76" y="171.93" class="st8" width="539.9" height="10"/>
	<polygon class="st2" points="0,147.74 0,203.24 277.78,203.24 264.36,176.24 277.32,147.82 250.1,147.82 250.1,147.74 	"/>
	<g>
		<g>
			<path class="st3" d="M33.21,190.3v-13.02h-8.68v13.02h-8.04v-32.88h8.04v12.65h8.68v-12.65h8.04v32.88H33.21z"/>
			<path class="st3" d="M51.86,180.33c0,1.03,0.38,1.94,1.13,2.73c0.75,0.79,1.84,1.19,3.26,1.19c1.32,0,2.34-0.18,3.05-0.53
				c0.71-0.35,1.4-0.87,2.08-1.55l4.53,4.51c-0.65,0.64-1.29,1.2-1.94,1.67c-0.65,0.47-1.35,0.88-2.1,1.21
				c-0.75,0.34-1.59,0.59-2.52,0.76c-0.92,0.17-1.96,0.25-3.09,0.25c-1.39,0-2.78-0.16-4.17-0.49c-1.4-0.32-2.65-0.94-3.77-1.85
				c-1.12-0.91-2.04-2.19-2.75-3.86s-1.08-3.83-1.08-6.51c0-2.03,0.28-3.83,0.83-5.4s1.33-2.9,2.31-4c0.99-1.09,2.16-1.92,3.52-2.47
				c1.36-0.55,2.85-0.83,4.49-0.83c1.79,0,3.39,0.31,4.79,0.92c1.4,0.62,2.58,1.45,3.52,2.52s1.66,2.31,2.15,3.74
				c0.49,1.43,0.74,2.96,0.74,4.59v3.37H51.86z M59.3,175.34c0-0.31-0.03-0.63-0.09-0.96s-0.17-0.66-0.33-1
				c-0.25-0.53-0.63-0.99-1.16-1.38s-1.24-0.58-2.14-0.58c-0.9,0-1.61,0.19-2.14,0.58c-0.53,0.39-0.91,0.85-1.16,1.38
				c-0.16,0.34-0.26,0.68-0.33,1s-0.09,0.65-0.09,0.96H59.3z"/>
			<path class="st3" d="M81.6,190.3l0-2.03c-0.77,0.77-1.55,1.34-2.35,1.71c-0.8,0.37-1.86,0.55-3.19,0.55
				c-1.26,0-2.39-0.19-3.39-0.58c-1-0.38-1.85-0.93-2.56-1.64c-0.71-0.71-1.25-1.56-1.62-2.56c-0.37-1-0.55-2.09-0.55-3.26
				c0-0.92,0.16-1.82,0.48-2.7c0.32-0.88,0.83-1.65,1.52-2.31s1.57-1.19,2.63-1.59c1.06-0.4,2.33-0.6,3.81-0.6h5.03v-0.65
				c0-1.15-0.29-1.96-0.88-2.43c-0.59-0.47-1.54-0.7-2.86-0.7c-0.99,0-1.74,0.12-2.26,0.37c-0.52,0.25-1.09,0.68-1.71,1.29
				L69,168.48c0.65-0.64,1.28-1.17,1.89-1.58c0.62-0.41,1.29-0.75,2.01-1.01c0.72-0.26,1.5-0.44,2.33-0.55
				c0.83-0.11,1.77-0.16,2.82-0.16c3.56,0,6.27,0.74,8.12,2.22s2.78,3.74,2.78,6.79v16.12H81.6z M81.42,180.33h-3.83
				c-0.74,0-1.32,0.19-1.76,0.55s-0.65,0.85-0.65,1.43c0,0.55,0.21,1.04,0.62,1.46s1.04,0.62,1.87,0.62c0.74,0,1.32-0.05,1.73-0.16
				c0.42-0.11,0.84-0.36,1.27-0.76c0.49-0.46,0.74-1.29,0.74-2.49V180.33z"/>
			<path class="st3" d="M99.89,190.3c-1.38,0-2.55-0.22-3.51-0.67c-0.96-0.45-1.75-1.02-2.36-1.73c-0.61-0.71-1.06-1.49-1.35-2.36
				c-0.29-0.86-0.44-1.72-0.44-2.59v-25.54h7.53v25.03c0,1.02,0.51,1.53,1.52,1.53h2.63v6.33H99.89z"/>
			<path class="st3" d="M114.58,190.3c-1.38,0-2.55-0.22-3.51-0.67c-0.96-0.45-1.75-1.02-2.36-1.73c-0.61-0.71-1.06-1.49-1.35-2.35
				c-0.29-0.86-0.44-1.72-0.44-2.58v-10.69h-2.26v-5.87h2.26v-7.11h7.53v7.11h3.93v5.87h-3.93v10.16c0,1.02,0.51,1.52,1.52,1.52h2.4
				v6.33H114.58z"/>
			<path class="st3" d="M134.67,190.3v-15.09c0-0.68-0.11-1.23-0.33-1.64s-0.47-0.74-0.77-0.97c-0.3-0.23-0.61-0.39-0.95-0.48
				c-0.34-0.09-0.64-0.14-0.88-0.14c-0.25,0-0.54,0.05-0.88,0.14c-0.34,0.09-0.66,0.25-0.95,0.48c-0.3,0.23-0.55,0.56-0.77,0.97
				s-0.33,0.96-0.33,1.64v15.09h-7.53v-32.88h7.53v10.05c0.8-0.8,1.67-1.38,2.61-1.74c0.94-0.37,1.89-0.55,2.84-0.55
				c1.32,0,2.49,0.23,3.49,0.69c1,0.46,1.83,1.1,2.49,1.92s1.15,1.77,1.48,2.86s0.48,2.27,0.48,3.53v16.12H134.67z"/>
			<path class="st3" d="M156.84,193.26c-0.49,1.39-1.14,2.48-1.94,3.28c-0.74,0.8-1.58,1.35-2.52,1.64
				c-0.94,0.29-1.96,0.44-3.07,0.44h-2.86v-6.79h1.62c0.68,0,1.21-0.12,1.59-0.35c0.38-0.23,0.7-0.73,0.95-1.5l0.69-2.08
				l-8.27-22.44h7.94l4.2,12.89l4.02-12.89h7.94L156.84,193.26z"/>
			<path class="st3" d="M200.48,179.86c-0.31,1.82-0.84,3.39-1.59,4.73c-0.75,1.34-1.68,2.46-2.77,3.35
				c-1.09,0.89-2.33,1.55-3.69,1.99c-1.37,0.43-2.84,0.65-4.41,0.65c-1.94,0-3.65-0.32-5.12-0.95s-2.81-1.55-4-2.75
				c-0.86-0.86-1.52-1.79-1.98-2.79s-0.79-2.06-0.99-3.16c-0.2-1.11-0.31-2.26-0.32-3.44c-0.02-1.18-0.02-2.39-0.02-3.62
				s0.01-2.44,0.02-3.62c0.02-1.19,0.12-2.33,0.32-3.44c0.2-1.11,0.53-2.16,0.99-3.16c0.46-1,1.12-1.93,1.98-2.79
				c1.19-1.2,2.53-2.12,4-2.75s3.18-0.95,5.12-0.95c1.57,0,3.04,0.22,4.41,0.65c1.37,0.43,2.6,1.09,3.69,1.99
				c1.09,0.89,2.02,2.01,2.77,3.35c0.75,1.34,1.29,2.92,1.59,4.73h-8.22c-0.25-0.92-0.68-1.74-1.29-2.45
				c-0.62-0.71-1.59-1.06-2.91-1.06c-0.74,0-1.38,0.13-1.92,0.39c-0.54,0.26-0.96,0.59-1.27,0.99c-0.19,0.25-0.35,0.52-0.51,0.83
				c-0.15,0.31-0.28,0.75-0.39,1.34s-0.19,1.35-0.25,2.29c-0.06,0.94-0.09,2.16-0.09,3.67c0,1.51,0.03,2.73,0.09,3.67
				c0.06,0.94,0.15,1.7,0.25,2.29c0.11,0.59,0.24,1.03,0.39,1.34c0.15,0.31,0.32,0.58,0.51,0.83c0.31,0.4,0.73,0.73,1.27,0.99
				c0.54,0.26,1.18,0.39,1.92,0.39c1.32,0,2.29-0.35,2.91-1.06c0.62-0.71,1.05-1.52,1.29-2.45H200.48z"/>
			<path class="st3" d="M214.52,190.3l0-2.03c-0.77,0.77-1.55,1.34-2.35,1.71c-0.8,0.37-1.86,0.55-3.19,0.55
				c-1.26,0-2.39-0.19-3.39-0.58c-1-0.38-1.85-0.93-2.56-1.64c-0.71-0.71-1.25-1.56-1.62-2.56c-0.37-1-0.55-2.09-0.55-3.26
				c0-0.92,0.16-1.82,0.48-2.7c0.32-0.88,0.83-1.65,1.52-2.31s1.57-1.19,2.63-1.59c1.06-0.4,2.33-0.6,3.81-0.6h5.03v-0.65
				c0-1.15-0.29-1.96-0.88-2.43c-0.59-0.47-1.54-0.7-2.86-0.7c-0.99,0-1.74,0.12-2.26,0.37c-0.52,0.25-1.09,0.68-1.71,1.29
				l-4.71-4.69c0.65-0.64,1.28-1.17,1.89-1.58c0.62-0.41,1.29-0.75,2.01-1.01c0.72-0.26,1.5-0.44,2.33-0.55
				c0.83-0.11,1.77-0.16,2.82-0.16c3.56,0,6.27,0.74,8.12,2.22s2.78,3.74,2.78,6.79v16.12H214.52z M214.33,180.33h-3.83
				c-0.74,0-1.32,0.19-1.76,0.55s-0.65,0.85-0.65,1.43c0,0.55,0.21,1.04,0.62,1.46s1.04,0.62,1.87,0.62c0.74,0,1.32-0.05,1.73-0.16
				c0.42-0.11,0.84-0.36,1.27-0.76c0.49-0.46,0.74-1.29,0.74-2.49V180.33z"/>
			<path class="st3" d="M233.59,190.3c-1.38,0-2.55-0.22-3.51-0.67c-0.96-0.45-1.75-1.02-2.36-1.73c-0.61-0.71-1.06-1.49-1.35-2.35
				c-0.29-0.86-0.44-1.72-0.44-2.58v-10.69h-2.26v-5.87h2.26v-7.11h7.53v7.11h3.93v5.87h-3.93v10.16c0,1.02,0.51,1.52,1.52,1.52h2.4
				v6.33H233.59z"/>
		</g>
	</g>
	<g>
		<g>
			<path class="st8" d="M428.84,169.36c0.34-0.06,0.69-0.12,1.03-0.18c0.12,0.97,0.24,1.94,0.41,3.27c1.06-0.24,1.97-0.45,2.88-0.65
				c-0.34-1.06-0.68-2.11-1.04-3.26c4.45-2.37,7.33-6.39,7.7-11.14c0.39-5.05,0.18-10.55-1.47-15.26
				c-4.42-12.61-8.95-25.09-8.59-38.72c-1.17,6.14-1.92,12.33-3.39,18.34c-1.97,8-4.89,15.76-6.69,23.79
				c-2.05,9.11-1.4,17.78,6.84,22.91c0,1.69,0,2.76,0,3.82c0.84,0,1.68,0,2.69,0C429.06,171.16,428.95,170.26,428.84,169.36z
				 M421.37,84.71c-0.4,3.22-0.36,6.25-1.26,8.96c-0.69,2.08,0.25,3.57,1.31,4.15c2.28,1.23,4.9,2.18,7.46,2.46
				c3.77,0.41,8.65-2.82,8.64-5.33c-0.01-3.32-0.27-6.63-0.44-10.36C431.93,90.14,426.5,90.06,421.37,84.71z M443.63,160.57
				c4.29,2.68,8.83,2.36,13.07,0.32c12.19-5.85,21.72-14.58,27.47-26.99c2.14-4.61,2.8-9.51,0.8-14.43
				c-3.11-7.68-13.94-10.42-19.83-5.04c-2.33,2.13-3.31,5.03-2.02,7.59c1,1.98,3.43,4.02,5.53,4.42c1.89,0.37,5-0.9,6.1-2.47
				c1.07-1.53,0.8-4.59,0.01-6.53c-0.33-0.83-3.53-0.89-5.29-0.58c-0.79,0.14-1.27,2.07-1.89,3.19c1.07,0.44,2.15,0.88,3.22,1.31
				c0.18-0.29,0.36-0.59,0.54-0.88c-0.42-0.87-0.84-1.74-1.26-2.61c3.23-0.91,5.9,0.85,4.7,3.21c-0.96,1.88-3.15,4.01-5.04,4.28
				c-1.6,0.24-4.18-1.63-5.25-3.27c-1.85-2.84-0.05-6.34,3.46-8.06c4.5-2.2,8.82-1.49,12.51,1.53c4.08,3.33,5.58,7.97,4.16,13.06
				c-3.81,13.61-13.41,22.47-25.02,29.49C454.74,161.08,449.48,162.82,443.63,160.57z M405.24,161.14
				c-0.71,1.54-1.17,2.69-1.75,3.78c-1.29,2.44,0.12,6.61,2.65,7.33c0.34,0.1,1.46-0.92,1.41-1.33c-0.39-3.32-0.98-6.61-1.55-10.19
				c7.78-0.32,3.81-6.98,5.3-11.17c-3.86,4.01-7.76,3.8-11.63,0.21c-0.17,2.2,0.02,4.13-0.52,5.82c-0.72,2.25,0.08,3.39,1.97,4.16
				C402.26,160.21,403.47,160.55,405.24,161.14z"/>
			<path class="st10" d="M428.84,169.36c0.11,0.9,0.22,1.81,0.36,2.9c-1.01,0-1.85,0-2.69,0c0-1.06,0-2.12,0-3.82
				c-8.24-5.13-8.89-13.79-6.84-22.91c1.81-8.02,4.73-15.79,6.69-23.79c1.48-6.01,2.22-12.2,3.39-18.34
				c-0.36,13.64,4.16,26.12,8.59,38.72c1.65,4.71,1.86,10.22,1.47,15.26c-0.37,4.75-3.26,8.77-7.7,11.14
				c0.37,1.15,0.71,2.21,1.04,3.26c-0.91,0.21-1.82,0.41-2.88,0.65c-0.17-1.33-0.29-2.3-0.41-3.27
				C429.53,169.24,429.18,169.3,428.84,169.36z"/>
			<path class="st10" d="M421.37,84.71c5.14,5.35,10.57,5.43,15.71-0.13c0.17,3.72,0.43,7.04,0.44,10.36
				c0.01,2.51-4.87,5.74-8.64,5.33c-2.56-0.28-5.19-1.22-7.46-2.46c-1.06-0.58-2-2.06-1.31-4.15
				C421.01,90.95,420.96,87.92,421.37,84.71z"/>
			<path class="st10" d="M443.63,160.57c5.85,2.25,11.11,0.5,16-2.46c11.61-7.02,21.21-15.88,25.02-29.49
				c1.43-5.09-0.08-9.73-4.16-13.06c-3.69-3.02-8.01-3.73-12.51-1.53c-3.51,1.72-5.31,5.21-3.46,8.06c1.07,1.64,3.64,3.5,5.25,3.27
				c1.9-0.28,4.09-2.4,5.04-4.28c1.2-2.37-1.47-4.13-4.7-3.21c0.42,0.87,0.84,1.74,1.26,2.61c-0.18,0.29-0.36,0.59-0.54,0.88
				c-1.07-0.44-2.15-0.88-3.22-1.31c0.62-1.12,1.09-3.04,1.89-3.19c1.76-0.32,4.96-0.25,5.29,0.58c0.78,1.94,1.05,5-0.01,6.53
				c-1.1,1.57-4.21,2.84-6.1,2.47c-2.1-0.41-4.54-2.44-5.53-4.42c-1.29-2.56-0.32-5.46,2.02-7.59c5.89-5.37,16.71-2.64,19.83,5.04
				c1.99,4.93,1.34,9.82-0.8,14.43c-5.75,12.41-15.28,21.14-27.47,26.99C452.46,162.93,447.93,163.26,443.63,160.57z"/>
			<path class="st10" d="M405.24,161.14c-1.77-0.59-2.98-0.93-4.13-1.4c-1.89-0.77-2.69-1.91-1.97-4.16
				c0.54-1.69,0.36-3.61,0.52-5.82c3.87,3.59,7.77,3.8,11.63-0.21c-1.48,4.19,2.49,10.85-5.3,11.17c0.57,3.58,1.16,6.87,1.55,10.19
				c0.05,0.41-1.07,1.43-1.41,1.33c-2.53-0.72-3.94-4.89-2.65-7.33C404.07,163.83,404.53,162.68,405.24,161.14z"/>
		</g>
	</g>
	<g>
		<path class="st8" d="M539.96,47.72v-8.25h-5.5v8.25h-5.09V26.89h5.09v8.02h5.5v-8.02h5.09v20.83H539.96z"/>
		<path class="st8" d="M549.26,47.72V26.89h14.13v4.56h-9.04v3.48h7.72v4.56h-7.72v3.66h9.04v4.56H549.26z"/>
		<path class="st8" d="M578.7,47.72l-0.97-3.1h-6.41l-1.02,3.1h-5.35l7.58-20.83h3.95l7.58,20.83H578.7z M574.63,34.82l-1.87,5.56
			h3.63L574.63,34.82z"/>
		<path class="st8" d="M586.16,47.72V26.89h5.09v16.27H600v4.56H586.16z"/>
		<path class="st8" d="M609.65,31.46v16.27h-5.09V31.46h-5.12v-4.56h15.33v4.56H609.65z"/>
		<path class="st8" d="M628.38,47.72v-8.25h-5.5v8.25h-5.09V26.89h5.09v8.02h5.5v-8.02h5.09v20.83H628.38z"/>
		<path class="st8" d="M644.18,47.72V26.89h5.09v20.83H644.18z"/>
		<path class="st8" d="M667.5,41.35c0,1.05-0.21,1.99-0.64,2.81c-0.43,0.82-1.01,1.51-1.74,2.06s-1.58,0.98-2.56,1.26
			c-0.98,0.28-2.01,0.42-3.1,0.42c-0.8,0-1.56-0.04-2.28-0.13s-1.41-0.23-2.08-0.44c-0.66-0.21-1.29-0.48-1.87-0.83
			c-0.59-0.35-1.14-0.8-1.67-1.35l3.28-3.28c0.55,0.55,1.25,0.93,2.11,1.14c0.86,0.21,1.71,0.32,2.54,0.32
			c1.99,0,2.98-0.62,2.98-1.87c0-0.53-0.14-0.94-0.41-1.23c-0.29-0.29-0.75-0.48-1.38-0.56l-2.52-0.35
			c-1.85-0.27-3.25-0.89-4.18-1.84c-0.96-0.98-1.43-2.37-1.43-4.18c0-0.96,0.18-1.83,0.53-2.63c0.35-0.8,0.85-1.49,1.51-2.08
			c0.65-0.58,1.45-1.04,2.38-1.38c0.94-0.33,2-0.5,3.19-0.5c1.5,0,2.82,0.19,3.96,0.57c1.14,0.38,2.16,1.02,3.06,1.92l-3.22,3.22
			c-0.33-0.33-0.68-0.58-1.05-0.75c-0.37-0.17-0.73-0.29-1.08-0.37c-0.35-0.08-0.68-0.12-0.99-0.12c-0.31,0-0.59,0-0.82,0
			c-0.45,0-0.83,0.06-1.14,0.18c-0.31,0.12-0.57,0.27-0.78,0.45s-0.36,0.39-0.45,0.61c-0.1,0.22-0.15,0.45-0.15,0.69
			c0,0.14,0.03,0.29,0.09,0.47c0.06,0.17,0.17,0.34,0.32,0.5c0.14,0.14,0.32,0.26,0.54,0.38c0.22,0.12,0.52,0.19,0.89,0.23
			l2.52,0.35c1.83,0.25,3.2,0.83,4.1,1.73c0.57,0.55,0.96,1.2,1.2,1.96S667.5,40.37,667.5,41.35z"/>
	</g>
	<g>
		<path class="st2" d="M595.15,97.76l-1.63,11.04h7.28v19.44h-10.41l-3.39,21.2h-21.83l3.39-21.2h-11.29l-3.39,21.2h-21.83
			l3.39-21.2h-7.28V108.8h10.41l1.63-11.04h-7.28V78.32h10.41l3.01-19.19h21.83l-3.01,19.19h11.29l3.01-19.19h21.83l-3.01,19.19
			h7.28v19.44H595.15z M562.03,97.76l-1.63,11.04h11.29l1.63-11.04H562.03z"/>
		<path class="st2" d="M636.8,149.44V82.08l-19.07,16.56V76.68l19.07-16.56h20.45v89.32H636.8z"/>
	</g>
</g>
<g id="Layer_2">
</g>
</svg>
