<?xml version="1.0" encoding="utf-8"?>
<!-- Generator: Adobe Illustrator 16.0.0, SVG Export Plug-In . SVG Version: 6.00 Build 0)  -->
<!DOCTYPE svg PUBLIC "-//W3C//DTD SVG 1.1//EN" "http://www.w3.org/Graphics/SVG/1.1/DTD/svg11.dtd">
<svg version="1.1" xmlns="http://www.w3.org/2000/svg" xmlns:xlink="http://www.w3.org/1999/xlink" x="0px" y="0px" width="720px"
	 height="221px" viewBox="0 0 720 221" style="enable-background:new 0 0 720 221;" xml:space="preserve">
<style type="text/css">
<![CDATA[
	.st0{fill:#E0D9AB;}
	.st1{fill:#EFECDE;}
	.st2{fill:#BD4828;}
	.st3{fill:#F8F7F1;}
	.st4{fill-rule:evenodd;clip-rule:evenodd;fill:#BD4828;}
	.st5{fill-rule:evenodd;clip-rule:evenodd;}
	.st6{fill:#FFFFFF;}
	.st7{fill:#CEE9F9;}
	.st8{fill:#6B3414;}
	.st9{fill-rule:evenodd;clip-rule:evenodd;fill:#FFFFFF;}
	.st10{fill-rule:evenodd;clip-rule:evenodd;fill:#6B3414;}
]]>
</style>
<g id="Layer_1">
	<rect class="st3" width="720" height="222"/>
	<rect x="-0.08" y="179.08" class="st0" width="720" height="41.92"/>
	<rect x="235.02" y="173.5" class="st8" width="484.4" height="10"/>
	<polygon class="st2" points="0.76,150.7 0.76,206.2 278.54,206.2 265.12,179.2 278.08,150.78 250.85,150.78 250.85,150.7 	"/>
	<g>
		<g>
			<path class="st3" d="M34.82,172.45c0,1.36-0.25,2.66-0.74,3.93c-0.49,1.26-1.21,2.39-2.15,3.37s-2.11,1.78-3.51,2.38
				c-1.4,0.6-3.01,0.9-4.83,0.9h-4.94v11.73h-8.04v-32.88h13c1.81,0,3.42,0.3,4.82,0.9c1.4,0.6,2.57,1.39,3.5,2.38
				s1.65,2.11,2.14,3.37C34.58,169.79,34.82,171.1,34.82,172.45z M26.79,172.45c0-0.85-0.31-1.61-0.93-2.28s-1.49-1-2.6-1h-4.6v6.56
				h4.6c1.12,0,1.98-0.33,2.6-1S26.79,173.3,26.79,172.45z"/>
			<path class="st3" d="M43.09,184.78c0,1.03,0.38,1.94,1.13,2.73c0.75,0.79,1.84,1.19,3.26,1.19c1.32,0,2.34-0.18,3.05-0.53
				c0.71-0.35,1.4-0.87,2.08-1.55l4.53,4.51c-0.65,0.64-1.29,1.2-1.94,1.67c-0.65,0.47-1.35,0.88-2.1,1.21s-1.59,0.59-2.52,0.76
				c-0.92,0.17-1.96,0.25-3.09,0.25c-1.38,0-2.78-0.16-4.17-0.49c-1.4-0.32-2.65-0.94-3.77-1.85c-1.12-0.91-2.04-2.19-2.75-3.86
				s-1.08-3.83-1.08-6.51c0-2.03,0.28-3.83,0.83-5.4s1.33-2.9,2.31-4c0.99-1.09,2.16-1.92,3.52-2.47c1.36-0.55,2.85-0.83,4.49-0.83
				c1.79,0,3.39,0.31,4.79,0.92c1.4,0.62,2.58,1.45,3.52,2.52c0.94,1.06,1.66,2.31,2.15,3.74c0.49,1.43,0.74,2.96,0.74,4.59v3.37
				H43.09z M50.53,179.8c0-0.31-0.03-0.63-0.09-0.96c-0.06-0.33-0.17-0.66-0.33-1c-0.25-0.53-0.63-0.99-1.16-1.38
				c-0.53-0.39-1.24-0.58-2.14-0.58s-1.61,0.19-2.14,0.58s-0.91,0.85-1.16,1.38c-0.15,0.34-0.26,0.68-0.33,1s-0.09,0.65-0.09,0.96
				H50.53z"/>
			<path class="st3" d="M74.08,177.76c-0.37-0.37-0.76-0.68-1.16-0.92c-0.4-0.25-0.92-0.37-1.57-0.37c-0.25,0-0.55,0.05-0.9,0.14
				c-0.35,0.09-0.69,0.26-1.02,0.51c-0.32,0.25-0.59,0.59-0.81,1.04c-0.22,0.45-0.32,1.02-0.32,1.73v14.87h-7.53v-24.85h7.34l0,2.03
				c0.55-0.55,1.35-1.08,2.38-1.57s2.19-0.74,3.49-0.74c1.23,0,2.29,0.17,3.19,0.51s1.77,0.94,2.63,1.8L74.08,177.76z"/>
			<path class="st3" d="M89.18,176.75v18.01h-7.53v-18.01h-2.26v-5.87h2.26v-2.16c0-0.86,0.15-1.72,0.44-2.57
				c0.29-0.86,0.74-1.64,1.35-2.34c0.61-0.7,1.4-1.28,2.36-1.72c0.96-0.45,2.13-0.67,3.51-0.67h4.02v6.33H90.7
				c-1.02,0-1.52,0.51-1.52,1.52v1.62h4.16v5.87H89.18z"/>
			<path class="st3" d="M101.09,184.78c0,1.03,0.38,1.94,1.13,2.73c0.75,0.79,1.84,1.19,3.26,1.19c1.32,0,2.34-0.18,3.05-0.53
				c0.71-0.35,1.4-0.87,2.08-1.55l4.53,4.51c-0.65,0.64-1.29,1.2-1.94,1.67c-0.65,0.47-1.35,0.88-2.1,1.21
				c-0.75,0.34-1.59,0.59-2.52,0.76c-0.92,0.17-1.96,0.25-3.09,0.25c-1.39,0-2.78-0.16-4.17-0.49c-1.4-0.32-2.65-0.94-3.77-1.85
				c-1.12-0.91-2.04-2.19-2.75-3.86s-1.08-3.83-1.08-6.51c0-2.03,0.28-3.83,0.83-5.4c0.56-1.57,1.33-2.9,2.31-4
				c0.99-1.09,2.16-1.92,3.52-2.47c1.36-0.55,2.85-0.83,4.49-0.83c1.79,0,3.39,0.31,4.79,0.92c1.4,0.62,2.58,1.45,3.52,2.52
				s1.66,2.31,2.15,3.74c0.49,1.43,0.74,2.96,0.74,4.59v3.37H101.09z M108.53,179.8c0-0.31-0.03-0.63-0.09-0.96s-0.17-0.66-0.33-1
				c-0.25-0.53-0.63-0.99-1.16-1.38s-1.24-0.58-2.14-0.58c-0.9,0-1.61,0.19-2.14,0.58c-0.53,0.39-0.91,0.85-1.16,1.38
				c-0.16,0.34-0.26,0.68-0.33,1c-0.06,0.33-0.09,0.65-0.09,0.96H108.53z"/>
			<path class="st3" d="M136.98,191.87c-1.02,1.01-2.19,1.79-3.53,2.34s-2.89,0.83-4.64,0.83c-1.08,0-2.26-0.15-3.55-0.46
				c-1.29-0.31-2.5-0.92-3.63-1.82s-2.07-2.19-2.82-3.86c-0.75-1.66-1.12-3.85-1.12-6.56c0-2.71,0.37-4.9,1.12-6.56
				c0.75-1.66,1.69-2.95,2.82-3.86s2.34-1.52,3.63-1.82c1.29-0.31,2.47-0.46,3.55-0.46c1.76,0,3.3,0.28,4.64,0.83
				s2.52,1.34,3.53,2.36l-5.13,5.13c-0.49-0.51-0.97-0.89-1.43-1.14c-0.46-0.25-1-0.38-1.62-0.38c-0.52,0-0.96,0.08-1.32,0.23
				c-0.35,0.15-0.7,0.4-1.04,0.74c-0.83,0.87-1.25,2.51-1.25,4.93s0.42,4.06,1.25,4.93c0.34,0.34,0.69,0.59,1.04,0.75
				c0.35,0.15,0.79,0.23,1.32,0.23c0.62,0,1.15-0.12,1.62-0.37c0.46-0.25,0.94-0.62,1.43-1.11L136.98,191.87z"/>
			<path class="st3" d="M147.09,194.76c-1.38,0-2.55-0.22-3.51-0.67c-0.96-0.45-1.75-1.02-2.36-1.73c-0.61-0.71-1.06-1.49-1.35-2.35
				c-0.29-0.86-0.44-1.72-0.44-2.58v-10.69h-2.26v-5.87h2.26v-7.11h7.53v7.11h3.93v5.87h-3.93v10.16c0,1.02,0.51,1.52,1.52,1.52h2.4
				v6.33H147.09z"/>
			<path class="st3" d="M186.48,184.32c-0.31,1.82-0.84,3.39-1.59,4.73c-0.75,1.34-1.68,2.46-2.77,3.35
				c-1.09,0.89-2.33,1.55-3.7,1.99c-1.37,0.43-2.84,0.65-4.41,0.65c-1.94,0-3.65-0.32-5.12-0.95c-1.47-0.63-2.8-1.55-4-2.75
				c-0.86-0.86-1.52-1.79-1.97-2.79s-0.79-2.06-0.99-3.16c-0.2-1.11-0.31-2.26-0.32-3.44c-0.02-1.18-0.02-2.39-0.02-3.62
				s0.01-2.44,0.02-3.62s0.12-2.33,0.32-3.44c0.2-1.11,0.53-2.16,0.99-3.16c0.46-1,1.12-1.93,1.97-2.79c1.19-1.2,2.53-2.12,4-2.75
				c1.47-0.63,3.18-0.95,5.12-0.95c1.57,0,3.04,0.22,4.41,0.65c1.37,0.43,2.6,1.09,3.7,1.99c1.09,0.89,2.02,2.01,2.77,3.35
				c0.75,1.34,1.29,2.92,1.59,4.73h-8.22c-0.25-0.92-0.68-1.74-1.29-2.45c-0.62-0.71-1.59-1.06-2.91-1.06
				c-0.74,0-1.38,0.13-1.92,0.39s-0.96,0.59-1.27,0.99c-0.19,0.25-0.35,0.52-0.51,0.83c-0.15,0.31-0.29,0.75-0.39,1.34
				c-0.11,0.58-0.19,1.35-0.25,2.29c-0.06,0.94-0.09,2.16-0.09,3.67c0,1.51,0.03,2.73,0.09,3.67c0.06,0.94,0.15,1.7,0.25,2.29
				c0.11,0.59,0.24,1.03,0.39,1.34c0.15,0.31,0.32,0.58,0.51,0.83c0.31,0.4,0.73,0.73,1.27,0.99s1.18,0.39,1.92,0.39
				c1.32,0,2.29-0.35,2.91-1.06c0.62-0.71,1.05-1.52,1.29-2.45H186.48z"/>
			<path class="st3" d="M200.52,194.76l0-2.03c-0.77,0.77-1.55,1.34-2.35,1.71c-0.8,0.37-1.86,0.55-3.19,0.55
				c-1.26,0-2.39-0.19-3.39-0.58c-1-0.38-1.85-0.93-2.56-1.64c-0.71-0.71-1.25-1.56-1.62-2.56c-0.37-1-0.55-2.09-0.55-3.26
				c0-0.92,0.16-1.82,0.48-2.7c0.32-0.88,0.83-1.65,1.52-2.31s1.57-1.19,2.63-1.59c1.06-0.4,2.33-0.6,3.81-0.6h5.03v-0.65
				c0-1.15-0.29-1.96-0.88-2.43c-0.58-0.47-1.54-0.7-2.86-0.7c-0.99,0-1.74,0.12-2.26,0.37c-0.52,0.25-1.09,0.68-1.71,1.29
				l-4.71-4.69c0.65-0.64,1.28-1.17,1.89-1.58c0.62-0.41,1.29-0.75,2.01-1.01c0.72-0.26,1.5-0.44,2.33-0.55
				c0.83-0.11,1.77-0.16,2.82-0.16c3.56,0,6.27,0.74,8.12,2.22s2.78,3.74,2.78,6.79v16.12H200.52z M200.34,184.78h-3.83
				c-0.74,0-1.32,0.19-1.76,0.55c-0.43,0.37-0.65,0.85-0.65,1.43c0,0.55,0.21,1.04,0.62,1.46s1.04,0.62,1.87,0.62
				c0.74,0,1.32-0.05,1.73-0.16c0.42-0.11,0.84-0.36,1.27-0.76c0.49-0.46,0.74-1.29,0.74-2.49V184.78z"/>
			<path class="st3" d="M219.6,194.76c-1.38,0-2.55-0.22-3.51-0.67c-0.96-0.45-1.75-1.02-2.36-1.73c-0.61-0.71-1.06-1.49-1.35-2.35
				c-0.29-0.86-0.44-1.72-0.44-2.58v-10.69h-2.26v-5.87h2.26v-7.11h7.53v7.11h3.93v5.87h-3.93v10.16c0,1.02,0.51,1.52,1.52,1.52h2.4
				v6.33H219.6z"/>
			<path class="st3" d="M245.46,186.63c0,1.48-0.29,2.74-0.88,3.79c-0.59,1.05-1.37,1.92-2.36,2.61s-2.12,1.2-3.42,1.52
				c-1.29,0.32-2.66,0.49-4.11,0.49c-0.92,0-1.85-0.03-2.77-0.09c-0.92-0.06-1.84-0.21-2.75-0.44c-0.91-0.23-1.8-0.58-2.68-1.06
				c-0.88-0.48-1.75-1.15-2.61-2.01l4.89-4.89c0.52,0.52,1.07,0.92,1.64,1.2c0.57,0.28,1.13,0.49,1.69,0.62
				c0.55,0.14,1.06,0.21,1.52,0.23s0.86,0.02,1.2,0.02c0.28,0,0.6-0.02,0.97-0.07c0.37-0.05,0.72-0.13,1.06-0.25
				c0.34-0.12,0.62-0.28,0.85-0.48c0.23-0.2,0.35-0.47,0.35-0.81c0-0.34-0.12-0.67-0.35-0.99c-0.23-0.32-0.72-0.52-1.45-0.58
				l-3.83-0.37c-1.08-0.09-2.05-0.29-2.93-0.6c-0.88-0.31-1.63-0.75-2.26-1.34c-0.63-0.58-1.12-1.31-1.48-2.17
				c-0.35-0.86-0.53-1.89-0.53-3.09c0-1.39,0.28-2.59,0.85-3.6c0.57-1.02,1.32-1.87,2.24-2.56c0.92-0.69,1.98-1.21,3.16-1.55
				c1.18-0.34,2.39-0.51,3.62-0.51c2.03,0,3.86,0.2,5.5,0.6s3.06,1.22,4.29,2.45l-4.67,4.66c-0.62-0.62-1.4-1.02-2.36-1.2
				c-0.95-0.18-1.92-0.28-2.91-0.28c-0.92,0-1.56,0.17-1.92,0.51c-0.35,0.34-0.53,0.65-0.53,0.92c0,0.06,0.01,0.16,0.02,0.3
				c0.02,0.14,0.07,0.28,0.16,0.42s0.25,0.28,0.46,0.42c0.21,0.14,0.54,0.22,0.97,0.25l3.83,0.37c1.29,0.12,2.42,0.4,3.37,0.83
				c0.95,0.43,1.73,0.99,2.33,1.66c0.6,0.68,1.05,1.45,1.34,2.31C245.31,184.72,245.46,185.65,245.46,186.63z"/>
		</g>
	</g>
	<g>
		<path class="st8" d="M549,32.55v-7.86l-2.33,4.06h-2.58l-2.33-4.06v7.86h-4.03V16.15h3.96l3.69,7.24l3.69-7.24h3.96v16.41H549z"/>
		<path class="st8" d="M565.52,32.55l-0.76-2.44h-5.05l-0.81,2.44h-4.22l5.97-16.41h3.11l5.97,16.41H565.52z M562.31,22.39
			l-1.47,4.38h2.86L562.31,22.39z"/>
		<path class="st8" d="M580.54,32.55l-3.78-6.73l-1.38,1.59v5.14h-3.99V16.15h3.99v5.81l4.75-5.81h4.93l-5.6,6.64l5.78,9.77H580.54z
			"/>
		<path class="st8" d="M586.9,32.55V16.15h4.01v16.41H586.9z"/>
		<path class="st8" d="M603.53,32.55l-5.27-8.25v8.25h-4.01V16.15h3.54l5.27,8.25v-8.25h4.01v16.41H603.53z"/>
		<path class="st8" d="M622.5,25.4c0,1.32-0.12,2.4-0.37,3.24c-0.25,0.84-0.68,1.58-1.29,2.21c-0.71,0.72-1.46,1.21-2.25,1.46
			c-0.79,0.25-1.63,0.38-2.52,0.38c-0.97,0-1.82-0.16-2.56-0.47c-0.74-0.31-1.41-0.77-2.01-1.37c-0.43-0.43-0.76-0.9-0.99-1.39
			c-0.23-0.5-0.4-1.03-0.5-1.58c-0.1-0.55-0.15-1.13-0.16-1.72s-0.01-1.19-0.01-1.81c0-0.61,0-1.22,0.01-1.81
			c0.01-0.59,0.06-1.16,0.16-1.72c0.1-0.55,0.26-1.08,0.49-1.58c0.23-0.5,0.56-0.96,0.99-1.39c0.6-0.6,1.25-1.06,1.97-1.37
			c0.72-0.31,1.58-0.47,2.58-0.47c1.06,0,1.97,0.16,2.73,0.47c0.76,0.31,1.4,0.73,1.91,1.23s0.91,1.09,1.2,1.74
			c0.28,0.65,0.47,1.32,0.57,1.99h-4.06c-0.17-0.63-0.43-1.09-0.78-1.39c-0.35-0.3-0.88-0.45-1.57-0.45c-0.37,0-0.69,0.07-0.96,0.21
			c-0.27,0.14-0.48,0.31-0.63,0.51c-0.09,0.12-0.18,0.26-0.25,0.41c-0.08,0.15-0.14,0.37-0.18,0.66s-0.08,0.66-0.12,1.13
			c-0.03,0.47-0.05,1.08-0.05,1.83c0,0.75,0.01,1.36,0.05,1.83c0.03,0.47,0.07,0.85,0.12,1.14c0.04,0.29,0.11,0.51,0.18,0.67
			c0.08,0.15,0.16,0.29,0.25,0.41c0.15,0.2,0.37,0.37,0.64,0.5c0.27,0.13,0.59,0.2,0.96,0.2c0.43,0,0.79-0.06,1.09-0.17
			s0.53-0.27,0.72-0.47c0.23-0.23,0.39-0.5,0.49-0.82c0.09-0.31,0.14-0.63,0.14-0.93v-0.23h-2.42v-3.34h6.43V25.4z"/>
		<path class="st8" d="M637.71,25.87v6.68h-4.01v-6.68l-4.96-9.72h4.4l2.57,5.9l2.55-5.9h4.4L637.71,25.87z"/>
		<path class="st8" d="M656.06,24.35c0,0.61,0,1.22-0.01,1.81c-0.01,0.59-0.06,1.16-0.16,1.72c-0.1,0.55-0.26,1.08-0.49,1.58
			c-0.23,0.5-0.56,0.96-0.99,1.39c-0.6,0.6-1.26,1.06-1.98,1.37s-1.59,0.47-2.6,0.47s-1.88-0.16-2.6-0.47s-1.38-0.77-1.98-1.37
			c-0.43-0.43-0.76-0.9-0.99-1.39c-0.23-0.5-0.39-1.03-0.49-1.58c-0.1-0.55-0.15-1.13-0.16-1.72s-0.01-1.19-0.01-1.81
			c0-0.61,0-1.22,0.01-1.81c0.01-0.59,0.06-1.16,0.16-1.72c0.1-0.55,0.26-1.08,0.49-1.58c0.23-0.5,0.56-0.96,0.99-1.39
			c0.6-0.6,1.26-1.06,1.98-1.37c0.72-0.31,1.59-0.47,2.6-0.47s1.88,0.16,2.6,0.47c0.72,0.31,1.38,0.77,1.98,1.37
			c0.43,0.43,0.76,0.9,0.99,1.39c0.23,0.5,0.39,1.03,0.49,1.58c0.1,0.55,0.15,1.13,0.16,1.72
			C656.05,23.13,656.06,23.73,656.06,24.35z M652.05,24.35c0-0.75-0.02-1.36-0.05-1.83c-0.03-0.47-0.07-0.84-0.12-1.13
			c-0.05-0.28-0.11-0.5-0.19-0.66c-0.08-0.15-0.16-0.29-0.26-0.41c-0.15-0.2-0.37-0.37-0.65-0.51c-0.28-0.14-0.6-0.21-0.97-0.21
			s-0.7,0.07-0.97,0.21s-0.49,0.31-0.65,0.51c-0.09,0.12-0.18,0.26-0.25,0.41c-0.08,0.15-0.14,0.37-0.19,0.66s-0.08,0.66-0.12,1.13
			c-0.03,0.47-0.05,1.08-0.05,1.83c0,0.75,0.01,1.36,0.05,1.82s0.07,0.83,0.12,1.12c0.05,0.28,0.11,0.5,0.19,0.66
			c0.08,0.15,0.16,0.29,0.25,0.42c0.15,0.2,0.37,0.37,0.65,0.52s0.6,0.22,0.97,0.22s0.7-0.07,0.97-0.22
			c0.28-0.15,0.49-0.32,0.65-0.52c0.09-0.12,0.18-0.26,0.26-0.42c0.08-0.15,0.14-0.37,0.19-0.66c0.04-0.28,0.08-0.66,0.12-1.12
			S652.05,25.1,652.05,24.35z"/>
		<path class="st8" d="M671.03,26.79c0,0.91-0.17,1.72-0.5,2.44c-0.33,0.72-0.78,1.34-1.35,1.85c-0.57,0.52-1.23,0.91-1.99,1.19
			c-0.76,0.28-1.56,0.41-2.41,0.41c-0.86,0-1.66-0.14-2.41-0.41c-0.74-0.28-1.4-0.67-1.97-1.19c-0.57-0.51-1.01-1.13-1.34-1.85
			c-0.32-0.72-0.48-1.54-0.48-2.44V16.15h4.01V26.7c0,0.77,0.2,1.36,0.58,1.77c0.39,0.41,0.92,0.62,1.61,0.62s1.23-0.21,1.63-0.62
			c0.4-0.42,0.61-1.01,0.61-1.77V16.15h4.01V26.79z"/>
		<path class="st8" d="M682.36,32.55l-2.91-6.11h-1.36v6.11h-4.01V16.15h6.5c0.91,0,1.71,0.15,2.41,0.45c0.7,0.3,1.28,0.7,1.75,1.19
			s0.83,1.05,1.07,1.68c0.25,0.63,0.37,1.28,0.37,1.96c0,0.55-0.08,1.06-0.24,1.52s-0.37,0.87-0.62,1.22
			c-0.25,0.35-0.54,0.66-0.85,0.92c-0.32,0.26-0.64,0.47-0.96,0.62l3.56,6.84H682.36z M682.16,21.45c0-0.43-0.15-0.81-0.47-1.15
			c-0.31-0.34-0.75-0.51-1.31-0.51h-2.31v3.32h2.31c0.56,0,1-0.17,1.31-0.51C682.01,22.26,682.16,21.88,682.16,21.45z"/>
	</g>
	<g>
		<path class="st8" d="M541.53,123.81c-0.6,0-1.1-0.1-1.52-0.29c-0.42-0.19-0.76-0.44-1.02-0.75c-0.27-0.31-0.46-0.65-0.59-1.02
			c-0.12-0.37-0.19-0.75-0.19-1.12v-11.06h3.26v10.84c0,0.44,0.22,0.66,0.66,0.66h1.14v2.74H541.53z"/>
		<path class="st8" d="M553.61,118.43c0,0.53-0.02,1-0.06,1.4c-0.04,0.4-0.1,0.76-0.19,1.08c-0.09,0.32-0.21,0.61-0.36,0.88
			c-0.15,0.27-0.34,0.52-0.57,0.76c-0.32,0.35-0.76,0.66-1.32,0.95c-0.56,0.29-1.27,0.43-2.13,0.43c-0.87,0-1.58-0.14-2.14-0.43
			c-0.56-0.29-1-0.6-1.32-0.95c-0.23-0.24-0.42-0.49-0.57-0.76c-0.15-0.27-0.27-0.56-0.36-0.88c-0.09-0.32-0.15-0.68-0.19-1.08
			c-0.04-0.4-0.06-0.87-0.06-1.4c0-0.52,0.02-0.98,0.06-1.39c0.04-0.41,0.1-0.77,0.19-1.09c0.09-0.32,0.21-0.61,0.36-0.88
			c0.15-0.27,0.34-0.52,0.57-0.76c0.16-0.17,0.35-0.34,0.57-0.5s0.47-0.31,0.75-0.44c0.28-0.13,0.6-0.24,0.95-0.32
			c0.35-0.08,0.75-0.12,1.19-0.12c0.44,0,0.83,0.04,1.19,0.12c0.35,0.08,0.67,0.19,0.95,0.32s0.53,0.28,0.75,0.44
			c0.22,0.16,0.41,0.33,0.57,0.5c0.23,0.24,0.42,0.49,0.57,0.76c0.15,0.27,0.27,0.56,0.36,0.88c0.09,0.32,0.15,0.68,0.19,1.09
			C553.59,117.44,553.61,117.91,553.61,118.43z M550.35,118.43c0-0.54-0.03-0.99-0.08-1.37c-0.05-0.38-0.19-0.67-0.4-0.89
			c-0.2-0.2-0.5-0.3-0.89-0.3c-0.39,0-0.69,0.1-0.89,0.3c-0.21,0.22-0.35,0.51-0.4,0.89c-0.05,0.38-0.08,0.83-0.08,1.37
			s0.03,0.99,0.08,1.37c0.05,0.38,0.19,0.67,0.4,0.89c0.2,0.2,0.5,0.3,0.89,0.3c0.39,0,0.68-0.1,0.89-0.3
			c0.21-0.21,0.35-0.51,0.4-0.89C550.32,119.42,550.35,118.96,550.35,118.43z"/>
		<path class="st8" d="M564.61,118.43c0,0.53-0.02,1-0.06,1.4c-0.04,0.4-0.1,0.76-0.19,1.08c-0.09,0.32-0.21,0.61-0.36,0.88
			c-0.15,0.27-0.34,0.52-0.57,0.76c-0.32,0.35-0.76,0.66-1.32,0.95c-0.56,0.29-1.27,0.43-2.13,0.43c-0.87,0-1.58-0.14-2.14-0.43
			c-0.56-0.29-1-0.6-1.32-0.95c-0.23-0.24-0.42-0.49-0.57-0.76c-0.15-0.27-0.27-0.56-0.36-0.88c-0.09-0.32-0.15-0.68-0.19-1.08
			c-0.04-0.4-0.06-0.87-0.06-1.4c0-0.52,0.02-0.98,0.06-1.39c0.04-0.41,0.1-0.77,0.19-1.09c0.09-0.32,0.21-0.61,0.36-0.88
			c0.15-0.27,0.34-0.52,0.57-0.76c0.16-0.17,0.35-0.34,0.57-0.5s0.47-0.31,0.75-0.44c0.28-0.13,0.6-0.24,0.95-0.32
			c0.35-0.08,0.75-0.12,1.19-0.12c0.44,0,0.83,0.04,1.19,0.12c0.35,0.08,0.67,0.19,0.95,0.32s0.53,0.28,0.75,0.44
			c0.22,0.16,0.41,0.33,0.57,0.5c0.23,0.24,0.42,0.49,0.57,0.76c0.15,0.27,0.27,0.56,0.36,0.88c0.09,0.32,0.15,0.68,0.19,1.09
			C564.59,117.44,564.61,117.91,564.61,118.43z M561.35,118.43c0-0.54-0.03-0.99-0.08-1.37c-0.05-0.38-0.19-0.67-0.4-0.89
			c-0.2-0.2-0.5-0.3-0.89-0.3c-0.39,0-0.69,0.1-0.89,0.3c-0.21,0.22-0.35,0.51-0.4,0.89c-0.05,0.38-0.08,0.83-0.08,1.37
			s0.03,0.99,0.08,1.37c0.05,0.38,0.19,0.67,0.4,0.89c0.2,0.2,0.5,0.3,0.89,0.3c0.39,0,0.68-0.1,0.89-0.3
			c0.21-0.21,0.35-0.51,0.4-0.89C561.32,119.42,561.35,118.96,561.35,118.43z"/>
		<path class="st8" d="M572.87,123.81l-2.24-3.94l-0.64,0.7v3.24h-3.26v-14.24h3.26v7.24l2.9-3.76h3.94l-3.96,4.46l4.06,6.3H572.87z
			"/>
		<path class="st8" d="M591.47,123.81l-0.9-1.04c-0.17,0.13-0.36,0.27-0.56,0.4c-0.2,0.13-0.43,0.26-0.69,0.37
			c-0.26,0.11-0.56,0.21-0.9,0.28s-0.75,0.11-1.23,0.11c-1.68,0-2.9-0.39-3.67-1.18c-0.77-0.79-1.15-1.87-1.15-3.26
			c0-0.41,0.07-0.8,0.2-1.15c0.13-0.35,0.31-0.68,0.53-0.98c0.22-0.3,0.46-0.57,0.73-0.81c0.27-0.24,0.53-0.45,0.8-0.62
			c-0.12-0.13-0.26-0.3-0.42-0.49c-0.16-0.19-0.31-0.41-0.44-0.66s-0.25-0.52-0.34-0.81s-0.14-0.62-0.14-0.98
			c0-1.05,0.35-1.91,1.06-2.56s1.75-0.98,3.12-0.98c0.63,0,1.19,0.09,1.68,0.26c0.49,0.17,0.91,0.42,1.25,0.74
			c0.34,0.32,0.6,0.7,0.78,1.14c0.18,0.44,0.27,0.92,0.27,1.44c0,0.55-0.12,1.01-0.37,1.38c-0.25,0.37-0.59,0.73-1.03,1.06
			l-0.36,0.28c-0.11,0.08-0.22,0.16-0.33,0.24c-0.11,0.08-0.22,0.15-0.31,0.22l1.68,1.94c0.09-0.12,0.18-0.26,0.26-0.42
			s0.15-0.33,0.2-0.52c0.05-0.19,0.1-0.38,0.13-0.57c0.03-0.19,0.06-0.38,0.07-0.55h3.08c-0.07,0.93-0.23,1.77-0.49,2.5
			c-0.26,0.73-0.65,1.39-1.17,1.96l2.78,3.26L591.47,123.81z M586.37,117.91c-0.33,0.23-0.56,0.46-0.67,0.69
			c-0.11,0.23-0.17,0.53-0.17,0.88c0,0.44,0.17,0.81,0.5,1.09c0.33,0.28,0.72,0.42,1.16,0.42c0.36,0,0.64-0.05,0.85-0.15
			c0.21-0.1,0.39-0.23,0.55-0.37L586.37,117.91z M588.37,113.03c0-0.24-0.07-0.44-0.22-0.61c-0.15-0.16-0.37-0.24-0.68-0.24
			c-0.35,0-0.58,0.08-0.71,0.24s-0.19,0.37-0.19,0.63c0,0.22,0.1,0.43,0.29,0.66s0.35,0.39,0.47,0.52c0.04-0.03,0.09-0.06,0.14-0.1
			l0.16-0.12c0.05-0.04,0.11-0.08,0.18-0.12c0.17-0.12,0.31-0.25,0.41-0.39C588.32,113.35,588.37,113.2,588.37,113.03z"/>
		<path class="st8" d="M604.87,116.01v7.8h-3.26v-7.8h-0.98v-2.54h0.98v-0.94c0-0.37,0.06-0.74,0.19-1.11
			c0.13-0.37,0.32-0.71,0.59-1.01c0.26-0.31,0.61-0.55,1.02-0.75c0.42-0.19,0.92-0.29,1.52-0.29h1.74v2.74h-1.14
			c-0.44,0-0.66,0.22-0.66,0.66v0.7h1.8v2.54H604.87z"/>
		<path class="st8" d="M610.83,119.49c0,0.45,0.16,0.84,0.49,1.18c0.33,0.34,0.8,0.52,1.41,0.52c0.57,0,1.01-0.08,1.32-0.23
			s0.61-0.38,0.9-0.67l1.96,1.95c-0.28,0.28-0.56,0.52-0.84,0.72s-0.58,0.38-0.91,0.53c-0.33,0.15-0.69,0.25-1.09,0.33
			c-0.4,0.07-0.85,0.11-1.34,0.11c-0.6,0-1.2-0.07-1.81-0.21c-0.61-0.14-1.15-0.41-1.63-0.8c-0.48-0.39-0.88-0.95-1.19-1.67
			c-0.31-0.72-0.47-1.66-0.47-2.82c0-0.88,0.12-1.66,0.36-2.34c0.24-0.68,0.57-1.26,1-1.73c0.43-0.47,0.93-0.83,1.52-1.07
			c0.59-0.24,1.24-0.36,1.94-0.36c0.78,0,1.47,0.13,2.07,0.4c0.61,0.27,1.12,0.63,1.52,1.09s0.72,1,0.93,1.62
			c0.21,0.62,0.32,1.28,0.32,1.99v1.46H610.83z M614.05,117.33c0-0.14-0.01-0.27-0.04-0.42c-0.03-0.14-0.07-0.29-0.14-0.44
			c-0.11-0.23-0.27-0.43-0.5-0.6c-0.23-0.17-0.54-0.25-0.93-0.25c-0.39,0-0.7,0.08-0.93,0.25c-0.23,0.17-0.4,0.37-0.5,0.6
			c-0.07,0.15-0.11,0.29-0.14,0.44c-0.03,0.14-0.04,0.28-0.04,0.42H614.05z"/>
		<path class="st8" d="M622.01,119.49c0,0.45,0.16,0.84,0.49,1.18c0.33,0.34,0.8,0.52,1.41,0.52c0.57,0,1.01-0.08,1.32-0.23
			s0.61-0.38,0.9-0.67l1.96,1.95c-0.28,0.28-0.56,0.52-0.84,0.72s-0.58,0.38-0.91,0.53c-0.33,0.15-0.69,0.25-1.09,0.33
			c-0.4,0.07-0.85,0.11-1.34,0.11c-0.6,0-1.2-0.07-1.81-0.21c-0.61-0.14-1.15-0.41-1.63-0.8c-0.48-0.39-0.88-0.95-1.19-1.67
			c-0.31-0.72-0.47-1.66-0.47-2.82c0-0.88,0.12-1.66,0.36-2.34c0.24-0.68,0.57-1.26,1-1.73c0.43-0.47,0.93-0.83,1.52-1.07
			c0.59-0.24,1.24-0.36,1.94-0.36c0.78,0,1.47,0.13,2.07,0.4c0.61,0.27,1.12,0.63,1.52,1.09s0.72,1,0.93,1.62
			c0.21,0.62,0.32,1.28,0.32,1.99v1.46H622.01z M625.23,117.33c0-0.14-0.01-0.27-0.04-0.42c-0.03-0.14-0.07-0.29-0.14-0.44
			c-0.11-0.23-0.27-0.43-0.5-0.6c-0.23-0.17-0.54-0.25-0.93-0.25c-0.39,0-0.7,0.08-0.93,0.25c-0.23,0.17-0.4,0.37-0.5,0.6
			c-0.07,0.15-0.11,0.29-0.14,0.44c-0.03,0.14-0.04,0.28-0.04,0.42H625.23z"/>
		<path class="st8" d="M633.69,123.81c-0.6,0-1.1-0.1-1.52-0.29c-0.42-0.19-0.76-0.44-1.02-0.75c-0.27-0.31-0.46-0.65-0.59-1.02
			c-0.12-0.37-0.19-0.75-0.19-1.12v-11.06h3.26v10.84c0,0.44,0.22,0.66,0.66,0.66h1.14v2.74H633.69z"/>
		<path class="st8" d="M644.95,123.81c-0.6,0-1.1-0.1-1.52-0.29s-0.76-0.44-1.02-0.75s-0.46-0.65-0.59-1.02
			c-0.13-0.37-0.19-0.75-0.19-1.12v-11.06h3.26v10.84c0,0.44,0.22,0.66,0.66,0.66h1.14v2.74H644.95z"/>
		<path class="st8" d="M648.55,111.95v-2.5h3.26v2.5H648.55z M648.55,123.81v-10.34h3.26v10.34H648.55z"/>
		<path class="st8" d="M660.45,123.81l-2.24-3.94l-0.64,0.7v3.24h-3.26v-14.24h3.26v7.24l2.9-3.76h3.94l-3.96,4.46l4.06,6.3H660.45z
			"/>
		<path class="st8" d="M668.35,119.49c0,0.45,0.16,0.84,0.49,1.18c0.33,0.34,0.8,0.52,1.41,0.52c0.57,0,1.01-0.08,1.32-0.23
			c0.31-0.15,0.61-0.38,0.9-0.67l1.96,1.95c-0.28,0.28-0.56,0.52-0.84,0.72c-0.28,0.21-0.58,0.38-0.91,0.53
			c-0.33,0.15-0.69,0.25-1.09,0.33s-0.85,0.11-1.34,0.11c-0.6,0-1.2-0.07-1.81-0.21c-0.61-0.14-1.15-0.41-1.63-0.8
			c-0.48-0.39-0.88-0.95-1.19-1.67c-0.31-0.72-0.47-1.66-0.47-2.82c0-0.88,0.12-1.66,0.36-2.34c0.24-0.68,0.58-1.26,1-1.73
			c0.43-0.47,0.93-0.83,1.52-1.07c0.59-0.24,1.24-0.36,1.94-0.36c0.78,0,1.47,0.13,2.08,0.4c0.61,0.27,1.12,0.63,1.52,1.09
			s0.72,1,0.93,1.62s0.32,1.28,0.32,1.99v1.46H668.35z M671.57,117.33c0-0.14-0.01-0.27-0.04-0.42c-0.03-0.14-0.07-0.29-0.14-0.44
			c-0.11-0.23-0.28-0.43-0.5-0.6c-0.23-0.17-0.54-0.25-0.93-0.25c-0.39,0-0.7,0.08-0.93,0.25c-0.23,0.17-0.39,0.37-0.5,0.6
			c-0.07,0.15-0.11,0.29-0.14,0.44c-0.03,0.14-0.04,0.28-0.04,0.42H671.57z"/>
		<path class="st8" d="M686.46,123.81v-0.88c-0.33,0.33-0.67,0.58-1.02,0.74c-0.35,0.16-0.81,0.24-1.38,0.24
			c-0.55,0-1.04-0.08-1.47-0.25c-0.43-0.17-0.8-0.4-1.11-0.71c-0.31-0.31-0.54-0.68-0.7-1.11s-0.24-0.9-0.24-1.41
			c0-0.4,0.07-0.79,0.21-1.17c0.14-0.38,0.36-0.71,0.66-1c0.3-0.29,0.68-0.52,1.14-0.69c0.46-0.17,1.01-0.26,1.65-0.26h2.18v-0.28
			c0-0.5-0.13-0.85-0.38-1.05c-0.25-0.2-0.67-0.3-1.24-0.3c-0.43,0-0.75,0.05-0.98,0.16c-0.23,0.11-0.47,0.29-0.74,0.56l-2.04-2.03
			c0.28-0.28,0.55-0.51,0.82-0.69s0.56-0.32,0.87-0.44c0.31-0.11,0.65-0.19,1.01-0.24c0.36-0.05,0.77-0.07,1.22-0.07
			c1.54,0,2.71,0.32,3.52,0.96s1.2,1.62,1.2,2.94v6.98H686.46z M686.38,119.49h-1.66c-0.32,0-0.57,0.08-0.76,0.24
			c-0.19,0.16-0.28,0.37-0.28,0.62c0,0.24,0.09,0.45,0.27,0.63s0.45,0.27,0.81,0.27c0.32,0,0.57-0.02,0.75-0.07s0.36-0.16,0.55-0.33
			c0.21-0.2,0.32-0.56,0.32-1.08V119.49z"/>
	</g>
	<g>
		<path class="st2" d="M586.42,81.5c-0.6,3.52-1.63,6.58-3.09,9.17c-1.46,2.59-3.25,4.76-5.37,6.49c-2.12,1.73-4.5,3.01-7.16,3.85
			c-2.65,0.83-5.5,1.25-8.54,1.25c-3.76,0-7.06-0.61-9.92-1.83c-2.85-1.22-5.43-3-7.75-5.32c-1.66-1.67-2.94-3.47-3.83-5.41
			c-0.89-1.94-1.53-3.98-1.91-6.13c-0.39-2.15-0.59-4.37-0.62-6.67c-0.03-2.3-0.04-4.64-0.04-7.02c0-2.38,0.01-4.73,0.04-7.02
			c0.03-2.3,0.24-4.52,0.62-6.67c0.39-2.15,1.02-4.19,1.91-6.13c0.89-1.94,2.17-3.74,3.83-5.41c2.31-2.33,4.89-4.1,7.75-5.32
			c2.85-1.22,6.16-1.83,9.92-1.83c3.04,0,5.89,0.42,8.54,1.25c2.65,0.84,5.04,2.12,7.16,3.85c2.12,1.73,3.91,3.89,5.37,6.49
			c1.46,2.59,2.49,5.65,3.09,9.17H570.5c-0.48-1.79-1.31-3.37-2.5-4.74c-1.19-1.37-3.07-2.06-5.64-2.06c-1.43,0-2.67,0.25-3.71,0.76
			c-1.04,0.51-1.86,1.15-2.46,1.92c-0.36,0.48-0.69,1.01-0.98,1.61c-0.3,0.6-0.55,1.46-0.76,2.59c-0.21,1.13-0.37,2.61-0.49,4.43
			c-0.12,1.82-0.18,4.19-0.18,7.11c0,2.92,0.06,5.29,0.18,7.11c0.12,1.82,0.28,3.3,0.49,4.43c0.21,1.13,0.46,2,0.76,2.59
			c0.3,0.6,0.63,1.13,0.98,1.61c0.59,0.78,1.42,1.42,2.46,1.92c1.04,0.51,2.28,0.76,3.71,0.76c2.56,0,4.44-0.69,5.64-2.06
			c1.19-1.37,2.03-2.95,2.5-4.74H586.42z"/>
		<path class="st2" d="M629.45,101.72l-2.95-9.48h-19.59l-3.13,9.48H587.4l23.17-63.7h12.08l23.17,63.7H629.45z M617.02,62.27
			l-5.72,17h11.09L617.02,62.27z"/>
		<path class="st2" d="M674.36,51.98v49.74H658.8V51.98h-15.66V38.02h46.88v13.96H674.36z"/>
	</g>
	<g>
		<path class="st2" d="M551.93,138.47v22.17h-6.94v-22.17h-6.98v-6.22h20.89v6.22H551.93z"/>
		<path class="st2" d="M582.87,146.44c0,1.06-0.01,2.11-0.02,3.13c-0.01,1.02-0.11,2.01-0.28,2.97c-0.17,0.96-0.46,1.87-0.86,2.73
			c-0.4,0.87-0.97,1.67-1.71,2.41c-1.03,1.04-2.18,1.83-3.42,2.37c-1.25,0.54-2.75,0.82-4.5,0.82c-1.75,0-3.25-0.27-4.5-0.82
			c-1.25-0.54-2.39-1.34-3.42-2.37c-0.74-0.74-1.31-1.55-1.71-2.41c-0.4-0.86-0.68-1.77-0.86-2.73s-0.27-1.95-0.28-2.97
			c-0.01-1.02-0.02-2.07-0.02-3.13c0-1.06,0.01-2.11,0.02-3.13c0.01-1.02,0.11-2.01,0.28-2.97s0.46-1.87,0.86-2.73
			c0.4-0.86,0.97-1.67,1.71-2.41c1.04-1.04,2.18-1.83,3.42-2.37c1.25-0.54,2.75-0.82,4.5-0.82c1.75,0,3.25,0.27,4.5,0.82
			c1.25,0.54,2.39,1.34,3.42,2.37c0.74,0.75,1.31,1.55,1.71,2.41c0.4,0.86,0.68,1.77,0.86,2.73c0.17,0.96,0.26,1.95,0.28,2.97
			C582.86,144.33,582.87,145.38,582.87,146.44z M575.93,146.44c0-1.3-0.03-2.36-0.08-3.17c-0.05-0.81-0.12-1.46-0.2-1.95
			c-0.08-0.49-0.19-0.87-0.32-1.14s-0.28-0.5-0.44-0.72c-0.27-0.35-0.64-0.64-1.12-0.88s-1.04-0.36-1.68-0.36
			c-0.64,0-1.2,0.12-1.68,0.36c-0.48,0.24-0.86,0.53-1.12,0.88c-0.16,0.21-0.31,0.45-0.44,0.72c-0.13,0.27-0.24,0.64-0.32,1.14
			c-0.08,0.49-0.15,1.14-0.2,1.95c-0.05,0.81-0.08,1.87-0.08,3.17c0,1.3,0.03,2.35,0.08,3.15c0.05,0.8,0.12,1.44,0.2,1.93
			c0.08,0.49,0.19,0.87,0.32,1.14c0.13,0.27,0.28,0.51,0.44,0.72c0.27,0.35,0.64,0.65,1.12,0.9c0.48,0.25,1.04,0.38,1.68,0.38
			c0.64,0,1.2-0.13,1.68-0.38s0.86-0.55,1.12-0.9c0.16-0.21,0.31-0.45,0.44-0.72s0.24-0.64,0.32-1.14c0.08-0.49,0.15-1.14,0.2-1.93
			C575.91,148.79,575.93,147.74,575.93,146.44z"/>
		<path class="st2" d="M608.63,141.38c0,1.17-0.21,2.3-0.64,3.39c-0.43,1.09-1.04,2.06-1.85,2.91c-0.81,0.85-1.82,1.54-3.03,2.05
			c-1.21,0.52-2.6,0.78-4.17,0.78h-4.27v10.13h-6.94v-28.39h11.22c1.57,0,2.95,0.26,4.16,0.78c1.21,0.52,2.22,1.2,3.03,2.05
			c0.81,0.85,1.43,1.82,1.85,2.91C608.42,139.08,608.63,140.21,608.63,141.38z M601.69,141.38c0-0.73-0.27-1.39-0.8-1.97
			c-0.53-0.58-1.28-0.87-2.25-0.87h-3.97v5.66h3.97c0.96,0,1.71-0.29,2.25-0.87S601.69,142.11,601.69,141.38z"/>
		<path class="st2" d="M642.17,151.62c-0.27,1.57-0.72,2.93-1.38,4.09c-0.65,1.16-1.45,2.12-2.39,2.89s-2.01,1.34-3.19,1.71
			c-1.18,0.37-2.45,0.56-3.81,0.56c-1.67,0-3.15-0.27-4.42-0.82s-2.42-1.34-3.45-2.37c-0.74-0.74-1.31-1.55-1.71-2.41
			c-0.4-0.86-0.68-1.77-0.85-2.73s-0.26-1.95-0.28-2.97s-0.02-2.07-0.02-3.13c0-1.06,0.01-2.11,0.02-3.13s0.11-2.01,0.28-2.97
			s0.46-1.87,0.85-2.73c0.4-0.86,0.96-1.67,1.71-2.41c1.03-1.04,2.18-1.83,3.45-2.37s2.75-0.82,4.42-0.82
			c1.36,0,2.62,0.19,3.81,0.56c1.18,0.37,2.25,0.94,3.19,1.71c0.94,0.77,1.74,1.74,2.39,2.89c0.65,1.16,1.11,2.52,1.38,4.09h-7.1
			c-0.21-0.8-0.58-1.5-1.12-2.11c-0.53-0.61-1.37-0.92-2.51-0.92c-0.64,0-1.19,0.11-1.66,0.34s-0.83,0.51-1.1,0.86
			c-0.16,0.21-0.31,0.45-0.44,0.72s-0.25,0.65-0.34,1.16c-0.09,0.5-0.17,1.16-0.22,1.97c-0.05,0.81-0.08,1.87-0.08,3.17
			c0,1.3,0.03,2.36,0.08,3.17c0.05,0.81,0.13,1.47,0.22,1.97c0.09,0.5,0.21,0.89,0.34,1.16s0.28,0.5,0.44,0.72
			c0.27,0.35,0.63,0.63,1.1,0.86c0.46,0.23,1.02,0.34,1.66,0.34c1.14,0,1.98-0.31,2.51-0.92c0.53-0.61,0.9-1.32,1.12-2.11H642.17z"
			/>
		<path class="st2" d="M661.35,160.64l-1.32-4.23h-8.73l-1.4,4.23h-7.3l10.33-28.39h5.38l10.33,28.39H661.35z M655.8,143.05
			l-2.55,7.58h4.94L655.8,143.05z"/>
		<path class="st2" d="M681.36,138.47v22.17h-6.94v-22.17h-6.98v-6.22h20.89v6.22H681.36z"/>
	</g>
	<g>
		<path class="st10" d="M503.03,113.45c0.27,1.76,0.44,2.85,0.6,3.94c-1-0.02-2.01-0.05-3.01-0.08c0.11-1.26-0.21-3.32,0.4-3.64
			c1.65-0.87,3.91-1.72,5.49-1.21c1.32,0.43,2.68,2.71,2.86,4.3c0.32,2.87-1.16,5.29-3.95,6.55c-3.64,1.65-8.21-0.1-9.97-3.75
			c-1.88-3.89-0.07-8.72,4.07-10.82c5.3-2.69,10.47-2.11,15.11,1.29c5.37,3.93,6.75,9.6,5.47,15.88
			c-1.93,9.47-7.56,16.82-14.4,23.22c-6.96,6.51-14.35,12.46-24.24,14.11c-1.43,0.24-2.66,1.52-4.07,2.06
			c-5.07,1.92-10.17,3.72-15.53,5.67c0.13,0.38,0.47,1.37,0.94,2.75c-1.49,0-2.65,0-4.12,0c0.33-1.28,0.56-2.21,0.82-3.23
			c-0.86,0-1.65,0-2.5,0c0.35,1.04,0.65,1.96,1.1,3.31c-1.43,0.07-2.49,0.11-4.12,0.19c0.36-1.37,0.62-2.39,0.92-3.53
			c-3.08-0.72-6.38-1.16-9.44-2.28c-3.3-1.21-6.62-2.7-9.48-4.71c-6.69-4.7-8.55-11.61-4.38-18.7c3.89-6.61,8.78-12.63,13.32-18.84
			c6.53-8.94,11.75-18.39,12.18-29.81c0.01-0.23-0.05-0.46-0.11-0.96c-1.95-0.73-4.06-1.4-6.07-2.32c-3-1.38-3.41-3.63-2.63-6.78
			c0.66-2.69,0.38-5.61,0.54-8.83c5.85,6.13,11.89,6.63,17.9-0.17c1.52,4.1-3.44,9.11,2.35,11.94c-3.27,2.05-6.79,4.27-10.89,6.85
			c0.12,11.75,4.52,22.72,12.62,32.25c3.76,4.43,7.95,8.49,11.59,13.02c5.97,7.42,6.12,11.67,0.79,20.64
			c2.86-1.14,5.07-1.7,6.96-2.81c13.02-7.6,23.89-17.24,28.47-32.22c1.66-5.42,0.67-10.72-3.67-14.75
			c-3.76-3.49-8.48-4.68-13.21-2.64c-2.22,0.96-4.27,3.26-5.42,5.47c-1.13,2.15-0.12,4.59,2.01,6.27c3.45,2.71,8.68,1.17,9.69-3.11
			c0.27-1.14-0.24-3.07-1.09-3.72C505.93,113.44,504.16,113.63,503.03,113.45z"/>
		<path class="st2" d="M457.49,81.8c-2.94,0-5.87,0-8.81,0c-0.65,0-1.22,0.17-1.24,0.93s0.51,0.96,1.19,0.95
			c5.84-0.01,11.68,0,17.52-0.01c0.64,0,1.21-0.11,1.22-0.92c0.01-0.88-0.59-0.96-1.27-0.96C463.22,81.81,460.36,81.8,457.49,81.8z"
			/>
		<g>
			<path class="st2" d="M444.03,74.81c-0.03,0.1-0.05,0.2-0.08,0.3c1.86,1.89,3.19,4.12,4.21,6.55c0.21,0.49,0.36,0.88,1.04,0.87
				c5.56-0.03,11.13-0.01,16.69-0.04c0.28,0,0.65-0.29,0.81-0.54c1.21-1.98,2.39-3.98,3.56-5.98c0.17-0.29,0.25-0.63,0.37-0.94
				c-0.08-0.05-0.15-0.11-0.23-0.16c-0.46,0.23-0.93,0.47-1.45,0.73c-0.43-0.46-1.08-0.82-1.49-0.08c-0.2,0.36,0.16,1.03,0.31,1.8
				c-0.86,1.12-1.68,1.57-2.54,1.24c-0.93-0.36-1.36-1.21-1.26-2.5c0.63-0.26,1.32-0.64,0.97-1.41c-0.16-0.36-1.01-0.76-1.35-0.63
				c-1,0.38-0.68,1.23-0.27,1.98c-1.02,0.81-2.02,1.42-3.32,1.01c-0.9-0.29-1.44-0.91-1.63-1.89c1.15,0.14,1.87-0.27,2.06-1.1
				c0.17-0.74-0.29-1.24-1.6-1.73c0.37-1.56-0.58-2.63-1.35-3.96c-0.76,1.37-1.66,2.47-1.29,3.99c-1.29,0.36-1.72,0.79-1.58,1.65
				c0.04,0.29,0.2,0.68,0.43,0.79c0.5,0.24,1.06,0.34,1.6,0.49c-0.78,1.97-2.37,2.48-4.27,1.3c-0.48-0.3-0.82-0.55-0.41-1.18
				c0.37-0.57,0.08-1.14-0.45-1.32c-0.37-0.12-1.01,0.04-1.3,0.32c-0.47,0.44-0.24,0.98,0.23,1.38c0.71,0.6,0.78,1.41,0.17,2.14
				c-1.06,1.27-2.66,0.87-3.58-0.94c0.49-0.38,1.09-0.8,0.49-1.51c-0.59-0.69-1.11-0.15-1.4,0.09
				C445.3,75.24,444.67,75.02,444.03,74.81z"/>
			<path class="st4" d="M444.03,74.81c0.63,0.22,1.27,0.43,2.08,0.71c0.29-0.23,0.81-0.77,1.4-0.09c0.6,0.71,0,1.13-0.49,1.51
				c0.92,1.81,2.52,2.21,3.58,0.94c0.61-0.73,0.54-1.53-0.17-2.14c-0.47-0.4-0.7-0.94-0.23-1.38c0.3-0.27,0.93-0.44,1.3-0.32
				c0.53,0.17,0.82,0.75,0.45,1.32c-0.42,0.63-0.08,0.88,0.41,1.18c1.9,1.18,3.49,0.68,4.27-1.3c-0.53-0.15-1.1-0.25-1.6-0.49
				c-0.22-0.11-0.38-0.5-0.43-0.79c-0.13-0.87,0.3-1.3,1.58-1.65c-0.38-1.51,0.52-2.62,1.29-3.99c0.77,1.33,1.72,2.4,1.35,3.96
				c1.31,0.49,1.76,0.99,1.59,1.73c-0.19,0.83-0.9,1.23-2.06,1.1c0.19,0.98,0.74,1.6,1.63,1.89c1.29,0.41,2.3-0.2,3.32-1.01
				c-0.41-0.76-0.73-1.6,0.27-1.98c0.34-0.13,1.19,0.27,1.35,0.63c0.35,0.77-0.34,1.15-0.97,1.41c-0.1,1.29,0.33,2.15,1.26,2.5
				c0.86,0.33,1.68-0.13,2.54-1.24c-0.15-0.77-0.51-1.44-0.31-1.8c0.41-0.73,1.05-0.37,1.49,0.08c0.52-0.26,0.99-0.5,1.45-0.73
				c0.08,0.06,0.15,0.11,0.23,0.16c-0.12,0.31-0.2,0.65-0.37,0.94c-1.17,2-2.35,4-3.56,5.98c-0.16,0.26-0.53,0.54-0.81,0.54
				c-5.57,0.03-11.13,0.02-16.69,0.04c-0.67,0-0.83-0.38-1.04-0.87c-1.02-2.43-2.35-4.66-4.21-6.55
				C443.98,75.01,444.01,74.91,444.03,74.81z"/>
		</g>
	</g>
</g>
<g id="Layer_2">
</g>
</svg>
