<?xml version="1.0" encoding="utf-8"?>
<!-- Generator: Adobe Illustrator 16.0.0, SVG Export Plug-In . SVG Version: 6.00 Build 0)  -->
<!DOCTYPE svg PUBLIC "-//W3C//DTD SVG 1.1//EN" "http://www.w3.org/Graphics/SVG/1.1/DTD/svg11.dtd">
<svg version="1.1" xmlns="http://www.w3.org/2000/svg" xmlns:xlink="http://www.w3.org/1999/xlink" x="0px" y="0px" width="720px"
	 height="222.95px" viewBox="0 0 720 222.95" style="enable-background:new 0 0 720 222.95;" xml:space="preserve">
<style type="text/css">
<![CDATA[
	.st0{fill:#E0D9AB;}
	.st1{fill:#EFECDE;}
	.st2{fill:#BD4828;}
	.st3{fill:#F8F7F1;}
	.st4{fill-rule:evenodd;clip-rule:evenodd;fill:#BD4828;}
	.st5{fill-rule:evenodd;clip-rule:evenodd;}
	.st6{fill:#FFFFFF;}
	.st7{fill:#CEE9F9;}
	.st8{fill:#6B3414;}
	.st9{fill-rule:evenodd;clip-rule:evenodd;fill:#FFFFFF;}
	.st10{fill-rule:evenodd;clip-rule:evenodd;fill:#6B3414;}
]]>
</style>
<g id="Layer_1">
	<rect x="2" y="-0.05" class="st3" width="720" height="222"/>
	<rect x="-0.08" y="180.51" class="st0" width="720" height="41.92"/>
	<rect x="235.02" y="174.93" class="st8" width="484.4" height="10"/>
	<polygon class="st2" points="0,205.24 0,149.74 385.32,149.74 385.32,149.82 420.79,149.82 403.9,178.24 421.39,205.24 	"/>
	<g>
		<g>
			<path class="st3" d="M27.77,167.62v25.68h-8.04v-25.68h-8.08v-7.21h24.2v7.21H27.77z"/>
			<path class="st3" d="M41.54,183.32c0,1.03,0.38,1.94,1.13,2.73c0.75,0.79,1.84,1.19,3.26,1.19c1.32,0,2.34-0.18,3.05-0.53
				c0.71-0.35,1.4-0.87,2.08-1.55l4.53,4.51c-0.65,0.64-1.29,1.2-1.94,1.67s-1.35,0.88-2.1,1.21c-0.75,0.34-1.59,0.59-2.52,0.76
				s-1.96,0.25-3.09,0.25c-1.39,0-2.78-0.16-4.17-0.49s-2.65-0.94-3.77-1.85s-2.04-2.19-2.75-3.86c-0.72-1.66-1.08-3.83-1.08-6.51
				c0-2.03,0.28-3.83,0.83-5.4c0.55-1.57,1.33-2.9,2.31-4s2.16-1.92,3.52-2.47c1.36-0.55,2.85-0.83,4.49-0.83
				c1.79,0,3.38,0.31,4.79,0.92c1.4,0.62,2.58,1.45,3.52,2.52c0.94,1.06,1.66,2.31,2.15,3.74c0.49,1.43,0.74,2.96,0.74,4.59v3.37
				H41.54z M48.97,178.34c0-0.31-0.03-0.63-0.09-0.96c-0.06-0.33-0.17-0.66-0.33-1c-0.25-0.53-0.63-0.99-1.16-1.38
				c-0.53-0.39-1.24-0.58-2.14-0.58s-1.61,0.2-2.14,0.58c-0.53,0.39-0.91,0.85-1.16,1.38c-0.16,0.34-0.26,0.68-0.33,1
				c-0.06,0.33-0.09,0.65-0.09,0.96H48.97z"/>
			<path class="st3" d="M72.89,193.3v-14.87c0-0.71-0.11-1.29-0.33-1.73c-0.22-0.45-0.49-0.79-0.81-1.04
				c-0.33-0.25-0.67-0.42-1.02-0.51c-0.36-0.09-0.66-0.14-0.91-0.14s-0.55,0.05-0.91,0.14c-0.36,0.09-0.7,0.26-1.02,0.51
				c-0.33,0.25-0.6,0.59-0.81,1.04c-0.22,0.45-0.33,1.03-0.33,1.73v14.87h-7.53v-24.85h7.37v2.03c0.77-0.77,1.67-1.35,2.72-1.73
				c1.04-0.38,2.06-0.58,3.04-0.58c1.17,0,2.22,0.18,3.16,0.55c0.94,0.37,1.74,0.89,2.42,1.57c1.08,1.08,1.76,2.2,2.05,3.37
				c0.29,1.17,0.44,2.42,0.44,3.74v15.89H72.89z"/>
			<path class="st3" d="M97.37,193.3l0-2.02c-0.77,0.76-1.6,1.34-2.48,1.72s-1.97,0.57-3.27,0.57c-1.21,0-2.34-0.2-3.41-0.6
				c-1.07-0.4-1.95-0.95-2.66-1.66c-0.62-0.62-1.08-1.33-1.39-2.15c-0.31-0.82-0.53-1.69-0.67-2.61c-0.14-0.92-0.22-1.87-0.23-2.84
				s-0.02-1.92-0.02-2.84c0-0.92,0.01-1.87,0.02-2.84c0.02-0.97,0.09-1.92,0.23-2.84c0.14-0.92,0.36-1.79,0.67-2.61
				c0.31-0.82,0.77-1.53,1.39-2.15c0.71-0.71,1.59-1.26,2.64-1.66c1.05-0.4,2.18-0.6,3.38-0.6c1.24,0,2.29,0.17,3.17,0.5
				c0.88,0.34,1.68,0.86,2.39,1.56v-9.82h7.53v32.88H97.37z M97.14,180.88c0-0.9-0.03-1.71-0.09-2.44c-0.06-0.73-0.2-1.35-0.42-1.86
				c-0.22-0.51-0.54-0.91-0.96-1.19c-0.42-0.28-0.99-0.42-1.71-0.42s-1.29,0.14-1.71,0.42s-0.74,0.68-0.96,1.19
				c-0.22,0.51-0.36,1.13-0.42,1.86c-0.06,0.73-0.09,1.54-0.09,2.44c0,0.9,0.03,1.72,0.09,2.45c0.06,0.73,0.2,1.35,0.42,1.86
				c0.22,0.51,0.54,0.91,0.96,1.19s0.99,0.42,1.71,0.42s1.29-0.14,1.71-0.42c0.42-0.28,0.74-0.68,0.96-1.19
				c0.22-0.51,0.36-1.13,0.42-1.86C97.11,182.59,97.14,181.78,97.14,180.88z"/>
			<path class="st3" d="M114.83,183.32c0,1.03,0.38,1.94,1.13,2.73c0.75,0.79,1.84,1.19,3.26,1.19c1.32,0,2.34-0.18,3.05-0.53
				c0.71-0.35,1.4-0.87,2.08-1.55l4.53,4.51c-0.65,0.64-1.29,1.2-1.94,1.67s-1.35,0.88-2.1,1.21c-0.75,0.34-1.59,0.59-2.52,0.76
				s-1.96,0.25-3.09,0.25c-1.39,0-2.78-0.16-4.17-0.49s-2.65-0.94-3.77-1.85s-2.04-2.19-2.75-3.86c-0.72-1.66-1.08-3.83-1.08-6.51
				c0-2.03,0.28-3.83,0.83-5.4c0.55-1.57,1.33-2.9,2.31-4s2.16-1.92,3.52-2.47c1.36-0.55,2.85-0.83,4.49-0.83
				c1.79,0,3.38,0.31,4.79,0.92c1.4,0.62,2.58,1.45,3.52,2.52c0.94,1.06,1.66,2.31,2.15,3.74c0.49,1.43,0.74,2.96,0.74,4.59v3.37
				H114.83z M122.26,178.34c0-0.31-0.03-0.63-0.09-0.96c-0.06-0.33-0.17-0.66-0.33-1c-0.25-0.53-0.63-0.99-1.16-1.38
				c-0.53-0.39-1.24-0.58-2.14-0.58s-1.61,0.2-2.14,0.58c-0.53,0.39-0.91,0.85-1.16,1.38c-0.16,0.34-0.26,0.68-0.33,1
				c-0.06,0.33-0.09,0.65-0.09,0.96H122.26z"/>
			<path class="st3" d="M145.82,176.3c-0.37-0.37-0.76-0.68-1.16-0.92c-0.4-0.25-0.92-0.37-1.57-0.37c-0.25,0-0.55,0.05-0.9,0.14
				c-0.35,0.09-0.69,0.26-1.02,0.51c-0.32,0.25-0.59,0.59-0.81,1.04c-0.22,0.45-0.32,1.03-0.32,1.73v14.87h-7.53v-24.85h7.34l0,2.03
				c0.55-0.55,1.35-1.08,2.38-1.57c1.03-0.49,2.19-0.74,3.49-0.74c1.23,0,2.29,0.17,3.19,0.51s1.77,0.94,2.63,1.8L145.82,176.3z"/>
			<path class="st3" d="M161.47,193.3v-32.88h8.04v25.68h13.81v7.21H161.47z"/>
			<path class="st3" d="M206.27,180.88c0,1.23-0.05,2.31-0.14,3.23c-0.09,0.92-0.24,1.75-0.44,2.49c-0.2,0.74-0.48,1.42-0.83,2.03
				s-0.79,1.2-1.31,1.75c-0.74,0.8-1.75,1.53-3.04,2.19c-1.29,0.66-2.93,0.99-4.93,0.99s-3.64-0.33-4.93-0.99
				c-1.29-0.66-2.3-1.39-3.04-2.19c-0.52-0.55-0.96-1.14-1.31-1.75c-0.35-0.62-0.63-1.29-0.83-2.03c-0.2-0.74-0.35-1.57-0.44-2.49
				c-0.09-0.92-0.14-2-0.14-3.23c0-1.2,0.05-2.27,0.14-3.21c0.09-0.94,0.24-1.78,0.44-2.52c0.2-0.74,0.48-1.42,0.83-2.03
				c0.35-0.62,0.79-1.2,1.31-1.76c0.37-0.4,0.81-0.79,1.31-1.15c0.51-0.37,1.08-0.71,1.73-1.02c0.64-0.31,1.37-0.55,2.19-0.74
				c0.81-0.18,1.73-0.28,2.74-0.28s1.93,0.09,2.74,0.28c0.81,0.18,1.54,0.43,2.19,0.74c0.64,0.31,1.22,0.65,1.73,1.02
				c0.51,0.37,0.94,0.75,1.31,1.15c0.52,0.55,0.96,1.14,1.31,1.76s0.63,1.29,0.83,2.03c0.2,0.74,0.34,1.58,0.44,2.52
				C206.22,178.61,206.27,179.68,206.27,180.88z M198.74,180.88c0-1.24-0.06-2.29-0.19-3.16c-0.12-0.87-0.44-1.55-0.93-2.05
				c-0.47-0.46-1.15-0.7-2.05-0.7s-1.58,0.23-2.05,0.7c-0.5,0.5-0.81,1.18-0.93,2.05c-0.12,0.87-0.19,1.92-0.19,3.16
				c0,1.24,0.06,2.3,0.19,3.17c0.12,0.87,0.43,1.55,0.93,2.05c0.46,0.47,1.15,0.7,2.05,0.7s1.58-0.23,2.05-0.7
				c0.5-0.5,0.81-1.18,0.93-2.05C198.68,183.17,198.74,182.12,198.74,180.88z"/>
			<path class="st3" d="M220.91,193.3h-5.77l-9.14-24.85h7.94l4.11,12.89l4.06-12.89h7.94L220.91,193.3z"/>
			<path class="st3" d="M231.07,165.91v-5.77h7.53v5.77H231.07z M231.07,193.3v-23.88h7.53v23.88H231.07z"/>
			<path class="st3" d="M256.19,193.3v-14.87c0-0.71-0.11-1.29-0.33-1.73c-0.22-0.45-0.49-0.79-0.81-1.04
				c-0.33-0.25-0.67-0.42-1.02-0.51c-0.36-0.09-0.66-0.14-0.91-0.14s-0.55,0.05-0.91,0.14c-0.36,0.09-0.7,0.26-1.02,0.51
				c-0.33,0.25-0.6,0.59-0.81,1.04c-0.22,0.45-0.33,1.03-0.33,1.73v14.87h-7.53v-24.85h7.37v2.03c0.77-0.77,1.67-1.35,2.72-1.73
				c1.04-0.38,2.06-0.58,3.04-0.58c1.17,0,2.22,0.18,3.16,0.55c0.94,0.37,1.74,0.89,2.42,1.57c1.08,1.08,1.76,2.2,2.05,3.37
				c0.29,1.17,0.44,2.42,0.44,3.74v15.89H256.19z"/>
			<path class="st3" d="M287.6,191.5c0,1.48-0.27,2.83-0.81,4.06c-0.54,1.23-1.3,2.29-2.28,3.19c-0.98,0.89-2.16,1.59-3.55,2.1
				s-2.93,0.76-4.63,0.76c-1.94,0-3.66-0.22-5.17-0.66c-1.51-0.44-2.89-1.29-4.16-2.54l4.71-4.69c0.58,0.58,1.22,0.99,1.92,1.22
				c0.69,0.23,1.47,0.35,2.33,0.35c0.8,0,1.46-0.12,1.99-0.37c0.52-0.25,0.93-0.56,1.22-0.93c0.29-0.37,0.5-0.78,0.62-1.23
				c0.12-0.45,0.18-0.88,0.18-1.28v-1.81c-0.71,0.7-1.48,1.22-2.32,1.56c-0.84,0.34-1.85,0.5-3.01,0.5c-2.39,0-4.33-0.74-5.8-2.22
				c-0.55-0.55-0.99-1.15-1.31-1.8c-0.32-0.65-0.55-1.35-0.69-2.12c-0.14-0.77-0.22-1.62-0.25-2.54c-0.03-0.92-0.05-1.96-0.05-3.09
				s0.02-2.17,0.05-3.09c0.03-0.92,0.12-1.77,0.25-2.54c0.14-0.77,0.37-1.48,0.69-2.12c0.32-0.65,0.76-1.25,1.31-1.8
				c1.47-1.48,3.42-2.22,5.85-2.22c1.29,0,2.34,0.19,3.15,0.57c0.81,0.38,1.6,0.96,2.37,1.72v-2.02h7.39V191.5z M279.97,179.95
				c0-0.65-0.02-1.27-0.07-1.86c-0.05-0.59-0.17-1.12-0.37-1.59c-0.2-0.46-0.5-0.84-0.9-1.12c-0.4-0.28-0.94-0.42-1.62-0.42
				c-0.71,0-1.26,0.14-1.64,0.42c-0.39,0.28-0.68,0.65-0.88,1.12c-0.2,0.47-0.32,1-0.37,1.59c-0.05,0.59-0.07,1.21-0.07,1.86
				c0,0.65,0.02,1.27,0.07,1.86s0.17,1.12,0.37,1.58s0.49,0.84,0.88,1.12c0.38,0.28,0.93,0.42,1.64,0.42c0.68,0,1.22-0.14,1.62-0.42
				c0.4-0.28,0.7-0.65,0.9-1.12s0.32-1,0.37-1.58C279.95,181.23,279.97,180.61,279.97,179.95z"/>
			<path class="st3" d="M324.17,182.86c-0.31,1.82-0.84,3.39-1.59,4.73c-0.75,1.34-1.68,2.46-2.77,3.35
				c-1.09,0.89-2.32,1.55-3.69,1.99c-1.37,0.43-2.84,0.65-4.41,0.65c-1.94,0-3.65-0.32-5.12-0.95c-1.47-0.63-2.81-1.55-4-2.75
				c-0.86-0.86-1.52-1.79-1.98-2.79c-0.46-1-0.79-2.06-0.99-3.16s-0.31-2.26-0.32-3.44c-0.02-1.18-0.02-2.39-0.02-3.62
				c0-1.23,0.01-2.44,0.02-3.62c0.01-1.19,0.12-2.33,0.32-3.44c0.2-1.11,0.53-2.16,0.99-3.16c0.46-1,1.12-1.93,1.98-2.79
				c1.19-1.2,2.53-2.12,4-2.75c1.47-0.63,3.18-0.95,5.12-0.95c1.57,0,3.04,0.22,4.41,0.65s2.6,1.09,3.69,1.99
				c1.09,0.89,2.02,2.01,2.77,3.35c0.75,1.34,1.29,2.92,1.59,4.73h-8.22c-0.25-0.92-0.68-1.74-1.29-2.45
				c-0.62-0.71-1.59-1.06-2.91-1.06c-0.74,0-1.38,0.13-1.92,0.39c-0.54,0.26-0.96,0.59-1.27,0.99c-0.18,0.25-0.35,0.52-0.51,0.83
				c-0.15,0.31-0.28,0.75-0.39,1.34c-0.11,0.58-0.19,1.35-0.25,2.29c-0.06,0.94-0.09,2.16-0.09,3.67c0,1.51,0.03,2.73,0.09,3.67
				c0.06,0.94,0.15,1.7,0.25,2.29c0.11,0.58,0.24,1.03,0.39,1.34c0.15,0.31,0.32,0.59,0.51,0.83c0.31,0.4,0.73,0.73,1.27,0.99
				c0.54,0.26,1.18,0.39,1.92,0.39c1.32,0,2.29-0.35,2.91-1.06c0.62-0.71,1.05-1.52,1.29-2.45H324.17z"/>
			<path class="st3" d="M338.21,193.3l0-2.03c-0.77,0.77-1.55,1.34-2.35,1.71s-1.86,0.55-3.19,0.55c-1.26,0-2.39-0.19-3.39-0.58
				c-1-0.38-1.85-0.93-2.56-1.64c-0.71-0.71-1.25-1.56-1.62-2.56c-0.37-1-0.55-2.09-0.55-3.26c0-0.92,0.16-1.82,0.48-2.7
				s0.83-1.65,1.52-2.31c0.69-0.66,1.57-1.19,2.63-1.59c1.06-0.4,2.33-0.6,3.81-0.6h5.03v-0.65c0-1.15-0.29-1.96-0.88-2.43
				c-0.59-0.47-1.54-0.7-2.86-0.7c-0.99,0-1.74,0.12-2.26,0.37c-0.52,0.25-1.09,0.68-1.71,1.29l-4.71-4.69
				c0.65-0.64,1.28-1.17,1.89-1.58c0.62-0.41,1.29-0.75,2.01-1.01s1.5-0.44,2.33-0.55c0.83-0.11,1.77-0.16,2.82-0.16
				c3.56,0,6.27,0.74,8.12,2.22c1.85,1.48,2.78,3.74,2.78,6.79v16.12H338.21z M338.03,183.32h-3.83c-0.74,0-1.32,0.18-1.76,0.55
				c-0.43,0.37-0.65,0.85-0.65,1.43c0,0.55,0.21,1.04,0.62,1.46c0.42,0.42,1.04,0.62,1.87,0.62c0.74,0,1.32-0.05,1.73-0.16
				c0.42-0.11,0.84-0.36,1.27-0.76c0.49-0.46,0.74-1.29,0.74-2.49V183.32z"/>
			<path class="st3" d="M362.36,176.3c-0.37-0.37-0.75-0.68-1.15-0.92c-0.4-0.25-0.92-0.37-1.57-0.37c-0.25,0-0.55,0.05-0.9,0.14
				c-0.35,0.09-0.69,0.26-1.02,0.51c-0.32,0.25-0.59,0.59-0.81,1.04c-0.21,0.45-0.32,1.03-0.32,1.73v14.87h-7.53v-24.85h7.34l0,2.03
				c0.55-0.55,1.34-1.08,2.38-1.57c1.03-0.49,2.19-0.74,3.49-0.74c1.23,0,2.29,0.17,3.19,0.51c0.89,0.34,1.77,0.94,2.63,1.8
				L362.36,176.3z"/>
			<path class="st3" d="M374,183.32c0,1.03,0.38,1.94,1.13,2.73c0.76,0.79,1.84,1.19,3.26,1.19c1.32,0,2.34-0.18,3.05-0.53
				c0.71-0.35,1.4-0.87,2.08-1.55l4.53,4.51c-0.65,0.64-1.29,1.2-1.94,1.67s-1.35,0.88-2.1,1.21c-0.75,0.34-1.59,0.59-2.52,0.76
				s-1.96,0.25-3.1,0.25c-1.38,0-2.78-0.16-4.17-0.49c-1.4-0.32-2.65-0.94-3.77-1.85s-2.04-2.19-2.75-3.86
				c-0.72-1.66-1.08-3.83-1.08-6.51c0-2.03,0.28-3.83,0.83-5.4c0.56-1.57,1.33-2.9,2.31-4s2.16-1.92,3.52-2.47
				c1.36-0.55,2.85-0.83,4.49-0.83c1.79,0,3.39,0.31,4.79,0.92c1.4,0.62,2.58,1.45,3.52,2.52c0.94,1.06,1.66,2.31,2.15,3.74
				c0.49,1.43,0.74,2.96,0.74,4.59v3.37H374z M381.44,178.34c0-0.31-0.03-0.63-0.09-0.96c-0.06-0.33-0.17-0.66-0.32-1
				c-0.25-0.53-0.63-0.99-1.16-1.38c-0.53-0.39-1.24-0.58-2.14-0.58c-0.9,0-1.61,0.2-2.14,0.58c-0.53,0.39-0.91,0.85-1.16,1.38
				c-0.15,0.34-0.26,0.68-0.32,1c-0.06,0.33-0.09,0.65-0.09,0.96H381.44z"/>
		</g>
	</g>
	<g>
		<path class="st10" d="M488.62,170.3c1.33,1.14,2.65,2.28,3.98,3.43c-0.59,0.79-1.18,1.58-1.77,2.37c-1.68,0-3.37,0.08-5.05-0.02
			c-1.63-0.1-3.26-0.39-4.88-0.6c0.86-1.18,2.12-2.25,2.48-3.56c0.49-1.77,0.76-3.84,0.32-5.58c-2.57-10.14-5.38-20.21-8.11-30.31
			c-0.48-1.76-1.36-3.54-1.34-5.3c0.1-9.55-5.55-15.5-12.63-20.75c-1.75,0.79-3.5,1.73-5.36,2.38c-4.21,1.45-7.04,0.23-9.27-3.93
			c-1.46-2.71-4.35-4.65-7.14-7.48c10.34,0.27,16.3-4.3,15.53-15.62c3.79,3.76,8.03,6.4,9.79,10.2c1.55,3.33,0.32,7.95,0.32,11.99
			c-0.61,0.2-1.22,0.4-1.82,0.6c1.77,1.04,3.47,2.21,5.31,3.11c2.48,1.21,4.19,0.25,4.99-2.3c1.94-6.16,5.38-10.92,12.36-11.14
			c5.17-0.17,9.99,5.69,11.78,13.23c2.6,10.92-1.38,21-4.03,31.23c-2.49,9.62-5.13,19.2-7.71,28.79
			C487.13,170.78,487.87,170.54,488.62,170.3z M485.09,166.59c0.19-0.05,0.38-0.11,0.57-0.16c2.05-10.59,4.5-21.12,5.97-31.78
			c0.71-5.13-0.06-10.57-0.97-15.74c-0.29-1.67-3.14-3.99-4.82-3.99c-1.67,0-4.11,2.22-4.85,4.03c-1.16,2.83-1.91,6.22-1.54,9.21
			C481.08,141,483.17,153.79,485.09,166.59z"/>
		<g>
			<g>
				<path class="st8" d="M503.87,117.48c4.29,2.68,8.83,2.36,13.07,0.32c12.19-5.85,21.72-14.58,27.47-26.99
					c2.14-4.61,2.8-9.51,0.8-14.43c-3.11-7.68-13.94-10.42-19.83-5.04c-2.33,2.13-3.31,5.03-2.02,7.59c1,1.98,3.43,4.02,5.53,4.42
					c1.89,0.37,5-0.9,6.1-2.47c1.07-1.53,0.8-4.59,0.01-6.53c-0.33-0.83-3.53-0.89-5.29-0.58c-0.79,0.14-1.27,2.07-1.89,3.19
					c1.07,0.44,2.15,0.88,3.22,1.31c0.18-0.29,0.36-0.59,0.54-0.88c-0.42-0.87-0.84-1.74-1.26-2.61c3.23-0.91,5.9,0.85,4.7,3.21
					c-0.96,1.88-3.15,4.01-5.04,4.28c-1.6,0.24-4.18-1.63-5.25-3.27c-1.85-2.84-0.05-6.34,3.46-8.06c4.5-2.2,8.82-1.49,12.51,1.53
					c4.08,3.33,5.58,7.97,4.16,13.06c-3.81,13.61-13.41,22.47-25.02,29.49C514.98,117.98,509.72,119.73,503.87,117.48z
					 M526.41,47.69c0.9,9.02,2.29,11.25,6.86,10.98c4.38-0.25,6.37-3.97,6.09-11.36C533.42,51.35,533.42,51.35,526.41,47.69z
					 M535.17,68.03c-0.47-2.67-0.9-5.09-1.33-7.51c-0.48-0.03-0.97-0.06-1.45-0.09c-0.56,2.44-1.12,4.89-1.74,7.6
					C532.3,68.03,533.42,68.03,535.17,68.03z"/>
				<path class="st10" d="M503.87,117.48c5.85,2.25,11.11,0.5,16-2.46c11.61-7.02,21.21-15.88,25.02-29.49
					c1.43-5.09-0.08-9.73-4.16-13.06c-3.69-3.02-8.01-3.73-12.51-1.53c-3.51,1.72-5.31,5.21-3.46,8.06c1.07,1.64,3.64,3.5,5.25,3.27
					c1.9-0.28,4.09-2.4,5.04-4.28c1.2-2.37-1.47-4.13-4.7-3.21c0.42,0.87,0.84,1.74,1.26,2.61c-0.18,0.29-0.36,0.59-0.54,0.88
					c-1.07-0.44-2.15-0.88-3.22-1.31c0.62-1.12,1.09-3.04,1.89-3.19c1.76-0.32,4.96-0.25,5.29,0.58c0.78,1.94,1.05,5-0.01,6.53
					c-1.1,1.57-4.21,2.84-6.1,2.47c-2.1-0.41-4.54-2.44-5.53-4.42c-1.29-2.56-0.32-5.46,2.02-7.59c5.89-5.37,16.71-2.64,19.83,5.04
					c1.99,4.93,1.34,9.82-0.8,14.43c-5.75,12.41-15.28,21.14-27.47,26.99C512.7,119.83,508.17,120.16,503.87,117.48z"/>
				<path class="st10" d="M526.41,47.69c7,3.66,7,3.66,12.95-0.38c0.28,7.39-1.71,11.1-6.09,11.36
					C528.7,58.94,527.31,56.71,526.41,47.69z"/>
				<path class="st10" d="M535.17,68.03c-1.75,0-2.87,0-4.52,0c0.62-2.71,1.18-5.15,1.74-7.6c0.48,0.03,0.96,0.06,1.45,0.09
					C534.27,62.94,534.69,65.36,535.17,68.03z"/>
			</g>
		</g>
	</g>
	<g>
		<path class="st8" d="M573.93,41.5V23.43h4.42v14.11h7.59v3.96H573.93z"/>
		<path class="st8" d="M601.04,32.47c0,0.68,0,1.34-0.01,1.99s-0.07,1.28-0.18,1.89c-0.11,0.61-0.29,1.19-0.54,1.74
			c-0.25,0.55-0.62,1.06-1.09,1.54c-0.66,0.66-1.38,1.16-2.18,1.51c-0.79,0.35-1.75,0.52-2.86,0.52c-1.12,0-2.07-0.17-2.86-0.52
			c-0.79-0.35-1.52-0.85-2.18-1.51c-0.47-0.47-0.84-0.99-1.09-1.54c-0.25-0.55-0.43-1.13-0.54-1.74c-0.11-0.61-0.17-1.24-0.18-1.89
			s-0.01-1.32-0.01-1.99s0-1.34,0.01-1.99s0.07-1.28,0.18-1.89c0.11-0.61,0.29-1.19,0.54-1.74c0.25-0.55,0.62-1.06,1.09-1.54
			c0.66-0.66,1.38-1.16,2.18-1.51c0.79-0.35,1.75-0.52,2.86-0.52c1.11,0,2.07,0.17,2.86,0.52c0.79,0.35,1.52,0.85,2.18,1.51
			c0.47,0.47,0.84,0.99,1.09,1.54c0.25,0.55,0.43,1.13,0.54,1.74c0.11,0.61,0.17,1.24,0.18,1.89S601.04,31.79,601.04,32.47z
			 M596.62,32.47c0-0.83-0.02-1.5-0.05-2.02s-0.08-0.93-0.13-1.24c-0.05-0.31-0.12-0.55-0.2-0.72c-0.09-0.17-0.18-0.32-0.28-0.46
			c-0.17-0.22-0.41-0.41-0.71-0.56c-0.31-0.15-0.66-0.23-1.07-0.23s-0.77,0.08-1.07,0.23c-0.31,0.15-0.54,0.34-0.71,0.56
			c-0.1,0.14-0.2,0.29-0.28,0.46s-0.15,0.41-0.2,0.72c-0.05,0.31-0.09,0.73-0.13,1.24s-0.05,1.19-0.05,2.02s0.02,1.5,0.05,2
			c0.03,0.51,0.08,0.92,0.13,1.23c0.05,0.31,0.12,0.55,0.2,0.72s0.18,0.32,0.28,0.46c0.17,0.22,0.41,0.41,0.71,0.57
			c0.31,0.16,0.66,0.24,1.07,0.24s0.76-0.08,1.07-0.24c0.31-0.16,0.54-0.35,0.71-0.57c0.1-0.13,0.2-0.29,0.28-0.46
			c0.08-0.17,0.15-0.41,0.2-0.72c0.05-0.31,0.09-0.72,0.13-1.23C596.6,33.97,596.62,33.3,596.62,32.47z"/>
		<path class="st8" d="M611.32,41.5h-3.3l-5.96-18.07h4.59l3.04,10.1l2.99-10.1h4.62L611.32,41.5z"/>
		<path class="st8" d="M619.13,41.5V23.43h12.26v3.96h-7.84v3.02h6.7v3.96h-6.7v3.17h7.84v3.96H619.13z"/>
		<path class="st8" d="M648.24,34.14v7.36h-4.42v-7.36l-5.46-10.71h4.85l2.83,6.5l2.8-6.5h4.85L648.24,34.14z"/>
		<path class="st8" d="M668.44,32.47c0,0.68,0,1.34-0.01,1.99s-0.07,1.28-0.18,1.89c-0.11,0.61-0.29,1.19-0.54,1.74
			c-0.25,0.55-0.62,1.06-1.09,1.54c-0.66,0.66-1.38,1.16-2.18,1.51c-0.79,0.35-1.75,0.52-2.86,0.52c-1.12,0-2.07-0.17-2.86-0.52
			c-0.79-0.35-1.52-0.85-2.18-1.51c-0.47-0.47-0.84-0.99-1.09-1.54c-0.25-0.55-0.43-1.13-0.54-1.74c-0.11-0.61-0.17-1.24-0.18-1.89
			s-0.01-1.32-0.01-1.99s0-1.34,0.01-1.99s0.07-1.28,0.18-1.89c0.11-0.61,0.29-1.19,0.54-1.74c0.25-0.55,0.62-1.06,1.09-1.54
			c0.66-0.66,1.38-1.16,2.18-1.51c0.79-0.35,1.75-0.52,2.86-0.52c1.11,0,2.07,0.17,2.86,0.52c0.79,0.35,1.52,0.85,2.18,1.51
			c0.47,0.47,0.84,0.99,1.09,1.54c0.25,0.55,0.43,1.13,0.54,1.74c0.11,0.61,0.17,1.24,0.18,1.89S668.44,31.79,668.44,32.47z
			 M664.02,32.47c0-0.83-0.02-1.5-0.05-2.02s-0.08-0.93-0.13-1.24c-0.05-0.31-0.12-0.55-0.2-0.72c-0.09-0.17-0.18-0.32-0.28-0.46
			c-0.17-0.22-0.41-0.41-0.71-0.56c-0.31-0.15-0.66-0.23-1.07-0.23s-0.77,0.08-1.07,0.23c-0.31,0.15-0.54,0.34-0.71,0.56
			c-0.1,0.14-0.2,0.29-0.28,0.46s-0.15,0.41-0.2,0.72c-0.05,0.31-0.09,0.73-0.13,1.24s-0.05,1.19-0.05,2.02s0.02,1.5,0.05,2
			c0.03,0.51,0.08,0.92,0.13,1.23c0.05,0.31,0.12,0.55,0.2,0.72s0.18,0.32,0.28,0.46c0.17,0.22,0.41,0.41,0.71,0.57
			c0.31,0.16,0.66,0.24,1.07,0.24s0.76-0.08,1.07-0.24c0.31-0.16,0.54-0.35,0.71-0.57c0.1-0.13,0.2-0.29,0.28-0.46
			c0.08-0.17,0.15-0.41,0.2-0.72c0.05-0.31,0.09-0.72,0.13-1.23C664.01,33.97,664.02,33.3,664.02,32.47z"/>
		<path class="st8" d="M684.93,35.16c0,1-0.18,1.9-0.55,2.69c-0.36,0.79-0.86,1.48-1.48,2.04s-1.36,1-2.2,1.31
			c-0.84,0.3-1.72,0.46-2.65,0.46c-0.95,0-1.83-0.15-2.65-0.46s-1.54-0.74-2.17-1.31s-1.12-1.25-1.47-2.04s-0.53-1.69-0.53-2.69
			V23.43h4.42v11.62c0,0.85,0.21,1.5,0.64,1.95c0.43,0.46,1.02,0.69,1.77,0.69s1.35-0.23,1.79-0.69c0.45-0.46,0.67-1.11,0.67-1.95
			V23.43h4.42V35.16z"/>
		<path class="st8" d="M697.41,41.5l-3.21-6.72h-1.5v6.72h-4.42V23.43h7.16c1,0,1.88,0.17,2.65,0.5c0.77,0.33,1.41,0.77,1.93,1.31
			c0.52,0.54,0.91,1.16,1.18,1.85c0.27,0.69,0.41,1.41,0.41,2.16c0,0.61-0.09,1.17-0.27,1.68c-0.18,0.51-0.41,0.96-0.69,1.34
			c-0.28,0.39-0.59,0.73-0.94,1.01c-0.35,0.29-0.7,0.52-1.06,0.69l3.92,7.54H697.41z M697.19,29.27c0-0.47-0.17-0.9-0.51-1.27
			c-0.34-0.37-0.82-0.56-1.44-0.56h-2.54v3.65h2.54c0.62,0,1.09-0.19,1.44-0.56C697.02,30.17,697.19,29.75,697.19,29.27z"/>
	</g>
	<g>
		<path class="st2" d="M611.29,83.99c-0.53,3.11-1.44,5.81-2.73,8.1c-1.29,2.29-2.87,4.2-4.74,5.73c-1.87,1.53-3.98,2.66-6.32,3.4
			c-2.34,0.74-4.86,1.11-7.55,1.11c-3.32,0-6.24-0.54-8.76-1.62c-2.52-1.08-4.8-2.65-6.84-4.7c-1.47-1.47-2.59-3.07-3.38-4.78
			c-0.79-1.71-1.35-3.52-1.69-5.41c-0.34-1.9-0.52-3.86-0.55-5.89c-0.03-2.03-0.04-4.1-0.04-6.2s0.01-4.18,0.04-6.21
			c0.03-2.03,0.21-3.99,0.55-5.89c0.34-1.9,0.9-3.7,1.69-5.41c0.79-1.71,1.91-3.31,3.38-4.78c2.04-2.05,4.32-3.62,6.84-4.7
			c2.52-1.08,5.44-1.62,8.76-1.62c2.69,0,5.2,0.37,7.55,1.11c2.34,0.74,4.45,1.87,6.32,3.4c1.87,1.53,3.45,3.44,4.74,5.73
			c1.29,2.29,2.2,4.99,2.73,8.1h-14.07c-0.42-1.58-1.16-2.98-2.21-4.19c-1.05-1.21-2.71-1.82-4.98-1.82c-1.26,0-2.36,0.22-3.28,0.67
			c-0.92,0.45-1.65,1.02-2.17,1.7c-0.32,0.42-0.61,0.9-0.87,1.42c-0.26,0.53-0.49,1.29-0.67,2.29c-0.18,1-0.33,2.31-0.43,3.91
			c-0.11,1.61-0.16,3.7-0.16,6.28c0,2.58,0.05,4.68,0.16,6.28c0.11,1.61,0.25,2.91,0.43,3.91c0.18,1,0.41,1.77,0.67,2.29
			c0.26,0.53,0.55,1,0.87,1.42c0.53,0.69,1.25,1.25,2.17,1.7c0.92,0.45,2.02,0.67,3.28,0.67c2.26,0,3.92-0.61,4.98-1.82
			c1.05-1.21,1.79-2.61,2.21-4.19H611.29z"/>
		<path class="st2" d="M649.3,101.85l-2.61-8.38h-17.31l-2.77,8.38h-14.46l20.47-56.27h10.67l20.47,56.27H649.3z M638.32,67
			l-5.06,15.02h9.8L638.32,67z"/>
		<path class="st2" d="M688.98,57.91v43.94h-13.75V57.91H661.4V45.58h41.42v12.33H688.98z"/>
	</g>
</g>
<g id="Layer_2">
</g>
</svg>
