<svg xmlns="http://www.w3.org/2000/svg" width="720" height="300"><style type="text/css"><![CDATA[
	.st0{fill:#E0D9AB;}
	.st1{fill:#BD4828;}
	.st2{fill:#F8F7F1;}
	.st3{fill:#6B3414;}
	.st4{fill-rule:evenodd;clip-rule:evenodd;fill:#6B3414;}
]]></style><rect class="st2" width="720" height="300"/><rect y="207.09" class="st0" width="720" height="92.91"/><rect x="2" y="197" class="st3" width="722" height="10"/><polygon class="st1" points="522.52,229.5 494.97,229.5 494.97,229.58 219.36,229.58 219.36,229.5 193.12,229.5 205.2,201.08 192.69,174.08 522.09,174.08 510.01,202.5"/><path class="st2" d="M251.88 194.01c0 1.36-.25 2.66-.74 3.93-.49 1.26-1.21 2.39-2.15 3.37-.94.99-2.11 1.78-3.51 2.38-1.4.6-3.01.9-4.83.9h-4.94v11.73h-8.04v-32.88h13c1.81 0 3.42.3 4.82.9 1.4.6 2.57 1.39 3.5 2.38.94.99 1.65 2.11 2.14 3.37.51 1.26.75 2.57.75 3.92zm-8.03 0c0-.85-.31-1.61-.93-2.28-.62-.67-1.49-1-2.6-1h-4.6v6.56h4.6c1.11 0 1.98-.33 2.6-1s.93-1.43.93-2.28z"/><path class="st2" d="M265.92 216.32v-2.03c-.77.77-1.55 1.34-2.35 1.71-.8.37-1.86.55-3.19.55-1.26 0-2.39-.19-3.39-.58s-1.85-.93-2.56-1.64c-.71-.71-1.25-1.56-1.62-2.56-.37-1-.55-2.09-.55-3.26 0-.92.16-1.82.48-2.7.32-.88.83-1.65 1.52-2.31.69-.66 1.57-1.19 2.63-1.59 1.06-.4 2.33-.6 3.81-.6h5.03v-.65c0-1.15-.29-1.96-.88-2.43-.59-.47-1.54-.7-2.86-.7-.99 0-1.74.12-2.26.37-.52.25-1.09.68-1.71 1.29l-4.71-4.69c.65-.64 1.28-1.17 1.89-1.58.62-.41 1.29-.75 2.01-1.01.72-.26 1.5-.44 2.33-.55.83-.11 1.77-.16 2.82-.16 3.56 0 6.27.74 8.12 2.22 1.85 1.48 2.78 3.74 2.78 6.79v16.12h-7.34zm-.18-9.97h-3.83c-.74 0-1.32.18-1.76.55-.43.37-.65.85-.65 1.43 0 .55.21 1.04.62 1.46s1.04.62 1.87.62c.74 0 1.32-.05 1.73-.16.42-.11.84-.36 1.27-.76.49-.46.74-1.29.74-2.49v-.65z"/><path class="st2" d="M302.45 216.32h-6.05l-4.48-13.62-4.48 13.62h-6.05l-7.48-24.85h7.99l3.09 12.88 4.29-12.88h5.27l4.29 12.88 3.09-12.88h7.99l-7.47 24.85z"/><path class="st2" d="M330.12 208.19c0 1.48-.29 2.74-.88 3.79-.59 1.05-1.37 1.92-2.36 2.61-.99.69-2.12 1.2-3.42 1.52s-2.66.48-4.11.48c-.92 0-1.85-.03-2.77-.09-.92-.06-1.84-.21-2.75-.44-.91-.23-1.8-.58-2.68-1.06-.88-.48-1.75-1.15-2.61-2.01l4.9-4.9c.52.52 1.07.92 1.64 1.2.57.28 1.13.49 1.69.62s1.06.22 1.52.23c.46.02.86.02 1.2.02.28 0 .6-.02.97-.07s.72-.13 1.06-.25c.34-.12.62-.28.85-.49.23-.2.35-.47.35-.81s-.12-.67-.35-.99c-.23-.32-.72-.52-1.45-.58l-3.83-.37c-1.08-.09-2.06-.29-2.93-.6s-1.63-.75-2.26-1.34c-.63-.58-1.12-1.31-1.48-2.17s-.53-1.89-.53-3.09c0-1.39.28-2.59.85-3.6.57-1.02 1.32-1.87 2.24-2.56.92-.69 1.98-1.21 3.16-1.55 1.18-.34 2.39-.51 3.62-.51 2.03 0 3.86.2 5.5.6 1.63.4 3.06 1.22 4.29 2.45l-4.66 4.67c-.62-.62-1.4-1.02-2.36-1.2-.95-.18-1.92-.28-2.91-.28-.92 0-1.56.17-1.92.51-.35.34-.53.65-.53.92l.02.3c.02.14.07.28.16.42.09.14.25.28.46.42.21.14.54.22.97.25l3.83.37c1.29.12 2.42.4 3.37.83.95.43 1.73.99 2.33 1.66.6.68 1.05 1.45 1.34 2.31.32.87.47 1.8.47 2.78z"/><path class="st2" d="M359.35 216.32l-2.08-2.4c-.4.31-.83.62-1.29.92-.46.31-.99.59-1.59.85-.6.26-1.29.48-2.08.65s-1.73.25-2.84.25c-3.88 0-6.7-.91-8.47-2.72-1.77-1.82-2.66-4.33-2.66-7.53 0-.95.15-1.84.46-2.66.31-.82.72-1.57 1.22-2.26.51-.69 1.07-1.32 1.69-1.87.62-.55 1.23-1.03 1.85-1.43-.28-.31-.6-.68-.97-1.13-.37-.45-.71-.95-1.02-1.52-.31-.57-.57-1.19-.79-1.87-.22-.68-.32-1.43-.32-2.26 0-2.43.82-4.4 2.45-5.91 1.63-1.51 4.03-2.26 7.2-2.26 1.45 0 2.74.2 3.88.6 1.14.4 2.1.97 2.89 1.71s1.39 1.62 1.8 2.63c.42 1.02.62 2.12.62 3.33 0 1.26-.29 2.32-.85 3.19-.57.86-1.36 1.68-2.38 2.45l-.83.65-.76.55-.72.51 3.88 4.48c.22-.28.42-.6.6-.97s.34-.77.46-1.2c.12-.43.22-.87.3-1.32.08-.45.13-.87.16-1.27h7.11c-.15 2.16-.53 4.08-1.13 5.77-.6 1.69-1.5 3.2-2.7 4.53l6.42 7.53-9.51-.02zm-11.78-13.62c-.77.53-1.29 1.06-1.55 1.6s-.39 1.22-.39 2.02c0 1.02.38 1.86 1.15 2.51.77.65 1.66.98 2.68.98.83 0 1.48-.12 1.96-.35.48-.23.9-.52 1.27-.86l-5.12-5.9zm4.62-11.25c0-.56-.17-1.03-.51-1.4-.34-.37-.86-.56-1.57-.56-.8 0-1.35.19-1.64.56-.29.37-.44.85-.44 1.45 0 .5.22 1 .67 1.52.45.51.81.91 1.09 1.19l.32-.23.37-.28c.12-.09.26-.19.42-.28.4-.28.72-.58.95-.91.23-.34.34-.69.34-1.06z"/><path class="st2" d="M398.88 205.88c-.31 1.82-.84 3.39-1.59 4.73-.76 1.34-1.68 2.46-2.77 3.35-1.09.89-2.33 1.55-3.7 1.99-1.37.43-2.84.65-4.41.65-1.94 0-3.65-.31-5.12-.95-1.47-.63-2.81-1.55-4-2.75-.86-.86-1.52-1.79-1.97-2.79-.46-1-.79-2.05-.99-3.16-.2-1.11-.31-2.26-.32-3.44-.02-1.18-.02-2.39-.02-3.62s.01-2.44.02-3.62.12-2.33.32-3.44c.2-1.11.53-2.16.99-3.16.46-1 1.12-1.93 1.97-2.79 1.19-1.2 2.53-2.12 4-2.75 1.47-.63 3.18-.95 5.12-.95 1.57 0 3.04.22 4.41.65 1.37.43 2.6 1.09 3.7 1.99 1.09.89 2.02 2.01 2.77 3.35.75 1.34 1.29 2.92 1.59 4.73h-8.22c-.25-.92-.68-1.74-1.29-2.45-.62-.71-1.59-1.06-2.91-1.06-.74 0-1.38.13-1.92.39s-.96.59-1.27.99c-.18.25-.35.52-.51.83s-.29.75-.39 1.34c-.11.59-.19 1.35-.25 2.29s-.09 2.16-.09 3.67c0 1.51.03 2.73.09 3.67s.15 1.7.25 2.29.24 1.03.39 1.34c.15.31.32.58.51.83.31.4.73.73 1.27.99s1.18.39 1.92.39c1.32 0 2.29-.35 2.91-1.06.62-.71 1.05-1.52 1.29-2.45h8.22z"/><path class="st2" d="M408.3 216.32c-1.38 0-2.55-.22-3.51-.67s-1.75-1.02-2.36-1.73-1.06-1.49-1.35-2.36-.44-1.72-.44-2.59v-25.54h7.53v25.03c0 1.02.51 1.53 1.52 1.53h2.63v6.33h-4.02z"/><path class="st2" d="M426.82 216.32v-2.03c-.77.77-1.55 1.34-2.35 1.71-.8.37-1.86.55-3.19.55-1.26 0-2.39-.19-3.39-.58-1-.38-1.85-.93-2.56-1.64-.71-.71-1.25-1.56-1.62-2.56-.37-1-.55-2.09-.55-3.26 0-.92.16-1.82.48-2.7.32-.88.83-1.65 1.52-2.31.69-.66 1.57-1.19 2.63-1.59s2.33-.6 3.81-.6h5.03v-.65c0-1.15-.29-1.96-.88-2.43-.59-.47-1.54-.7-2.86-.7-.99 0-1.74.12-2.26.37-.52.25-1.09.68-1.71 1.29l-4.71-4.69c.65-.64 1.28-1.17 1.89-1.58.62-.41 1.29-.75 2.01-1.01s1.5-.44 2.33-.55c.83-.11 1.77-.16 2.82-.16 3.56 0 6.27.74 8.12 2.22 1.85 1.48 2.78 3.74 2.78 6.79v16.12h-7.34zm-.18-9.97h-3.83c-.74 0-1.32.18-1.76.55-.43.37-.65.85-.65 1.43 0 .55.21 1.04.62 1.46.42.42 1.04.62 1.87.62.74 0 1.32-.05 1.73-.16.42-.11.84-.36 1.27-.76.49-.46.74-1.29.74-2.49v-.65z"/><path class="st2" d="M463.35 216.32h-6.05l-4.48-13.62-4.48 13.62h-6.05l-7.48-24.85h7.99l3.09 12.88 4.29-12.88h5.27l4.29 12.88 3.09-12.88h7.99l-7.47 24.85z"/><path class="st2" d="M491.02 208.19c0 1.48-.29 2.74-.88 3.79-.59 1.05-1.37 1.92-2.36 2.61-.99.69-2.12 1.2-3.42 1.52s-2.66.48-4.11.48c-.92 0-1.85-.03-2.77-.09-.92-.06-1.84-.21-2.75-.44-.91-.23-1.8-.58-2.68-1.06-.88-.48-1.75-1.15-2.61-2.01l4.89-4.9c.52.52 1.07.92 1.64 1.2.57.28 1.13.49 1.69.62.55.14 1.06.22 1.52.23.46.02.86.02 1.2.02.28 0 .6-.02.97-.07s.72-.13 1.06-.25.62-.28.85-.49c.23-.2.35-.47.35-.81s-.12-.67-.35-.99c-.23-.32-.72-.52-1.45-.58l-3.83-.37c-1.08-.09-2.05-.29-2.93-.6-.88-.31-1.63-.75-2.26-1.34-.63-.58-1.12-1.31-1.48-2.17-.35-.86-.53-1.89-.53-3.09 0-1.39.28-2.59.85-3.6.57-1.02 1.32-1.87 2.24-2.56.92-.69 1.98-1.21 3.16-1.55 1.18-.34 2.39-.51 3.62-.51 2.03 0 3.86.2 5.5.6 1.63.4 3.06 1.22 4.29 2.45l-4.67 4.67c-.62-.62-1.4-1.02-2.36-1.2-.95-.18-1.92-.28-2.91-.28-.92 0-1.56.17-1.92.51-.35.34-.53.65-.53.92l.02.3s.07.28.16.42c.09.14.25.28.46.42.21.14.54.22.97.25l3.83.37c1.29.12 2.42.4 3.37.83.95.43 1.73.99 2.33 1.66.6.68 1.05 1.45 1.34 2.31.34.87.49 1.8.49 2.78z"/><path class="st4" d="M412.74 88.1c.38 2.47.61 4 .85 5.52l-4.22-.11c.15-1.77-.29-4.66.56-5.11 2.31-1.22 5.49-2.41 7.7-1.69 1.85.6 3.75 3.79 4 6.02.45 4.02-1.62 7.42-5.53 9.19-5.11 2.31-11.52-.14-13.99-5.25-2.63-5.45-.1-12.22 5.7-15.17 7.43-3.77 14.68-2.96 21.19 1.81 7.53 5.51 9.46 13.46 7.67 22.26-2.7 13.28-10.61 23.59-20.19 32.56-9.75 9.13-20.13 17.47-33.99 19.79-2.01.34-3.72 2.13-5.72 2.88-7.1 2.69-14.26 5.22-21.77 7.95l1.32 3.86h-5.78c.45-1.79.79-3.11 1.15-4.53h-3.5c.48 1.46.91 2.75 1.54 4.64-2 .09-3.5.16-5.77.26.5-1.92.88-3.35 1.29-4.95-4.32-1-8.95-1.62-13.24-3.2-4.63-1.7-9.28-3.79-13.29-6.61-9.38-6.59-11.99-16.28-6.14-26.22 5.45-9.27 12.32-17.71 18.68-26.43 9.15-12.54 16.47-25.79 17.08-41.8.01-.32-.07-.65-.15-1.35-2.73-1.03-5.7-1.96-8.51-3.25-4.2-1.93-4.78-5.09-3.69-9.5.93-3.77.54-7.87.75-12.39 8.2 8.6 16.67 9.3 25.11-.23 2.13 5.75-4.83 12.78 3.3 16.75-4.58 2.88-9.52 5.98-15.27 9.6.17 16.48 6.34 31.86 17.69 45.23 5.27 6.21 11.15 11.91 16.25 18.25 8.37 10.41 8.59 16.36 1.11 28.95 4.01-1.59 7.11-2.39 9.76-3.94 18.26-10.66 33.5-24.17 39.93-45.18 2.33-7.6.94-15.04-5.14-20.68-5.27-4.89-11.88-6.56-18.52-3.71-3.11 1.34-5.98 4.58-7.6 7.67-1.58 3.01-.17 6.44 2.83 8.79 4.83 3.8 12.17 1.65 13.59-4.36.38-1.6-.34-4.3-1.53-5.22-1.45-1.11-3.93-.84-5.51-1.1z"/><path class="st1" d="M102.35 263.42v-16.38h11.11v3.59h-7.11v2.74h6.07v3.59h-6.07v2.88h7.11v3.59h-11.11z"/><path class="st1" d="M121.19 263.42h-2.88l-4.55-12.37h3.96l2.05 6.42 2.02-6.42h3.96l-4.56 12.37z"/><path class="st1" d="M129.15 258.45c0 .51.19.97.56 1.36s.92.59 1.62.59c.66 0 1.17-.09 1.52-.26.35-.18.7-.43 1.04-.77l2.25 2.25c-.32.32-.64.6-.97.83-.32.24-.67.44-1.05.6-.38.17-.79.29-1.25.38-.46.08-.97.12-1.54.12-.69 0-1.38-.08-2.08-.24-.7-.16-1.32-.47-1.88-.92s-1.01-1.09-1.37-1.92c-.36-.83-.54-1.91-.54-3.24 0-1.01.14-1.91.42-2.69.28-.78.66-1.45 1.15-1.99.49-.54 1.08-.96 1.75-1.23.68-.28 1.42-.41 2.24-.41.89 0 1.69.15 2.39.46.7.31 1.28.72 1.75 1.25s.83 1.15 1.07 1.86c.25.71.37 1.48.37 2.29v1.68h-7.45zm3.7-2.49c0-.16-.02-.31-.05-.48-.03-.16-.09-.33-.16-.5-.12-.26-.32-.49-.58-.69-.26-.19-.62-.29-1.06-.29s-.8.1-1.06.29c-.26.19-.46.42-.58.69-.08.17-.13.34-.16.5-.03.16-.05.32-.05.48h3.7z"/><path class="st1" d="M144.58 254.95c-.18-.18-.38-.34-.58-.46s-.46-.18-.78-.18c-.12 0-.27.02-.45.07s-.34.13-.51.25c-.16.12-.29.3-.4.52-.11.22-.16.51-.16.86v7.41h-3.75v-12.37h3.66v1.01c.28-.28.67-.54 1.18-.78s1.09-.37 1.74-.37c.61 0 1.14.08 1.59.25s.88.47 1.31.9l-2.85 2.89z"/><path class="st1" d="M153.41 264.89c-.25.69-.57 1.23-.97 1.63-.37.4-.79.67-1.25.82-.47.15-.98.22-1.53.22h-1.43v-3.38h.8c.34 0 .6-.06.79-.17.19-.12.35-.36.47-.75l.34-1.04-4.12-11.17h3.96l2.09 6.42 2-6.42h3.96l-5.11 13.84z"/><path class="st1" d="M162.96 263.42c-.69 0-1.27-.11-1.75-.33s-.87-.51-1.18-.86c-.3-.35-.53-.74-.67-1.17-.14-.43-.22-.86-.22-1.28v-5.32h-1.13v-2.92h1.13v-3.54h3.75v3.54h1.96v2.92h-1.96v5.06c0 .51.25.76.76.76h1.2v3.15h-1.89z"/><path class="st1" d="M172.96 263.42v-7.52c0-.34-.05-.61-.16-.82-.11-.21-.24-.37-.38-.48-.15-.12-.3-.2-.47-.24-.17-.05-.32-.07-.44-.07s-.27.02-.44.07-.33.13-.48.24-.27.28-.38.48c-.11.21-.16.48-.16.82v7.52h-3.75v-16.38h3.75v5.01c.4-.4.83-.69 1.3-.87.47-.18.94-.27 1.41-.27.66 0 1.24.11 1.74.34.5.23.91.55 1.24.95.33.41.58.88.74 1.43.16.54.24 1.13.24 1.76v8.03h-3.76z"/><path class="st1" d="M178.55 249.78v-2.88h3.75v2.88h-3.75zm0 13.64v-11.89h3.75v11.89h-3.75z"/><path class="st1" d="M191.06 263.42v-7.41c0-.35-.05-.64-.16-.86-.11-.22-.24-.39-.41-.52-.16-.12-.33-.21-.51-.25s-.33-.07-.45-.07-.27.02-.45.07-.35.13-.51.25c-.16.12-.3.3-.41.52-.11.22-.16.51-.16.86v7.41h-3.75v-12.37h3.67v1.01c.38-.38.83-.67 1.35-.86.52-.19 1.03-.29 1.51-.29.58 0 1.11.09 1.57.28.47.18.87.45 1.21.78.54.54.88 1.1 1.02 1.68.15.58.22 1.2.22 1.86v7.91h-3.74z"/><path class="st1" d="M206.7 262.52c0 .74-.13 1.41-.4 2.02-.27.61-.65 1.14-1.13 1.59-.49.44-1.08.79-1.77 1.05-.69.25-1.46.38-2.3.38-.97 0-1.83-.11-2.58-.33-.75-.22-1.44-.64-2.07-1.27l2.35-2.33c.29.29.61.49.95.61s.73.17 1.16.17c.4 0 .73-.06.99-.19s.46-.28.61-.46c.15-.19.25-.39.31-.61s.09-.44.09-.64v-.9c-.35.35-.74.61-1.16.78-.42.17-.92.25-1.5.25-1.19 0-2.16-.37-2.89-1.1-.28-.28-.49-.58-.65-.9s-.27-.67-.34-1.06c-.07-.38-.11-.81-.13-1.27s-.02-.97-.02-1.54c0-.57.01-1.08.02-1.54.02-.46.06-.88.13-1.26s.18-.74.34-1.06c.16-.32.38-.62.65-.9.73-.74 1.7-1.1 2.91-1.1.64 0 1.17.09 1.57.29.41.19.8.48 1.18.86v-1h3.68v11.46zm-3.79-5.75c0-.32-.01-.63-.03-.93s-.08-.56-.18-.79c-.1-.23-.25-.42-.45-.56s-.47-.21-.8-.21c-.35 0-.62.07-.82.21-.19.14-.34.33-.44.56-.1.23-.16.5-.18.79s-.03.6-.03.93c0 .33.01.63.03.93s.08.56.18.79c.1.23.25.42.44.56.19.14.46.21.82.21.34 0 .61-.07.8-.21s.35-.33.45-.56c.1-.23.16-.5.18-.79s.03-.6.03-.93z"/><path class="st1" d="M218.27 264.89c-.25.69-.57 1.23-.97 1.63-.37.4-.79.67-1.25.82-.47.15-.98.22-1.53.22h-1.43v-3.38h.8c.34 0 .6-.06.79-.17.19-.12.35-.36.47-.75l.34-1.04-4.12-11.17h3.96l2.09 6.42 2-6.42h3.96l-5.11 13.84z"/><path class="st1" d="M233.71 257.23c0 .61-.02 1.15-.07 1.61s-.12.87-.22 1.24-.24.71-.41 1.01c-.18.31-.39.6-.65.87-.37.4-.87.76-1.51 1.09s-1.46.49-2.46.49-1.81-.16-2.46-.49-1.15-.69-1.51-1.09c-.26-.28-.48-.57-.65-.87-.18-.31-.31-.64-.41-1.01s-.17-.78-.22-1.24-.07-1-.07-1.61c0-.6.02-1.13.07-1.6s.12-.89.22-1.25.24-.71.41-1.01c.18-.31.39-.6.65-.87.18-.2.4-.39.65-.58.25-.18.54-.35.86-.51s.69-.28 1.09-.37.86-.14 1.37-.14.96.05 1.37.14.77.21 1.09.37.61.32.86.51c.25.18.47.38.65.58.26.28.48.57.65.87.18.31.31.64.41 1.01.1.37.17.79.22 1.25s.07 1 .07 1.6zm-3.75 0c0-.62-.03-1.14-.09-1.58-.06-.43-.22-.77-.46-1.02-.23-.23-.57-.35-1.02-.35s-.79.12-1.02.35c-.25.25-.4.59-.46 1.02-.06.43-.09.96-.09 1.58 0 .62.03 1.14.09 1.58.06.43.22.77.46 1.02.23.23.57.35 1.02.35s.79-.12 1.02-.35c.25-.25.4-.59.46-1.02.06-.44.09-.96.09-1.58z"/><path class="st1" d="M241.99 263.42v-1.01c-.38.38-.83.67-1.35.86s-1.03.29-1.51.29c-.58 0-1.11-.09-1.57-.28-.47-.18-.87-.45-1.21-.78-.54-.54-.88-1.1-1.02-1.68-.14-.58-.22-1.2-.22-1.86v-7.91h3.75v7.42c0 .35.05.64.16.86.11.22.24.4.41.52s.33.21.51.25c.18.05.33.07.45.07s.27-.02.45-.07.35-.13.51-.25.3-.3.41-.52c.11-.22.16-.51.16-.86v-7.42h3.75v12.37h-3.68z"/><path class="st1" d="M258.61 263.42v-7.41c0-.35-.05-.64-.16-.86-.11-.22-.24-.39-.41-.52-.16-.12-.33-.21-.51-.25s-.33-.07-.45-.07-.27.02-.45.07-.35.13-.51.25c-.16.12-.3.3-.41.52-.11.22-.16.51-.16.86v7.41h-3.75v-12.37h3.67v1.01c.38-.38.83-.67 1.35-.86.52-.19 1.03-.29 1.51-.29.58 0 1.11.09 1.57.28.47.18.87.45 1.21.78.54.54.88 1.1 1.02 1.68.15.58.22 1.2.22 1.86v7.91h-3.74z"/><path class="st1" d="M267.33 258.45c0 .51.19.97.56 1.36s.92.59 1.62.59c.66 0 1.17-.09 1.52-.26.35-.18.7-.43 1.04-.77l2.25 2.25c-.32.32-.64.6-.97.83-.32.24-.67.44-1.05.6-.38.17-.79.29-1.25.38-.46.08-.97.12-1.54.12-.69 0-1.38-.08-2.08-.24-.7-.16-1.32-.47-1.88-.92s-1.01-1.09-1.37-1.92c-.36-.83-.54-1.91-.54-3.24 0-1.01.14-1.91.42-2.69.28-.78.66-1.45 1.15-1.99.49-.54 1.08-.96 1.75-1.23.68-.28 1.42-.41 2.24-.41.89 0 1.69.15 2.39.46.7.31 1.28.72 1.75 1.25s.83 1.15 1.07 1.86c.25.71.37 1.48.37 2.29v1.68h-7.45zm3.7-2.49c0-.16-.02-.31-.05-.48-.03-.16-.09-.33-.16-.5-.12-.26-.32-.49-.58-.69-.26-.19-.62-.29-1.06-.29s-.8.1-1.06.29c-.26.19-.46.42-.58.69-.08.17-.13.34-.16.5-.03.16-.05.32-.05.48h3.7z"/><path class="st1" d="M279.27 258.45c0 .51.19.97.56 1.36s.92.59 1.62.59c.66 0 1.17-.09 1.52-.26.35-.18.7-.43 1.04-.77l2.25 2.25c-.32.32-.64.6-.97.83-.32.24-.67.44-1.05.6-.38.17-.79.29-1.25.38-.46.08-.97.12-1.54.12-.69 0-1.38-.08-2.08-.24-.7-.16-1.32-.47-1.88-.92s-1.01-1.09-1.37-1.92c-.36-.83-.54-1.91-.54-3.24 0-1.01.14-1.91.42-2.69.28-.78.66-1.45 1.15-1.99.49-.54 1.08-.96 1.75-1.23.68-.28 1.42-.41 2.24-.41.89 0 1.69.15 2.39.46.7.31 1.28.72 1.75 1.25s.83 1.15 1.07 1.86c.25.71.37 1.48.37 2.29v1.68h-7.45zm3.7-2.49c0-.16-.02-.31-.05-.48-.03-.16-.09-.33-.16-.5-.12-.26-.32-.49-.58-.69-.26-.19-.62-.29-1.06-.29s-.8.1-1.06.29c-.26.19-.46.42-.58.69-.08.17-.13.34-.16.5-.03.16-.05.32-.05.48h3.7z"/><path class="st1" d="M294.68 263.42v-1c-.38.38-.8.67-1.23.86s-.98.29-1.63.29c-.6 0-1.17-.1-1.7-.3-.53-.2-.97-.47-1.33-.83-.31-.31-.54-.66-.69-1.07-.15-.41-.27-.84-.33-1.3-.07-.46-.11-.93-.12-1.41-.01-.48-.01-.95-.01-1.41 0-.46 0-.93.01-1.42.01-.48.05-.95.12-1.41.07-.46.18-.89.33-1.3.15-.41.38-.76.69-1.07.35-.35.79-.63 1.32-.83s1.08-.3 1.68-.3c.62 0 1.14.08 1.58.25.44.17.83.43 1.19.78v-4.89h3.75v16.38h-3.63zm-.12-6.19c0-.45-.02-.85-.05-1.22-.03-.36-.1-.67-.21-.93-.11-.25-.27-.45-.48-.59-.21-.14-.49-.21-.85-.21s-.64.07-.85.21c-.21.14-.37.34-.48.59-.11.25-.18.56-.21.93-.03.36-.05.77-.05 1.22s.02.85.05 1.22c.03.36.1.67.21.93.11.26.27.45.48.59.21.14.49.21.85.21s.64-.07.85-.21c.21-.14.37-.34.48-.59.11-.25.18-.56.21-.93s.05-.77.05-1.22z"/><path class="st1" d="M308.52 263.42c-.69 0-1.27-.11-1.75-.33s-.87-.51-1.18-.86c-.3-.35-.53-.74-.67-1.17-.14-.43-.22-.86-.22-1.28v-5.32h-1.13v-2.92h1.13v-3.54h3.75v3.54h1.96v2.92h-1.96v5.06c0 .51.25.76.76.76h1.2v3.15h-1.89z"/><path class="st1" d="M322 257.23c0 .61-.02 1.15-.07 1.61s-.12.87-.22 1.24-.24.71-.41 1.01c-.18.31-.39.6-.65.87-.37.4-.87.76-1.51 1.09s-1.46.49-2.46.49-1.81-.16-2.46-.49-1.15-.69-1.51-1.09c-.26-.28-.48-.57-.65-.87-.18-.31-.31-.64-.41-1.01s-.17-.78-.22-1.24-.07-1-.07-1.61c0-.6.02-1.13.07-1.6s.12-.89.22-1.25.24-.71.41-1.01c.18-.31.39-.6.65-.87.18-.2.4-.39.65-.58.25-.18.54-.35.86-.51s.69-.28 1.09-.37.86-.14 1.37-.14.96.05 1.37.14.77.21 1.09.37.61.32.86.51c.25.18.47.38.65.58.26.28.48.57.65.87.18.31.31.64.41 1.01.1.37.17.79.22 1.25s.07 1 .07 1.6zm-3.75 0c0-.62-.03-1.14-.09-1.58-.06-.43-.22-.77-.46-1.02-.23-.23-.57-.35-1.02-.35s-.79.12-1.02.35c-.25.25-.4.59-.46 1.02-.06.43-.09.96-.09 1.58 0 .62.03 1.14.09 1.58.06.43.22.77.46 1.02.23.23.57.35 1.02.35s.79-.12 1.02-.35c.25-.25.4-.59.46-1.02.06-.44.09-.96.09-1.58z"/><path class="st1" d="M334.77 263.42l-2.58-4.53-.74.81v3.73h-3.75v-16.38h3.75v8.33l3.33-4.32h4.53l-4.55 5.13 4.67 7.25h-4.66z"/><path class="st1" d="M346.77 263.42v-7.41c0-.35-.05-.64-.16-.86-.11-.22-.24-.39-.41-.52-.16-.12-.33-.21-.51-.25s-.33-.07-.45-.07-.27.02-.45.07-.35.13-.51.25c-.16.12-.3.3-.41.52-.11.22-.16.51-.16.86v7.41h-3.75v-12.37h3.67v1.01c.38-.38.83-.67 1.35-.86.52-.19 1.03-.29 1.51-.29.58 0 1.11.09 1.57.28.47.18.87.45 1.21.78.54.54.88 1.1 1.02 1.68.15.58.22 1.2.22 1.86v7.91h-3.74z"/><path class="st1" d="M362.57 257.23c0 .61-.02 1.15-.07 1.61-.05.46-.12.87-.22 1.24s-.24.71-.41 1.01c-.18.31-.39.6-.65.87-.37.4-.87.76-1.52 1.09s-1.46.49-2.46.49-1.81-.16-2.46-.49-1.15-.69-1.51-1.09c-.26-.28-.48-.57-.65-.87-.18-.31-.31-.64-.41-1.01s-.17-.78-.22-1.24-.07-1-.07-1.61c0-.6.02-1.13.07-1.6s.12-.89.22-1.25.24-.71.41-1.01c.18-.31.39-.6.65-.87.18-.2.4-.39.65-.58.25-.18.54-.35.86-.51s.69-.28 1.09-.37.86-.14 1.37-.14.96.05 1.37.14.77.21 1.09.37.61.32.86.51c.25.18.47.38.65.58.26.28.48.57.65.87.18.31.31.64.41 1.01s.17.79.22 1.25c.06.47.08 1 .08 1.6zm-3.75 0c0-.62-.03-1.14-.09-1.58-.06-.43-.22-.77-.46-1.02-.23-.23-.57-.35-1.02-.35s-.79.12-1.02.35c-.25.25-.4.59-.46 1.02-.06.43-.09.96-.09 1.58 0 .62.03 1.14.09 1.58.06.43.22.77.46 1.02.23.23.57.35 1.02.35s.79-.12 1.02-.35c.25-.25.4-.59.46-1.02.06-.44.09-.96.09-1.58z"/><path class="st1" d="M376.69 263.42h-3.01l-2.23-6.79-2.23 6.79h-3.01l-3.72-12.37h3.98l1.54 6.42 2.14-6.42h2.62l2.14 6.42 1.54-6.42h3.98l-3.74 12.37z"/><path class="st1" d="M391.11 263.42v-1.01c-.38.38-.77.67-1.17.85-.4.18-.93.28-1.59.28-.63 0-1.19-.1-1.69-.29-.5-.19-.92-.46-1.28-.82-.35-.35-.62-.78-.8-1.28-.18-.5-.28-1.04-.28-1.62 0-.46.08-.91.24-1.35.16-.44.41-.82.76-1.15.35-.33.78-.59 1.31-.79s1.16-.3 1.9-.3h2.51v-.33c0-.57-.14-.98-.44-1.21-.29-.23-.77-.35-1.43-.35-.49 0-.87.06-1.13.18-.26.12-.54.34-.85.64l-2.35-2.33c.32-.32.63-.58.94-.79.31-.21.64-.37 1-.5s.75-.22 1.16-.27c.41-.05.88-.08 1.4-.08 1.77 0 3.12.37 4.04 1.1.92.74 1.38 1.86 1.38 3.38v8.03h-3.63zm-.09-4.97h-1.91c-.37 0-.66.09-.88.28-.21.18-.32.42-.32.71 0 .28.1.52.31.72.21.21.52.31.93.31.37 0 .66-.03.86-.08s.42-.18.63-.38c.24-.23.37-.64.37-1.24v-.32z"/><path class="st1" d="M407.17 257.23c0 .46 0 .93-.01 1.41s-.04.95-.12 1.41c-.07.46-.18.89-.33 1.3-.15.41-.38.76-.69 1.07-.35.35-.79.63-1.32.83s-1.09.3-1.69.3c-.64 0-1.19-.09-1.62-.29-.44-.19-.85-.48-1.23-.86v1h-3.63v-16.38h3.75v4.89c.35-.35.75-.61 1.19-.78.44-.17.96-.25 1.57-.25.6 0 1.16.1 1.68.3s.96.48 1.31.83c.31.31.54.66.69 1.07.15.41.26.84.33 1.3.07.46.11.93.12 1.41v1.44zm-3.75 0c0-.45-.02-.85-.05-1.22-.03-.36-.1-.67-.21-.93s-.27-.45-.47-.59c-.21-.14-.49-.21-.85-.21s-.64.07-.85.21c-.21.14-.37.34-.47.59-.11.25-.18.56-.21.93-.03.36-.05.77-.05 1.22s.02.85.05 1.22.1.67.21.93c.11.26.27.45.47.59.21.14.49.21.85.21s.64-.07.85-.21c.21-.14.37-.34.47-.59.11-.25.18-.56.21-.93s.05-.77.05-1.22z"/><path class="st1" d="M418.9 257.23c0 .61-.02 1.15-.07 1.61-.05.46-.12.87-.22 1.24s-.24.71-.41 1.01c-.18.31-.39.6-.65.87-.37.4-.87.76-1.52 1.09s-1.46.49-2.46.49-1.81-.16-2.46-.49-1.15-.69-1.51-1.09c-.26-.28-.48-.57-.65-.87-.18-.31-.31-.64-.41-1.01s-.17-.78-.22-1.24c-.05-.46-.07-1-.07-1.61 0-.6.02-1.13.07-1.6.04-.47.12-.89.22-1.25s.24-.71.41-1.01.39-.6.65-.87c.18-.2.4-.39.65-.58.25-.18.54-.35.86-.51.32-.15.69-.28 1.09-.37.4-.09.86-.14 1.37-.14.5 0 .96.05 1.37.14.4.09.77.21 1.09.37.32.15.61.32.86.51.25.18.47.38.65.58.26.28.48.57.65.87.18.31.31.64.41 1.01s.17.79.22 1.25c.06.47.08 1 .08 1.6zm-3.75 0c0-.62-.03-1.14-.09-1.58-.06-.43-.22-.77-.46-1.02-.23-.23-.57-.35-1.02-.35-.45 0-.79.12-1.02.35-.25.25-.4.59-.46 1.02-.06.43-.09.96-.09 1.58 0 .62.03 1.14.09 1.58.06.43.21.77.46 1.02.23.23.57.35 1.02.35.45 0 .79-.12 1.02-.35.25-.25.4-.59.46-1.02.06-.44.09-.96.09-1.58z"/><path class="st1" d="M427.19 263.42v-1.01c-.38.38-.83.67-1.35.86-.52.19-1.03.29-1.52.29-.58 0-1.11-.09-1.57-.28-.47-.18-.87-.45-1.21-.78-.54-.54-.88-1.1-1.02-1.68-.14-.58-.22-1.2-.22-1.86v-7.91h3.75v7.42c0 .35.05.64.16.86.11.22.24.4.41.52s.33.21.51.25c.18.05.33.07.45.07s.27-.02.45-.07.35-.13.51-.25.3-.3.41-.52c.11-.22.16-.51.16-.86v-7.42h3.75v12.37h-3.67z"/><path class="st1" d="M436.91 263.42c-.69 0-1.27-.11-1.75-.33s-.87-.51-1.18-.86c-.3-.35-.53-.74-.68-1.17-.14-.43-.22-.86-.22-1.28v-5.32h-1.13v-2.92h1.13v-3.54h3.75v3.54h1.96v2.92h-1.96v5.06c0 .51.25.76.76.76h1.2v3.15h-1.88z"/><path class="st1" d="M453.79 263.42l-3.77-6.72-1.38 1.59v5.13h-3.98v-16.38h3.98v5.8l4.74-5.8h4.92l-5.59 6.62 5.77 9.75h-4.69z"/><path class="st1" d="M458.99 249.78v-2.88h3.75v2.88h-3.75zm0 13.64v-11.89h3.75v11.89h-3.75z"/><path class="st1" d="M468.78 263.42c-.69 0-1.27-.11-1.75-.33s-.87-.51-1.18-.86c-.3-.35-.53-.74-.68-1.17-.14-.43-.22-.86-.22-1.28v-5.32h-1.13v-2.92h1.13v-3.54h3.75v3.54h1.96v2.92h-1.96v5.06c0 .51.25.76.76.76h1.2v3.15h-1.88z"/><path class="st1" d="M476.21 263.42c-.69 0-1.27-.11-1.75-.33s-.87-.51-1.18-.86c-.3-.35-.53-.74-.68-1.17-.14-.43-.22-.86-.22-1.28v-5.32h-1.13v-2.92h1.13v-3.54h3.75v3.54h1.96v2.92h-1.96v5.06c0 .51.25.76.76.76h1.2v3.15h-1.88z"/><path class="st1" d="M482.61 258.45c0 .51.19.97.56 1.36.38.4.92.59 1.62.59.66 0 1.17-.09 1.52-.26.35-.18.7-.43 1.04-.77l2.25 2.25c-.32.32-.64.6-.96.83-.32.24-.67.44-1.05.6-.38.17-.79.29-1.25.38-.46.08-.97.12-1.54.12-.69 0-1.38-.08-2.08-.24s-1.32-.47-1.88-.92-1.01-1.09-1.37-1.92-.54-1.91-.54-3.24c0-1.01.14-1.91.42-2.69.28-.78.66-1.45 1.15-1.99.49-.54 1.07-.96 1.75-1.23.68-.28 1.42-.41 2.24-.41.89 0 1.69.15 2.39.46.7.31 1.28.72 1.75 1.25s.83 1.15 1.07 1.86.37 1.48.37 2.29v1.68h-7.46zm3.7-2.49c0-.16-.02-.31-.04-.48-.03-.16-.09-.33-.16-.5-.12-.26-.32-.49-.58-.69-.26-.19-.62-.29-1.06-.29s-.8.1-1.06.29c-.26.19-.46.42-.58.69-.08.17-.13.34-.16.5-.03.16-.05.32-.05.48h3.69z"/><path class="st1" d="M498.22 263.42v-7.41c0-.35-.05-.64-.16-.86-.11-.22-.24-.39-.4-.52-.16-.12-.33-.21-.51-.25s-.33-.07-.45-.07-.27.02-.45.07-.35.13-.51.25c-.16.12-.3.3-.41.52-.11.22-.16.51-.16.86v7.41h-3.75v-12.37h3.67v1.01c.38-.38.83-.67 1.35-.86.52-.19 1.03-.29 1.52-.29.58 0 1.11.09 1.57.28.46.18.87.45 1.21.78.54.54.88 1.1 1.02 1.68.15.58.22 1.2.22 1.86v7.91h-3.76z"/><path class="st1" d="M513.36 259.37c0 .74-.15 1.37-.44 1.89-.29.52-.68.96-1.17 1.3-.49.34-1.06.6-1.7.76s-1.33.24-2.05.24c-.46 0-.92-.02-1.38-.05-.46-.03-.92-.1-1.37-.22-.45-.11-.9-.29-1.33-.53s-.87-.57-1.3-1l2.44-2.44c.26.26.53.46.82.6.28.14.56.24.84.31.28.07.53.11.76.12l.6.01c.14 0 .3-.01.48-.04.18-.02.36-.06.53-.13.17-.06.31-.14.42-.24.12-.1.17-.23.17-.4s-.06-.33-.17-.49c-.11-.16-.36-.26-.72-.29l-1.91-.18c-.54-.05-1.02-.15-1.46-.3-.44-.15-.81-.38-1.13-.67s-.56-.65-.74-1.08c-.18-.43-.26-.94-.26-1.54 0-.69.14-1.29.43-1.79s.65-.93 1.12-1.28c.46-.35.98-.6 1.58-.77.59-.17 1.19-.25 1.8-.25 1.01 0 1.92.1 2.74.3s1.53.61 2.14 1.22l-2.32 2.32c-.31-.31-.7-.51-1.17-.6-.48-.09-.96-.14-1.45-.14-.46 0-.78.08-.96.25-.18.17-.26.32-.26.46l.01.15c.01.07.03.14.08.21.04.07.12.14.23.21.11.07.27.11.48.13l1.91.18c.64.06 1.2.2 1.68.41.47.21.86.49 1.16.83.3.34.52.72.67 1.15.13.43.2.89.2 1.38z"/><path class="st1" d="M524.67 263.42v-1.01c-.38.38-.77.67-1.17.85-.4.18-.93.28-1.59.28-.63 0-1.19-.1-1.69-.29-.5-.19-.92-.46-1.28-.82-.35-.35-.62-.78-.8-1.28-.18-.5-.28-1.04-.28-1.62 0-.46.08-.91.24-1.35.16-.44.41-.82.76-1.15.35-.33.78-.59 1.31-.79s1.16-.3 1.9-.3h2.51v-.33c0-.57-.14-.98-.44-1.21-.29-.23-.77-.35-1.43-.35-.49 0-.87.06-1.13.18-.26.12-.54.34-.85.64l-2.35-2.33c.32-.32.63-.58.94-.79.31-.21.64-.37 1-.5s.75-.22 1.16-.27c.41-.05.88-.08 1.4-.08 1.77 0 3.12.37 4.04 1.1.92.74 1.38 1.86 1.38 3.38v8.03h-3.63zm-.09-4.97h-1.91c-.37 0-.66.09-.88.28-.21.18-.32.42-.32.71 0 .28.1.52.31.72.21.21.52.31.93.31.37 0 .66-.03.86-.08s.42-.18.63-.38c.24-.23.37-.64.37-1.24v-.32z"/><path class="st1" d="M536.89 263.42v-7.41c0-.35-.05-.64-.16-.86-.11-.22-.24-.39-.4-.52-.16-.12-.33-.21-.51-.25s-.33-.07-.45-.07-.27.02-.45.07-.35.13-.51.25c-.16.12-.3.3-.41.52-.11.22-.16.51-.16.86v7.41h-3.75v-12.37h3.67v1.01c.38-.38.83-.67 1.35-.86.52-.19 1.03-.29 1.52-.29.58 0 1.11.09 1.57.28.46.18.87.45 1.21.78.54.54.88 1.1 1.02 1.68.15.58.22 1.2.22 1.86v7.91h-3.76z"/><path class="st1" d="M549.08 263.42v-1c-.38.38-.79.67-1.23.86-.44.19-.98.29-1.63.29-.6 0-1.16-.1-1.7-.3s-.97-.47-1.33-.83c-.31-.31-.54-.66-.69-1.07-.15-.41-.27-.84-.33-1.3s-.11-.93-.12-1.41l-.01-1.41c0-.46 0-.93.01-1.42s.05-.95.12-1.41.18-.89.33-1.3c.15-.41.38-.76.69-1.07.35-.35.79-.63 1.31-.83s1.09-.3 1.69-.3c.62 0 1.14.08 1.58.25.44.17.83.43 1.19.78v-4.89h3.75v16.38h-3.63zm-.12-6.19c0-.45-.02-.85-.05-1.22-.03-.36-.1-.67-.21-.93s-.27-.45-.48-.59c-.21-.14-.49-.21-.85-.21s-.64.07-.85.21c-.21.14-.37.34-.48.59s-.18.56-.21.93c-.03.36-.05.77-.05 1.22s.02.85.05 1.22c.03.36.1.67.21.93.11.26.27.45.48.59.21.14.49.21.85.21s.64-.07.85-.21c.21-.14.37-.34.48-.59.11-.25.18-.56.21-.93s.05-.77.05-1.22z"/><path class="st1" d="M570.93 258.22c-.15.91-.42 1.69-.79 2.36-.38.67-.84 1.22-1.38 1.67-.54.44-1.16.77-1.84.99-.68.21-1.42.32-2.2.32-.97 0-1.82-.16-2.55-.47-.73-.31-1.4-.77-1.99-1.37-.43-.43-.75-.89-.98-1.39-.23-.5-.39-1.02-.49-1.58s-.15-1.12-.16-1.71c-.01-.59-.01-1.19-.01-1.81 0-.61 0-1.21.01-1.8.01-.59.06-1.16.16-1.71s.26-1.08.49-1.58.56-.96.98-1.39c.6-.6 1.26-1.05 1.99-1.37.73-.31 1.58-.47 2.55-.47.78 0 1.51.11 2.2.32.68.21 1.29.54 1.84.99.54.45 1 1 1.38 1.67.38.67.64 1.45.79 2.36h-4.1c-.12-.46-.34-.87-.64-1.22-.31-.35-.79-.53-1.45-.53-.37 0-.69.07-.96.2s-.48.29-.63.49c-.09.12-.18.26-.25.41-.08.15-.14.38-.2.67-.05.29-.1.67-.13 1.14-.03.47-.05 1.08-.05 1.83s.02 1.36.05 1.83c.03.47.07.85.13 1.14.05.29.12.51.2.67.08.15.16.29.25.41.15.2.37.36.63.49.27.13.59.2.96.2.66 0 1.14-.18 1.45-.53.31-.35.52-.76.64-1.22h4.1z"/><path class="st1" d="M577.92 263.42v-1.01c-.38.38-.77.67-1.17.85-.4.18-.93.28-1.59.28-.63 0-1.19-.1-1.69-.29-.5-.19-.92-.46-1.28-.82-.35-.35-.62-.78-.8-1.28-.18-.5-.28-1.04-.28-1.62 0-.46.08-.91.24-1.35.16-.44.41-.82.76-1.15.35-.33.78-.59 1.31-.79s1.16-.3 1.9-.3h2.51v-.33c0-.57-.14-.98-.44-1.21-.29-.23-.77-.35-1.43-.35-.49 0-.87.06-1.13.18-.26.12-.54.34-.85.64l-2.35-2.33c.32-.32.63-.58.94-.79.31-.21.64-.37 1-.5s.75-.22 1.16-.27c.41-.05.88-.08 1.4-.08 1.77 0 3.12.37 4.04 1.1.92.74 1.38 1.86 1.38 3.38v8.03h-3.63zm-.1-4.97h-1.91c-.37 0-.66.09-.88.28-.21.18-.32.42-.32.71 0 .28.1.52.31.72.21.21.52.31.93.31.37 0 .66-.03.86-.08s.42-.18.63-.38c.24-.23.37-.64.37-1.24v-.32z"/><path class="st1" d="M587.42 263.42c-.69 0-1.27-.11-1.75-.33s-.87-.51-1.18-.86c-.3-.35-.53-.74-.68-1.17-.14-.43-.22-.86-.22-1.28v-5.32h-1.13v-2.92h1.13v-3.54h3.75v3.54h1.96v2.92h-1.96v5.06c0 .51.25.76.76.76h1.2v3.15h-1.88z"/><path class="st1" d="M600.29 259.37c0 .74-.14 1.37-.44 1.89-.29.52-.68.96-1.17 1.3s-1.06.6-1.7.76c-.64.16-1.33.24-2.05.24-.46 0-.92-.02-1.38-.05-.46-.03-.92-.1-1.37-.22-.45-.11-.9-.29-1.33-.53-.44-.24-.87-.57-1.3-1l2.44-2.44c.26.26.53.46.82.6s.56.24.84.31.53.11.76.12l.6.01c.14 0 .3-.01.48-.04.18-.02.36-.06.53-.13s.31-.14.43-.24c.12-.1.17-.23.17-.4s-.06-.33-.17-.49-.36-.26-.72-.29l-1.91-.18c-.54-.05-1.02-.15-1.46-.3s-.81-.38-1.13-.67-.56-.65-.74-1.08c-.18-.43-.26-.94-.26-1.54 0-.69.14-1.29.42-1.79.29-.51.66-.93 1.12-1.28.46-.35.98-.6 1.57-.77s1.19-.25 1.81-.25c1.01 0 1.92.1 2.74.3s1.53.61 2.14 1.22l-2.32 2.32c-.31-.31-.7-.51-1.17-.6-.47-.09-.96-.14-1.45-.14-.46 0-.78.08-.95.25-.18.17-.27.32-.27.46l.01.15.08.21c.05.07.12.14.23.21.11.07.27.11.48.13l1.91.18c.64.06 1.2.2 1.68.41.48.21.86.49 1.16.83.3.34.52.72.67 1.15.13.43.2.89.2 1.38z"/><path class="st1" d="M601.31 263.42v-4.12h4.12v4.12h-4.12z"/></svg>