<?xml version="1.0" encoding="utf-8"?>
<!-- Generator: Adobe Illustrator 16.0.0, SVG Export Plug-In . SVG Version: 6.00 Build 0)  -->
<!DOCTYPE svg PUBLIC "-//W3C//DTD SVG 1.1//EN" "http://www.w3.org/Graphics/SVG/1.1/DTD/svg11.dtd">
<svg version="1.1" xmlns="http://www.w3.org/2000/svg" xmlns:xlink="http://www.w3.org/1999/xlink" x="0px" y="0px" width="314px"
	 height="88px" viewBox="0 0 314 88" style="enable-background:new 0 0 314 88;" xml:space="preserve">
<style type="text/css">
<![CDATA[
	.st0{fill:#E0D9AB;}
	.st1{fill:#EFECDE;}
	.st2{fill:#BD4828;}
	.st3{fill:#F8F7F1;}
	.st4{fill-rule:evenodd;clip-rule:evenodd;fill:#BD4828;}
	.st5{fill-rule:evenodd;clip-rule:evenodd;}
	.st6{fill:#FFFFFF;}
	.st7{fill:#CEE9F9;}
	.st8{fill:#6B3414;}
	.st9{fill-rule:evenodd;clip-rule:evenodd;fill:#FFFFFF;}
	.st10{fill-rule:evenodd;clip-rule:evenodd;fill:#6B3414;}
]]>
</style>
<g id="Layer_1">
	<polygon class="st2" points="18.77,15.8 18.77,71.3 296.55,71.3 283.13,44.3 296.09,15.88 268.87,15.88 268.87,15.8 	"/>
	<g>
		<g>
			<path class="st3" d="M53.64,58.36l-1.52-4.89H42l-1.62,4.89h-8.45l11.96-32.88h6.23l11.96,32.88H53.64z M47.22,37.99l-2.96,8.77
				h5.73L47.22,37.99z"/>
			<path class="st3" d="M84.49,45.93c0,0.92-0.01,1.87-0.02,2.84c-0.02,0.97-0.09,1.92-0.23,2.84s-0.36,1.79-0.67,2.61
				c-0.31,0.82-0.77,1.53-1.39,2.15c-0.71,0.71-1.59,1.26-2.66,1.66c-1.06,0.4-2.19,0.6-3.39,0.6c-1.29,0-2.38-0.19-3.26-0.57
				c-0.88-0.38-1.7-0.96-2.47-1.72v2.02h-7.3V25.48h7.53v9.82c0.71-0.7,1.5-1.22,2.38-1.56c0.88-0.34,1.93-0.5,3.16-0.5
				c1.2,0,2.32,0.2,3.37,0.6c1.05,0.4,1.92,0.96,2.63,1.66c0.62,0.62,1.08,1.33,1.39,2.15c0.31,0.82,0.53,1.69,0.67,2.61
				s0.21,1.87,0.23,2.84C84.48,44.06,84.49,45.01,84.49,45.93z M76.96,45.93c0-0.9-0.03-1.71-0.09-2.44
				c-0.06-0.73-0.2-1.35-0.42-1.86c-0.22-0.51-0.54-0.91-0.95-1.19c-0.42-0.28-0.99-0.42-1.7-0.42c-0.71,0-1.28,0.14-1.7,0.42
				s-0.74,0.67-0.95,1.19c-0.22,0.51-0.36,1.13-0.42,1.86c-0.06,0.73-0.09,1.54-0.09,2.44c0,0.9,0.03,1.72,0.09,2.44
				s0.2,1.35,0.42,1.86c0.22,0.51,0.53,0.91,0.95,1.19s0.98,0.42,1.7,0.42c0.71,0,1.28-0.14,1.7-0.42c0.42-0.28,0.74-0.67,0.95-1.19
				c0.22-0.51,0.36-1.13,0.42-1.86S76.96,46.84,76.96,45.93z"/>
			<path class="st3" d="M108.04,45.93c0,1.23-0.05,2.31-0.14,3.23s-0.24,1.75-0.44,2.49c-0.2,0.74-0.48,1.42-0.83,2.03
				c-0.35,0.62-0.79,1.2-1.31,1.75c-0.74,0.8-1.75,1.53-3.04,2.19c-1.29,0.66-2.93,0.99-4.93,0.99c-2,0-3.64-0.33-4.93-0.99
				c-1.29-0.66-2.3-1.39-3.04-2.19c-0.52-0.55-0.96-1.14-1.31-1.75c-0.35-0.62-0.63-1.29-0.83-2.03c-0.2-0.74-0.35-1.57-0.44-2.49
				c-0.09-0.92-0.14-2-0.14-3.23c0-1.2,0.05-2.27,0.14-3.21c0.09-0.94,0.24-1.78,0.44-2.52c0.2-0.74,0.48-1.42,0.83-2.03
				c0.35-0.62,0.79-1.2,1.31-1.75c0.37-0.4,0.81-0.79,1.31-1.15c0.51-0.37,1.08-0.71,1.73-1.02c0.65-0.31,1.37-0.55,2.19-0.74
				c0.81-0.19,1.73-0.28,2.74-0.28c1.01,0,1.93,0.09,2.74,0.28c0.81,0.18,1.54,0.43,2.19,0.74c0.65,0.31,1.22,0.65,1.73,1.02
				c0.51,0.37,0.94,0.75,1.31,1.15c0.52,0.55,0.96,1.14,1.31,1.75c0.35,0.62,0.63,1.29,0.83,2.03c0.2,0.74,0.34,1.58,0.44,2.52
				C107.99,43.66,108.04,44.73,108.04,45.93z M100.51,45.93c0-1.24-0.06-2.3-0.19-3.17c-0.12-0.87-0.43-1.55-0.93-2.05
				c-0.47-0.47-1.15-0.7-2.05-0.7c-0.9,0-1.58,0.23-2.05,0.7c-0.5,0.5-0.81,1.18-0.93,2.05c-0.12,0.87-0.19,1.92-0.19,3.17
				s0.06,2.3,0.19,3.17c0.12,0.87,0.43,1.55,0.93,2.05c0.46,0.47,1.15,0.7,2.05,0.7c0.9,0,1.58-0.23,2.05-0.7
				c0.5-0.5,0.81-1.18,0.93-2.05C100.45,48.23,100.51,47.18,100.51,45.93z"/>
			<path class="st3" d="M124.68,58.36v-2.03c-0.77,0.77-1.67,1.35-2.72,1.73c-1.04,0.38-2.06,0.58-3.04,0.58
				c-1.17,0-2.22-0.18-3.16-0.55c-0.94-0.37-1.74-0.89-2.42-1.57c-1.08-1.08-1.76-2.2-2.05-3.37c-0.29-1.17-0.44-2.42-0.44-3.74
				V33.51h7.53v14.91c0,0.71,0.11,1.29,0.33,1.74s0.49,0.79,0.81,1.04c0.33,0.25,0.67,0.42,1.02,0.51c0.36,0.09,0.66,0.14,0.91,0.14
				s0.55-0.05,0.91-0.14c0.36-0.09,0.7-0.26,1.02-0.51c0.33-0.25,0.6-0.59,0.81-1.04s0.33-1.03,0.33-1.74V33.51h7.53v24.85H124.68z"
				/>
			<path class="st3" d="M144.2,58.36c-1.38,0-2.55-0.22-3.51-0.67c-0.96-0.45-1.75-1.02-2.36-1.73c-0.61-0.71-1.06-1.49-1.35-2.35
				c-0.29-0.86-0.44-1.72-0.44-2.58V40.35h-2.26v-5.87h2.26v-7.11h7.53v7.11h3.93v5.87h-3.93v10.16c0,1.02,0.51,1.52,1.52,1.52h2.4
				v6.33H144.2z"/>
			<path class="st3" d="M183.59,47.92c-0.31,1.82-0.84,3.39-1.59,4.73c-0.75,1.34-1.68,2.46-2.77,3.35
				c-1.09,0.89-2.33,1.56-3.69,1.99c-1.37,0.43-2.84,0.65-4.41,0.65c-1.94,0-3.65-0.31-5.12-0.95c-1.47-0.63-2.81-1.55-4-2.75
				c-0.86-0.86-1.52-1.79-1.98-2.79s-0.79-2.05-0.99-3.16c-0.2-1.11-0.31-2.25-0.32-3.44c-0.02-1.18-0.02-2.39-0.02-3.63
				c0-1.23,0.01-2.44,0.02-3.62c0.02-1.18,0.12-2.33,0.32-3.44c0.2-1.11,0.53-2.16,0.99-3.16s1.12-1.93,1.98-2.79
				c1.19-1.2,2.53-2.12,4-2.75c1.47-0.63,3.18-0.95,5.12-0.95c1.57,0,3.04,0.22,4.41,0.65c1.37,0.43,2.6,1.09,3.69,1.99
				c1.09,0.89,2.02,2.01,2.77,3.35c0.75,1.34,1.29,2.92,1.59,4.73h-8.22c-0.25-0.92-0.68-1.74-1.29-2.45
				c-0.62-0.71-1.59-1.06-2.91-1.06c-0.74,0-1.38,0.13-1.92,0.39c-0.54,0.26-0.96,0.59-1.27,0.99c-0.19,0.25-0.35,0.52-0.51,0.83
				c-0.15,0.31-0.28,0.76-0.39,1.34c-0.11,0.59-0.19,1.35-0.25,2.29c-0.06,0.94-0.09,2.16-0.09,3.67c0,1.51,0.03,2.73,0.09,3.67
				c0.06,0.94,0.15,1.7,0.25,2.29c0.11,0.58,0.24,1.03,0.39,1.34c0.15,0.31,0.32,0.58,0.51,0.83c0.31,0.4,0.73,0.73,1.27,0.99
				c0.54,0.26,1.18,0.39,1.92,0.39c1.32,0,2.29-0.35,2.91-1.06c0.62-0.71,1.05-1.52,1.29-2.45H183.59z"/>
			<path class="st3" d="M197.63,58.36l0-2.03c-0.77,0.77-1.55,1.34-2.35,1.71c-0.8,0.37-1.86,0.55-3.19,0.55
				c-1.26,0-2.39-0.19-3.39-0.58s-1.85-0.93-2.56-1.64c-0.71-0.71-1.25-1.56-1.62-2.56c-0.37-1-0.55-2.08-0.55-3.26
				c0-0.92,0.16-1.82,0.48-2.7c0.32-0.88,0.83-1.65,1.52-2.31c0.69-0.66,1.57-1.19,2.63-1.59c1.06-0.4,2.33-0.6,3.81-0.6h5.03v-0.66
				c0-1.15-0.29-1.96-0.88-2.43c-0.59-0.47-1.54-0.7-2.86-0.7c-0.99,0-1.74,0.12-2.26,0.37c-0.52,0.25-1.09,0.68-1.71,1.29
				l-4.71-4.69c0.65-0.64,1.28-1.17,1.89-1.58c0.62-0.41,1.29-0.75,2.01-1.01c0.72-0.26,1.5-0.44,2.33-0.55
				c0.83-0.11,1.77-0.16,2.82-0.16c3.56,0,6.27,0.74,8.12,2.22s2.78,3.74,2.78,6.79v16.12H197.63z M197.45,48.38h-3.83
				c-0.74,0-1.32,0.18-1.76,0.55s-0.65,0.85-0.65,1.43c0,0.55,0.21,1.04,0.62,1.46c0.42,0.42,1.04,0.62,1.87,0.62
				c0.74,0,1.32-0.05,1.73-0.16c0.42-0.11,0.84-0.36,1.27-0.76c0.49-0.46,0.74-1.29,0.74-2.49V48.38z"/>
			<path class="st3" d="M216.71,58.36c-1.38,0-2.55-0.22-3.51-0.67c-0.96-0.45-1.75-1.02-2.36-1.73c-0.61-0.71-1.06-1.49-1.35-2.35
				c-0.29-0.86-0.44-1.72-0.44-2.58V40.35h-2.26v-5.87h2.26v-7.11h7.53v7.11h3.93v5.87h-3.93v10.16c0,1.02,0.51,1.52,1.52,1.52h2.4
				v6.33H216.71z"/>
		</g>
	</g>
</g>
<g id="Layer_2">
</g>
</svg>
