<?xml version="1.0" encoding="utf-8"?>
<!-- Generator: Adobe Illustrator 16.0.0, SVG Export Plug-In . SVG Version: 6.00 Build 0)  -->
<!DOCTYPE svg PUBLIC "-//W3C//DTD SVG 1.1//EN" "http://www.w3.org/Graphics/SVG/1.1/DTD/svg11.dtd">
<svg version="1.1" xmlns="http://www.w3.org/2000/svg" xmlns:xlink="http://www.w3.org/1999/xlink" x="0px" y="0px" width="314px"
	 height="88px" viewBox="0 0 314 88" style="enable-background:new 0 0 314 88;" xml:space="preserve">
<style type="text/css">
<![CDATA[
	.st0{fill:#E0D9AB;}
	.st1{fill:#EFECDE;}
	.st2{fill:#BD4828;}
	.st3{fill:#F8F7F1;}
	.st4{fill-rule:evenodd;clip-rule:evenodd;fill:#BD4828;}
	.st5{fill-rule:evenodd;clip-rule:evenodd;}
	.st6{fill:#FFFFFF;}
	.st7{fill:#CEE9F9;}
	.st8{fill:#6B3414;}
	.st9{fill-rule:evenodd;clip-rule:evenodd;fill:#FFFFFF;}
	.st10{fill-rule:evenodd;clip-rule:evenodd;fill:#6B3414;}
]]>
</style>
<g id="Layer_1">
	<polygon class="st2" points="17.77,15.81 17.77,71.31 295.55,71.31 282.13,44.31 295.09,15.89 267.87,15.89 267.87,15.81 	"/>
	<g>
		<g>
			<path class="st3" d="M50.98,58.38V45.35h-8.68v13.02h-8.04V25.49h8.04v12.65h8.68V25.49h8.04v32.88H50.98z"/>
			<path class="st3" d="M69.63,48.4c0,1.03,0.38,1.94,1.13,2.73c0.75,0.79,1.84,1.19,3.26,1.19c1.32,0,2.34-0.18,3.05-0.53
				c0.71-0.35,1.4-0.87,2.08-1.55l4.53,4.51c-0.65,0.64-1.29,1.2-1.94,1.67c-0.65,0.47-1.35,0.88-2.1,1.21
				c-0.75,0.34-1.59,0.59-2.52,0.76c-0.92,0.17-1.96,0.25-3.09,0.25c-1.39,0-2.78-0.16-4.17-0.49c-1.4-0.32-2.65-0.94-3.77-1.85
				c-1.12-0.91-2.04-2.19-2.75-3.86s-1.08-3.83-1.08-6.51c0-2.03,0.28-3.83,0.83-5.4s1.33-2.9,2.31-4c0.99-1.09,2.16-1.92,3.52-2.47
				c1.36-0.55,2.85-0.83,4.49-0.83c1.79,0,3.39,0.31,4.79,0.92c1.4,0.62,2.58,1.45,3.52,2.52s1.66,2.31,2.15,3.74
				c0.49,1.43,0.74,2.96,0.74,4.59v3.37H69.63z M77.07,43.41c0-0.31-0.03-0.63-0.09-0.96s-0.17-0.66-0.33-1
				c-0.25-0.53-0.63-0.99-1.16-1.38s-1.24-0.58-2.14-0.58c-0.9,0-1.61,0.19-2.14,0.58c-0.53,0.39-0.91,0.85-1.16,1.38
				c-0.16,0.34-0.26,0.68-0.33,1s-0.09,0.65-0.09,0.96H77.07z"/>
			<path class="st3" d="M99.37,58.38l0-2.03c-0.77,0.77-1.55,1.34-2.35,1.71c-0.8,0.37-1.86,0.55-3.19,0.55
				c-1.26,0-2.39-0.19-3.39-0.58c-1-0.38-1.85-0.93-2.56-1.64c-0.71-0.71-1.25-1.56-1.62-2.56c-0.37-1-0.55-2.09-0.55-3.26
				c0-0.92,0.16-1.82,0.48-2.7c0.32-0.88,0.83-1.65,1.52-2.31s1.57-1.19,2.63-1.59c1.06-0.4,2.33-0.6,3.81-0.6h5.03v-0.65
				c0-1.15-0.29-1.96-0.88-2.43c-0.59-0.47-1.54-0.7-2.86-0.7c-0.99,0-1.74,0.12-2.26,0.37c-0.52,0.25-1.09,0.68-1.71,1.29
				l-4.71-4.69c0.65-0.64,1.28-1.17,1.89-1.58c0.62-0.41,1.29-0.75,2.01-1.01c0.72-0.26,1.5-0.44,2.33-0.55
				c0.83-0.11,1.77-0.16,2.82-0.16c3.56,0,6.27,0.74,8.12,2.22s2.78,3.74,2.78,6.79v16.12H99.37z M99.19,48.4h-3.83
				c-0.74,0-1.32,0.19-1.76,0.55s-0.65,0.85-0.65,1.43c0,0.55,0.21,1.04,0.62,1.46s1.04,0.62,1.87,0.62c0.74,0,1.32-0.05,1.73-0.16
				c0.42-0.11,0.84-0.36,1.27-0.76c0.49-0.46,0.74-1.29,0.74-2.49V48.4z"/>
			<path class="st3" d="M117.66,58.38c-1.38,0-2.55-0.22-3.51-0.67c-0.96-0.45-1.75-1.02-2.36-1.73c-0.61-0.71-1.06-1.49-1.35-2.36
				c-0.29-0.86-0.44-1.72-0.44-2.59V25.49h7.53v25.03c0,1.02,0.51,1.53,1.52,1.53h2.63v6.33H117.66z"/>
			<path class="st3" d="M132.35,58.38c-1.38,0-2.55-0.22-3.51-0.67c-0.96-0.45-1.75-1.02-2.36-1.73c-0.61-0.71-1.06-1.49-1.35-2.35
				c-0.29-0.86-0.44-1.72-0.44-2.58V40.36h-2.26V34.5h2.26v-7.11h7.53v7.11h3.93v5.87h-3.93v10.16c0,1.02,0.51,1.52,1.52,1.52h2.4
				v6.33H132.35z"/>
			<path class="st3" d="M152.44,58.38V43.28c0-0.68-0.11-1.23-0.33-1.64s-0.47-0.74-0.77-0.97c-0.3-0.23-0.61-0.39-0.95-0.48
				c-0.34-0.09-0.64-0.14-0.88-0.14c-0.25,0-0.54,0.05-0.88,0.14c-0.34,0.09-0.66,0.25-0.95,0.48c-0.3,0.23-0.55,0.56-0.77,0.97
				s-0.33,0.96-0.33,1.64v15.09h-7.53V25.49h7.53v10.05c0.8-0.8,1.67-1.38,2.61-1.74c0.94-0.37,1.89-0.55,2.84-0.55
				c1.32,0,2.49,0.23,3.49,0.69c1,0.46,1.83,1.1,2.49,1.92s1.15,1.77,1.48,2.86s0.48,2.27,0.48,3.53v16.12H152.44z"/>
			<path class="st3" d="M174.6,61.33c-0.49,1.39-1.14,2.48-1.94,3.28c-0.74,0.8-1.58,1.35-2.52,1.64c-0.94,0.29-1.96,0.44-3.07,0.44
				h-2.86V59.9h1.62c0.68,0,1.21-0.12,1.59-0.35c0.38-0.23,0.7-0.73,0.95-1.5l0.69-2.08l-8.27-22.44h7.94l4.2,12.89l4.02-12.89h7.94
				L174.6,61.33z"/>
			<path class="st3" d="M218.25,47.94c-0.31,1.82-0.84,3.39-1.59,4.73c-0.75,1.34-1.68,2.46-2.77,3.35
				c-1.09,0.89-2.33,1.55-3.69,1.99c-1.37,0.43-2.84,0.65-4.41,0.65c-1.94,0-3.65-0.32-5.12-0.95s-2.81-1.55-4-2.75
				c-0.86-0.86-1.52-1.79-1.98-2.79s-0.79-2.06-0.99-3.16c-0.2-1.11-0.31-2.26-0.32-3.44c-0.02-1.18-0.02-2.39-0.02-3.62
				s0.01-2.44,0.02-3.62c0.02-1.19,0.12-2.33,0.32-3.44c0.2-1.11,0.53-2.16,0.99-3.16c0.46-1,1.12-1.93,1.98-2.79
				c1.19-1.2,2.53-2.12,4-2.75s3.18-0.95,5.12-0.95c1.57,0,3.04,0.22,4.41,0.65c1.37,0.43,2.6,1.09,3.69,1.99
				c1.09,0.89,2.02,2.01,2.77,3.35c0.75,1.34,1.29,2.92,1.59,4.73h-8.22c-0.25-0.92-0.68-1.74-1.29-2.45
				c-0.62-0.71-1.59-1.06-2.91-1.06c-0.74,0-1.38,0.13-1.92,0.39c-0.54,0.26-0.96,0.59-1.27,0.99c-0.19,0.25-0.35,0.52-0.51,0.83
				c-0.15,0.31-0.28,0.75-0.39,1.34s-0.19,1.35-0.25,2.29c-0.06,0.94-0.09,2.16-0.09,3.67c0,1.51,0.03,2.73,0.09,3.67
				c0.06,0.94,0.15,1.7,0.25,2.29c0.11,0.59,0.24,1.03,0.39,1.34c0.15,0.31,0.32,0.58,0.51,0.83c0.31,0.4,0.73,0.73,1.27,0.99
				c0.54,0.26,1.18,0.39,1.92,0.39c1.32,0,2.29-0.35,2.91-1.06c0.62-0.71,1.05-1.52,1.29-2.45H218.25z"/>
			<path class="st3" d="M232.29,58.38l0-2.03c-0.77,0.77-1.55,1.34-2.35,1.71c-0.8,0.37-1.86,0.55-3.19,0.55
				c-1.26,0-2.39-0.19-3.39-0.58c-1-0.38-1.85-0.93-2.56-1.64c-0.71-0.71-1.25-1.56-1.62-2.56c-0.37-1-0.55-2.09-0.55-3.26
				c0-0.92,0.16-1.82,0.48-2.7c0.32-0.88,0.83-1.65,1.52-2.31s1.57-1.19,2.63-1.59c1.06-0.4,2.33-0.6,3.81-0.6h5.03v-0.65
				c0-1.15-0.29-1.96-0.88-2.43c-0.59-0.47-1.54-0.7-2.86-0.7c-0.99,0-1.74,0.12-2.26,0.37c-0.52,0.25-1.09,0.68-1.71,1.29
				l-4.71-4.69c0.65-0.64,1.28-1.17,1.89-1.58c0.62-0.41,1.29-0.75,2.01-1.01c0.72-0.26,1.5-0.44,2.33-0.55
				c0.83-0.11,1.77-0.16,2.82-0.16c3.56,0,6.27,0.74,8.12,2.22s2.78,3.74,2.78,6.79v16.12H232.29z M232.1,48.4h-3.83
				c-0.74,0-1.32,0.19-1.76,0.55s-0.65,0.85-0.65,1.43c0,0.55,0.21,1.04,0.62,1.46s1.04,0.62,1.87,0.62c0.74,0,1.32-0.05,1.73-0.16
				c0.42-0.11,0.84-0.36,1.27-0.76c0.49-0.46,0.74-1.29,0.74-2.49V48.4z"/>
			<path class="st3" d="M251.36,58.38c-1.38,0-2.55-0.22-3.51-0.67c-0.96-0.45-1.75-1.02-2.36-1.73c-0.61-0.71-1.06-1.49-1.35-2.35
				c-0.29-0.86-0.44-1.72-0.44-2.58V40.36h-2.26V34.5h2.26v-7.11h7.53v7.11h3.93v5.87h-3.93v10.16c0,1.02,0.51,1.52,1.52,1.52h2.4
				v6.33H251.36z"/>
		</g>
	</g>
</g>
<g id="Layer_2">
</g>
</svg>
