<?xml version="1.0" encoding="utf-8"?>
<!-- Generator: Adobe Illustrator 16.0.0, SVG Export Plug-In . SVG Version: 6.00 Build 0)  -->
<!DOCTYPE svg PUBLIC "-//W3C//DTD SVG 1.1//EN" "http://www.w3.org/Graphics/SVG/1.1/DTD/svg11.dtd">
<svg version="1.1" xmlns="http://www.w3.org/2000/svg" xmlns:xlink="http://www.w3.org/1999/xlink" x="0px" y="0px" width="314px"
	 height="88px" viewBox="0 0 314 88" style="enable-background:new 0 0 314 88;" xml:space="preserve">
<style type="text/css">
<![CDATA[
	.st0{fill:#E0D9AB;}
	.st1{fill:#EFECDE;}
	.st2{fill:#BD4828;}
	.st3{fill:#F8F7F1;}
	.st4{fill-rule:evenodd;clip-rule:evenodd;fill:#BD4828;}
	.st5{fill-rule:evenodd;clip-rule:evenodd;}
	.st6{fill:#FFFFFF;}
	.st7{fill:#CEE9F9;}
	.st8{fill:#6B3414;}
	.st9{fill-rule:evenodd;clip-rule:evenodd;fill:#FFFFFF;}
	.st10{fill-rule:evenodd;clip-rule:evenodd;fill:#6B3414;}
]]>
</style>
<g id="Layer_1">
	<polygon class="st2" points="21.85,17.79 21.85,73.29 299.63,73.29 286.21,46.29 299.17,17.87 271.94,17.87 271.94,17.79 	"/>
	<g>
		<g>
			<path class="st3" d="M55.05,60.35V47.32h-8.68v13.02h-8.04V27.46h8.04v12.65h8.68V27.46h8.04v32.88H55.05z"/>
			<path class="st3" d="M87.93,47.92c0,1.23-0.05,2.31-0.14,3.23s-0.24,1.76-0.44,2.49c-0.2,0.74-0.48,1.42-0.83,2.03
				c-0.35,0.62-0.79,1.2-1.31,1.75c-0.74,0.8-1.75,1.53-3.04,2.19c-1.29,0.66-2.93,0.99-4.93,0.99c-2,0-3.64-0.33-4.93-0.99
				c-1.29-0.66-2.3-1.39-3.04-2.19c-0.52-0.55-0.96-1.14-1.31-1.75c-0.35-0.62-0.63-1.29-0.83-2.03c-0.2-0.74-0.35-1.57-0.44-2.49
				c-0.09-0.92-0.14-2-0.14-3.23c0-1.2,0.05-2.27,0.14-3.21c0.09-0.94,0.24-1.78,0.44-2.52c0.2-0.74,0.48-1.42,0.83-2.03
				c0.35-0.62,0.79-1.2,1.31-1.75c0.37-0.4,0.81-0.79,1.31-1.15c0.51-0.37,1.08-0.71,1.73-1.02c0.65-0.31,1.37-0.55,2.19-0.74
				c0.81-0.18,1.73-0.28,2.74-0.28c1.01,0,1.93,0.09,2.74,0.28c0.81,0.19,1.54,0.43,2.19,0.74c0.65,0.31,1.22,0.65,1.73,1.02
				c0.51,0.37,0.94,0.75,1.31,1.15c0.52,0.55,0.96,1.14,1.31,1.75c0.35,0.62,0.63,1.29,0.83,2.03c0.2,0.74,0.34,1.58,0.44,2.52
				S87.93,46.72,87.93,47.92z M80.4,47.92c0-1.24-0.06-2.3-0.19-3.17c-0.12-0.87-0.43-1.55-0.93-2.05c-0.47-0.46-1.15-0.7-2.05-0.7
				c-0.9,0-1.58,0.23-2.05,0.7c-0.5,0.5-0.81,1.18-0.93,2.05c-0.12,0.87-0.19,1.92-0.19,3.17s0.06,2.3,0.19,3.17
				c0.12,0.87,0.43,1.55,0.93,2.05c0.46,0.47,1.15,0.7,2.05,0.7c0.9,0,1.58-0.23,2.05-0.7c0.5-0.5,0.81-1.18,0.93-2.05
				C80.34,50.22,80.4,49.17,80.4,47.92z"/>
			<path class="st3" d="M118.32,60.35V45.44c0-0.71-0.11-1.29-0.33-1.74c-0.22-0.45-0.49-0.79-0.81-1.04
				c-0.33-0.25-0.67-0.42-1.02-0.51c-0.36-0.09-0.66-0.14-0.91-0.14c-0.25,0-0.55,0.05-0.91,0.14c-0.36,0.09-0.7,0.26-1.02,0.51
				c-0.33,0.25-0.6,0.59-0.81,1.04c-0.22,0.45-0.33,1.03-0.33,1.74v14.91h-7.53V45.44c0-0.71-0.11-1.29-0.33-1.74
				c-0.22-0.45-0.49-0.79-0.81-1.04c-0.33-0.25-0.67-0.42-1.02-0.51c-0.36-0.09-0.66-0.14-0.91-0.14s-0.55,0.05-0.91,0.14
				c-0.36,0.09-0.7,0.26-1.02,0.51c-0.33,0.25-0.6,0.59-0.81,1.04c-0.22,0.45-0.33,1.03-0.33,1.74v14.91h-7.53V35.5h7.34l0.05,2.02
				c0.77-0.77,1.68-1.34,2.72-1.72c1.04-0.38,2.06-0.57,3.04-0.57c1.23,0,2.34,0.21,3.34,0.62c1,0.42,1.9,1.08,2.7,2.01
				c1.08-0.95,2.15-1.63,3.23-2.03c1.08-0.4,2.34-0.6,3.78-0.6c1.17,0,2.28,0.18,3.34,0.55c1.06,0.37,1.93,0.89,2.6,1.57
				c1.08,1.08,1.8,2.2,2.17,3.37c0.37,1.17,0.55,2.42,0.55,3.74v15.89H118.32z"/>
			<path class="st3" d="M135.82,50.37c0,1.03,0.38,1.94,1.13,2.73c0.75,0.79,1.84,1.19,3.26,1.19c1.32,0,2.34-0.18,3.05-0.53
				c0.71-0.35,1.4-0.87,2.08-1.55l4.53,4.51c-0.65,0.64-1.29,1.2-1.94,1.67c-0.65,0.47-1.35,0.88-2.1,1.21
				c-0.75,0.34-1.59,0.59-2.52,0.76c-0.92,0.17-1.96,0.25-3.09,0.25c-1.39,0-2.78-0.16-4.17-0.49c-1.4-0.32-2.65-0.94-3.77-1.85
				c-1.12-0.91-2.04-2.19-2.75-3.86s-1.08-3.83-1.08-6.51c0-2.03,0.28-3.83,0.83-5.4s1.33-2.9,2.31-4c0.99-1.09,2.16-1.92,3.52-2.47
				c1.36-0.55,2.85-0.83,4.49-0.83c1.79,0,3.39,0.31,4.79,0.92c1.4,0.62,2.58,1.45,3.52,2.52s1.66,2.31,2.15,3.74
				c0.49,1.43,0.74,2.96,0.74,4.59v3.37H135.82z M143.26,45.38c0-0.31-0.03-0.63-0.09-0.96s-0.17-0.66-0.33-1
				c-0.25-0.53-0.63-0.99-1.16-1.38s-1.24-0.58-2.14-0.58c-0.9,0-1.61,0.19-2.14,0.58c-0.53,0.39-0.91,0.85-1.16,1.38
				c-0.16,0.34-0.26,0.68-0.33,1s-0.09,0.65-0.09,0.96H143.26z"/>
			<path class="st3" d="M186.58,38.04c0,1.36-0.25,2.66-0.74,3.93c-0.49,1.26-1.21,2.39-2.15,3.37c-0.94,0.99-2.11,1.78-3.51,2.38
				c-1.4,0.6-3.01,0.9-4.83,0.9h-4.94v11.73h-8.04V27.46h13c1.81,0,3.42,0.3,4.82,0.9c1.4,0.6,2.57,1.39,3.5,2.38
				c0.94,0.99,1.65,2.11,2.14,3.37C186.33,35.38,186.58,36.69,186.58,38.04z M178.54,38.04c0-0.85-0.31-1.61-0.93-2.28
				s-1.49-1-2.6-1h-4.6v6.56h4.6c1.11,0,1.98-0.33,2.6-1S178.54,38.89,178.54,38.04z"/>
			<path class="st3" d="M200.62,60.35l0-2.03c-0.77,0.77-1.55,1.34-2.35,1.71c-0.8,0.37-1.86,0.55-3.19,0.55
				c-1.26,0-2.39-0.19-3.39-0.58c-1-0.38-1.85-0.93-2.56-1.64c-0.71-0.71-1.25-1.56-1.62-2.56c-0.37-1-0.55-2.09-0.55-3.26
				c0-0.92,0.16-1.82,0.48-2.7c0.32-0.88,0.83-1.65,1.52-2.31s1.57-1.19,2.63-1.59c1.06-0.4,2.33-0.6,3.81-0.6h5.03v-0.65
				c0-1.15-0.29-1.96-0.88-2.43c-0.59-0.47-1.54-0.7-2.86-0.7c-0.99,0-1.74,0.12-2.26,0.37c-0.52,0.25-1.09,0.68-1.71,1.29
				l-4.71-4.69c0.65-0.64,1.28-1.17,1.89-1.58c0.62-0.41,1.29-0.75,2.01-1.01c0.72-0.26,1.5-0.44,2.33-0.55
				c0.83-0.11,1.77-0.16,2.82-0.16c3.56,0,6.27,0.74,8.12,2.22s2.78,3.74,2.78,6.79v16.12H200.62z M200.43,50.37h-3.83
				c-0.74,0-1.32,0.19-1.76,0.55s-0.65,0.85-0.65,1.43c0,0.55,0.21,1.04,0.62,1.46s1.04,0.62,1.87,0.62c0.74,0,1.32-0.05,1.73-0.16
				c0.42-0.11,0.84-0.36,1.27-0.76c0.49-0.46,0.74-1.29,0.74-2.49V50.37z"/>
			<path class="st3" d="M231.65,58.55c0,1.48-0.27,2.83-0.81,4.06c-0.54,1.23-1.3,2.29-2.28,3.19c-0.98,0.89-2.16,1.59-3.55,2.1
				c-1.39,0.51-2.93,0.76-4.63,0.76c-1.94,0-3.66-0.22-5.17-0.66c-1.51-0.44-2.89-1.29-4.16-2.55l4.71-4.69
				c0.58,0.58,1.22,0.99,1.92,1.22c0.69,0.23,1.47,0.35,2.33,0.35c0.8,0,1.46-0.12,1.99-0.37c0.52-0.25,0.93-0.56,1.22-0.93
				c0.29-0.37,0.5-0.78,0.62-1.23s0.19-0.87,0.19-1.28v-1.81c-0.71,0.7-1.48,1.22-2.32,1.56c-0.84,0.34-1.85,0.5-3.02,0.5
				c-2.39,0-4.33-0.74-5.8-2.22c-0.55-0.55-0.99-1.15-1.31-1.8c-0.32-0.65-0.55-1.35-0.69-2.12s-0.22-1.62-0.25-2.54
				c-0.03-0.92-0.05-1.96-0.05-3.09c0-1.14,0.02-2.17,0.05-3.09c0.03-0.92,0.11-1.77,0.25-2.54c0.14-0.77,0.37-1.48,0.69-2.12
				c0.32-0.65,0.76-1.25,1.31-1.8c1.47-1.48,3.42-2.22,5.85-2.22c1.29,0,2.34,0.19,3.15,0.57c0.81,0.38,1.6,0.96,2.37,1.72V35.5
				h7.39V58.55z M224.03,47c0-0.65-0.02-1.27-0.07-1.86c-0.05-0.59-0.17-1.12-0.37-1.58c-0.2-0.47-0.5-0.84-0.9-1.12
				c-0.4-0.28-0.94-0.42-1.62-0.42c-0.71,0-1.25,0.14-1.64,0.42c-0.39,0.28-0.68,0.65-0.88,1.12c-0.2,0.47-0.32,0.99-0.37,1.58
				s-0.07,1.21-0.07,1.86c0,0.65,0.02,1.27,0.07,1.87c0.05,0.59,0.17,1.12,0.37,1.58c0.2,0.47,0.49,0.84,0.88,1.12
				c0.38,0.28,0.93,0.42,1.64,0.42c0.68,0,1.22-0.14,1.62-0.42c0.4-0.28,0.7-0.65,0.9-1.12c0.2-0.47,0.32-0.99,0.37-1.58
				C224.01,48.27,224.03,47.65,224.03,47z"/>
			<path class="st3" d="M241.81,50.37c0,1.03,0.38,1.94,1.13,2.73c0.75,0.79,1.84,1.19,3.26,1.19c1.32,0,2.34-0.18,3.05-0.53
				c0.71-0.35,1.4-0.87,2.08-1.55l4.53,4.51c-0.65,0.64-1.29,1.2-1.94,1.67c-0.65,0.47-1.35,0.88-2.1,1.21
				c-0.75,0.34-1.59,0.59-2.52,0.76c-0.92,0.17-1.96,0.25-3.09,0.25c-1.39,0-2.78-0.16-4.17-0.49c-1.4-0.32-2.65-0.94-3.77-1.85
				c-1.12-0.91-2.04-2.19-2.75-3.86s-1.08-3.83-1.08-6.51c0-2.03,0.28-3.83,0.83-5.4s1.33-2.9,2.31-4c0.99-1.09,2.16-1.92,3.52-2.47
				c1.36-0.55,2.85-0.83,4.49-0.83c1.79,0,3.39,0.31,4.79,0.92c1.4,0.62,2.58,1.45,3.52,2.52s1.66,2.31,2.15,3.74
				c0.49,1.43,0.74,2.96,0.74,4.59v3.37H241.81z M249.25,45.38c0-0.31-0.03-0.63-0.09-0.96s-0.17-0.66-0.33-1
				c-0.25-0.53-0.63-0.99-1.16-1.38s-1.24-0.58-2.14-0.58c-0.9,0-1.61,0.19-2.14,0.58c-0.53,0.39-0.91,0.85-1.16,1.38
				c-0.16,0.34-0.26,0.68-0.33,1s-0.09,0.65-0.09,0.96H249.25z"/>
		</g>
	</g>
</g>
<g id="Layer_2">
</g>
</svg>
